; NON-PLATED HOLES START AT T1
; THROUGH (PLATED) HOLES START AT T100
M48
INCH
T100C0.043307
T101C0.038000
T102C0.015748
T103C0.035000
T104C0.039370
T105C0.031497
T106C0.035050
%
T100
X033197Y010056
X033197Y014056
X033197Y012056
T101
X003197Y016056
X034197Y021056
X003197Y015056
X003197Y017056
T102
X021197Y021056
X011197Y021056
T103
X025197Y007056
X024197Y021056
X028197Y007056
X011197Y023056
X024197Y017056
X024197Y018056
X021197Y018056
X024197Y020056
X021197Y017056
X030197Y017056
X024197Y022056
X021197Y013056
X021197Y009056
X028197Y022056
X018197Y004056
X028197Y018056
X007197Y023056
X028197Y008056
X018197Y008056
X034197Y017056
X025197Y008056
X026197Y014056
X030197Y007056
X030197Y011056
X026197Y018056
T104
X020197Y023056
X032197Y023056
X021197Y006056
X034197Y023056
X021197Y023056
X033197Y023056
X031197Y023056
X020197Y006056
X018197Y023056
X022197Y006056
X019197Y023056
T105
X006197Y025056
X006197Y024072
T106
X015197Y006056
X015197Y015069
X015197Y010062
X015197Y019075
X005183Y009061
X015197Y011064
X005183Y014068
X005183Y010062
X015197Y014068
X005183Y006056
X005183Y011064
X015197Y012065
X015197Y017072
X015197Y013066
X005183Y005055
X005183Y013066
X015197Y007058
X005183Y019075
X005183Y016071
X005183Y018074
X005183Y007058
X015197Y016071
X015197Y008059
X015197Y005055
X005183Y017072
X015197Y018074
X015197Y009061
X005183Y012065
X005183Y015069
X005183Y008059
T00
M30
