G04 MADE WITH FRITZING*
G04 WWW.FRITZING.ORG*
G04 DOUBLE SIDED*
G04 HOLES PLATED*
G04 CONTOUR ON CENTER OF CONTOUR VECTOR*
%ASAXBY*%
%FSLAX23Y23*%
%MOIN*%
%OFA0B0*%
%SFA1.0B1.0*%
%ADD10R,3.937010X2.755910X3.921010X2.739910*%
%ADD11C,0.008000*%
%ADD12R,0.001000X0.001000*%
%LNSILK1*%
G90*
G70*
G54D11*
X4Y2752D02*
X3933Y2752D01*
X3933Y4D01*
X4Y4D01*
X4Y2752D01*
D02*
G54D12*
X3141Y2712D02*
X3144Y2712D01*
X3139Y2711D02*
X3146Y2711D01*
X3138Y2710D02*
X3147Y2710D01*
X2928Y2709D02*
X2936Y2709D01*
X2958Y2709D02*
X2959Y2709D01*
X3138Y2709D02*
X3147Y2709D01*
X3484Y2709D02*
X3495Y2709D01*
X3584Y2709D02*
X3603Y2709D01*
X3628Y2709D02*
X3661Y2709D01*
X3730Y2709D02*
X3731Y2709D01*
X3758Y2709D02*
X3759Y2709D01*
X3780Y2709D02*
X3797Y2709D01*
X2928Y2708D02*
X2936Y2708D01*
X2956Y2708D02*
X2960Y2708D01*
X3138Y2708D02*
X3147Y2708D01*
X3482Y2708D02*
X3496Y2708D01*
X3581Y2708D02*
X3606Y2708D01*
X3628Y2708D02*
X3661Y2708D01*
X3729Y2708D02*
X3733Y2708D01*
X3756Y2708D02*
X3760Y2708D01*
X3779Y2708D02*
X3797Y2708D01*
X2928Y2707D02*
X2937Y2707D01*
X2956Y2707D02*
X2961Y2707D01*
X3138Y2707D02*
X3147Y2707D01*
X3481Y2707D02*
X3497Y2707D01*
X3580Y2707D02*
X3608Y2707D01*
X3628Y2707D02*
X3661Y2707D01*
X3728Y2707D02*
X3733Y2707D01*
X3756Y2707D02*
X3761Y2707D01*
X3778Y2707D02*
X3797Y2707D01*
X2928Y2706D02*
X2937Y2706D01*
X2955Y2706D02*
X2961Y2706D01*
X3087Y2706D02*
X3088Y2706D01*
X3138Y2706D02*
X3147Y2706D01*
X3337Y2706D02*
X3338Y2706D01*
X3481Y2706D02*
X3497Y2706D01*
X3579Y2706D02*
X3609Y2706D01*
X3628Y2706D02*
X3661Y2706D01*
X3728Y2706D02*
X3734Y2706D01*
X3755Y2706D02*
X3761Y2706D01*
X3778Y2706D02*
X3797Y2706D01*
X2928Y2705D02*
X2938Y2705D01*
X2955Y2705D02*
X2961Y2705D01*
X3085Y2705D02*
X3090Y2705D01*
X3138Y2705D02*
X3147Y2705D01*
X3335Y2705D02*
X3340Y2705D01*
X3481Y2705D02*
X3497Y2705D01*
X3579Y2705D02*
X3610Y2705D01*
X3628Y2705D02*
X3661Y2705D01*
X3728Y2705D02*
X3734Y2705D01*
X3755Y2705D02*
X3761Y2705D01*
X3778Y2705D02*
X3797Y2705D01*
X2928Y2704D02*
X2938Y2704D01*
X2955Y2704D02*
X2961Y2704D01*
X3085Y2704D02*
X3090Y2704D01*
X3138Y2704D02*
X3147Y2704D01*
X3335Y2704D02*
X3340Y2704D01*
X3482Y2704D02*
X3497Y2704D01*
X3578Y2704D02*
X3610Y2704D01*
X3628Y2704D02*
X3661Y2704D01*
X3728Y2704D02*
X3734Y2704D01*
X3755Y2704D02*
X3761Y2704D01*
X3778Y2704D02*
X3797Y2704D01*
X2928Y2703D02*
X2939Y2703D01*
X2955Y2703D02*
X2961Y2703D01*
X3085Y2703D02*
X3091Y2703D01*
X3139Y2703D02*
X3146Y2703D01*
X3335Y2703D02*
X3341Y2703D01*
X3482Y2703D02*
X3497Y2703D01*
X3578Y2703D02*
X3611Y2703D01*
X3628Y2703D02*
X3661Y2703D01*
X3728Y2703D02*
X3734Y2703D01*
X3755Y2703D02*
X3761Y2703D01*
X3779Y2703D02*
X3797Y2703D01*
X2928Y2702D02*
X2939Y2702D01*
X2955Y2702D02*
X2961Y2702D01*
X3085Y2702D02*
X3091Y2702D01*
X3335Y2702D02*
X3341Y2702D01*
X3491Y2702D02*
X3497Y2702D01*
X3578Y2702D02*
X3584Y2702D01*
X3604Y2702D02*
X3611Y2702D01*
X3628Y2702D02*
X3634Y2702D01*
X3641Y2702D02*
X3648Y2702D01*
X3655Y2702D02*
X3661Y2702D01*
X3728Y2702D02*
X3734Y2702D01*
X3755Y2702D02*
X3761Y2702D01*
X3791Y2702D02*
X3797Y2702D01*
X2928Y2701D02*
X2940Y2701D01*
X2955Y2701D02*
X2961Y2701D01*
X3085Y2701D02*
X3091Y2701D01*
X3335Y2701D02*
X3341Y2701D01*
X3491Y2701D02*
X3497Y2701D01*
X3578Y2701D02*
X3584Y2701D01*
X3605Y2701D02*
X3611Y2701D01*
X3628Y2701D02*
X3634Y2701D01*
X3641Y2701D02*
X3647Y2701D01*
X3655Y2701D02*
X3661Y2701D01*
X3728Y2701D02*
X3734Y2701D01*
X3755Y2701D02*
X3761Y2701D01*
X3791Y2701D02*
X3797Y2701D01*
X2928Y2700D02*
X2940Y2700D01*
X2955Y2700D02*
X2961Y2700D01*
X3085Y2700D02*
X3091Y2700D01*
X3335Y2700D02*
X3341Y2700D01*
X3491Y2700D02*
X3497Y2700D01*
X3578Y2700D02*
X3584Y2700D01*
X3605Y2700D02*
X3611Y2700D01*
X3628Y2700D02*
X3634Y2700D01*
X3641Y2700D02*
X3647Y2700D01*
X3655Y2700D02*
X3661Y2700D01*
X3728Y2700D02*
X3734Y2700D01*
X3755Y2700D02*
X3761Y2700D01*
X3791Y2700D02*
X3797Y2700D01*
X2928Y2699D02*
X2940Y2699D01*
X2955Y2699D02*
X2961Y2699D01*
X3085Y2699D02*
X3091Y2699D01*
X3335Y2699D02*
X3341Y2699D01*
X3491Y2699D02*
X3497Y2699D01*
X3578Y2699D02*
X3585Y2699D01*
X3605Y2699D02*
X3611Y2699D01*
X3628Y2699D02*
X3634Y2699D01*
X3641Y2699D02*
X3647Y2699D01*
X3655Y2699D02*
X3661Y2699D01*
X3728Y2699D02*
X3734Y2699D01*
X3755Y2699D02*
X3761Y2699D01*
X3791Y2699D02*
X3797Y2699D01*
X2928Y2698D02*
X2941Y2698D01*
X2955Y2698D02*
X2961Y2698D01*
X3085Y2698D02*
X3091Y2698D01*
X3335Y2698D02*
X3341Y2698D01*
X3491Y2698D02*
X3497Y2698D01*
X3578Y2698D02*
X3586Y2698D01*
X3606Y2698D02*
X3611Y2698D01*
X3628Y2698D02*
X3633Y2698D01*
X3641Y2698D02*
X3647Y2698D01*
X3656Y2698D02*
X3661Y2698D01*
X3728Y2698D02*
X3734Y2698D01*
X3755Y2698D02*
X3761Y2698D01*
X3791Y2698D02*
X3797Y2698D01*
X2928Y2697D02*
X2941Y2697D01*
X2955Y2697D02*
X2961Y2697D01*
X3085Y2697D02*
X3091Y2697D01*
X3335Y2697D02*
X3341Y2697D01*
X3491Y2697D02*
X3497Y2697D01*
X3579Y2697D02*
X3587Y2697D01*
X3607Y2697D02*
X3610Y2697D01*
X3629Y2697D02*
X3632Y2697D01*
X3641Y2697D02*
X3647Y2697D01*
X3657Y2697D02*
X3660Y2697D01*
X3728Y2697D02*
X3734Y2697D01*
X3755Y2697D02*
X3761Y2697D01*
X3791Y2697D02*
X3797Y2697D01*
X2928Y2696D02*
X2942Y2696D01*
X2955Y2696D02*
X2961Y2696D01*
X3085Y2696D02*
X3091Y2696D01*
X3335Y2696D02*
X3341Y2696D01*
X3491Y2696D02*
X3497Y2696D01*
X3580Y2696D02*
X3588Y2696D01*
X3641Y2696D02*
X3647Y2696D01*
X3728Y2696D02*
X3734Y2696D01*
X3755Y2696D02*
X3761Y2696D01*
X3791Y2696D02*
X3797Y2696D01*
X2928Y2695D02*
X2942Y2695D01*
X2955Y2695D02*
X2961Y2695D01*
X3085Y2695D02*
X3091Y2695D01*
X3335Y2695D02*
X3341Y2695D01*
X3491Y2695D02*
X3497Y2695D01*
X3580Y2695D02*
X3588Y2695D01*
X3641Y2695D02*
X3647Y2695D01*
X3728Y2695D02*
X3734Y2695D01*
X3755Y2695D02*
X3761Y2695D01*
X3791Y2695D02*
X3797Y2695D01*
X2928Y2694D02*
X2934Y2694D01*
X2936Y2694D02*
X2943Y2694D01*
X2955Y2694D02*
X2961Y2694D01*
X2986Y2694D02*
X3003Y2694D01*
X3030Y2694D02*
X3032Y2694D01*
X3057Y2694D02*
X3059Y2694D01*
X3080Y2694D02*
X3106Y2694D01*
X3133Y2694D02*
X3146Y2694D01*
X3191Y2694D02*
X3209Y2694D01*
X3238Y2694D02*
X3251Y2694D01*
X3280Y2694D02*
X3282Y2694D01*
X3294Y2694D02*
X3303Y2694D01*
X3330Y2694D02*
X3356Y2694D01*
X3380Y2694D02*
X3382Y2694D01*
X3393Y2694D02*
X3404Y2694D01*
X3438Y2694D02*
X3451Y2694D01*
X3491Y2694D02*
X3497Y2694D01*
X3581Y2694D02*
X3589Y2694D01*
X3641Y2694D02*
X3647Y2694D01*
X3728Y2694D02*
X3734Y2694D01*
X3755Y2694D02*
X3761Y2694D01*
X3791Y2694D02*
X3797Y2694D01*
X2928Y2693D02*
X2934Y2693D01*
X2936Y2693D02*
X2943Y2693D01*
X2955Y2693D02*
X2961Y2693D01*
X2985Y2693D02*
X3005Y2693D01*
X3028Y2693D02*
X3033Y2693D01*
X3056Y2693D02*
X3061Y2693D01*
X3078Y2693D02*
X3107Y2693D01*
X3132Y2693D02*
X3147Y2693D01*
X3189Y2693D02*
X3211Y2693D01*
X3235Y2693D02*
X3253Y2693D01*
X3278Y2693D02*
X3283Y2693D01*
X3292Y2693D02*
X3305Y2693D01*
X3328Y2693D02*
X3357Y2693D01*
X3378Y2693D02*
X3383Y2693D01*
X3392Y2693D02*
X3406Y2693D01*
X3435Y2693D02*
X3453Y2693D01*
X3491Y2693D02*
X3497Y2693D01*
X3582Y2693D02*
X3590Y2693D01*
X3641Y2693D02*
X3647Y2693D01*
X3728Y2693D02*
X3734Y2693D01*
X3755Y2693D02*
X3761Y2693D01*
X3791Y2693D02*
X3797Y2693D01*
X2928Y2692D02*
X2934Y2692D01*
X2937Y2692D02*
X2943Y2692D01*
X2955Y2692D02*
X2961Y2692D01*
X2985Y2692D02*
X3007Y2692D01*
X3028Y2692D02*
X3033Y2692D01*
X3055Y2692D02*
X3061Y2692D01*
X3078Y2692D02*
X3108Y2692D01*
X3131Y2692D02*
X3147Y2692D01*
X3187Y2692D02*
X3211Y2692D01*
X3234Y2692D02*
X3255Y2692D01*
X3278Y2692D02*
X3283Y2692D01*
X3290Y2692D02*
X3307Y2692D01*
X3328Y2692D02*
X3358Y2692D01*
X3378Y2692D02*
X3383Y2692D01*
X3391Y2692D02*
X3407Y2692D01*
X3434Y2692D02*
X3455Y2692D01*
X3491Y2692D02*
X3497Y2692D01*
X3583Y2692D02*
X3591Y2692D01*
X3641Y2692D02*
X3647Y2692D01*
X3728Y2692D02*
X3735Y2692D01*
X3754Y2692D02*
X3761Y2692D01*
X3791Y2692D02*
X3797Y2692D01*
X2928Y2691D02*
X2934Y2691D01*
X2937Y2691D02*
X2944Y2691D01*
X2955Y2691D02*
X2961Y2691D01*
X2985Y2691D02*
X3008Y2691D01*
X3028Y2691D02*
X3034Y2691D01*
X3055Y2691D02*
X3061Y2691D01*
X3078Y2691D02*
X3108Y2691D01*
X3131Y2691D02*
X3147Y2691D01*
X3186Y2691D02*
X3211Y2691D01*
X3233Y2691D02*
X3256Y2691D01*
X3278Y2691D02*
X3284Y2691D01*
X3289Y2691D02*
X3308Y2691D01*
X3328Y2691D02*
X3358Y2691D01*
X3378Y2691D02*
X3384Y2691D01*
X3390Y2691D02*
X3408Y2691D01*
X3433Y2691D02*
X3456Y2691D01*
X3491Y2691D02*
X3497Y2691D01*
X3583Y2691D02*
X3591Y2691D01*
X3641Y2691D02*
X3647Y2691D01*
X3729Y2691D02*
X3735Y2691D01*
X3754Y2691D02*
X3760Y2691D01*
X3791Y2691D02*
X3797Y2691D01*
X2928Y2690D02*
X2934Y2690D01*
X2938Y2690D02*
X2944Y2690D01*
X2955Y2690D02*
X2961Y2690D01*
X2985Y2690D02*
X3008Y2690D01*
X3028Y2690D02*
X3034Y2690D01*
X3055Y2690D02*
X3061Y2690D01*
X3078Y2690D02*
X3108Y2690D01*
X3131Y2690D02*
X3147Y2690D01*
X3185Y2690D02*
X3211Y2690D01*
X3232Y2690D02*
X3257Y2690D01*
X3278Y2690D02*
X3284Y2690D01*
X3287Y2690D02*
X3308Y2690D01*
X3328Y2690D02*
X3358Y2690D01*
X3378Y2690D02*
X3384Y2690D01*
X3388Y2690D02*
X3409Y2690D01*
X3432Y2690D02*
X3457Y2690D01*
X3491Y2690D02*
X3497Y2690D01*
X3584Y2690D02*
X3592Y2690D01*
X3641Y2690D02*
X3647Y2690D01*
X3729Y2690D02*
X3735Y2690D01*
X3753Y2690D02*
X3760Y2690D01*
X3791Y2690D02*
X3797Y2690D01*
X2928Y2689D02*
X2934Y2689D01*
X2938Y2689D02*
X2945Y2689D01*
X2955Y2689D02*
X2961Y2689D01*
X2985Y2689D02*
X3009Y2689D01*
X3028Y2689D02*
X3034Y2689D01*
X3055Y2689D02*
X3061Y2689D01*
X3078Y2689D02*
X3107Y2689D01*
X3132Y2689D02*
X3147Y2689D01*
X3184Y2689D02*
X3211Y2689D01*
X3231Y2689D02*
X3258Y2689D01*
X3278Y2689D02*
X3309Y2689D01*
X3328Y2689D02*
X3357Y2689D01*
X3378Y2689D02*
X3384Y2689D01*
X3387Y2689D02*
X3410Y2689D01*
X3431Y2689D02*
X3458Y2689D01*
X3491Y2689D02*
X3497Y2689D01*
X3585Y2689D02*
X3593Y2689D01*
X3641Y2689D02*
X3647Y2689D01*
X3729Y2689D02*
X3736Y2689D01*
X3753Y2689D02*
X3760Y2689D01*
X3791Y2689D02*
X3797Y2689D01*
X2928Y2688D02*
X2934Y2688D01*
X2939Y2688D02*
X2945Y2688D01*
X2955Y2688D02*
X2961Y2688D01*
X2986Y2688D02*
X3010Y2688D01*
X3028Y2688D02*
X3034Y2688D01*
X3055Y2688D02*
X3061Y2688D01*
X3079Y2688D02*
X3106Y2688D01*
X3133Y2688D02*
X3147Y2688D01*
X3183Y2688D02*
X3210Y2688D01*
X3230Y2688D02*
X3259Y2688D01*
X3278Y2688D02*
X3310Y2688D01*
X3329Y2688D02*
X3356Y2688D01*
X3378Y2688D02*
X3384Y2688D01*
X3386Y2688D02*
X3410Y2688D01*
X3430Y2688D02*
X3459Y2688D01*
X3491Y2688D02*
X3497Y2688D01*
X3586Y2688D02*
X3594Y2688D01*
X3641Y2688D02*
X3647Y2688D01*
X3730Y2688D02*
X3736Y2688D01*
X3753Y2688D02*
X3759Y2688D01*
X3791Y2688D02*
X3797Y2688D01*
X2928Y2687D02*
X2934Y2687D01*
X2939Y2687D02*
X2946Y2687D01*
X2955Y2687D02*
X2961Y2687D01*
X3003Y2687D02*
X3010Y2687D01*
X3028Y2687D02*
X3034Y2687D01*
X3055Y2687D02*
X3061Y2687D01*
X3085Y2687D02*
X3091Y2687D01*
X3141Y2687D02*
X3147Y2687D01*
X3182Y2687D02*
X3191Y2687D01*
X3229Y2687D02*
X3238Y2687D01*
X3251Y2687D02*
X3260Y2687D01*
X3278Y2687D02*
X3294Y2687D01*
X3302Y2687D02*
X3310Y2687D01*
X3335Y2687D02*
X3341Y2687D01*
X3378Y2687D02*
X3395Y2687D01*
X3403Y2687D02*
X3411Y2687D01*
X3429Y2687D02*
X3438Y2687D01*
X3451Y2687D02*
X3460Y2687D01*
X3491Y2687D02*
X3497Y2687D01*
X3587Y2687D02*
X3595Y2687D01*
X3641Y2687D02*
X3647Y2687D01*
X3730Y2687D02*
X3737Y2687D01*
X3752Y2687D02*
X3759Y2687D01*
X3791Y2687D02*
X3797Y2687D01*
X2928Y2686D02*
X2934Y2686D01*
X2939Y2686D02*
X2946Y2686D01*
X2955Y2686D02*
X2961Y2686D01*
X3004Y2686D02*
X3010Y2686D01*
X3028Y2686D02*
X3034Y2686D01*
X3055Y2686D02*
X3061Y2686D01*
X3085Y2686D02*
X3091Y2686D01*
X3142Y2686D02*
X3147Y2686D01*
X3181Y2686D02*
X3190Y2686D01*
X3229Y2686D02*
X3237Y2686D01*
X3253Y2686D02*
X3260Y2686D01*
X3278Y2686D02*
X3293Y2686D01*
X3304Y2686D02*
X3310Y2686D01*
X3335Y2686D02*
X3341Y2686D01*
X3378Y2686D02*
X3394Y2686D01*
X3405Y2686D02*
X3411Y2686D01*
X3429Y2686D02*
X3437Y2686D01*
X3453Y2686D02*
X3460Y2686D01*
X3491Y2686D02*
X3497Y2686D01*
X3587Y2686D02*
X3595Y2686D01*
X3641Y2686D02*
X3647Y2686D01*
X3730Y2686D02*
X3737Y2686D01*
X3752Y2686D02*
X3758Y2686D01*
X3791Y2686D02*
X3797Y2686D01*
X2928Y2685D02*
X2934Y2685D01*
X2940Y2685D02*
X2947Y2685D01*
X2955Y2685D02*
X2961Y2685D01*
X3004Y2685D02*
X3010Y2685D01*
X3028Y2685D02*
X3034Y2685D01*
X3055Y2685D02*
X3061Y2685D01*
X3085Y2685D02*
X3091Y2685D01*
X3142Y2685D02*
X3147Y2685D01*
X3180Y2685D02*
X3189Y2685D01*
X3228Y2685D02*
X3235Y2685D01*
X3254Y2685D02*
X3261Y2685D01*
X3278Y2685D02*
X3291Y2685D01*
X3304Y2685D02*
X3310Y2685D01*
X3335Y2685D02*
X3341Y2685D01*
X3378Y2685D02*
X3392Y2685D01*
X3405Y2685D02*
X3411Y2685D01*
X3428Y2685D02*
X3435Y2685D01*
X3454Y2685D02*
X3461Y2685D01*
X3491Y2685D02*
X3497Y2685D01*
X3588Y2685D02*
X3596Y2685D01*
X3641Y2685D02*
X3647Y2685D01*
X3731Y2685D02*
X3737Y2685D01*
X3752Y2685D02*
X3758Y2685D01*
X3791Y2685D02*
X3797Y2685D01*
X2928Y2684D02*
X2934Y2684D01*
X2940Y2684D02*
X2947Y2684D01*
X2955Y2684D02*
X2961Y2684D01*
X3004Y2684D02*
X3010Y2684D01*
X3028Y2684D02*
X3034Y2684D01*
X3055Y2684D02*
X3061Y2684D01*
X3085Y2684D02*
X3091Y2684D01*
X3142Y2684D02*
X3147Y2684D01*
X3179Y2684D02*
X3188Y2684D01*
X3228Y2684D02*
X3235Y2684D01*
X3254Y2684D02*
X3261Y2684D01*
X3278Y2684D02*
X3290Y2684D01*
X3304Y2684D02*
X3310Y2684D01*
X3335Y2684D02*
X3341Y2684D01*
X3378Y2684D02*
X3391Y2684D01*
X3405Y2684D02*
X3411Y2684D01*
X3428Y2684D02*
X3435Y2684D01*
X3454Y2684D02*
X3461Y2684D01*
X3491Y2684D02*
X3497Y2684D01*
X3589Y2684D02*
X3597Y2684D01*
X3641Y2684D02*
X3647Y2684D01*
X3731Y2684D02*
X3738Y2684D01*
X3751Y2684D02*
X3758Y2684D01*
X3791Y2684D02*
X3797Y2684D01*
X2928Y2683D02*
X2934Y2683D01*
X2941Y2683D02*
X2947Y2683D01*
X2955Y2683D02*
X2961Y2683D01*
X3004Y2683D02*
X3010Y2683D01*
X3028Y2683D02*
X3034Y2683D01*
X3055Y2683D02*
X3061Y2683D01*
X3085Y2683D02*
X3091Y2683D01*
X3142Y2683D02*
X3147Y2683D01*
X3179Y2683D02*
X3187Y2683D01*
X3228Y2683D02*
X3234Y2683D01*
X3255Y2683D02*
X3261Y2683D01*
X3278Y2683D02*
X3288Y2683D01*
X3304Y2683D02*
X3310Y2683D01*
X3335Y2683D02*
X3341Y2683D01*
X3378Y2683D02*
X3390Y2683D01*
X3405Y2683D02*
X3411Y2683D01*
X3428Y2683D02*
X3434Y2683D01*
X3455Y2683D02*
X3461Y2683D01*
X3491Y2683D02*
X3497Y2683D01*
X3590Y2683D02*
X3598Y2683D01*
X3641Y2683D02*
X3647Y2683D01*
X3732Y2683D02*
X3738Y2683D01*
X3751Y2683D02*
X3757Y2683D01*
X3791Y2683D02*
X3797Y2683D01*
X2928Y2682D02*
X2934Y2682D01*
X2941Y2682D02*
X2948Y2682D01*
X2955Y2682D02*
X2961Y2682D01*
X3004Y2682D02*
X3010Y2682D01*
X3028Y2682D02*
X3034Y2682D01*
X3055Y2682D02*
X3061Y2682D01*
X3085Y2682D02*
X3091Y2682D01*
X3142Y2682D02*
X3147Y2682D01*
X3178Y2682D02*
X3186Y2682D01*
X3228Y2682D02*
X3234Y2682D01*
X3255Y2682D02*
X3261Y2682D01*
X3278Y2682D02*
X3287Y2682D01*
X3304Y2682D02*
X3310Y2682D01*
X3335Y2682D02*
X3341Y2682D01*
X3378Y2682D02*
X3389Y2682D01*
X3405Y2682D02*
X3411Y2682D01*
X3428Y2682D02*
X3434Y2682D01*
X3455Y2682D02*
X3461Y2682D01*
X3491Y2682D02*
X3497Y2682D01*
X3590Y2682D02*
X3598Y2682D01*
X3641Y2682D02*
X3647Y2682D01*
X3732Y2682D02*
X3739Y2682D01*
X3750Y2682D02*
X3757Y2682D01*
X3791Y2682D02*
X3797Y2682D01*
X2928Y2681D02*
X2934Y2681D01*
X2942Y2681D02*
X2948Y2681D01*
X2955Y2681D02*
X2961Y2681D01*
X3004Y2681D02*
X3010Y2681D01*
X3028Y2681D02*
X3034Y2681D01*
X3055Y2681D02*
X3061Y2681D01*
X3085Y2681D02*
X3091Y2681D01*
X3142Y2681D02*
X3147Y2681D01*
X3178Y2681D02*
X3184Y2681D01*
X3228Y2681D02*
X3234Y2681D01*
X3255Y2681D02*
X3261Y2681D01*
X3278Y2681D02*
X3285Y2681D01*
X3304Y2681D02*
X3310Y2681D01*
X3335Y2681D02*
X3341Y2681D01*
X3378Y2681D02*
X3388Y2681D01*
X3405Y2681D02*
X3411Y2681D01*
X3428Y2681D02*
X3434Y2681D01*
X3455Y2681D02*
X3461Y2681D01*
X3491Y2681D02*
X3497Y2681D01*
X3591Y2681D02*
X3599Y2681D01*
X3641Y2681D02*
X3647Y2681D01*
X3732Y2681D02*
X3739Y2681D01*
X3750Y2681D02*
X3757Y2681D01*
X3791Y2681D02*
X3797Y2681D01*
X2928Y2680D02*
X2934Y2680D01*
X2942Y2680D02*
X2949Y2680D01*
X2955Y2680D02*
X2961Y2680D01*
X3004Y2680D02*
X3011Y2680D01*
X3028Y2680D02*
X3034Y2680D01*
X3055Y2680D02*
X3061Y2680D01*
X3085Y2680D02*
X3091Y2680D01*
X3142Y2680D02*
X3147Y2680D01*
X3178Y2680D02*
X3184Y2680D01*
X3228Y2680D02*
X3234Y2680D01*
X3255Y2680D02*
X3261Y2680D01*
X3278Y2680D02*
X3284Y2680D01*
X3305Y2680D02*
X3311Y2680D01*
X3335Y2680D02*
X3341Y2680D01*
X3378Y2680D02*
X3387Y2680D01*
X3406Y2680D02*
X3410Y2680D01*
X3428Y2680D02*
X3434Y2680D01*
X3455Y2680D02*
X3461Y2680D01*
X3491Y2680D02*
X3497Y2680D01*
X3592Y2680D02*
X3600Y2680D01*
X3641Y2680D02*
X3647Y2680D01*
X3733Y2680D02*
X3739Y2680D01*
X3750Y2680D02*
X3756Y2680D01*
X3791Y2680D02*
X3797Y2680D01*
X2928Y2679D02*
X2934Y2679D01*
X2942Y2679D02*
X2949Y2679D01*
X2955Y2679D02*
X2961Y2679D01*
X2984Y2679D02*
X3011Y2679D01*
X3028Y2679D02*
X3034Y2679D01*
X3055Y2679D02*
X3061Y2679D01*
X3085Y2679D02*
X3091Y2679D01*
X3142Y2679D02*
X3147Y2679D01*
X3178Y2679D02*
X3184Y2679D01*
X3228Y2679D02*
X3234Y2679D01*
X3255Y2679D02*
X3261Y2679D01*
X3278Y2679D02*
X3284Y2679D01*
X3305Y2679D02*
X3311Y2679D01*
X3335Y2679D02*
X3341Y2679D01*
X3378Y2679D02*
X3385Y2679D01*
X3407Y2679D02*
X3409Y2679D01*
X3428Y2679D02*
X3434Y2679D01*
X3455Y2679D02*
X3461Y2679D01*
X3491Y2679D02*
X3497Y2679D01*
X3593Y2679D02*
X3601Y2679D01*
X3641Y2679D02*
X3647Y2679D01*
X3733Y2679D02*
X3740Y2679D01*
X3749Y2679D02*
X3756Y2679D01*
X3791Y2679D02*
X3797Y2679D01*
X3807Y2679D02*
X3810Y2679D01*
X2928Y2678D02*
X2934Y2678D01*
X2943Y2678D02*
X2950Y2678D01*
X2955Y2678D02*
X2961Y2678D01*
X2982Y2678D02*
X3011Y2678D01*
X3028Y2678D02*
X3034Y2678D01*
X3055Y2678D02*
X3061Y2678D01*
X3085Y2678D02*
X3091Y2678D01*
X3142Y2678D02*
X3147Y2678D01*
X3178Y2678D02*
X3184Y2678D01*
X3228Y2678D02*
X3234Y2678D01*
X3255Y2678D02*
X3261Y2678D01*
X3278Y2678D02*
X3284Y2678D01*
X3305Y2678D02*
X3311Y2678D01*
X3335Y2678D02*
X3341Y2678D01*
X3378Y2678D02*
X3384Y2678D01*
X3428Y2678D02*
X3434Y2678D01*
X3455Y2678D02*
X3461Y2678D01*
X3491Y2678D02*
X3497Y2678D01*
X3594Y2678D02*
X3602Y2678D01*
X3641Y2678D02*
X3647Y2678D01*
X3734Y2678D02*
X3740Y2678D01*
X3749Y2678D02*
X3755Y2678D01*
X3791Y2678D02*
X3797Y2678D01*
X3806Y2678D02*
X3811Y2678D01*
X2928Y2677D02*
X2934Y2677D01*
X2943Y2677D02*
X2950Y2677D01*
X2955Y2677D02*
X2961Y2677D01*
X2981Y2677D02*
X3011Y2677D01*
X3028Y2677D02*
X3034Y2677D01*
X3055Y2677D02*
X3061Y2677D01*
X3085Y2677D02*
X3091Y2677D01*
X3142Y2677D02*
X3147Y2677D01*
X3178Y2677D02*
X3184Y2677D01*
X3228Y2677D02*
X3234Y2677D01*
X3255Y2677D02*
X3261Y2677D01*
X3278Y2677D02*
X3284Y2677D01*
X3305Y2677D02*
X3311Y2677D01*
X3335Y2677D02*
X3341Y2677D01*
X3378Y2677D02*
X3384Y2677D01*
X3428Y2677D02*
X3434Y2677D01*
X3455Y2677D02*
X3461Y2677D01*
X3491Y2677D02*
X3497Y2677D01*
X3594Y2677D02*
X3602Y2677D01*
X3641Y2677D02*
X3647Y2677D01*
X3734Y2677D02*
X3741Y2677D01*
X3748Y2677D02*
X3755Y2677D01*
X3791Y2677D02*
X3797Y2677D01*
X3805Y2677D02*
X3811Y2677D01*
X2928Y2676D02*
X2934Y2676D01*
X2944Y2676D02*
X2950Y2676D01*
X2955Y2676D02*
X2961Y2676D01*
X2980Y2676D02*
X3011Y2676D01*
X3028Y2676D02*
X3034Y2676D01*
X3055Y2676D02*
X3061Y2676D01*
X3085Y2676D02*
X3091Y2676D01*
X3142Y2676D02*
X3147Y2676D01*
X3178Y2676D02*
X3184Y2676D01*
X3228Y2676D02*
X3234Y2676D01*
X3255Y2676D02*
X3261Y2676D01*
X3278Y2676D02*
X3284Y2676D01*
X3305Y2676D02*
X3311Y2676D01*
X3335Y2676D02*
X3341Y2676D01*
X3378Y2676D02*
X3384Y2676D01*
X3428Y2676D02*
X3434Y2676D01*
X3455Y2676D02*
X3461Y2676D01*
X3491Y2676D02*
X3497Y2676D01*
X3595Y2676D02*
X3603Y2676D01*
X3641Y2676D02*
X3647Y2676D01*
X3734Y2676D02*
X3741Y2676D01*
X3748Y2676D02*
X3755Y2676D01*
X3791Y2676D02*
X3797Y2676D01*
X3805Y2676D02*
X3811Y2676D01*
X2928Y2675D02*
X2934Y2675D01*
X2944Y2675D02*
X2951Y2675D01*
X2955Y2675D02*
X2961Y2675D01*
X2979Y2675D02*
X3011Y2675D01*
X3028Y2675D02*
X3034Y2675D01*
X3055Y2675D02*
X3061Y2675D01*
X3085Y2675D02*
X3091Y2675D01*
X3142Y2675D02*
X3147Y2675D01*
X3178Y2675D02*
X3184Y2675D01*
X3228Y2675D02*
X3234Y2675D01*
X3255Y2675D02*
X3261Y2675D01*
X3278Y2675D02*
X3284Y2675D01*
X3305Y2675D02*
X3311Y2675D01*
X3335Y2675D02*
X3341Y2675D01*
X3378Y2675D02*
X3384Y2675D01*
X3428Y2675D02*
X3434Y2675D01*
X3455Y2675D02*
X3461Y2675D01*
X3491Y2675D02*
X3497Y2675D01*
X3596Y2675D02*
X3604Y2675D01*
X3641Y2675D02*
X3647Y2675D01*
X3735Y2675D02*
X3741Y2675D01*
X3748Y2675D02*
X3754Y2675D01*
X3791Y2675D02*
X3797Y2675D01*
X3805Y2675D02*
X3811Y2675D01*
X2928Y2674D02*
X2934Y2674D01*
X2945Y2674D02*
X2951Y2674D01*
X2955Y2674D02*
X2961Y2674D01*
X2979Y2674D02*
X3011Y2674D01*
X3028Y2674D02*
X3034Y2674D01*
X3055Y2674D02*
X3061Y2674D01*
X3085Y2674D02*
X3091Y2674D01*
X3142Y2674D02*
X3147Y2674D01*
X3178Y2674D02*
X3184Y2674D01*
X3228Y2674D02*
X3234Y2674D01*
X3255Y2674D02*
X3261Y2674D01*
X3278Y2674D02*
X3284Y2674D01*
X3305Y2674D02*
X3311Y2674D01*
X3335Y2674D02*
X3341Y2674D01*
X3378Y2674D02*
X3384Y2674D01*
X3428Y2674D02*
X3434Y2674D01*
X3455Y2674D02*
X3461Y2674D01*
X3491Y2674D02*
X3497Y2674D01*
X3597Y2674D02*
X3605Y2674D01*
X3641Y2674D02*
X3647Y2674D01*
X3735Y2674D02*
X3742Y2674D01*
X3747Y2674D02*
X3754Y2674D01*
X3791Y2674D02*
X3797Y2674D01*
X3805Y2674D02*
X3811Y2674D01*
X2928Y2673D02*
X2934Y2673D01*
X2945Y2673D02*
X2952Y2673D01*
X2955Y2673D02*
X2961Y2673D01*
X2978Y2673D02*
X3011Y2673D01*
X3028Y2673D02*
X3034Y2673D01*
X3055Y2673D02*
X3061Y2673D01*
X3085Y2673D02*
X3091Y2673D01*
X3142Y2673D02*
X3147Y2673D01*
X3178Y2673D02*
X3184Y2673D01*
X3228Y2673D02*
X3234Y2673D01*
X3255Y2673D02*
X3261Y2673D01*
X3278Y2673D02*
X3284Y2673D01*
X3305Y2673D02*
X3311Y2673D01*
X3335Y2673D02*
X3341Y2673D01*
X3378Y2673D02*
X3384Y2673D01*
X3428Y2673D02*
X3434Y2673D01*
X3455Y2673D02*
X3461Y2673D01*
X3491Y2673D02*
X3497Y2673D01*
X3597Y2673D02*
X3605Y2673D01*
X3641Y2673D02*
X3647Y2673D01*
X3736Y2673D02*
X3742Y2673D01*
X3747Y2673D02*
X3753Y2673D01*
X3791Y2673D02*
X3797Y2673D01*
X3805Y2673D02*
X3811Y2673D01*
X2928Y2672D02*
X2934Y2672D01*
X2946Y2672D02*
X2952Y2672D01*
X2955Y2672D02*
X2961Y2672D01*
X2978Y2672D02*
X2985Y2672D01*
X3003Y2672D02*
X3011Y2672D01*
X3028Y2672D02*
X3034Y2672D01*
X3055Y2672D02*
X3061Y2672D01*
X3085Y2672D02*
X3091Y2672D01*
X3142Y2672D02*
X3147Y2672D01*
X3178Y2672D02*
X3184Y2672D01*
X3228Y2672D02*
X3234Y2672D01*
X3255Y2672D02*
X3261Y2672D01*
X3278Y2672D02*
X3284Y2672D01*
X3305Y2672D02*
X3311Y2672D01*
X3335Y2672D02*
X3341Y2672D01*
X3378Y2672D02*
X3384Y2672D01*
X3428Y2672D02*
X3434Y2672D01*
X3455Y2672D02*
X3461Y2672D01*
X3491Y2672D02*
X3497Y2672D01*
X3598Y2672D02*
X3606Y2672D01*
X3641Y2672D02*
X3647Y2672D01*
X3736Y2672D02*
X3743Y2672D01*
X3746Y2672D02*
X3753Y2672D01*
X3791Y2672D02*
X3797Y2672D01*
X3805Y2672D02*
X3811Y2672D01*
X2928Y2671D02*
X2934Y2671D01*
X2946Y2671D02*
X2953Y2671D01*
X2955Y2671D02*
X2961Y2671D01*
X2978Y2671D02*
X2984Y2671D01*
X3004Y2671D02*
X3011Y2671D01*
X3028Y2671D02*
X3034Y2671D01*
X3055Y2671D02*
X3061Y2671D01*
X3085Y2671D02*
X3091Y2671D01*
X3142Y2671D02*
X3147Y2671D01*
X3178Y2671D02*
X3184Y2671D01*
X3228Y2671D02*
X3234Y2671D01*
X3255Y2671D02*
X3261Y2671D01*
X3278Y2671D02*
X3284Y2671D01*
X3305Y2671D02*
X3311Y2671D01*
X3335Y2671D02*
X3341Y2671D01*
X3378Y2671D02*
X3384Y2671D01*
X3428Y2671D02*
X3434Y2671D01*
X3455Y2671D02*
X3461Y2671D01*
X3491Y2671D02*
X3497Y2671D01*
X3599Y2671D02*
X3607Y2671D01*
X3641Y2671D02*
X3647Y2671D01*
X3736Y2671D02*
X3743Y2671D01*
X3746Y2671D02*
X3753Y2671D01*
X3791Y2671D02*
X3797Y2671D01*
X3805Y2671D02*
X3811Y2671D01*
X2928Y2670D02*
X2934Y2670D01*
X2946Y2670D02*
X2953Y2670D01*
X2955Y2670D02*
X2961Y2670D01*
X2978Y2670D02*
X2984Y2670D01*
X3005Y2670D02*
X3011Y2670D01*
X3028Y2670D02*
X3034Y2670D01*
X3055Y2670D02*
X3061Y2670D01*
X3085Y2670D02*
X3091Y2670D01*
X3142Y2670D02*
X3147Y2670D01*
X3178Y2670D02*
X3184Y2670D01*
X3228Y2670D02*
X3234Y2670D01*
X3255Y2670D02*
X3261Y2670D01*
X3278Y2670D02*
X3284Y2670D01*
X3305Y2670D02*
X3311Y2670D01*
X3335Y2670D02*
X3341Y2670D01*
X3378Y2670D02*
X3384Y2670D01*
X3428Y2670D02*
X3434Y2670D01*
X3455Y2670D02*
X3461Y2670D01*
X3491Y2670D02*
X3497Y2670D01*
X3600Y2670D02*
X3608Y2670D01*
X3641Y2670D02*
X3647Y2670D01*
X3737Y2670D02*
X3743Y2670D01*
X3746Y2670D02*
X3752Y2670D01*
X3791Y2670D02*
X3797Y2670D01*
X3805Y2670D02*
X3811Y2670D01*
X2928Y2669D02*
X2934Y2669D01*
X2947Y2669D02*
X2961Y2669D01*
X2978Y2669D02*
X2984Y2669D01*
X3005Y2669D02*
X3011Y2669D01*
X3028Y2669D02*
X3034Y2669D01*
X3055Y2669D02*
X3061Y2669D01*
X3085Y2669D02*
X3091Y2669D01*
X3142Y2669D02*
X3147Y2669D01*
X3178Y2669D02*
X3184Y2669D01*
X3228Y2669D02*
X3234Y2669D01*
X3255Y2669D02*
X3261Y2669D01*
X3278Y2669D02*
X3284Y2669D01*
X3305Y2669D02*
X3311Y2669D01*
X3335Y2669D02*
X3341Y2669D01*
X3378Y2669D02*
X3384Y2669D01*
X3428Y2669D02*
X3434Y2669D01*
X3455Y2669D02*
X3461Y2669D01*
X3491Y2669D02*
X3497Y2669D01*
X3601Y2669D02*
X3609Y2669D01*
X3641Y2669D02*
X3647Y2669D01*
X3737Y2669D02*
X3752Y2669D01*
X3791Y2669D02*
X3797Y2669D01*
X3805Y2669D02*
X3811Y2669D01*
X2928Y2668D02*
X2934Y2668D01*
X2947Y2668D02*
X2961Y2668D01*
X2978Y2668D02*
X2984Y2668D01*
X3005Y2668D02*
X3011Y2668D01*
X3028Y2668D02*
X3034Y2668D01*
X3053Y2668D02*
X3061Y2668D01*
X3085Y2668D02*
X3091Y2668D01*
X3142Y2668D02*
X3147Y2668D01*
X3178Y2668D02*
X3185Y2668D01*
X3228Y2668D02*
X3234Y2668D01*
X3255Y2668D02*
X3261Y2668D01*
X3278Y2668D02*
X3284Y2668D01*
X3305Y2668D02*
X3311Y2668D01*
X3335Y2668D02*
X3341Y2668D01*
X3378Y2668D02*
X3384Y2668D01*
X3428Y2668D02*
X3434Y2668D01*
X3455Y2668D02*
X3461Y2668D01*
X3491Y2668D02*
X3497Y2668D01*
X3601Y2668D02*
X3609Y2668D01*
X3641Y2668D02*
X3647Y2668D01*
X3737Y2668D02*
X3751Y2668D01*
X3791Y2668D02*
X3797Y2668D01*
X3805Y2668D02*
X3811Y2668D01*
X2928Y2667D02*
X2934Y2667D01*
X2948Y2667D02*
X2961Y2667D01*
X2978Y2667D02*
X2984Y2667D01*
X3005Y2667D02*
X3011Y2667D01*
X3028Y2667D02*
X3034Y2667D01*
X3052Y2667D02*
X3061Y2667D01*
X3085Y2667D02*
X3091Y2667D01*
X3107Y2667D02*
X3110Y2667D01*
X3142Y2667D02*
X3147Y2667D01*
X3178Y2667D02*
X3186Y2667D01*
X3228Y2667D02*
X3234Y2667D01*
X3255Y2667D02*
X3261Y2667D01*
X3278Y2667D02*
X3284Y2667D01*
X3305Y2667D02*
X3311Y2667D01*
X3335Y2667D02*
X3341Y2667D01*
X3357Y2667D02*
X3360Y2667D01*
X3378Y2667D02*
X3384Y2667D01*
X3428Y2667D02*
X3434Y2667D01*
X3455Y2667D02*
X3461Y2667D01*
X3491Y2667D02*
X3497Y2667D01*
X3579Y2667D02*
X3582Y2667D01*
X3602Y2667D02*
X3610Y2667D01*
X3641Y2667D02*
X3647Y2667D01*
X3738Y2667D02*
X3751Y2667D01*
X3791Y2667D02*
X3797Y2667D01*
X3805Y2667D02*
X3811Y2667D01*
X2928Y2666D02*
X2934Y2666D01*
X2948Y2666D02*
X2961Y2666D01*
X2978Y2666D02*
X2984Y2666D01*
X3004Y2666D02*
X3011Y2666D01*
X3028Y2666D02*
X3035Y2666D01*
X3050Y2666D02*
X3061Y2666D01*
X3085Y2666D02*
X3091Y2666D01*
X3106Y2666D02*
X3111Y2666D01*
X3142Y2666D02*
X3147Y2666D01*
X3179Y2666D02*
X3187Y2666D01*
X3228Y2666D02*
X3234Y2666D01*
X3255Y2666D02*
X3261Y2666D01*
X3278Y2666D02*
X3284Y2666D01*
X3305Y2666D02*
X3311Y2666D01*
X3335Y2666D02*
X3341Y2666D01*
X3356Y2666D02*
X3361Y2666D01*
X3378Y2666D02*
X3384Y2666D01*
X3428Y2666D02*
X3434Y2666D01*
X3455Y2666D02*
X3461Y2666D01*
X3491Y2666D02*
X3497Y2666D01*
X3578Y2666D02*
X3583Y2666D01*
X3603Y2666D02*
X3611Y2666D01*
X3641Y2666D02*
X3647Y2666D01*
X3738Y2666D02*
X3751Y2666D01*
X3791Y2666D02*
X3797Y2666D01*
X3805Y2666D02*
X3811Y2666D01*
X2928Y2665D02*
X2934Y2665D01*
X2949Y2665D02*
X2961Y2665D01*
X2978Y2665D02*
X2984Y2665D01*
X3002Y2665D02*
X3011Y2665D01*
X3029Y2665D02*
X3035Y2665D01*
X3049Y2665D02*
X3061Y2665D01*
X3085Y2665D02*
X3091Y2665D01*
X3105Y2665D02*
X3111Y2665D01*
X3142Y2665D02*
X3147Y2665D01*
X3179Y2665D02*
X3188Y2665D01*
X3228Y2665D02*
X3235Y2665D01*
X3254Y2665D02*
X3261Y2665D01*
X3278Y2665D02*
X3284Y2665D01*
X3305Y2665D02*
X3311Y2665D01*
X3335Y2665D02*
X3341Y2665D01*
X3355Y2665D02*
X3361Y2665D01*
X3378Y2665D02*
X3384Y2665D01*
X3428Y2665D02*
X3435Y2665D01*
X3454Y2665D02*
X3461Y2665D01*
X3491Y2665D02*
X3497Y2665D01*
X3578Y2665D02*
X3584Y2665D01*
X3604Y2665D02*
X3611Y2665D01*
X3641Y2665D02*
X3647Y2665D01*
X3739Y2665D02*
X3750Y2665D01*
X3791Y2665D02*
X3797Y2665D01*
X3805Y2665D02*
X3811Y2665D01*
X2928Y2664D02*
X2934Y2664D01*
X2949Y2664D02*
X2961Y2664D01*
X2978Y2664D02*
X2984Y2664D01*
X3001Y2664D02*
X3011Y2664D01*
X3029Y2664D02*
X3035Y2664D01*
X3047Y2664D02*
X3061Y2664D01*
X3085Y2664D02*
X3091Y2664D01*
X3105Y2664D02*
X3111Y2664D01*
X3142Y2664D02*
X3147Y2664D01*
X3180Y2664D02*
X3190Y2664D01*
X3228Y2664D02*
X3236Y2664D01*
X3253Y2664D02*
X3261Y2664D01*
X3278Y2664D02*
X3284Y2664D01*
X3305Y2664D02*
X3311Y2664D01*
X3335Y2664D02*
X3341Y2664D01*
X3355Y2664D02*
X3361Y2664D01*
X3378Y2664D02*
X3384Y2664D01*
X3428Y2664D02*
X3436Y2664D01*
X3453Y2664D02*
X3461Y2664D01*
X3491Y2664D02*
X3497Y2664D01*
X3578Y2664D02*
X3584Y2664D01*
X3604Y2664D02*
X3611Y2664D01*
X3641Y2664D02*
X3647Y2664D01*
X3739Y2664D02*
X3750Y2664D01*
X3791Y2664D02*
X3797Y2664D01*
X3805Y2664D02*
X3811Y2664D01*
X2928Y2663D02*
X2934Y2663D01*
X2949Y2663D02*
X2961Y2663D01*
X2978Y2663D02*
X2985Y2663D01*
X2999Y2663D02*
X3011Y2663D01*
X3029Y2663D02*
X3036Y2663D01*
X3045Y2663D02*
X3061Y2663D01*
X3085Y2663D02*
X3092Y2663D01*
X3104Y2663D02*
X3111Y2663D01*
X3142Y2663D02*
X3147Y2663D01*
X3181Y2663D02*
X3191Y2663D01*
X3229Y2663D02*
X3237Y2663D01*
X3252Y2663D02*
X3260Y2663D01*
X3278Y2663D02*
X3284Y2663D01*
X3305Y2663D02*
X3311Y2663D01*
X3335Y2663D02*
X3342Y2663D01*
X3354Y2663D02*
X3361Y2663D01*
X3378Y2663D02*
X3384Y2663D01*
X3429Y2663D02*
X3437Y2663D01*
X3452Y2663D02*
X3460Y2663D01*
X3491Y2663D02*
X3497Y2663D01*
X3578Y2663D02*
X3584Y2663D01*
X3605Y2663D02*
X3611Y2663D01*
X3641Y2663D02*
X3647Y2663D01*
X3739Y2663D02*
X3749Y2663D01*
X3791Y2663D02*
X3797Y2663D01*
X3805Y2663D02*
X3811Y2663D01*
X2928Y2662D02*
X2934Y2662D01*
X2950Y2662D02*
X2961Y2662D01*
X2978Y2662D02*
X3011Y2662D01*
X3029Y2662D02*
X3061Y2662D01*
X3085Y2662D02*
X3111Y2662D01*
X3135Y2662D02*
X3154Y2662D01*
X3182Y2662D02*
X3208Y2662D01*
X3229Y2662D02*
X3260Y2662D01*
X3278Y2662D02*
X3284Y2662D01*
X3305Y2662D02*
X3311Y2662D01*
X3335Y2662D02*
X3361Y2662D01*
X3378Y2662D02*
X3384Y2662D01*
X3429Y2662D02*
X3460Y2662D01*
X3485Y2662D02*
X3504Y2662D01*
X3578Y2662D02*
X3611Y2662D01*
X3641Y2662D02*
X3647Y2662D01*
X3740Y2662D02*
X3749Y2662D01*
X3781Y2662D02*
X3811Y2662D01*
X2928Y2661D02*
X2934Y2661D01*
X2950Y2661D02*
X2961Y2661D01*
X2979Y2661D02*
X3011Y2661D01*
X3030Y2661D02*
X3061Y2661D01*
X3086Y2661D02*
X3110Y2661D01*
X3132Y2661D02*
X3157Y2661D01*
X3183Y2661D02*
X3210Y2661D01*
X3230Y2661D02*
X3259Y2661D01*
X3278Y2661D02*
X3284Y2661D01*
X3305Y2661D02*
X3311Y2661D01*
X3336Y2661D02*
X3360Y2661D01*
X3378Y2661D02*
X3384Y2661D01*
X3430Y2661D02*
X3459Y2661D01*
X3482Y2661D02*
X3507Y2661D01*
X3578Y2661D02*
X3611Y2661D01*
X3641Y2661D02*
X3647Y2661D01*
X3740Y2661D02*
X3749Y2661D01*
X3779Y2661D02*
X3811Y2661D01*
X2928Y2660D02*
X2934Y2660D01*
X2951Y2660D02*
X2961Y2660D01*
X2979Y2660D02*
X3011Y2660D01*
X3030Y2660D02*
X3053Y2660D01*
X3055Y2660D02*
X3061Y2660D01*
X3086Y2660D02*
X3110Y2660D01*
X3131Y2660D02*
X3157Y2660D01*
X3184Y2660D02*
X3211Y2660D01*
X3231Y2660D02*
X3258Y2660D01*
X3278Y2660D02*
X3284Y2660D01*
X3305Y2660D02*
X3311Y2660D01*
X3336Y2660D02*
X3360Y2660D01*
X3378Y2660D02*
X3384Y2660D01*
X3431Y2660D02*
X3458Y2660D01*
X3481Y2660D02*
X3507Y2660D01*
X3579Y2660D02*
X3611Y2660D01*
X3641Y2660D02*
X3647Y2660D01*
X3741Y2660D02*
X3748Y2660D01*
X3778Y2660D02*
X3811Y2660D01*
X2928Y2659D02*
X2934Y2659D01*
X2951Y2659D02*
X2961Y2659D01*
X2980Y2659D02*
X3011Y2659D01*
X3031Y2659D02*
X3051Y2659D01*
X3055Y2659D02*
X3061Y2659D01*
X3087Y2659D02*
X3109Y2659D01*
X3131Y2659D02*
X3158Y2659D01*
X3186Y2659D02*
X3211Y2659D01*
X3232Y2659D02*
X3257Y2659D01*
X3278Y2659D02*
X3284Y2659D01*
X3305Y2659D02*
X3311Y2659D01*
X3337Y2659D02*
X3359Y2659D01*
X3378Y2659D02*
X3384Y2659D01*
X3432Y2659D02*
X3457Y2659D01*
X3481Y2659D02*
X3508Y2659D01*
X3579Y2659D02*
X3610Y2659D01*
X3641Y2659D02*
X3647Y2659D01*
X3741Y2659D02*
X3748Y2659D01*
X3778Y2659D02*
X3811Y2659D01*
X2928Y2658D02*
X2934Y2658D01*
X2952Y2658D02*
X2961Y2658D01*
X2981Y2658D02*
X3003Y2658D01*
X3005Y2658D02*
X3011Y2658D01*
X3032Y2658D02*
X3050Y2658D01*
X3055Y2658D02*
X3061Y2658D01*
X3088Y2658D02*
X3108Y2658D01*
X3131Y2658D02*
X3158Y2658D01*
X3187Y2658D02*
X3211Y2658D01*
X3233Y2658D02*
X3256Y2658D01*
X3278Y2658D02*
X3284Y2658D01*
X3305Y2658D02*
X3311Y2658D01*
X3338Y2658D02*
X3358Y2658D01*
X3378Y2658D02*
X3384Y2658D01*
X3433Y2658D02*
X3456Y2658D01*
X3481Y2658D02*
X3508Y2658D01*
X3580Y2658D02*
X3609Y2658D01*
X3642Y2658D02*
X3647Y2658D01*
X3741Y2658D02*
X3748Y2658D01*
X3778Y2658D02*
X3811Y2658D01*
X2928Y2657D02*
X2933Y2657D01*
X2952Y2657D02*
X2961Y2657D01*
X2982Y2657D02*
X3002Y2657D01*
X3006Y2657D02*
X3011Y2657D01*
X3033Y2657D02*
X3048Y2657D01*
X3056Y2657D02*
X3061Y2657D01*
X3089Y2657D02*
X3107Y2657D01*
X3132Y2657D02*
X3157Y2657D01*
X3188Y2657D02*
X3211Y2657D01*
X3235Y2657D02*
X3254Y2657D01*
X3278Y2657D02*
X3283Y2657D01*
X3306Y2657D02*
X3311Y2657D01*
X3339Y2657D02*
X3357Y2657D01*
X3378Y2657D02*
X3383Y2657D01*
X3435Y2657D02*
X3454Y2657D01*
X3482Y2657D02*
X3507Y2657D01*
X3581Y2657D02*
X3608Y2657D01*
X3642Y2657D02*
X3647Y2657D01*
X3742Y2657D02*
X3747Y2657D01*
X3778Y2657D02*
X3811Y2657D01*
X2929Y2656D02*
X2933Y2656D01*
X2953Y2656D02*
X2961Y2656D01*
X2984Y2656D02*
X3000Y2656D01*
X3006Y2656D02*
X3010Y2656D01*
X3035Y2656D02*
X3046Y2656D01*
X3056Y2656D02*
X3060Y2656D01*
X3091Y2656D02*
X3105Y2656D01*
X3132Y2656D02*
X3157Y2656D01*
X3190Y2656D02*
X3210Y2656D01*
X3236Y2656D02*
X3253Y2656D01*
X3279Y2656D02*
X3283Y2656D01*
X3306Y2656D02*
X3310Y2656D01*
X3341Y2656D02*
X3355Y2656D01*
X3379Y2656D02*
X3383Y2656D01*
X3436Y2656D02*
X3453Y2656D01*
X3482Y2656D02*
X3507Y2656D01*
X3583Y2656D02*
X3607Y2656D01*
X3643Y2656D02*
X3646Y2656D01*
X3742Y2656D02*
X3746Y2656D01*
X3779Y2656D02*
X3810Y2656D01*
D02*
G04 End of Silk1*
M02*