G04 MADE WITH FRITZING*
G04 WWW.FRITZING.ORG*
G04 DOUBLE SIDED*
G04 HOLES PLATED*
G04 CONTOUR ON CENTER OF CONTOUR VECTOR*
%ASAXBY*%
%FSLAX23Y23*%
%MOIN*%
%OFA0B0*%
%SFA1.0B1.0*%
%ADD10C,0.074000*%
%ADD11C,0.078000*%
%ADD12C,0.075000*%
%ADD13C,0.083307*%
%ADD14C,0.079370*%
%ADD15C,0.062992*%
%ADD16C,0.074106*%
%ADD17R,0.075000X0.075000*%
%ADD18R,0.062992X0.062992*%
%ADD19C,0.024000*%
%ADD20C,0.032000*%
%ADD21R,0.001000X0.001000*%
%LNCOPPER1*%
G90*
G70*
G54D10*
X2220Y606D03*
X2120Y606D03*
X2020Y606D03*
X2220Y606D03*
X2120Y606D03*
X2020Y606D03*
X2220Y606D03*
X2120Y606D03*
X2020Y606D03*
G54D11*
X320Y1706D03*
X320Y1606D03*
X320Y1506D03*
X320Y1706D03*
X320Y1606D03*
X320Y1506D03*
G54D12*
X2420Y2206D03*
X2420Y2106D03*
X2420Y2006D03*
X2420Y2206D03*
X2420Y2106D03*
X2420Y2006D03*
G54D11*
X3420Y2106D03*
X3420Y2106D03*
G54D12*
X2820Y1806D03*
X2820Y2206D03*
X2820Y1806D03*
X2820Y2206D03*
X3020Y706D03*
X3020Y1106D03*
X3020Y706D03*
X3020Y1106D03*
X2620Y1406D03*
X2620Y1806D03*
X2620Y1406D03*
X2620Y1806D03*
X1120Y2306D03*
X720Y2306D03*
X1120Y2306D03*
X720Y2306D03*
X3420Y1706D03*
X3020Y1706D03*
X3420Y1706D03*
X3020Y1706D03*
X2420Y1806D03*
X2120Y1806D03*
X2420Y1706D03*
X2120Y1706D03*
X2420Y1806D03*
X2120Y1806D03*
X2420Y1706D03*
X2120Y1706D03*
X2120Y906D03*
X2120Y1306D03*
X2120Y906D03*
X2120Y1306D03*
X1820Y406D03*
X1820Y806D03*
X1820Y406D03*
X1820Y806D03*
G54D13*
X3320Y1406D03*
X3320Y1206D03*
X3320Y1006D03*
X3320Y1406D03*
X3320Y1206D03*
X3320Y1006D03*
G54D14*
X2120Y2306D03*
X2020Y2306D03*
X1920Y2306D03*
X1820Y2306D03*
X2120Y2306D03*
X2020Y2306D03*
X1920Y2306D03*
X1820Y2306D03*
X3420Y2306D03*
X3320Y2306D03*
X3220Y2306D03*
X3120Y2306D03*
X3420Y2306D03*
X3320Y2306D03*
X3220Y2306D03*
X3120Y2306D03*
G54D15*
X620Y2407D03*
X620Y2506D03*
X620Y2407D03*
X620Y2506D03*
G54D12*
X2520Y706D03*
X2820Y706D03*
X2520Y806D03*
X2820Y806D03*
X2520Y706D03*
X2820Y706D03*
X2520Y806D03*
X2820Y806D03*
G54D16*
X518Y506D03*
X518Y606D03*
X518Y706D03*
X518Y806D03*
X518Y906D03*
X518Y1006D03*
X518Y1106D03*
X518Y1207D03*
X518Y1307D03*
X518Y1407D03*
X518Y1507D03*
X518Y1607D03*
X518Y1707D03*
X518Y1807D03*
X518Y1908D03*
X1520Y506D03*
X1520Y606D03*
X1520Y706D03*
X1520Y806D03*
X1520Y906D03*
X1520Y1006D03*
X1520Y1106D03*
X1520Y1207D03*
X1520Y1307D03*
X1520Y1407D03*
X1520Y1507D03*
X1520Y1607D03*
X1520Y1707D03*
X1520Y1807D03*
X1520Y1908D03*
X518Y506D03*
X518Y606D03*
X518Y706D03*
X518Y806D03*
X518Y906D03*
X518Y1006D03*
X518Y1106D03*
X518Y1207D03*
X518Y1307D03*
X518Y1407D03*
X518Y1507D03*
X518Y1607D03*
X518Y1707D03*
X518Y1807D03*
X518Y1908D03*
X1520Y506D03*
X1520Y606D03*
X1520Y706D03*
X1520Y806D03*
X1520Y906D03*
X1520Y1006D03*
X1520Y1106D03*
X1520Y1207D03*
X1520Y1307D03*
X1520Y1407D03*
X1520Y1507D03*
X1520Y1607D03*
X1520Y1707D03*
X1520Y1807D03*
X1520Y1908D03*
G54D17*
X2420Y1806D03*
X2420Y1806D03*
G54D18*
X620Y2407D03*
X620Y2407D03*
G54D17*
X2520Y706D03*
X2520Y706D03*
G54D19*
X320Y606D02*
X501Y606D01*
D02*
X320Y1487D02*
X320Y606D01*
D02*
X3120Y2325D02*
X3120Y2506D01*
D02*
X3120Y2506D02*
X3616Y2504D01*
D02*
X3616Y2504D02*
X3616Y407D01*
D02*
X3616Y407D02*
X2022Y405D01*
D02*
X2022Y405D02*
X2020Y586D01*
D02*
X1120Y406D02*
X1802Y406D01*
D02*
X1120Y406D02*
X520Y406D01*
D02*
X520Y406D02*
X519Y488D01*
D02*
X1723Y1302D02*
X1537Y1306D01*
D02*
X1720Y706D02*
X1723Y1302D01*
D02*
X1920Y706D02*
X1720Y706D01*
D02*
X1920Y1306D02*
X1920Y706D01*
D02*
X2102Y1306D02*
X1920Y1306D01*
D02*
X1821Y1809D02*
X1817Y1409D01*
D02*
X1817Y1409D02*
X1820Y823D01*
D02*
X1817Y1409D02*
X1537Y1407D01*
D02*
X2102Y1806D02*
X1821Y1809D01*
D02*
X1621Y2003D02*
X1621Y1607D01*
D02*
X1621Y1607D02*
X1537Y1607D01*
D02*
X1923Y2003D02*
X1621Y2003D01*
D02*
X1920Y2286D02*
X1923Y2003D01*
D02*
X3021Y2207D02*
X3216Y2207D01*
D02*
X3216Y2207D02*
X3219Y2286D01*
D02*
X3020Y2506D02*
X3021Y2207D01*
D02*
X2820Y2506D02*
X3020Y2506D01*
D02*
X2420Y2506D02*
X2820Y2506D01*
D02*
X2820Y2506D02*
X2820Y2223D01*
D02*
X2219Y2506D02*
X2420Y2506D01*
D02*
X2420Y2506D02*
X2420Y2223D01*
D02*
X1822Y2506D02*
X2219Y2506D01*
D02*
X2219Y2506D02*
X2219Y1707D01*
D02*
X1316Y2504D02*
X1822Y2506D01*
D02*
X2219Y1707D02*
X2222Y804D01*
D02*
X2219Y1707D02*
X2137Y1706D01*
D02*
X1820Y2325D02*
X1822Y2506D01*
D02*
X1320Y2306D02*
X1316Y2504D01*
D02*
X2222Y804D02*
X2502Y806D01*
D02*
X1316Y2504D02*
X636Y2506D01*
D02*
X1316Y604D02*
X1320Y2306D01*
D02*
X1502Y606D02*
X1316Y604D01*
D02*
X2437Y2106D02*
X2719Y2106D01*
D02*
X2719Y2106D02*
X2723Y1808D01*
D02*
X2723Y1808D02*
X2719Y1707D01*
D02*
X2719Y1707D02*
X3002Y1706D01*
D02*
X2723Y1808D02*
X2802Y1806D01*
D02*
X2621Y605D02*
X2239Y606D01*
D02*
X2620Y1406D02*
X2621Y605D01*
D02*
X2621Y605D02*
X3020Y605D01*
D02*
X2620Y1406D02*
X3298Y1406D01*
D02*
X3020Y605D02*
X3020Y688D01*
D02*
X3320Y984D02*
X3320Y508D01*
D02*
X3320Y508D02*
X2122Y505D01*
D02*
X2122Y505D02*
X2120Y586D01*
D02*
X3020Y1203D02*
X2719Y1207D01*
D02*
X2720Y1207D02*
X2721Y705D01*
D02*
X3298Y1206D02*
X3020Y1203D01*
D02*
X3020Y1203D02*
X3020Y1123D01*
D02*
X2721Y705D02*
X2802Y705D01*
D02*
X3522Y1007D02*
X3341Y1006D01*
D02*
X3522Y1007D02*
X3522Y2005D01*
D02*
X3522Y2005D02*
X3320Y2006D01*
D02*
X3320Y2006D02*
X3320Y2286D01*
D02*
X3298Y1006D02*
X2820Y1004D01*
D02*
X2820Y1004D02*
X2820Y823D01*
D02*
X2122Y705D02*
X2120Y888D01*
D02*
X2502Y706D02*
X2122Y705D01*
D02*
X2000Y606D02*
X1720Y606D01*
D02*
X1720Y606D02*
X1720Y506D01*
D02*
X1720Y506D02*
X1537Y506D01*
D02*
X339Y1706D02*
X501Y1707D01*
D02*
X339Y1606D02*
X501Y1607D01*
D02*
X2320Y1707D02*
X2402Y1706D01*
D02*
X2320Y2004D02*
X2320Y1707D01*
D02*
X2320Y2004D02*
X2402Y2005D01*
G54D20*
D02*
X3420Y2125D02*
X3420Y2286D01*
G54D19*
D02*
X2437Y1806D02*
X2602Y1806D01*
D02*
X620Y2306D02*
X620Y2392D01*
D02*
X702Y2306D02*
X620Y2306D01*
D02*
X3420Y1688D02*
X3421Y1202D01*
D02*
X3421Y1202D02*
X3341Y1205D01*
G54D21*
X514Y1944D02*
X523Y1944D01*
X1516Y1944D02*
X1525Y1944D01*
X510Y1943D02*
X528Y1943D01*
X1511Y1943D02*
X1529Y1943D01*
X507Y1942D02*
X531Y1942D01*
X1508Y1942D02*
X1532Y1942D01*
X504Y1941D02*
X534Y1941D01*
X1506Y1941D02*
X1535Y1941D01*
X502Y1940D02*
X536Y1940D01*
X1504Y1940D02*
X1537Y1940D01*
X500Y1939D02*
X537Y1939D01*
X1502Y1939D02*
X1539Y1939D01*
X499Y1938D02*
X539Y1938D01*
X1500Y1938D02*
X1541Y1938D01*
X497Y1937D02*
X540Y1937D01*
X1499Y1937D02*
X1542Y1937D01*
X496Y1936D02*
X542Y1936D01*
X1497Y1936D02*
X1543Y1936D01*
X495Y1935D02*
X543Y1935D01*
X1496Y1935D02*
X1544Y1935D01*
X494Y1934D02*
X544Y1934D01*
X1495Y1934D02*
X1546Y1934D01*
X493Y1933D02*
X545Y1933D01*
X1494Y1933D02*
X1547Y1933D01*
X492Y1932D02*
X546Y1932D01*
X1493Y1932D02*
X1547Y1932D01*
X491Y1931D02*
X547Y1931D01*
X1492Y1931D02*
X1548Y1931D01*
X490Y1930D02*
X548Y1930D01*
X1492Y1930D02*
X1549Y1930D01*
X489Y1929D02*
X548Y1929D01*
X1491Y1929D02*
X1550Y1929D01*
X489Y1928D02*
X549Y1928D01*
X1490Y1928D02*
X1550Y1928D01*
X488Y1927D02*
X550Y1927D01*
X1490Y1927D02*
X1551Y1927D01*
X487Y1926D02*
X550Y1926D01*
X1489Y1926D02*
X1552Y1926D01*
X487Y1925D02*
X551Y1925D01*
X1488Y1925D02*
X1552Y1925D01*
X486Y1924D02*
X512Y1924D01*
X525Y1924D02*
X551Y1924D01*
X1488Y1924D02*
X1514Y1924D01*
X1527Y1924D02*
X1553Y1924D01*
X486Y1923D02*
X510Y1923D01*
X528Y1923D02*
X552Y1923D01*
X1487Y1923D02*
X1512Y1923D01*
X1529Y1923D02*
X1553Y1923D01*
X485Y1922D02*
X508Y1922D01*
X529Y1922D02*
X552Y1922D01*
X1487Y1922D02*
X1510Y1922D01*
X1531Y1922D02*
X1554Y1922D01*
X485Y1921D02*
X507Y1921D01*
X530Y1921D02*
X553Y1921D01*
X1487Y1921D02*
X1509Y1921D01*
X1532Y1921D02*
X1554Y1921D01*
X485Y1920D02*
X506Y1920D01*
X532Y1920D02*
X553Y1920D01*
X1486Y1920D02*
X1508Y1920D01*
X1533Y1920D02*
X1554Y1920D01*
X484Y1919D02*
X505Y1919D01*
X532Y1919D02*
X553Y1919D01*
X1486Y1919D02*
X1507Y1919D01*
X1534Y1919D02*
X1555Y1919D01*
X484Y1918D02*
X504Y1918D01*
X533Y1918D02*
X554Y1918D01*
X1485Y1918D02*
X1506Y1918D01*
X1535Y1918D02*
X1555Y1918D01*
X484Y1917D02*
X504Y1917D01*
X534Y1917D02*
X554Y1917D01*
X1485Y1917D02*
X1505Y1917D01*
X1536Y1917D02*
X1555Y1917D01*
X483Y1916D02*
X503Y1916D01*
X535Y1916D02*
X554Y1916D01*
X1485Y1916D02*
X1504Y1916D01*
X1536Y1916D02*
X1556Y1916D01*
X483Y1915D02*
X502Y1915D01*
X535Y1915D02*
X554Y1915D01*
X1485Y1915D02*
X1504Y1915D01*
X1537Y1915D02*
X1556Y1915D01*
X483Y1914D02*
X502Y1914D01*
X536Y1914D02*
X555Y1914D01*
X1484Y1914D02*
X1503Y1914D01*
X1537Y1914D02*
X1556Y1914D01*
X483Y1913D02*
X502Y1913D01*
X536Y1913D02*
X555Y1913D01*
X1484Y1913D02*
X1503Y1913D01*
X1537Y1913D02*
X1556Y1913D01*
X483Y1912D02*
X501Y1912D01*
X536Y1912D02*
X555Y1912D01*
X1484Y1912D02*
X1503Y1912D01*
X1538Y1912D02*
X1556Y1912D01*
X483Y1911D02*
X501Y1911D01*
X537Y1911D02*
X555Y1911D01*
X1484Y1911D02*
X1503Y1911D01*
X1538Y1911D02*
X1557Y1911D01*
X482Y1910D02*
X501Y1910D01*
X537Y1910D02*
X555Y1910D01*
X1484Y1910D02*
X1502Y1910D01*
X1538Y1910D02*
X1557Y1910D01*
X482Y1909D02*
X501Y1909D01*
X537Y1909D02*
X555Y1909D01*
X1484Y1909D02*
X1502Y1909D01*
X1538Y1909D02*
X1557Y1909D01*
X482Y1908D02*
X501Y1908D01*
X537Y1908D02*
X555Y1908D01*
X1484Y1908D02*
X1502Y1908D01*
X1538Y1908D02*
X1557Y1908D01*
X482Y1907D02*
X501Y1907D01*
X537Y1907D02*
X555Y1907D01*
X1484Y1907D02*
X1502Y1907D01*
X1538Y1907D02*
X1557Y1907D01*
X482Y1906D02*
X501Y1906D01*
X537Y1906D02*
X555Y1906D01*
X1484Y1906D02*
X1502Y1906D01*
X1538Y1906D02*
X1557Y1906D01*
X482Y1905D02*
X501Y1905D01*
X537Y1905D02*
X555Y1905D01*
X1484Y1905D02*
X1502Y1905D01*
X1538Y1905D02*
X1557Y1905D01*
X482Y1904D02*
X501Y1904D01*
X537Y1904D02*
X555Y1904D01*
X1484Y1904D02*
X1503Y1904D01*
X1538Y1904D02*
X1557Y1904D01*
X483Y1903D02*
X501Y1903D01*
X536Y1903D02*
X555Y1903D01*
X1484Y1903D02*
X1503Y1903D01*
X1538Y1903D02*
X1556Y1903D01*
X483Y1902D02*
X502Y1902D01*
X536Y1902D02*
X555Y1902D01*
X1484Y1902D02*
X1503Y1902D01*
X1538Y1902D02*
X1556Y1902D01*
X483Y1901D02*
X502Y1901D01*
X536Y1901D02*
X555Y1901D01*
X1484Y1901D02*
X1503Y1901D01*
X1537Y1901D02*
X1556Y1901D01*
X483Y1900D02*
X502Y1900D01*
X535Y1900D02*
X555Y1900D01*
X1485Y1900D02*
X1504Y1900D01*
X1537Y1900D02*
X1556Y1900D01*
X483Y1899D02*
X503Y1899D01*
X535Y1899D02*
X554Y1899D01*
X1485Y1899D02*
X1504Y1899D01*
X1536Y1899D02*
X1556Y1899D01*
X484Y1898D02*
X503Y1898D01*
X534Y1898D02*
X554Y1898D01*
X1485Y1898D02*
X1505Y1898D01*
X1536Y1898D02*
X1555Y1898D01*
X484Y1897D02*
X504Y1897D01*
X533Y1897D02*
X554Y1897D01*
X1485Y1897D02*
X1506Y1897D01*
X1535Y1897D02*
X1555Y1897D01*
X484Y1896D02*
X505Y1896D01*
X533Y1896D02*
X553Y1896D01*
X1486Y1896D02*
X1507Y1896D01*
X1534Y1896D02*
X1555Y1896D01*
X485Y1895D02*
X506Y1895D01*
X532Y1895D02*
X553Y1895D01*
X1486Y1895D02*
X1507Y1895D01*
X1533Y1895D02*
X1554Y1895D01*
X485Y1894D02*
X507Y1894D01*
X531Y1894D02*
X553Y1894D01*
X1486Y1894D02*
X1509Y1894D01*
X1532Y1894D02*
X1554Y1894D01*
X485Y1893D02*
X508Y1893D01*
X529Y1893D02*
X552Y1893D01*
X1487Y1893D02*
X1510Y1893D01*
X1531Y1893D02*
X1554Y1893D01*
X486Y1892D02*
X510Y1892D01*
X528Y1892D02*
X552Y1892D01*
X1487Y1892D02*
X1511Y1892D01*
X1529Y1892D02*
X1553Y1892D01*
X486Y1891D02*
X512Y1891D01*
X526Y1891D02*
X551Y1891D01*
X1488Y1891D02*
X1513Y1891D01*
X1527Y1891D02*
X1553Y1891D01*
X487Y1890D02*
X517Y1890D01*
X521Y1890D02*
X551Y1890D01*
X1488Y1890D02*
X1519Y1890D01*
X1522Y1890D02*
X1552Y1890D01*
X487Y1889D02*
X550Y1889D01*
X1489Y1889D02*
X1552Y1889D01*
X488Y1888D02*
X550Y1888D01*
X1489Y1888D02*
X1551Y1888D01*
X489Y1887D02*
X549Y1887D01*
X1490Y1887D02*
X1551Y1887D01*
X489Y1886D02*
X548Y1886D01*
X1491Y1886D02*
X1550Y1886D01*
X490Y1885D02*
X548Y1885D01*
X1491Y1885D02*
X1549Y1885D01*
X491Y1884D02*
X547Y1884D01*
X1492Y1884D02*
X1548Y1884D01*
X492Y1883D02*
X546Y1883D01*
X1493Y1883D02*
X1548Y1883D01*
X492Y1882D02*
X545Y1882D01*
X1494Y1882D02*
X1547Y1882D01*
X493Y1881D02*
X544Y1881D01*
X1495Y1881D02*
X1546Y1881D01*
X495Y1880D02*
X543Y1880D01*
X1496Y1880D02*
X1545Y1880D01*
X496Y1879D02*
X542Y1879D01*
X1497Y1879D02*
X1543Y1879D01*
X497Y1878D02*
X541Y1878D01*
X1498Y1878D02*
X1542Y1878D01*
X498Y1877D02*
X539Y1877D01*
X1500Y1877D02*
X1541Y1877D01*
X500Y1876D02*
X538Y1876D01*
X1502Y1876D02*
X1539Y1876D01*
X502Y1875D02*
X536Y1875D01*
X1503Y1875D02*
X1537Y1875D01*
X504Y1874D02*
X534Y1874D01*
X1505Y1874D02*
X1535Y1874D01*
X506Y1873D02*
X531Y1873D01*
X1508Y1873D02*
X1533Y1873D01*
X509Y1872D02*
X529Y1872D01*
X1511Y1872D02*
X1530Y1872D01*
X513Y1871D02*
X524Y1871D01*
X1515Y1871D02*
X1526Y1871D01*
X515Y1844D02*
X523Y1844D01*
X1516Y1844D02*
X1524Y1844D01*
X510Y1843D02*
X528Y1843D01*
X1511Y1843D02*
X1529Y1843D01*
X507Y1842D02*
X531Y1842D01*
X1508Y1842D02*
X1532Y1842D01*
X504Y1841D02*
X533Y1841D01*
X1506Y1841D02*
X1535Y1841D01*
X502Y1840D02*
X535Y1840D01*
X1504Y1840D02*
X1537Y1840D01*
X500Y1839D02*
X537Y1839D01*
X1502Y1839D02*
X1539Y1839D01*
X499Y1838D02*
X539Y1838D01*
X1500Y1838D02*
X1540Y1838D01*
X497Y1837D02*
X540Y1837D01*
X1499Y1837D02*
X1542Y1837D01*
X496Y1836D02*
X542Y1836D01*
X1497Y1836D02*
X1543Y1836D01*
X495Y1835D02*
X543Y1835D01*
X1496Y1835D02*
X1544Y1835D01*
X494Y1834D02*
X544Y1834D01*
X1495Y1834D02*
X1545Y1834D01*
X493Y1833D02*
X545Y1833D01*
X1494Y1833D02*
X1546Y1833D01*
X492Y1832D02*
X546Y1832D01*
X1493Y1832D02*
X1547Y1832D01*
X491Y1831D02*
X547Y1831D01*
X1492Y1831D02*
X1548Y1831D01*
X490Y1830D02*
X548Y1830D01*
X1492Y1830D02*
X1549Y1830D01*
X489Y1829D02*
X548Y1829D01*
X1491Y1829D02*
X1550Y1829D01*
X489Y1828D02*
X549Y1828D01*
X1490Y1828D02*
X1550Y1828D01*
X488Y1827D02*
X550Y1827D01*
X1490Y1827D02*
X1551Y1827D01*
X488Y1826D02*
X550Y1826D01*
X1489Y1826D02*
X1552Y1826D01*
X487Y1825D02*
X551Y1825D01*
X1488Y1825D02*
X1552Y1825D01*
X486Y1824D02*
X513Y1824D01*
X525Y1824D02*
X551Y1824D01*
X1488Y1824D02*
X1514Y1824D01*
X1526Y1824D02*
X1553Y1824D01*
X486Y1823D02*
X510Y1823D01*
X527Y1823D02*
X552Y1823D01*
X1487Y1823D02*
X1512Y1823D01*
X1529Y1823D02*
X1553Y1823D01*
X486Y1822D02*
X509Y1822D01*
X529Y1822D02*
X552Y1822D01*
X1487Y1822D02*
X1510Y1822D01*
X1530Y1822D02*
X1554Y1822D01*
X485Y1821D02*
X507Y1821D01*
X530Y1821D02*
X553Y1821D01*
X1487Y1821D02*
X1509Y1821D01*
X1532Y1821D02*
X1554Y1821D01*
X485Y1820D02*
X506Y1820D01*
X531Y1820D02*
X553Y1820D01*
X1486Y1820D02*
X1508Y1820D01*
X1533Y1820D02*
X1554Y1820D01*
X484Y1819D02*
X505Y1819D01*
X532Y1819D02*
X553Y1819D01*
X1486Y1819D02*
X1507Y1819D01*
X1534Y1819D02*
X1555Y1819D01*
X484Y1818D02*
X504Y1818D01*
X533Y1818D02*
X554Y1818D01*
X1485Y1818D02*
X1506Y1818D01*
X1535Y1818D02*
X1555Y1818D01*
X484Y1817D02*
X504Y1817D01*
X534Y1817D02*
X554Y1817D01*
X1485Y1817D02*
X1505Y1817D01*
X1535Y1817D02*
X1555Y1817D01*
X483Y1816D02*
X503Y1816D01*
X535Y1816D02*
X554Y1816D01*
X1485Y1816D02*
X1504Y1816D01*
X1536Y1816D02*
X1556Y1816D01*
X483Y1815D02*
X502Y1815D01*
X535Y1815D02*
X554Y1815D01*
X1485Y1815D02*
X1504Y1815D01*
X1537Y1815D02*
X1556Y1815D01*
X483Y1814D02*
X502Y1814D01*
X536Y1814D02*
X555Y1814D01*
X1484Y1814D02*
X1503Y1814D01*
X1537Y1814D02*
X1556Y1814D01*
X483Y1813D02*
X502Y1813D01*
X536Y1813D02*
X555Y1813D01*
X1484Y1813D02*
X1503Y1813D01*
X1537Y1813D02*
X1556Y1813D01*
X483Y1812D02*
X501Y1812D01*
X536Y1812D02*
X555Y1812D01*
X1484Y1812D02*
X1503Y1812D01*
X1538Y1812D02*
X1556Y1812D01*
X483Y1811D02*
X501Y1811D01*
X537Y1811D02*
X555Y1811D01*
X1484Y1811D02*
X1503Y1811D01*
X1538Y1811D02*
X1557Y1811D01*
X482Y1810D02*
X501Y1810D01*
X537Y1810D02*
X555Y1810D01*
X1484Y1810D02*
X1502Y1810D01*
X1538Y1810D02*
X1557Y1810D01*
X482Y1809D02*
X501Y1809D01*
X537Y1809D02*
X555Y1809D01*
X1484Y1809D02*
X1502Y1809D01*
X1538Y1809D02*
X1557Y1809D01*
X482Y1808D02*
X501Y1808D01*
X537Y1808D02*
X555Y1808D01*
X1484Y1808D02*
X1502Y1808D01*
X1538Y1808D02*
X1557Y1808D01*
X482Y1807D02*
X501Y1807D01*
X537Y1807D02*
X555Y1807D01*
X1484Y1807D02*
X1502Y1807D01*
X1538Y1807D02*
X1557Y1807D01*
X482Y1806D02*
X501Y1806D01*
X537Y1806D02*
X555Y1806D01*
X1484Y1806D02*
X1502Y1806D01*
X1538Y1806D02*
X1557Y1806D01*
X482Y1805D02*
X501Y1805D01*
X537Y1805D02*
X555Y1805D01*
X1484Y1805D02*
X1502Y1805D01*
X1538Y1805D02*
X1557Y1805D01*
X482Y1804D02*
X501Y1804D01*
X537Y1804D02*
X555Y1804D01*
X1484Y1804D02*
X1503Y1804D01*
X1538Y1804D02*
X1557Y1804D01*
X483Y1803D02*
X501Y1803D01*
X536Y1803D02*
X555Y1803D01*
X1484Y1803D02*
X1503Y1803D01*
X1538Y1803D02*
X1557Y1803D01*
X483Y1802D02*
X502Y1802D01*
X536Y1802D02*
X555Y1802D01*
X1484Y1802D02*
X1503Y1802D01*
X1538Y1802D02*
X1556Y1802D01*
X483Y1801D02*
X502Y1801D01*
X536Y1801D02*
X555Y1801D01*
X1484Y1801D02*
X1503Y1801D01*
X1537Y1801D02*
X1556Y1801D01*
X483Y1800D02*
X502Y1800D01*
X535Y1800D02*
X555Y1800D01*
X1485Y1800D02*
X1504Y1800D01*
X1537Y1800D02*
X1556Y1800D01*
X483Y1799D02*
X503Y1799D01*
X535Y1799D02*
X554Y1799D01*
X1485Y1799D02*
X1504Y1799D01*
X1536Y1799D02*
X1556Y1799D01*
X484Y1798D02*
X503Y1798D01*
X534Y1798D02*
X554Y1798D01*
X1485Y1798D02*
X1505Y1798D01*
X1536Y1798D02*
X1555Y1798D01*
X484Y1797D02*
X504Y1797D01*
X534Y1797D02*
X554Y1797D01*
X1485Y1797D02*
X1506Y1797D01*
X1535Y1797D02*
X1555Y1797D01*
X484Y1796D02*
X505Y1796D01*
X533Y1796D02*
X553Y1796D01*
X1486Y1796D02*
X1506Y1796D01*
X1534Y1796D02*
X1555Y1796D01*
X485Y1795D02*
X506Y1795D01*
X532Y1795D02*
X553Y1795D01*
X1486Y1795D02*
X1507Y1795D01*
X1533Y1795D02*
X1554Y1795D01*
X485Y1794D02*
X507Y1794D01*
X531Y1794D02*
X553Y1794D01*
X1486Y1794D02*
X1508Y1794D01*
X1532Y1794D02*
X1554Y1794D01*
X485Y1793D02*
X508Y1793D01*
X529Y1793D02*
X552Y1793D01*
X1487Y1793D02*
X1510Y1793D01*
X1531Y1793D02*
X1554Y1793D01*
X486Y1792D02*
X510Y1792D01*
X528Y1792D02*
X552Y1792D01*
X1487Y1792D02*
X1511Y1792D01*
X1529Y1792D02*
X1553Y1792D01*
X486Y1791D02*
X512Y1791D01*
X526Y1791D02*
X551Y1791D01*
X1488Y1791D02*
X1513Y1791D01*
X1528Y1791D02*
X1553Y1791D01*
X487Y1790D02*
X516Y1790D01*
X522Y1790D02*
X551Y1790D01*
X1488Y1790D02*
X1517Y1790D01*
X1523Y1790D02*
X1552Y1790D01*
X487Y1789D02*
X550Y1789D01*
X1489Y1789D02*
X1552Y1789D01*
X488Y1788D02*
X550Y1788D01*
X1489Y1788D02*
X1551Y1788D01*
X489Y1787D02*
X549Y1787D01*
X1490Y1787D02*
X1551Y1787D01*
X489Y1786D02*
X549Y1786D01*
X1491Y1786D02*
X1550Y1786D01*
X490Y1785D02*
X548Y1785D01*
X1491Y1785D02*
X1549Y1785D01*
X491Y1784D02*
X547Y1784D01*
X1492Y1784D02*
X1548Y1784D01*
X491Y1783D02*
X546Y1783D01*
X1493Y1783D02*
X1548Y1783D01*
X492Y1782D02*
X545Y1782D01*
X1494Y1782D02*
X1547Y1782D01*
X493Y1781D02*
X544Y1781D01*
X1495Y1781D02*
X1546Y1781D01*
X494Y1780D02*
X543Y1780D01*
X1496Y1780D02*
X1545Y1780D01*
X496Y1779D02*
X542Y1779D01*
X1497Y1779D02*
X1544Y1779D01*
X497Y1778D02*
X541Y1778D01*
X1498Y1778D02*
X1542Y1778D01*
X498Y1777D02*
X539Y1777D01*
X1500Y1777D02*
X1541Y1777D01*
X500Y1776D02*
X538Y1776D01*
X1501Y1776D02*
X1539Y1776D01*
X502Y1775D02*
X536Y1775D01*
X1503Y1775D02*
X1538Y1775D01*
X504Y1774D02*
X534Y1774D01*
X1505Y1774D02*
X1535Y1774D01*
X506Y1773D02*
X532Y1773D01*
X1507Y1773D02*
X1533Y1773D01*
X509Y1772D02*
X529Y1772D01*
X1510Y1772D02*
X1530Y1772D01*
X513Y1771D02*
X525Y1771D01*
X1514Y1771D02*
X1526Y1771D01*
X516Y1744D02*
X522Y1744D01*
X1517Y1744D02*
X1524Y1744D01*
X510Y1743D02*
X527Y1743D01*
X1512Y1743D02*
X1529Y1743D01*
X507Y1742D02*
X530Y1742D01*
X1509Y1742D02*
X1532Y1742D01*
X505Y1741D02*
X533Y1741D01*
X1506Y1741D02*
X1534Y1741D01*
X503Y1740D02*
X535Y1740D01*
X1504Y1740D02*
X1537Y1740D01*
X501Y1739D02*
X537Y1739D01*
X1502Y1739D02*
X1538Y1739D01*
X499Y1738D02*
X539Y1738D01*
X1500Y1738D02*
X1540Y1738D01*
X498Y1737D02*
X540Y1737D01*
X1499Y1737D02*
X1542Y1737D01*
X496Y1736D02*
X542Y1736D01*
X1498Y1736D02*
X1543Y1736D01*
X495Y1735D02*
X543Y1735D01*
X1496Y1735D02*
X1544Y1735D01*
X494Y1734D02*
X544Y1734D01*
X1495Y1734D02*
X1545Y1734D01*
X493Y1733D02*
X545Y1733D01*
X1494Y1733D02*
X1546Y1733D01*
X492Y1732D02*
X546Y1732D01*
X1493Y1732D02*
X1547Y1732D01*
X491Y1731D02*
X547Y1731D01*
X1492Y1731D02*
X1548Y1731D01*
X490Y1730D02*
X547Y1730D01*
X1492Y1730D02*
X1549Y1730D01*
X490Y1729D02*
X548Y1729D01*
X1491Y1729D02*
X1550Y1729D01*
X489Y1728D02*
X549Y1728D01*
X1490Y1728D02*
X1550Y1728D01*
X488Y1727D02*
X549Y1727D01*
X1490Y1727D02*
X1551Y1727D01*
X488Y1726D02*
X550Y1726D01*
X1489Y1726D02*
X1552Y1726D01*
X487Y1725D02*
X551Y1725D01*
X1488Y1725D02*
X1552Y1725D01*
X487Y1724D02*
X513Y1724D01*
X525Y1724D02*
X551Y1724D01*
X1488Y1724D02*
X1515Y1724D01*
X1526Y1724D02*
X1553Y1724D01*
X486Y1723D02*
X511Y1723D01*
X527Y1723D02*
X552Y1723D01*
X1488Y1723D02*
X1512Y1723D01*
X1529Y1723D02*
X1553Y1723D01*
X486Y1722D02*
X509Y1722D01*
X529Y1722D02*
X552Y1722D01*
X1487Y1722D02*
X1510Y1722D01*
X1530Y1722D02*
X1554Y1722D01*
X485Y1721D02*
X508Y1721D01*
X530Y1721D02*
X553Y1721D01*
X1487Y1721D02*
X1509Y1721D01*
X1532Y1721D02*
X1554Y1721D01*
X485Y1720D02*
X506Y1720D01*
X531Y1720D02*
X553Y1720D01*
X1486Y1720D02*
X1508Y1720D01*
X1533Y1720D02*
X1554Y1720D01*
X484Y1719D02*
X505Y1719D01*
X532Y1719D02*
X553Y1719D01*
X1486Y1719D02*
X1507Y1719D01*
X1534Y1719D02*
X1555Y1719D01*
X484Y1718D02*
X505Y1718D01*
X533Y1718D02*
X554Y1718D01*
X1486Y1718D02*
X1506Y1718D01*
X1535Y1718D02*
X1555Y1718D01*
X484Y1717D02*
X504Y1717D01*
X534Y1717D02*
X554Y1717D01*
X1485Y1717D02*
X1505Y1717D01*
X1535Y1717D02*
X1555Y1717D01*
X484Y1716D02*
X503Y1716D01*
X535Y1716D02*
X554Y1716D01*
X1485Y1716D02*
X1505Y1716D01*
X1536Y1716D02*
X1556Y1716D01*
X483Y1715D02*
X503Y1715D01*
X535Y1715D02*
X554Y1715D01*
X1485Y1715D02*
X1504Y1715D01*
X1537Y1715D02*
X1556Y1715D01*
X483Y1714D02*
X502Y1714D01*
X536Y1714D02*
X555Y1714D01*
X1484Y1714D02*
X1503Y1714D01*
X1537Y1714D02*
X1556Y1714D01*
X483Y1713D02*
X502Y1713D01*
X536Y1713D02*
X555Y1713D01*
X1484Y1713D02*
X1503Y1713D01*
X1537Y1713D02*
X1556Y1713D01*
X483Y1712D02*
X501Y1712D01*
X536Y1712D02*
X555Y1712D01*
X1484Y1712D02*
X1503Y1712D01*
X1538Y1712D02*
X1556Y1712D01*
X483Y1711D02*
X501Y1711D01*
X537Y1711D02*
X555Y1711D01*
X1484Y1711D02*
X1503Y1711D01*
X1538Y1711D02*
X1557Y1711D01*
X482Y1710D02*
X501Y1710D01*
X537Y1710D02*
X555Y1710D01*
X1484Y1710D02*
X1502Y1710D01*
X1538Y1710D02*
X1557Y1710D01*
X482Y1709D02*
X501Y1709D01*
X537Y1709D02*
X555Y1709D01*
X1484Y1709D02*
X1502Y1709D01*
X1538Y1709D02*
X1557Y1709D01*
X482Y1708D02*
X501Y1708D01*
X537Y1708D02*
X555Y1708D01*
X1484Y1708D02*
X1502Y1708D01*
X1538Y1708D02*
X1557Y1708D01*
X482Y1707D02*
X501Y1707D01*
X537Y1707D02*
X555Y1707D01*
X1484Y1707D02*
X1502Y1707D01*
X1538Y1707D02*
X1557Y1707D01*
X482Y1706D02*
X501Y1706D01*
X537Y1706D02*
X555Y1706D01*
X1484Y1706D02*
X1502Y1706D01*
X1538Y1706D02*
X1557Y1706D01*
X482Y1705D02*
X501Y1705D01*
X537Y1705D02*
X555Y1705D01*
X1484Y1705D02*
X1502Y1705D01*
X1538Y1705D02*
X1557Y1705D01*
X482Y1704D02*
X501Y1704D01*
X537Y1704D02*
X555Y1704D01*
X1484Y1704D02*
X1503Y1704D01*
X1538Y1704D02*
X1557Y1704D01*
X483Y1703D02*
X501Y1703D01*
X536Y1703D02*
X555Y1703D01*
X1484Y1703D02*
X1503Y1703D01*
X1538Y1703D02*
X1557Y1703D01*
X483Y1702D02*
X502Y1702D01*
X536Y1702D02*
X555Y1702D01*
X1484Y1702D02*
X1503Y1702D01*
X1538Y1702D02*
X1556Y1702D01*
X483Y1701D02*
X502Y1701D01*
X536Y1701D02*
X555Y1701D01*
X1484Y1701D02*
X1503Y1701D01*
X1537Y1701D02*
X1556Y1701D01*
X483Y1700D02*
X502Y1700D01*
X535Y1700D02*
X555Y1700D01*
X1485Y1700D02*
X1504Y1700D01*
X1537Y1700D02*
X1556Y1700D01*
X483Y1699D02*
X503Y1699D01*
X535Y1699D02*
X554Y1699D01*
X1485Y1699D02*
X1504Y1699D01*
X1536Y1699D02*
X1556Y1699D01*
X484Y1698D02*
X503Y1698D01*
X534Y1698D02*
X554Y1698D01*
X1485Y1698D02*
X1505Y1698D01*
X1536Y1698D02*
X1555Y1698D01*
X484Y1697D02*
X504Y1697D01*
X534Y1697D02*
X554Y1697D01*
X1485Y1697D02*
X1506Y1697D01*
X1535Y1697D02*
X1555Y1697D01*
X484Y1696D02*
X505Y1696D01*
X533Y1696D02*
X553Y1696D01*
X1486Y1696D02*
X1506Y1696D01*
X1534Y1696D02*
X1555Y1696D01*
X485Y1695D02*
X506Y1695D01*
X532Y1695D02*
X553Y1695D01*
X1486Y1695D02*
X1507Y1695D01*
X1533Y1695D02*
X1555Y1695D01*
X485Y1694D02*
X507Y1694D01*
X531Y1694D02*
X553Y1694D01*
X1486Y1694D02*
X1508Y1694D01*
X1532Y1694D02*
X1554Y1694D01*
X485Y1693D02*
X508Y1693D01*
X530Y1693D02*
X552Y1693D01*
X1487Y1693D02*
X1509Y1693D01*
X1531Y1693D02*
X1554Y1693D01*
X486Y1692D02*
X509Y1692D01*
X528Y1692D02*
X552Y1692D01*
X1487Y1692D02*
X1511Y1692D01*
X1530Y1692D02*
X1553Y1692D01*
X486Y1691D02*
X511Y1691D01*
X526Y1691D02*
X551Y1691D01*
X1488Y1691D02*
X1513Y1691D01*
X1528Y1691D02*
X1553Y1691D01*
X487Y1690D02*
X515Y1690D01*
X523Y1690D02*
X551Y1690D01*
X1488Y1690D02*
X1516Y1690D01*
X1525Y1690D02*
X1552Y1690D01*
X487Y1689D02*
X550Y1689D01*
X1489Y1689D02*
X1552Y1689D01*
X488Y1688D02*
X550Y1688D01*
X1489Y1688D02*
X1551Y1688D01*
X488Y1687D02*
X549Y1687D01*
X1490Y1687D02*
X1551Y1687D01*
X489Y1686D02*
X549Y1686D01*
X1491Y1686D02*
X1550Y1686D01*
X490Y1685D02*
X548Y1685D01*
X1491Y1685D02*
X1549Y1685D01*
X491Y1684D02*
X547Y1684D01*
X1492Y1684D02*
X1549Y1684D01*
X491Y1683D02*
X546Y1683D01*
X1493Y1683D02*
X1548Y1683D01*
X492Y1682D02*
X545Y1682D01*
X1494Y1682D02*
X1547Y1682D01*
X493Y1681D02*
X545Y1681D01*
X1495Y1681D02*
X1546Y1681D01*
X494Y1680D02*
X543Y1680D01*
X1496Y1680D02*
X1545Y1680D01*
X495Y1679D02*
X542Y1679D01*
X1497Y1679D02*
X1544Y1679D01*
X497Y1678D02*
X541Y1678D01*
X1498Y1678D02*
X1542Y1678D01*
X498Y1677D02*
X540Y1677D01*
X1500Y1677D02*
X1541Y1677D01*
X500Y1676D02*
X538Y1676D01*
X1501Y1676D02*
X1539Y1676D01*
X501Y1675D02*
X536Y1675D01*
X1503Y1675D02*
X1538Y1675D01*
X503Y1674D02*
X534Y1674D01*
X1505Y1674D02*
X1536Y1674D01*
X506Y1673D02*
X532Y1673D01*
X1507Y1673D02*
X1533Y1673D01*
X508Y1672D02*
X529Y1672D01*
X1510Y1672D02*
X1531Y1672D01*
X512Y1671D02*
X526Y1671D01*
X1513Y1671D02*
X1527Y1671D01*
X517Y1644D02*
X521Y1644D01*
X1518Y1644D02*
X1522Y1644D01*
X511Y1643D02*
X527Y1643D01*
X1512Y1643D02*
X1528Y1643D01*
X508Y1642D02*
X530Y1642D01*
X1509Y1642D02*
X1532Y1642D01*
X505Y1641D02*
X533Y1641D01*
X1506Y1641D02*
X1534Y1641D01*
X503Y1640D02*
X535Y1640D01*
X1504Y1640D02*
X1536Y1640D01*
X501Y1639D02*
X537Y1639D01*
X1502Y1639D02*
X1538Y1639D01*
X499Y1638D02*
X539Y1638D01*
X1501Y1638D02*
X1540Y1638D01*
X498Y1637D02*
X540Y1637D01*
X1499Y1637D02*
X1541Y1637D01*
X496Y1636D02*
X541Y1636D01*
X1498Y1636D02*
X1543Y1636D01*
X495Y1635D02*
X543Y1635D01*
X1496Y1635D02*
X1544Y1635D01*
X494Y1634D02*
X544Y1634D01*
X1495Y1634D02*
X1545Y1634D01*
X493Y1633D02*
X545Y1633D01*
X1494Y1633D02*
X1546Y1633D01*
X492Y1632D02*
X546Y1632D01*
X1493Y1632D02*
X1547Y1632D01*
X491Y1631D02*
X547Y1631D01*
X1493Y1631D02*
X1548Y1631D01*
X490Y1630D02*
X547Y1630D01*
X1492Y1630D02*
X1549Y1630D01*
X490Y1629D02*
X548Y1629D01*
X1491Y1629D02*
X1550Y1629D01*
X489Y1628D02*
X549Y1628D01*
X1490Y1628D02*
X1550Y1628D01*
X488Y1627D02*
X549Y1627D01*
X1490Y1627D02*
X1551Y1627D01*
X488Y1626D02*
X550Y1626D01*
X1489Y1626D02*
X1551Y1626D01*
X487Y1625D02*
X551Y1625D01*
X1489Y1625D02*
X1552Y1625D01*
X487Y1624D02*
X513Y1624D01*
X524Y1624D02*
X551Y1624D01*
X1488Y1624D02*
X1515Y1624D01*
X1526Y1624D02*
X1553Y1624D01*
X486Y1623D02*
X511Y1623D01*
X527Y1623D02*
X552Y1623D01*
X1488Y1623D02*
X1512Y1623D01*
X1528Y1623D02*
X1553Y1623D01*
X486Y1622D02*
X509Y1622D01*
X529Y1622D02*
X552Y1622D01*
X1487Y1622D02*
X1510Y1622D01*
X1530Y1622D02*
X1553Y1622D01*
X485Y1621D02*
X508Y1621D01*
X530Y1621D02*
X552Y1621D01*
X1487Y1621D02*
X1509Y1621D01*
X1531Y1621D02*
X1554Y1621D01*
X485Y1620D02*
X507Y1620D01*
X531Y1620D02*
X553Y1620D01*
X1486Y1620D02*
X1508Y1620D01*
X1533Y1620D02*
X1554Y1620D01*
X484Y1619D02*
X506Y1619D01*
X532Y1619D02*
X553Y1619D01*
X1486Y1619D02*
X1507Y1619D01*
X1534Y1619D02*
X1555Y1619D01*
X484Y1618D02*
X505Y1618D01*
X533Y1618D02*
X554Y1618D01*
X1486Y1618D02*
X1506Y1618D01*
X1534Y1618D02*
X1555Y1618D01*
X484Y1617D02*
X504Y1617D01*
X534Y1617D02*
X554Y1617D01*
X1485Y1617D02*
X1505Y1617D01*
X1535Y1617D02*
X1555Y1617D01*
X484Y1616D02*
X503Y1616D01*
X535Y1616D02*
X554Y1616D01*
X1485Y1616D02*
X1505Y1616D01*
X1536Y1616D02*
X1556Y1616D01*
X483Y1615D02*
X503Y1615D01*
X535Y1615D02*
X554Y1615D01*
X1485Y1615D02*
X1504Y1615D01*
X1537Y1615D02*
X1556Y1615D01*
X483Y1614D02*
X502Y1614D01*
X536Y1614D02*
X555Y1614D01*
X1484Y1614D02*
X1504Y1614D01*
X1537Y1614D02*
X1556Y1614D01*
X483Y1613D02*
X502Y1613D01*
X536Y1613D02*
X555Y1613D01*
X1484Y1613D02*
X1503Y1613D01*
X1537Y1613D02*
X1556Y1613D01*
X483Y1612D02*
X501Y1612D01*
X536Y1612D02*
X555Y1612D01*
X1484Y1612D02*
X1503Y1612D01*
X1538Y1612D02*
X1556Y1612D01*
X483Y1611D02*
X501Y1611D01*
X537Y1611D02*
X555Y1611D01*
X1484Y1611D02*
X1503Y1611D01*
X1538Y1611D02*
X1557Y1611D01*
X482Y1610D02*
X501Y1610D01*
X537Y1610D02*
X555Y1610D01*
X1484Y1610D02*
X1502Y1610D01*
X1538Y1610D02*
X1557Y1610D01*
X482Y1609D02*
X501Y1609D01*
X537Y1609D02*
X555Y1609D01*
X1484Y1609D02*
X1502Y1609D01*
X1538Y1609D02*
X1557Y1609D01*
X482Y1608D02*
X501Y1608D01*
X537Y1608D02*
X555Y1608D01*
X1484Y1608D02*
X1502Y1608D01*
X1538Y1608D02*
X1557Y1608D01*
X482Y1607D02*
X501Y1607D01*
X537Y1607D02*
X555Y1607D01*
X1484Y1607D02*
X1502Y1607D01*
X1538Y1607D02*
X1557Y1607D01*
X482Y1606D02*
X501Y1606D01*
X537Y1606D02*
X555Y1606D01*
X1484Y1606D02*
X1502Y1606D01*
X1538Y1606D02*
X1557Y1606D01*
X482Y1605D02*
X501Y1605D01*
X537Y1605D02*
X555Y1605D01*
X1484Y1605D02*
X1502Y1605D01*
X1538Y1605D02*
X1557Y1605D01*
X482Y1604D02*
X501Y1604D01*
X537Y1604D02*
X555Y1604D01*
X1484Y1604D02*
X1502Y1604D01*
X1538Y1604D02*
X1557Y1604D01*
X483Y1603D02*
X501Y1603D01*
X536Y1603D02*
X555Y1603D01*
X1484Y1603D02*
X1503Y1603D01*
X1538Y1603D02*
X1557Y1603D01*
X483Y1602D02*
X501Y1602D01*
X536Y1602D02*
X555Y1602D01*
X1484Y1602D02*
X1503Y1602D01*
X1538Y1602D02*
X1556Y1602D01*
X483Y1601D02*
X502Y1601D01*
X536Y1601D02*
X555Y1601D01*
X1484Y1601D02*
X1503Y1601D01*
X1537Y1601D02*
X1556Y1601D01*
X483Y1600D02*
X502Y1600D01*
X536Y1600D02*
X555Y1600D01*
X1485Y1600D02*
X1504Y1600D01*
X1537Y1600D02*
X1556Y1600D01*
X483Y1599D02*
X503Y1599D01*
X535Y1599D02*
X554Y1599D01*
X1485Y1599D02*
X1504Y1599D01*
X1536Y1599D02*
X1556Y1599D01*
X484Y1598D02*
X503Y1598D01*
X534Y1598D02*
X554Y1598D01*
X1485Y1598D02*
X1505Y1598D01*
X1536Y1598D02*
X1556Y1598D01*
X484Y1597D02*
X504Y1597D01*
X534Y1597D02*
X554Y1597D01*
X1485Y1597D02*
X1505Y1597D01*
X1535Y1597D02*
X1555Y1597D01*
X484Y1596D02*
X505Y1596D01*
X533Y1596D02*
X554Y1596D01*
X1486Y1596D02*
X1506Y1596D01*
X1534Y1596D02*
X1555Y1596D01*
X485Y1595D02*
X506Y1595D01*
X532Y1595D02*
X553Y1595D01*
X1486Y1595D02*
X1507Y1595D01*
X1533Y1595D02*
X1555Y1595D01*
X485Y1594D02*
X507Y1594D01*
X531Y1594D02*
X553Y1594D01*
X1486Y1594D02*
X1508Y1594D01*
X1532Y1594D02*
X1554Y1594D01*
X485Y1593D02*
X508Y1593D01*
X530Y1593D02*
X552Y1593D01*
X1487Y1593D02*
X1509Y1593D01*
X1531Y1593D02*
X1554Y1593D01*
X486Y1592D02*
X509Y1592D01*
X528Y1592D02*
X552Y1592D01*
X1487Y1592D02*
X1511Y1592D01*
X1530Y1592D02*
X1553Y1592D01*
X486Y1591D02*
X511Y1591D01*
X527Y1591D02*
X551Y1591D01*
X1488Y1591D02*
X1513Y1591D01*
X1528Y1591D02*
X1553Y1591D01*
X487Y1590D02*
X514Y1590D01*
X524Y1590D02*
X551Y1590D01*
X1488Y1590D02*
X1516Y1590D01*
X1525Y1590D02*
X1552Y1590D01*
X487Y1589D02*
X550Y1589D01*
X1489Y1589D02*
X1552Y1589D01*
X488Y1588D02*
X550Y1588D01*
X1489Y1588D02*
X1551Y1588D01*
X488Y1587D02*
X549Y1587D01*
X1490Y1587D02*
X1551Y1587D01*
X489Y1586D02*
X549Y1586D01*
X1490Y1586D02*
X1550Y1586D01*
X490Y1585D02*
X548Y1585D01*
X1491Y1585D02*
X1549Y1585D01*
X490Y1584D02*
X547Y1584D01*
X1492Y1584D02*
X1549Y1584D01*
X491Y1583D02*
X546Y1583D01*
X1493Y1583D02*
X1548Y1583D01*
X492Y1582D02*
X546Y1582D01*
X1494Y1582D02*
X1547Y1582D01*
X493Y1581D02*
X545Y1581D01*
X1495Y1581D02*
X1546Y1581D01*
X494Y1580D02*
X544Y1580D01*
X1496Y1580D02*
X1545Y1580D01*
X495Y1579D02*
X542Y1579D01*
X1497Y1579D02*
X1544Y1579D01*
X497Y1578D02*
X541Y1578D01*
X1498Y1578D02*
X1543Y1578D01*
X498Y1577D02*
X540Y1577D01*
X1499Y1577D02*
X1541Y1577D01*
X500Y1576D02*
X538Y1576D01*
X1501Y1576D02*
X1540Y1576D01*
X501Y1575D02*
X536Y1575D01*
X1503Y1575D02*
X1538Y1575D01*
X503Y1574D02*
X534Y1574D01*
X1505Y1574D02*
X1536Y1574D01*
X505Y1573D02*
X532Y1573D01*
X1507Y1573D02*
X1534Y1573D01*
X508Y1572D02*
X530Y1572D01*
X1510Y1572D02*
X1531Y1572D01*
X512Y1571D02*
X526Y1571D01*
X1513Y1571D02*
X1528Y1571D01*
X519Y1544D02*
X519Y1544D01*
X1520Y1544D02*
X1520Y1544D01*
X511Y1543D02*
X526Y1543D01*
X1513Y1543D02*
X1528Y1543D01*
X508Y1542D02*
X530Y1542D01*
X1509Y1542D02*
X1531Y1542D01*
X505Y1541D02*
X533Y1541D01*
X1507Y1541D02*
X1534Y1541D01*
X503Y1540D02*
X535Y1540D01*
X1504Y1540D02*
X1536Y1540D01*
X501Y1539D02*
X537Y1539D01*
X1502Y1539D02*
X1538Y1539D01*
X499Y1538D02*
X538Y1538D01*
X1501Y1538D02*
X1540Y1538D01*
X498Y1537D02*
X540Y1537D01*
X1499Y1537D02*
X1541Y1537D01*
X496Y1536D02*
X541Y1536D01*
X1498Y1536D02*
X1543Y1536D01*
X495Y1535D02*
X543Y1535D01*
X1497Y1535D02*
X1544Y1535D01*
X494Y1534D02*
X544Y1534D01*
X1495Y1534D02*
X1545Y1534D01*
X493Y1533D02*
X545Y1533D01*
X1494Y1533D02*
X1546Y1533D01*
X492Y1532D02*
X546Y1532D01*
X1494Y1532D02*
X1547Y1532D01*
X491Y1531D02*
X546Y1531D01*
X1493Y1531D02*
X1548Y1531D01*
X490Y1530D02*
X547Y1530D01*
X1492Y1530D02*
X1549Y1530D01*
X490Y1529D02*
X548Y1529D01*
X1491Y1529D02*
X1549Y1529D01*
X489Y1528D02*
X549Y1528D01*
X1490Y1528D02*
X1550Y1528D01*
X488Y1527D02*
X549Y1527D01*
X1490Y1527D02*
X1551Y1527D01*
X488Y1526D02*
X550Y1526D01*
X1489Y1526D02*
X1551Y1526D01*
X487Y1525D02*
X551Y1525D01*
X1489Y1525D02*
X1552Y1525D01*
X487Y1524D02*
X514Y1524D01*
X524Y1524D02*
X551Y1524D01*
X1488Y1524D02*
X1515Y1524D01*
X1525Y1524D02*
X1552Y1524D01*
X486Y1523D02*
X511Y1523D01*
X527Y1523D02*
X552Y1523D01*
X1488Y1523D02*
X1512Y1523D01*
X1528Y1523D02*
X1553Y1523D01*
X486Y1522D02*
X509Y1522D01*
X529Y1522D02*
X552Y1522D01*
X1487Y1522D02*
X1511Y1522D01*
X1530Y1522D02*
X1553Y1522D01*
X485Y1521D02*
X508Y1521D01*
X530Y1521D02*
X552Y1521D01*
X1487Y1521D02*
X1509Y1521D01*
X1531Y1521D02*
X1554Y1521D01*
X485Y1520D02*
X507Y1520D01*
X531Y1520D02*
X553Y1520D01*
X1486Y1520D02*
X1508Y1520D01*
X1532Y1520D02*
X1554Y1520D01*
X484Y1519D02*
X506Y1519D01*
X532Y1519D02*
X553Y1519D01*
X1486Y1519D02*
X1507Y1519D01*
X1533Y1519D02*
X1555Y1519D01*
X484Y1518D02*
X505Y1518D01*
X533Y1518D02*
X554Y1518D01*
X1486Y1518D02*
X1506Y1518D01*
X1534Y1518D02*
X1555Y1518D01*
X484Y1517D02*
X504Y1517D01*
X534Y1517D02*
X554Y1517D01*
X1485Y1517D02*
X1505Y1517D01*
X1535Y1517D02*
X1555Y1517D01*
X484Y1516D02*
X503Y1516D01*
X534Y1516D02*
X554Y1516D01*
X1485Y1516D02*
X1505Y1516D01*
X1536Y1516D02*
X1556Y1516D01*
X483Y1515D02*
X503Y1515D01*
X535Y1515D02*
X554Y1515D01*
X1485Y1515D02*
X1504Y1515D01*
X1536Y1515D02*
X1556Y1515D01*
X483Y1514D02*
X502Y1514D01*
X536Y1514D02*
X555Y1514D01*
X1485Y1514D02*
X1504Y1514D01*
X1537Y1514D02*
X1556Y1514D01*
X483Y1513D02*
X502Y1513D01*
X536Y1513D02*
X555Y1513D01*
X1484Y1513D02*
X1503Y1513D01*
X1537Y1513D02*
X1556Y1513D01*
X483Y1512D02*
X501Y1512D01*
X536Y1512D02*
X555Y1512D01*
X1484Y1512D02*
X1503Y1512D01*
X1538Y1512D02*
X1556Y1512D01*
X483Y1511D02*
X501Y1511D01*
X536Y1511D02*
X555Y1511D01*
X1484Y1511D02*
X1503Y1511D01*
X1538Y1511D02*
X1557Y1511D01*
X482Y1510D02*
X501Y1510D01*
X537Y1510D02*
X555Y1510D01*
X1484Y1510D02*
X1502Y1510D01*
X1538Y1510D02*
X1557Y1510D01*
X482Y1509D02*
X501Y1509D01*
X537Y1509D02*
X555Y1509D01*
X1484Y1509D02*
X1502Y1509D01*
X1538Y1509D02*
X1557Y1509D01*
X482Y1508D02*
X501Y1508D01*
X537Y1508D02*
X555Y1508D01*
X1484Y1508D02*
X1502Y1508D01*
X1538Y1508D02*
X1557Y1508D01*
X482Y1507D02*
X501Y1507D01*
X537Y1507D02*
X555Y1507D01*
X1484Y1507D02*
X1502Y1507D01*
X1538Y1507D02*
X1557Y1507D01*
X482Y1506D02*
X501Y1506D01*
X537Y1506D02*
X555Y1506D01*
X1484Y1506D02*
X1502Y1506D01*
X1538Y1506D02*
X1557Y1506D01*
X482Y1505D02*
X501Y1505D01*
X537Y1505D02*
X555Y1505D01*
X1484Y1505D02*
X1502Y1505D01*
X1538Y1505D02*
X1557Y1505D01*
X482Y1504D02*
X501Y1504D01*
X537Y1504D02*
X555Y1504D01*
X1484Y1504D02*
X1502Y1504D01*
X1538Y1504D02*
X1557Y1504D01*
X483Y1503D02*
X501Y1503D01*
X536Y1503D02*
X555Y1503D01*
X1484Y1503D02*
X1503Y1503D01*
X1538Y1503D02*
X1557Y1503D01*
X483Y1502D02*
X501Y1502D01*
X536Y1502D02*
X555Y1502D01*
X1484Y1502D02*
X1503Y1502D01*
X1538Y1502D02*
X1556Y1502D01*
X483Y1501D02*
X502Y1501D01*
X536Y1501D02*
X555Y1501D01*
X1484Y1501D02*
X1503Y1501D01*
X1537Y1501D02*
X1556Y1501D01*
X483Y1500D02*
X502Y1500D01*
X536Y1500D02*
X555Y1500D01*
X1485Y1500D02*
X1504Y1500D01*
X1537Y1500D02*
X1556Y1500D01*
X483Y1499D02*
X503Y1499D01*
X535Y1499D02*
X554Y1499D01*
X1485Y1499D02*
X1504Y1499D01*
X1536Y1499D02*
X1556Y1499D01*
X484Y1498D02*
X503Y1498D01*
X534Y1498D02*
X554Y1498D01*
X1485Y1498D02*
X1505Y1498D01*
X1536Y1498D02*
X1556Y1498D01*
X484Y1497D02*
X504Y1497D01*
X534Y1497D02*
X554Y1497D01*
X1485Y1497D02*
X1505Y1497D01*
X1535Y1497D02*
X1555Y1497D01*
X484Y1496D02*
X505Y1496D01*
X533Y1496D02*
X554Y1496D01*
X1486Y1496D02*
X1506Y1496D01*
X1534Y1496D02*
X1555Y1496D01*
X484Y1495D02*
X506Y1495D01*
X532Y1495D02*
X553Y1495D01*
X1486Y1495D02*
X1507Y1495D01*
X1534Y1495D02*
X1555Y1495D01*
X485Y1494D02*
X507Y1494D01*
X531Y1494D02*
X553Y1494D01*
X1486Y1494D02*
X1508Y1494D01*
X1532Y1494D02*
X1554Y1494D01*
X485Y1493D02*
X508Y1493D01*
X530Y1493D02*
X552Y1493D01*
X1487Y1493D02*
X1509Y1493D01*
X1531Y1493D02*
X1554Y1493D01*
X486Y1492D02*
X509Y1492D01*
X529Y1492D02*
X552Y1492D01*
X1487Y1492D02*
X1511Y1492D01*
X1530Y1492D02*
X1553Y1492D01*
X486Y1491D02*
X511Y1491D01*
X527Y1491D02*
X552Y1491D01*
X1488Y1491D02*
X1512Y1491D01*
X1528Y1491D02*
X1553Y1491D01*
X487Y1490D02*
X514Y1490D01*
X524Y1490D02*
X551Y1490D01*
X1488Y1490D02*
X1515Y1490D01*
X1525Y1490D02*
X1552Y1490D01*
X487Y1489D02*
X551Y1489D01*
X1489Y1489D02*
X1552Y1489D01*
X488Y1488D02*
X550Y1488D01*
X1489Y1488D02*
X1551Y1488D01*
X488Y1487D02*
X549Y1487D01*
X1490Y1487D02*
X1551Y1487D01*
X489Y1486D02*
X549Y1486D01*
X1490Y1486D02*
X1550Y1486D01*
X490Y1485D02*
X548Y1485D01*
X1491Y1485D02*
X1549Y1485D01*
X490Y1484D02*
X547Y1484D01*
X1492Y1484D02*
X1549Y1484D01*
X491Y1483D02*
X547Y1483D01*
X1493Y1483D02*
X1548Y1483D01*
X492Y1482D02*
X546Y1482D01*
X1494Y1482D02*
X1547Y1482D01*
X493Y1481D02*
X545Y1481D01*
X1494Y1481D02*
X1546Y1481D01*
X494Y1480D02*
X544Y1480D01*
X1495Y1480D02*
X1545Y1480D01*
X495Y1479D02*
X543Y1479D01*
X1497Y1479D02*
X1544Y1479D01*
X496Y1478D02*
X541Y1478D01*
X1498Y1478D02*
X1543Y1478D01*
X498Y1477D02*
X540Y1477D01*
X1499Y1477D02*
X1541Y1477D01*
X499Y1476D02*
X538Y1476D01*
X1501Y1476D02*
X1540Y1476D01*
X501Y1475D02*
X537Y1475D01*
X1502Y1475D02*
X1538Y1475D01*
X503Y1474D02*
X535Y1474D01*
X1504Y1474D02*
X1536Y1474D01*
X505Y1473D02*
X533Y1473D01*
X1507Y1473D02*
X1534Y1473D01*
X508Y1472D02*
X530Y1472D01*
X1509Y1472D02*
X1531Y1472D01*
X511Y1471D02*
X526Y1471D01*
X1513Y1471D02*
X1528Y1471D01*
X519Y1470D02*
X519Y1470D01*
X1520Y1470D02*
X1521Y1470D01*
X512Y1443D02*
X526Y1443D01*
X1513Y1443D02*
X1527Y1443D01*
X508Y1442D02*
X530Y1442D01*
X1510Y1442D02*
X1531Y1442D01*
X505Y1441D02*
X532Y1441D01*
X1507Y1441D02*
X1534Y1441D01*
X503Y1440D02*
X534Y1440D01*
X1505Y1440D02*
X1536Y1440D01*
X501Y1439D02*
X536Y1439D01*
X1503Y1439D02*
X1538Y1439D01*
X500Y1438D02*
X538Y1438D01*
X1501Y1438D02*
X1540Y1438D01*
X498Y1437D02*
X540Y1437D01*
X1499Y1437D02*
X1541Y1437D01*
X497Y1436D02*
X541Y1436D01*
X1498Y1436D02*
X1543Y1436D01*
X495Y1435D02*
X542Y1435D01*
X1497Y1435D02*
X1544Y1435D01*
X494Y1434D02*
X543Y1434D01*
X1496Y1434D02*
X1545Y1434D01*
X493Y1433D02*
X545Y1433D01*
X1495Y1433D02*
X1546Y1433D01*
X492Y1432D02*
X545Y1432D01*
X1494Y1432D02*
X1547Y1432D01*
X491Y1431D02*
X546Y1431D01*
X1493Y1431D02*
X1548Y1431D01*
X490Y1430D02*
X547Y1430D01*
X1492Y1430D02*
X1549Y1430D01*
X490Y1429D02*
X548Y1429D01*
X1491Y1429D02*
X1549Y1429D01*
X489Y1428D02*
X549Y1428D01*
X1490Y1428D02*
X1550Y1428D01*
X488Y1427D02*
X549Y1427D01*
X1490Y1427D02*
X1551Y1427D01*
X488Y1426D02*
X550Y1426D01*
X1489Y1426D02*
X1551Y1426D01*
X487Y1425D02*
X550Y1425D01*
X1489Y1425D02*
X1552Y1425D01*
X487Y1424D02*
X514Y1424D01*
X523Y1424D02*
X551Y1424D01*
X1488Y1424D02*
X1516Y1424D01*
X1525Y1424D02*
X1552Y1424D01*
X486Y1423D02*
X511Y1423D01*
X527Y1423D02*
X551Y1423D01*
X1488Y1423D02*
X1513Y1423D01*
X1528Y1423D02*
X1553Y1423D01*
X486Y1422D02*
X509Y1422D01*
X528Y1422D02*
X552Y1422D01*
X1487Y1422D02*
X1511Y1422D01*
X1530Y1422D02*
X1553Y1422D01*
X485Y1421D02*
X508Y1421D01*
X530Y1421D02*
X552Y1421D01*
X1487Y1421D02*
X1509Y1421D01*
X1531Y1421D02*
X1554Y1421D01*
X485Y1420D02*
X507Y1420D01*
X531Y1420D02*
X553Y1420D01*
X1486Y1420D02*
X1508Y1420D01*
X1532Y1420D02*
X1554Y1420D01*
X485Y1419D02*
X506Y1419D01*
X532Y1419D02*
X553Y1419D01*
X1486Y1419D02*
X1507Y1419D01*
X1533Y1419D02*
X1555Y1419D01*
X484Y1418D02*
X505Y1418D01*
X533Y1418D02*
X553Y1418D01*
X1486Y1418D02*
X1506Y1418D01*
X1534Y1418D02*
X1555Y1418D01*
X484Y1417D02*
X504Y1417D01*
X534Y1417D02*
X554Y1417D01*
X1485Y1417D02*
X1505Y1417D01*
X1535Y1417D02*
X1555Y1417D01*
X484Y1416D02*
X503Y1416D01*
X534Y1416D02*
X554Y1416D01*
X1485Y1416D02*
X1505Y1416D01*
X1536Y1416D02*
X1556Y1416D01*
X483Y1415D02*
X503Y1415D01*
X535Y1415D02*
X554Y1415D01*
X1485Y1415D02*
X1504Y1415D01*
X1536Y1415D02*
X1556Y1415D01*
X483Y1414D02*
X502Y1414D01*
X536Y1414D02*
X555Y1414D01*
X1485Y1414D02*
X1504Y1414D01*
X1537Y1414D02*
X1556Y1414D01*
X483Y1413D02*
X502Y1413D01*
X536Y1413D02*
X555Y1413D01*
X1484Y1413D02*
X1503Y1413D01*
X1537Y1413D02*
X1556Y1413D01*
X483Y1412D02*
X501Y1412D01*
X536Y1412D02*
X555Y1412D01*
X1484Y1412D02*
X1503Y1412D01*
X1538Y1412D02*
X1556Y1412D01*
X483Y1411D02*
X501Y1411D01*
X536Y1411D02*
X555Y1411D01*
X1484Y1411D02*
X1503Y1411D01*
X1538Y1411D02*
X1557Y1411D01*
X482Y1410D02*
X501Y1410D01*
X537Y1410D02*
X555Y1410D01*
X1484Y1410D02*
X1502Y1410D01*
X1538Y1410D02*
X1557Y1410D01*
X482Y1409D02*
X501Y1409D01*
X537Y1409D02*
X555Y1409D01*
X1484Y1409D02*
X1502Y1409D01*
X1538Y1409D02*
X1557Y1409D01*
X482Y1408D02*
X501Y1408D01*
X537Y1408D02*
X555Y1408D01*
X1484Y1408D02*
X1502Y1408D01*
X1538Y1408D02*
X1557Y1408D01*
X482Y1407D02*
X501Y1407D01*
X537Y1407D02*
X555Y1407D01*
X1484Y1407D02*
X1502Y1407D01*
X1538Y1407D02*
X1557Y1407D01*
X482Y1406D02*
X501Y1406D01*
X537Y1406D02*
X555Y1406D01*
X1484Y1406D02*
X1502Y1406D01*
X1538Y1406D02*
X1557Y1406D01*
X482Y1405D02*
X501Y1405D01*
X537Y1405D02*
X555Y1405D01*
X1484Y1405D02*
X1502Y1405D01*
X1538Y1405D02*
X1557Y1405D01*
X482Y1404D02*
X501Y1404D01*
X537Y1404D02*
X555Y1404D01*
X1484Y1404D02*
X1502Y1404D01*
X1538Y1404D02*
X1557Y1404D01*
X483Y1403D02*
X501Y1403D01*
X537Y1403D02*
X555Y1403D01*
X1484Y1403D02*
X1503Y1403D01*
X1538Y1403D02*
X1557Y1403D01*
X483Y1402D02*
X501Y1402D01*
X536Y1402D02*
X555Y1402D01*
X1484Y1402D02*
X1503Y1402D01*
X1538Y1402D02*
X1556Y1402D01*
X483Y1401D02*
X502Y1401D01*
X536Y1401D02*
X555Y1401D01*
X1484Y1401D02*
X1503Y1401D01*
X1537Y1401D02*
X1556Y1401D01*
X483Y1400D02*
X502Y1400D01*
X536Y1400D02*
X555Y1400D01*
X1484Y1400D02*
X1503Y1400D01*
X1537Y1400D02*
X1556Y1400D01*
X483Y1399D02*
X503Y1399D01*
X535Y1399D02*
X554Y1399D01*
X1485Y1399D02*
X1504Y1399D01*
X1537Y1399D02*
X1556Y1399D01*
X484Y1398D02*
X503Y1398D01*
X535Y1398D02*
X554Y1398D01*
X1485Y1398D02*
X1505Y1398D01*
X1536Y1398D02*
X1556Y1398D01*
X484Y1397D02*
X504Y1397D01*
X534Y1397D02*
X554Y1397D01*
X1485Y1397D02*
X1505Y1397D01*
X1535Y1397D02*
X1555Y1397D01*
X484Y1396D02*
X505Y1396D01*
X533Y1396D02*
X554Y1396D01*
X1486Y1396D02*
X1506Y1396D01*
X1534Y1396D02*
X1555Y1396D01*
X484Y1395D02*
X506Y1395D01*
X532Y1395D02*
X553Y1395D01*
X1486Y1395D02*
X1507Y1395D01*
X1534Y1395D02*
X1555Y1395D01*
X485Y1394D02*
X507Y1394D01*
X531Y1394D02*
X553Y1394D01*
X1486Y1394D02*
X1508Y1394D01*
X1533Y1394D02*
X1554Y1394D01*
X485Y1393D02*
X508Y1393D01*
X530Y1393D02*
X552Y1393D01*
X1487Y1393D02*
X1509Y1393D01*
X1531Y1393D02*
X1554Y1393D01*
X486Y1392D02*
X509Y1392D01*
X529Y1392D02*
X552Y1392D01*
X1487Y1392D02*
X1510Y1392D01*
X1530Y1392D02*
X1553Y1392D01*
X486Y1391D02*
X511Y1391D01*
X527Y1391D02*
X552Y1391D01*
X1488Y1391D02*
X1512Y1391D01*
X1528Y1391D02*
X1553Y1391D01*
X487Y1390D02*
X513Y1390D01*
X524Y1390D02*
X551Y1390D01*
X1488Y1390D02*
X1515Y1390D01*
X1526Y1390D02*
X1553Y1390D01*
X487Y1389D02*
X551Y1389D01*
X1489Y1389D02*
X1552Y1389D01*
X488Y1388D02*
X550Y1388D01*
X1489Y1388D02*
X1551Y1388D01*
X488Y1387D02*
X549Y1387D01*
X1490Y1387D02*
X1551Y1387D01*
X489Y1386D02*
X549Y1386D01*
X1490Y1386D02*
X1550Y1386D01*
X490Y1385D02*
X548Y1385D01*
X1491Y1385D02*
X1550Y1385D01*
X490Y1384D02*
X547Y1384D01*
X1492Y1384D02*
X1549Y1384D01*
X491Y1383D02*
X547Y1383D01*
X1493Y1383D02*
X1548Y1383D01*
X492Y1382D02*
X546Y1382D01*
X1493Y1382D02*
X1547Y1382D01*
X493Y1381D02*
X545Y1381D01*
X1494Y1381D02*
X1546Y1381D01*
X494Y1380D02*
X544Y1380D01*
X1495Y1380D02*
X1545Y1380D01*
X495Y1379D02*
X543Y1379D01*
X1496Y1379D02*
X1544Y1379D01*
X496Y1378D02*
X541Y1378D01*
X1498Y1378D02*
X1543Y1378D01*
X498Y1377D02*
X540Y1377D01*
X1499Y1377D02*
X1541Y1377D01*
X499Y1376D02*
X539Y1376D01*
X1501Y1376D02*
X1540Y1376D01*
X501Y1375D02*
X537Y1375D01*
X1502Y1375D02*
X1538Y1375D01*
X503Y1374D02*
X535Y1374D01*
X1504Y1374D02*
X1536Y1374D01*
X505Y1373D02*
X533Y1373D01*
X1506Y1373D02*
X1534Y1373D01*
X507Y1372D02*
X530Y1372D01*
X1509Y1372D02*
X1532Y1372D01*
X511Y1371D02*
X527Y1371D01*
X1512Y1371D02*
X1528Y1371D01*
X517Y1370D02*
X521Y1370D01*
X1518Y1370D02*
X1523Y1370D01*
X512Y1343D02*
X525Y1343D01*
X1514Y1343D02*
X1527Y1343D01*
X508Y1342D02*
X529Y1342D01*
X1510Y1342D02*
X1531Y1342D01*
X506Y1341D02*
X532Y1341D01*
X1507Y1341D02*
X1533Y1341D01*
X503Y1340D02*
X534Y1340D01*
X1505Y1340D02*
X1536Y1340D01*
X501Y1339D02*
X536Y1339D01*
X1503Y1339D02*
X1538Y1339D01*
X500Y1338D02*
X538Y1338D01*
X1501Y1338D02*
X1539Y1338D01*
X498Y1337D02*
X540Y1337D01*
X1500Y1337D02*
X1541Y1337D01*
X497Y1336D02*
X541Y1336D01*
X1498Y1336D02*
X1542Y1336D01*
X495Y1335D02*
X542Y1335D01*
X1497Y1335D02*
X1544Y1335D01*
X494Y1334D02*
X543Y1334D01*
X1496Y1334D02*
X1545Y1334D01*
X493Y1333D02*
X544Y1333D01*
X1495Y1333D02*
X1546Y1333D01*
X492Y1332D02*
X545Y1332D01*
X1494Y1332D02*
X1547Y1332D01*
X491Y1331D02*
X546Y1331D01*
X1493Y1331D02*
X1548Y1331D01*
X491Y1330D02*
X547Y1330D01*
X1492Y1330D02*
X1549Y1330D01*
X490Y1329D02*
X548Y1329D01*
X1491Y1329D02*
X1549Y1329D01*
X489Y1328D02*
X549Y1328D01*
X1491Y1328D02*
X1550Y1328D01*
X488Y1327D02*
X549Y1327D01*
X1490Y1327D02*
X1551Y1327D01*
X488Y1326D02*
X550Y1326D01*
X1489Y1326D02*
X1551Y1326D01*
X487Y1325D02*
X550Y1325D01*
X1489Y1325D02*
X1552Y1325D01*
X487Y1324D02*
X515Y1324D01*
X523Y1324D02*
X551Y1324D01*
X1488Y1324D02*
X1516Y1324D01*
X1524Y1324D02*
X1552Y1324D01*
X486Y1323D02*
X511Y1323D01*
X526Y1323D02*
X551Y1323D01*
X1488Y1323D02*
X1513Y1323D01*
X1528Y1323D02*
X1553Y1323D01*
X486Y1322D02*
X510Y1322D01*
X528Y1322D02*
X552Y1322D01*
X1487Y1322D02*
X1511Y1322D01*
X1530Y1322D02*
X1553Y1322D01*
X485Y1321D02*
X508Y1321D01*
X530Y1321D02*
X552Y1321D01*
X1487Y1321D02*
X1510Y1321D01*
X1531Y1321D02*
X1554Y1321D01*
X485Y1320D02*
X507Y1320D01*
X531Y1320D02*
X553Y1320D01*
X1486Y1320D02*
X1508Y1320D01*
X1532Y1320D02*
X1554Y1320D01*
X485Y1319D02*
X506Y1319D01*
X532Y1319D02*
X553Y1319D01*
X1486Y1319D02*
X1507Y1319D01*
X1533Y1319D02*
X1555Y1319D01*
X484Y1318D02*
X505Y1318D01*
X533Y1318D02*
X553Y1318D01*
X1486Y1318D02*
X1506Y1318D01*
X1534Y1318D02*
X1555Y1318D01*
X484Y1317D02*
X504Y1317D01*
X534Y1317D02*
X554Y1317D01*
X1485Y1317D02*
X1506Y1317D01*
X1535Y1317D02*
X1555Y1317D01*
X484Y1316D02*
X503Y1316D01*
X534Y1316D02*
X554Y1316D01*
X1485Y1316D02*
X1505Y1316D01*
X1536Y1316D02*
X1555Y1316D01*
X483Y1315D02*
X503Y1315D01*
X535Y1315D02*
X554Y1315D01*
X1485Y1315D02*
X1504Y1315D01*
X1536Y1315D02*
X1556Y1315D01*
X483Y1314D02*
X502Y1314D01*
X535Y1314D02*
X555Y1314D01*
X1485Y1314D02*
X1504Y1314D01*
X1537Y1314D02*
X1556Y1314D01*
X483Y1313D02*
X502Y1313D01*
X536Y1313D02*
X555Y1313D01*
X1484Y1313D02*
X1503Y1313D01*
X1537Y1313D02*
X1556Y1313D01*
X483Y1312D02*
X502Y1312D01*
X536Y1312D02*
X555Y1312D01*
X1484Y1312D02*
X1503Y1312D01*
X1538Y1312D02*
X1556Y1312D01*
X483Y1311D02*
X501Y1311D01*
X536Y1311D02*
X555Y1311D01*
X1484Y1311D02*
X1503Y1311D01*
X1538Y1311D02*
X1557Y1311D01*
X482Y1310D02*
X501Y1310D01*
X537Y1310D02*
X555Y1310D01*
X1484Y1310D02*
X1503Y1310D01*
X1538Y1310D02*
X1557Y1310D01*
X482Y1309D02*
X501Y1309D01*
X537Y1309D02*
X555Y1309D01*
X1484Y1309D02*
X1502Y1309D01*
X1538Y1309D02*
X1557Y1309D01*
X482Y1308D02*
X501Y1308D01*
X537Y1308D02*
X555Y1308D01*
X1484Y1308D02*
X1502Y1308D01*
X1538Y1308D02*
X1557Y1308D01*
X482Y1307D02*
X501Y1307D01*
X537Y1307D02*
X555Y1307D01*
X1484Y1307D02*
X1502Y1307D01*
X1538Y1307D02*
X1557Y1307D01*
X482Y1306D02*
X501Y1306D01*
X537Y1306D02*
X555Y1306D01*
X1484Y1306D02*
X1502Y1306D01*
X1538Y1306D02*
X1557Y1306D01*
X482Y1305D02*
X501Y1305D01*
X537Y1305D02*
X555Y1305D01*
X1484Y1305D02*
X1502Y1305D01*
X1538Y1305D02*
X1557Y1305D01*
X482Y1304D02*
X501Y1304D01*
X537Y1304D02*
X555Y1304D01*
X1484Y1304D02*
X1502Y1304D01*
X1538Y1304D02*
X1557Y1304D01*
X483Y1303D02*
X501Y1303D01*
X537Y1303D02*
X555Y1303D01*
X1484Y1303D02*
X1503Y1303D01*
X1538Y1303D02*
X1557Y1303D01*
X483Y1302D02*
X501Y1302D01*
X536Y1302D02*
X555Y1302D01*
X1484Y1302D02*
X1503Y1302D01*
X1538Y1302D02*
X1556Y1302D01*
X483Y1301D02*
X502Y1301D01*
X536Y1301D02*
X555Y1301D01*
X1484Y1301D02*
X1503Y1301D01*
X1537Y1301D02*
X1556Y1301D01*
X483Y1300D02*
X502Y1300D01*
X536Y1300D02*
X555Y1300D01*
X1484Y1300D02*
X1503Y1300D01*
X1537Y1300D02*
X1556Y1300D01*
X483Y1299D02*
X503Y1299D01*
X535Y1299D02*
X554Y1299D01*
X1485Y1299D02*
X1504Y1299D01*
X1537Y1299D02*
X1556Y1299D01*
X484Y1298D02*
X503Y1298D01*
X535Y1298D02*
X554Y1298D01*
X1485Y1298D02*
X1505Y1298D01*
X1536Y1298D02*
X1556Y1298D01*
X484Y1297D02*
X504Y1297D01*
X534Y1297D02*
X554Y1297D01*
X1485Y1297D02*
X1505Y1297D01*
X1535Y1297D02*
X1555Y1297D01*
X484Y1296D02*
X505Y1296D01*
X533Y1296D02*
X554Y1296D01*
X1485Y1296D02*
X1506Y1296D01*
X1535Y1296D02*
X1555Y1296D01*
X484Y1295D02*
X505Y1295D01*
X532Y1295D02*
X553Y1295D01*
X1486Y1295D02*
X1507Y1295D01*
X1534Y1295D02*
X1555Y1295D01*
X485Y1294D02*
X506Y1294D01*
X531Y1294D02*
X553Y1294D01*
X1486Y1294D02*
X1508Y1294D01*
X1533Y1294D02*
X1554Y1294D01*
X485Y1293D02*
X508Y1293D01*
X530Y1293D02*
X553Y1293D01*
X1487Y1293D02*
X1509Y1293D01*
X1532Y1293D02*
X1554Y1293D01*
X486Y1292D02*
X509Y1292D01*
X529Y1292D02*
X552Y1292D01*
X1487Y1292D02*
X1510Y1292D01*
X1530Y1292D02*
X1554Y1292D01*
X486Y1291D02*
X510Y1291D01*
X527Y1291D02*
X552Y1291D01*
X1487Y1291D02*
X1512Y1291D01*
X1529Y1291D02*
X1553Y1291D01*
X487Y1290D02*
X513Y1290D01*
X525Y1290D02*
X551Y1290D01*
X1488Y1290D02*
X1514Y1290D01*
X1526Y1290D02*
X1553Y1290D01*
X487Y1289D02*
X551Y1289D01*
X1488Y1289D02*
X1552Y1289D01*
X488Y1288D02*
X550Y1288D01*
X1489Y1288D02*
X1552Y1288D01*
X488Y1287D02*
X549Y1287D01*
X1490Y1287D02*
X1551Y1287D01*
X489Y1286D02*
X549Y1286D01*
X1490Y1286D02*
X1550Y1286D01*
X490Y1285D02*
X548Y1285D01*
X1491Y1285D02*
X1550Y1285D01*
X490Y1284D02*
X547Y1284D01*
X1492Y1284D02*
X1549Y1284D01*
X491Y1283D02*
X547Y1283D01*
X1492Y1283D02*
X1548Y1283D01*
X492Y1282D02*
X546Y1282D01*
X1493Y1282D02*
X1547Y1282D01*
X493Y1281D02*
X545Y1281D01*
X1494Y1281D02*
X1546Y1281D01*
X494Y1280D02*
X544Y1280D01*
X1495Y1280D02*
X1545Y1280D01*
X495Y1279D02*
X543Y1279D01*
X1496Y1279D02*
X1544Y1279D01*
X496Y1278D02*
X542Y1278D01*
X1498Y1278D02*
X1543Y1278D01*
X497Y1277D02*
X540Y1277D01*
X1499Y1277D02*
X1542Y1277D01*
X499Y1276D02*
X539Y1276D01*
X1500Y1276D02*
X1540Y1276D01*
X501Y1275D02*
X537Y1275D01*
X1502Y1275D02*
X1538Y1275D01*
X502Y1274D02*
X535Y1274D01*
X1504Y1274D02*
X1537Y1274D01*
X505Y1273D02*
X533Y1273D01*
X1506Y1273D02*
X1535Y1273D01*
X507Y1272D02*
X531Y1272D01*
X1509Y1272D02*
X1532Y1272D01*
X510Y1271D02*
X527Y1271D01*
X1512Y1271D02*
X1529Y1271D01*
X515Y1270D02*
X522Y1270D01*
X1517Y1270D02*
X1524Y1270D01*
X513Y1243D02*
X525Y1243D01*
X1514Y1243D02*
X1526Y1243D01*
X509Y1242D02*
X529Y1242D01*
X1510Y1242D02*
X1530Y1242D01*
X506Y1241D02*
X532Y1241D01*
X1507Y1241D02*
X1533Y1241D01*
X504Y1240D02*
X534Y1240D01*
X1505Y1240D02*
X1535Y1240D01*
X502Y1239D02*
X536Y1239D01*
X1503Y1239D02*
X1537Y1239D01*
X500Y1238D02*
X538Y1238D01*
X1501Y1238D02*
X1539Y1238D01*
X498Y1237D02*
X539Y1237D01*
X1500Y1237D02*
X1541Y1237D01*
X497Y1236D02*
X541Y1236D01*
X1498Y1236D02*
X1542Y1236D01*
X496Y1235D02*
X542Y1235D01*
X1497Y1235D02*
X1544Y1235D01*
X494Y1234D02*
X543Y1234D01*
X1496Y1234D02*
X1545Y1234D01*
X493Y1233D02*
X544Y1233D01*
X1495Y1233D02*
X1546Y1233D01*
X492Y1232D02*
X545Y1232D01*
X1494Y1232D02*
X1547Y1232D01*
X491Y1231D02*
X546Y1231D01*
X1493Y1231D02*
X1548Y1231D01*
X491Y1230D02*
X547Y1230D01*
X1492Y1230D02*
X1548Y1230D01*
X490Y1229D02*
X548Y1229D01*
X1491Y1229D02*
X1549Y1229D01*
X489Y1228D02*
X548Y1228D01*
X1491Y1228D02*
X1550Y1228D01*
X489Y1227D02*
X549Y1227D01*
X1490Y1227D02*
X1551Y1227D01*
X488Y1226D02*
X550Y1226D01*
X1489Y1226D02*
X1551Y1226D01*
X487Y1225D02*
X550Y1225D01*
X1489Y1225D02*
X1552Y1225D01*
X487Y1224D02*
X516Y1224D01*
X522Y1224D02*
X551Y1224D01*
X1488Y1224D02*
X1518Y1224D01*
X1523Y1224D02*
X1552Y1224D01*
X486Y1223D02*
X512Y1223D01*
X526Y1223D02*
X551Y1223D01*
X1488Y1223D02*
X1513Y1223D01*
X1528Y1223D02*
X1553Y1223D01*
X486Y1222D02*
X510Y1222D01*
X528Y1222D02*
X552Y1222D01*
X1487Y1222D02*
X1511Y1222D01*
X1529Y1222D02*
X1553Y1222D01*
X485Y1221D02*
X508Y1221D01*
X529Y1221D02*
X552Y1221D01*
X1487Y1221D02*
X1510Y1221D01*
X1531Y1221D02*
X1554Y1221D01*
X485Y1220D02*
X507Y1220D01*
X531Y1220D02*
X553Y1220D01*
X1486Y1220D02*
X1509Y1220D01*
X1532Y1220D02*
X1554Y1220D01*
X485Y1219D02*
X506Y1219D01*
X532Y1219D02*
X553Y1219D01*
X1486Y1219D02*
X1507Y1219D01*
X1533Y1219D02*
X1554Y1219D01*
X484Y1218D02*
X505Y1218D01*
X533Y1218D02*
X553Y1218D01*
X1486Y1218D02*
X1506Y1218D01*
X1534Y1218D02*
X1555Y1218D01*
X484Y1217D02*
X504Y1217D01*
X533Y1217D02*
X554Y1217D01*
X1485Y1217D02*
X1506Y1217D01*
X1535Y1217D02*
X1555Y1217D01*
X484Y1216D02*
X503Y1216D01*
X534Y1216D02*
X554Y1216D01*
X1485Y1216D02*
X1505Y1216D01*
X1536Y1216D02*
X1555Y1216D01*
X483Y1215D02*
X503Y1215D01*
X535Y1215D02*
X554Y1215D01*
X1485Y1215D02*
X1504Y1215D01*
X1536Y1215D02*
X1556Y1215D01*
X483Y1214D02*
X502Y1214D01*
X535Y1214D02*
X555Y1214D01*
X1485Y1214D02*
X1504Y1214D01*
X1537Y1214D02*
X1556Y1214D01*
X483Y1213D02*
X502Y1213D01*
X536Y1213D02*
X555Y1213D01*
X1484Y1213D02*
X1503Y1213D01*
X1537Y1213D02*
X1556Y1213D01*
X483Y1212D02*
X502Y1212D01*
X536Y1212D02*
X555Y1212D01*
X1484Y1212D02*
X1503Y1212D01*
X1538Y1212D02*
X1556Y1212D01*
X483Y1211D02*
X501Y1211D01*
X536Y1211D02*
X555Y1211D01*
X1484Y1211D02*
X1503Y1211D01*
X1538Y1211D02*
X1557Y1211D01*
X482Y1210D02*
X501Y1210D01*
X537Y1210D02*
X555Y1210D01*
X1484Y1210D02*
X1503Y1210D01*
X1538Y1210D02*
X1557Y1210D01*
X482Y1209D02*
X501Y1209D01*
X537Y1209D02*
X555Y1209D01*
X1484Y1209D02*
X1502Y1209D01*
X1538Y1209D02*
X1557Y1209D01*
X482Y1208D02*
X501Y1208D01*
X537Y1208D02*
X555Y1208D01*
X1484Y1208D02*
X1502Y1208D01*
X1538Y1208D02*
X1557Y1208D01*
X482Y1207D02*
X501Y1207D01*
X537Y1207D02*
X555Y1207D01*
X1484Y1207D02*
X1502Y1207D01*
X1538Y1207D02*
X1557Y1207D01*
X482Y1206D02*
X501Y1206D01*
X537Y1206D02*
X555Y1206D01*
X1484Y1206D02*
X1502Y1206D01*
X1538Y1206D02*
X1557Y1206D01*
X482Y1205D02*
X501Y1205D01*
X537Y1205D02*
X555Y1205D01*
X1484Y1205D02*
X1502Y1205D01*
X1538Y1205D02*
X1557Y1205D01*
X482Y1204D02*
X501Y1204D01*
X537Y1204D02*
X555Y1204D01*
X1484Y1204D02*
X1502Y1204D01*
X1538Y1204D02*
X1557Y1204D01*
X483Y1203D02*
X501Y1203D01*
X537Y1203D02*
X555Y1203D01*
X1484Y1203D02*
X1503Y1203D01*
X1538Y1203D02*
X1557Y1203D01*
X483Y1202D02*
X501Y1202D01*
X536Y1202D02*
X555Y1202D01*
X1484Y1202D02*
X1503Y1202D01*
X1538Y1202D02*
X1556Y1202D01*
X483Y1201D02*
X502Y1201D01*
X536Y1201D02*
X555Y1201D01*
X1484Y1201D02*
X1503Y1201D01*
X1537Y1201D02*
X1556Y1201D01*
X483Y1200D02*
X502Y1200D01*
X536Y1200D02*
X555Y1200D01*
X1484Y1200D02*
X1503Y1200D01*
X1537Y1200D02*
X1556Y1200D01*
X483Y1199D02*
X502Y1199D01*
X535Y1199D02*
X554Y1199D01*
X1485Y1199D02*
X1504Y1199D01*
X1537Y1199D02*
X1556Y1199D01*
X483Y1198D02*
X503Y1198D01*
X535Y1198D02*
X554Y1198D01*
X1485Y1198D02*
X1504Y1198D01*
X1536Y1198D02*
X1556Y1198D01*
X484Y1197D02*
X504Y1197D01*
X534Y1197D02*
X554Y1197D01*
X1485Y1197D02*
X1505Y1197D01*
X1535Y1197D02*
X1555Y1197D01*
X484Y1196D02*
X504Y1196D01*
X533Y1196D02*
X554Y1196D01*
X1485Y1196D02*
X1506Y1196D01*
X1535Y1196D02*
X1555Y1196D01*
X484Y1195D02*
X505Y1195D01*
X532Y1195D02*
X553Y1195D01*
X1486Y1195D02*
X1507Y1195D01*
X1534Y1195D02*
X1555Y1195D01*
X485Y1194D02*
X506Y1194D01*
X531Y1194D02*
X553Y1194D01*
X1486Y1194D02*
X1508Y1194D01*
X1533Y1194D02*
X1554Y1194D01*
X485Y1193D02*
X507Y1193D01*
X530Y1193D02*
X553Y1193D01*
X1487Y1193D02*
X1509Y1193D01*
X1532Y1193D02*
X1554Y1193D01*
X486Y1192D02*
X509Y1192D01*
X529Y1192D02*
X552Y1192D01*
X1487Y1192D02*
X1510Y1192D01*
X1531Y1192D02*
X1554Y1192D01*
X486Y1191D02*
X510Y1191D01*
X527Y1191D02*
X552Y1191D01*
X1487Y1191D02*
X1512Y1191D01*
X1529Y1191D02*
X1553Y1191D01*
X486Y1190D02*
X513Y1190D01*
X525Y1190D02*
X551Y1190D01*
X1488Y1190D02*
X1514Y1190D01*
X1526Y1190D02*
X1553Y1190D01*
X487Y1189D02*
X551Y1189D01*
X1488Y1189D02*
X1552Y1189D01*
X488Y1188D02*
X550Y1188D01*
X1489Y1188D02*
X1552Y1188D01*
X488Y1187D02*
X550Y1187D01*
X1490Y1187D02*
X1551Y1187D01*
X489Y1186D02*
X549Y1186D01*
X1490Y1186D02*
X1550Y1186D01*
X489Y1185D02*
X548Y1185D01*
X1491Y1185D02*
X1550Y1185D01*
X490Y1184D02*
X548Y1184D01*
X1492Y1184D02*
X1549Y1184D01*
X491Y1183D02*
X547Y1183D01*
X1492Y1183D02*
X1548Y1183D01*
X492Y1182D02*
X546Y1182D01*
X1493Y1182D02*
X1547Y1182D01*
X493Y1181D02*
X545Y1181D01*
X1494Y1181D02*
X1546Y1181D01*
X494Y1180D02*
X544Y1180D01*
X1495Y1180D02*
X1545Y1180D01*
X495Y1179D02*
X543Y1179D01*
X1496Y1179D02*
X1544Y1179D01*
X496Y1178D02*
X542Y1178D01*
X1497Y1178D02*
X1543Y1178D01*
X497Y1177D02*
X540Y1177D01*
X1499Y1177D02*
X1542Y1177D01*
X499Y1176D02*
X539Y1176D01*
X1500Y1176D02*
X1540Y1176D01*
X500Y1175D02*
X537Y1175D01*
X1502Y1175D02*
X1539Y1175D01*
X502Y1174D02*
X535Y1174D01*
X1504Y1174D02*
X1537Y1174D01*
X504Y1173D02*
X533Y1173D01*
X1506Y1173D02*
X1535Y1173D01*
X507Y1172D02*
X531Y1172D01*
X1508Y1172D02*
X1532Y1172D01*
X510Y1171D02*
X528Y1171D01*
X1511Y1171D02*
X1529Y1171D01*
X515Y1170D02*
X523Y1170D01*
X1516Y1170D02*
X1525Y1170D01*
X513Y1143D02*
X524Y1143D01*
X1515Y1143D02*
X1526Y1143D01*
X509Y1142D02*
X528Y1142D01*
X1511Y1142D02*
X1530Y1142D01*
X506Y1141D02*
X531Y1141D01*
X1508Y1141D02*
X1533Y1141D01*
X504Y1140D02*
X534Y1140D01*
X1505Y1140D02*
X1535Y1140D01*
X502Y1139D02*
X536Y1139D01*
X1503Y1139D02*
X1537Y1139D01*
X500Y1138D02*
X538Y1138D01*
X1502Y1138D02*
X1539Y1138D01*
X498Y1137D02*
X539Y1137D01*
X1500Y1137D02*
X1541Y1137D01*
X497Y1136D02*
X541Y1136D01*
X1498Y1136D02*
X1542Y1136D01*
X496Y1135D02*
X542Y1135D01*
X1497Y1135D02*
X1543Y1135D01*
X495Y1134D02*
X543Y1134D01*
X1496Y1134D02*
X1545Y1134D01*
X493Y1133D02*
X544Y1133D01*
X1495Y1133D02*
X1546Y1133D01*
X492Y1132D02*
X545Y1132D01*
X1494Y1132D02*
X1547Y1132D01*
X492Y1131D02*
X546Y1131D01*
X1493Y1131D02*
X1548Y1131D01*
X491Y1130D02*
X547Y1130D01*
X1492Y1130D02*
X1548Y1130D01*
X490Y1129D02*
X548Y1129D01*
X1491Y1129D02*
X1549Y1129D01*
X489Y1128D02*
X548Y1128D01*
X1491Y1128D02*
X1550Y1128D01*
X489Y1127D02*
X549Y1127D01*
X1490Y1127D02*
X1551Y1127D01*
X488Y1126D02*
X550Y1126D01*
X1489Y1126D02*
X1551Y1126D01*
X487Y1125D02*
X550Y1125D01*
X1489Y1125D02*
X1552Y1125D01*
X487Y1124D02*
X518Y1124D01*
X520Y1124D02*
X551Y1124D01*
X1488Y1124D02*
X1519Y1124D01*
X1522Y1124D02*
X1552Y1124D01*
X486Y1123D02*
X512Y1123D01*
X526Y1123D02*
X551Y1123D01*
X1488Y1123D02*
X1513Y1123D01*
X1527Y1123D02*
X1553Y1123D01*
X486Y1122D02*
X510Y1122D01*
X528Y1122D02*
X552Y1122D01*
X1487Y1122D02*
X1511Y1122D01*
X1529Y1122D02*
X1553Y1122D01*
X485Y1121D02*
X508Y1121D01*
X529Y1121D02*
X552Y1121D01*
X1487Y1121D02*
X1510Y1121D01*
X1531Y1121D02*
X1554Y1121D01*
X485Y1120D02*
X507Y1120D01*
X531Y1120D02*
X553Y1120D01*
X1486Y1120D02*
X1509Y1120D01*
X1532Y1120D02*
X1554Y1120D01*
X485Y1119D02*
X506Y1119D01*
X532Y1119D02*
X553Y1119D01*
X1486Y1119D02*
X1507Y1119D01*
X1533Y1119D02*
X1554Y1119D01*
X484Y1118D02*
X505Y1118D01*
X533Y1118D02*
X553Y1118D01*
X1486Y1118D02*
X1507Y1118D01*
X1534Y1118D02*
X1555Y1118D01*
X484Y1117D02*
X504Y1117D01*
X533Y1117D02*
X554Y1117D01*
X1485Y1117D02*
X1506Y1117D01*
X1535Y1117D02*
X1555Y1117D01*
X484Y1116D02*
X503Y1116D01*
X534Y1116D02*
X554Y1116D01*
X1485Y1116D02*
X1505Y1116D01*
X1536Y1116D02*
X1555Y1116D01*
X483Y1115D02*
X503Y1115D01*
X535Y1115D02*
X554Y1115D01*
X1485Y1115D02*
X1504Y1115D01*
X1536Y1115D02*
X1556Y1115D01*
X483Y1114D02*
X502Y1114D01*
X535Y1114D02*
X555Y1114D01*
X1485Y1114D02*
X1504Y1114D01*
X1537Y1114D02*
X1556Y1114D01*
X483Y1113D02*
X502Y1113D01*
X536Y1113D02*
X555Y1113D01*
X1484Y1113D02*
X1503Y1113D01*
X1537Y1113D02*
X1556Y1113D01*
X483Y1112D02*
X502Y1112D01*
X536Y1112D02*
X555Y1112D01*
X1484Y1112D02*
X1503Y1112D01*
X1538Y1112D02*
X1556Y1112D01*
X483Y1111D02*
X501Y1111D01*
X536Y1111D02*
X555Y1111D01*
X1484Y1111D02*
X1503Y1111D01*
X1538Y1111D02*
X1556Y1111D01*
X482Y1110D02*
X501Y1110D01*
X537Y1110D02*
X555Y1110D01*
X1484Y1110D02*
X1503Y1110D01*
X1538Y1110D02*
X1557Y1110D01*
X482Y1109D02*
X501Y1109D01*
X537Y1109D02*
X555Y1109D01*
X1484Y1109D02*
X1502Y1109D01*
X1538Y1109D02*
X1557Y1109D01*
X482Y1108D02*
X501Y1108D01*
X537Y1108D02*
X555Y1108D01*
X1484Y1108D02*
X1502Y1108D01*
X1538Y1108D02*
X1557Y1108D01*
X482Y1107D02*
X501Y1107D01*
X537Y1107D02*
X555Y1107D01*
X1484Y1107D02*
X1502Y1107D01*
X1538Y1107D02*
X1557Y1107D01*
X482Y1106D02*
X501Y1106D01*
X537Y1106D02*
X555Y1106D01*
X1484Y1106D02*
X1502Y1106D01*
X1538Y1106D02*
X1557Y1106D01*
X482Y1105D02*
X501Y1105D01*
X537Y1105D02*
X555Y1105D01*
X1484Y1105D02*
X1502Y1105D01*
X1538Y1105D02*
X1557Y1105D01*
X482Y1104D02*
X501Y1104D01*
X537Y1104D02*
X555Y1104D01*
X1484Y1104D02*
X1502Y1104D01*
X1538Y1104D02*
X1557Y1104D01*
X483Y1103D02*
X501Y1103D01*
X537Y1103D02*
X555Y1103D01*
X1484Y1103D02*
X1503Y1103D01*
X1538Y1103D02*
X1557Y1103D01*
X483Y1102D02*
X501Y1102D01*
X536Y1102D02*
X555Y1102D01*
X1484Y1102D02*
X1503Y1102D01*
X1538Y1102D02*
X1556Y1102D01*
X483Y1101D02*
X502Y1101D01*
X536Y1101D02*
X555Y1101D01*
X1484Y1101D02*
X1503Y1101D01*
X1537Y1101D02*
X1556Y1101D01*
X483Y1100D02*
X502Y1100D01*
X536Y1100D02*
X555Y1100D01*
X1484Y1100D02*
X1503Y1100D01*
X1537Y1100D02*
X1556Y1100D01*
X483Y1099D02*
X502Y1099D01*
X535Y1099D02*
X554Y1099D01*
X1485Y1099D02*
X1504Y1099D01*
X1537Y1099D02*
X1556Y1099D01*
X483Y1098D02*
X503Y1098D01*
X535Y1098D02*
X554Y1098D01*
X1485Y1098D02*
X1504Y1098D01*
X1536Y1098D02*
X1556Y1098D01*
X484Y1097D02*
X504Y1097D01*
X534Y1097D02*
X554Y1097D01*
X1485Y1097D02*
X1505Y1097D01*
X1536Y1097D02*
X1555Y1097D01*
X484Y1096D02*
X504Y1096D01*
X533Y1096D02*
X554Y1096D01*
X1485Y1096D02*
X1506Y1096D01*
X1535Y1096D02*
X1555Y1096D01*
X484Y1095D02*
X505Y1095D01*
X532Y1095D02*
X553Y1095D01*
X1486Y1095D02*
X1507Y1095D01*
X1534Y1095D02*
X1555Y1095D01*
X485Y1094D02*
X506Y1094D01*
X532Y1094D02*
X553Y1094D01*
X1486Y1094D02*
X1508Y1094D01*
X1533Y1094D02*
X1554Y1094D01*
X485Y1093D02*
X507Y1093D01*
X530Y1093D02*
X553Y1093D01*
X1487Y1093D02*
X1509Y1093D01*
X1532Y1093D02*
X1554Y1093D01*
X485Y1092D02*
X508Y1092D01*
X529Y1092D02*
X552Y1092D01*
X1487Y1092D02*
X1510Y1092D01*
X1531Y1092D02*
X1554Y1092D01*
X486Y1091D02*
X510Y1091D01*
X528Y1091D02*
X552Y1091D01*
X1487Y1091D02*
X1512Y1091D01*
X1529Y1091D02*
X1553Y1091D01*
X486Y1090D02*
X512Y1090D01*
X525Y1090D02*
X551Y1090D01*
X1488Y1090D02*
X1514Y1090D01*
X1527Y1090D02*
X1553Y1090D01*
X487Y1089D02*
X551Y1089D01*
X1488Y1089D02*
X1552Y1089D01*
X487Y1088D02*
X550Y1088D01*
X1489Y1088D02*
X1552Y1088D01*
X488Y1087D02*
X550Y1087D01*
X1489Y1087D02*
X1551Y1087D01*
X489Y1086D02*
X549Y1086D01*
X1490Y1086D02*
X1550Y1086D01*
X489Y1085D02*
X548Y1085D01*
X1491Y1085D02*
X1550Y1085D01*
X490Y1084D02*
X548Y1084D01*
X1491Y1084D02*
X1549Y1084D01*
X491Y1083D02*
X547Y1083D01*
X1492Y1083D02*
X1548Y1083D01*
X492Y1082D02*
X546Y1082D01*
X1493Y1082D02*
X1547Y1082D01*
X493Y1081D02*
X545Y1081D01*
X1494Y1081D02*
X1547Y1081D01*
X494Y1080D02*
X544Y1080D01*
X1495Y1080D02*
X1546Y1080D01*
X495Y1079D02*
X543Y1079D01*
X1496Y1079D02*
X1544Y1079D01*
X496Y1078D02*
X542Y1078D01*
X1497Y1078D02*
X1543Y1078D01*
X497Y1077D02*
X541Y1077D01*
X1499Y1077D02*
X1542Y1077D01*
X499Y1076D02*
X539Y1076D01*
X1500Y1076D02*
X1541Y1076D01*
X500Y1075D02*
X537Y1075D01*
X1502Y1075D02*
X1539Y1075D01*
X502Y1074D02*
X536Y1074D01*
X1503Y1074D02*
X1537Y1074D01*
X504Y1073D02*
X534Y1073D01*
X1506Y1073D02*
X1535Y1073D01*
X507Y1072D02*
X531Y1072D01*
X1508Y1072D02*
X1533Y1072D01*
X510Y1071D02*
X528Y1071D01*
X1511Y1071D02*
X1530Y1071D01*
X514Y1070D02*
X524Y1070D01*
X1515Y1070D02*
X1525Y1070D01*
X514Y1043D02*
X524Y1043D01*
X1516Y1043D02*
X1525Y1043D01*
X510Y1042D02*
X528Y1042D01*
X1511Y1042D02*
X1529Y1042D01*
X507Y1041D02*
X531Y1041D01*
X1508Y1041D02*
X1532Y1041D01*
X504Y1040D02*
X534Y1040D01*
X1506Y1040D02*
X1535Y1040D01*
X502Y1039D02*
X536Y1039D01*
X1504Y1039D02*
X1537Y1039D01*
X500Y1038D02*
X537Y1038D01*
X1502Y1038D02*
X1539Y1038D01*
X499Y1037D02*
X539Y1037D01*
X1500Y1037D02*
X1541Y1037D01*
X497Y1036D02*
X540Y1036D01*
X1499Y1036D02*
X1542Y1036D01*
X496Y1035D02*
X542Y1035D01*
X1497Y1035D02*
X1543Y1035D01*
X495Y1034D02*
X543Y1034D01*
X1496Y1034D02*
X1544Y1034D01*
X494Y1033D02*
X544Y1033D01*
X1495Y1033D02*
X1546Y1033D01*
X493Y1032D02*
X545Y1032D01*
X1494Y1032D02*
X1547Y1032D01*
X492Y1031D02*
X546Y1031D01*
X1493Y1031D02*
X1547Y1031D01*
X491Y1030D02*
X547Y1030D01*
X1492Y1030D02*
X1548Y1030D01*
X490Y1029D02*
X548Y1029D01*
X1492Y1029D02*
X1549Y1029D01*
X489Y1028D02*
X548Y1028D01*
X1491Y1028D02*
X1550Y1028D01*
X489Y1027D02*
X549Y1027D01*
X1490Y1027D02*
X1550Y1027D01*
X488Y1026D02*
X550Y1026D01*
X1490Y1026D02*
X1551Y1026D01*
X487Y1025D02*
X550Y1025D01*
X1489Y1025D02*
X1552Y1025D01*
X487Y1024D02*
X551Y1024D01*
X1488Y1024D02*
X1552Y1024D01*
X486Y1023D02*
X512Y1023D01*
X525Y1023D02*
X551Y1023D01*
X1488Y1023D02*
X1514Y1023D01*
X1527Y1023D02*
X1553Y1023D01*
X486Y1022D02*
X510Y1022D01*
X528Y1022D02*
X552Y1022D01*
X1487Y1022D02*
X1512Y1022D01*
X1529Y1022D02*
X1553Y1022D01*
X485Y1021D02*
X508Y1021D01*
X529Y1021D02*
X552Y1021D01*
X1487Y1021D02*
X1510Y1021D01*
X1531Y1021D02*
X1554Y1021D01*
X485Y1020D02*
X507Y1020D01*
X530Y1020D02*
X553Y1020D01*
X1487Y1020D02*
X1509Y1020D01*
X1532Y1020D02*
X1554Y1020D01*
X485Y1019D02*
X506Y1019D01*
X532Y1019D02*
X553Y1019D01*
X1486Y1019D02*
X1508Y1019D01*
X1533Y1019D02*
X1554Y1019D01*
X484Y1018D02*
X505Y1018D01*
X532Y1018D02*
X553Y1018D01*
X1486Y1018D02*
X1507Y1018D01*
X1534Y1018D02*
X1555Y1018D01*
X484Y1017D02*
X504Y1017D01*
X533Y1017D02*
X554Y1017D01*
X1485Y1017D02*
X1506Y1017D01*
X1535Y1017D02*
X1555Y1017D01*
X484Y1016D02*
X504Y1016D01*
X534Y1016D02*
X554Y1016D01*
X1485Y1016D02*
X1505Y1016D01*
X1536Y1016D02*
X1555Y1016D01*
X483Y1015D02*
X503Y1015D01*
X535Y1015D02*
X554Y1015D01*
X1485Y1015D02*
X1504Y1015D01*
X1536Y1015D02*
X1556Y1015D01*
X483Y1014D02*
X502Y1014D01*
X535Y1014D02*
X554Y1014D01*
X1485Y1014D02*
X1504Y1014D01*
X1537Y1014D02*
X1556Y1014D01*
X483Y1013D02*
X502Y1013D01*
X536Y1013D02*
X555Y1013D01*
X1484Y1013D02*
X1503Y1013D01*
X1537Y1013D02*
X1556Y1013D01*
X483Y1012D02*
X502Y1012D01*
X536Y1012D02*
X555Y1012D01*
X1484Y1012D02*
X1503Y1012D01*
X1537Y1012D02*
X1556Y1012D01*
X483Y1011D02*
X501Y1011D01*
X536Y1011D02*
X555Y1011D01*
X1484Y1011D02*
X1503Y1011D01*
X1538Y1011D02*
X1556Y1011D01*
X483Y1010D02*
X501Y1010D01*
X537Y1010D02*
X555Y1010D01*
X1484Y1010D02*
X1503Y1010D01*
X1538Y1010D02*
X1557Y1010D01*
X482Y1009D02*
X501Y1009D01*
X537Y1009D02*
X555Y1009D01*
X1484Y1009D02*
X1502Y1009D01*
X1538Y1009D02*
X1557Y1009D01*
X482Y1008D02*
X501Y1008D01*
X537Y1008D02*
X555Y1008D01*
X1484Y1008D02*
X1502Y1008D01*
X1538Y1008D02*
X1557Y1008D01*
X482Y1007D02*
X501Y1007D01*
X537Y1007D02*
X555Y1007D01*
X1484Y1007D02*
X1502Y1007D01*
X1538Y1007D02*
X1557Y1007D01*
X482Y1006D02*
X501Y1006D01*
X537Y1006D02*
X555Y1006D01*
X1484Y1006D02*
X1502Y1006D01*
X1538Y1006D02*
X1557Y1006D01*
X482Y1005D02*
X501Y1005D01*
X537Y1005D02*
X555Y1005D01*
X1484Y1005D02*
X1502Y1005D01*
X1538Y1005D02*
X1557Y1005D01*
X482Y1004D02*
X501Y1004D01*
X537Y1004D02*
X555Y1004D01*
X1484Y1004D02*
X1502Y1004D01*
X1538Y1004D02*
X1557Y1004D01*
X482Y1003D02*
X501Y1003D01*
X537Y1003D02*
X555Y1003D01*
X1484Y1003D02*
X1503Y1003D01*
X1538Y1003D02*
X1557Y1003D01*
X483Y1002D02*
X501Y1002D01*
X536Y1002D02*
X555Y1002D01*
X1484Y1002D02*
X1503Y1002D01*
X1538Y1002D02*
X1556Y1002D01*
X483Y1001D02*
X502Y1001D01*
X536Y1001D02*
X555Y1001D01*
X1484Y1001D02*
X1503Y1001D01*
X1538Y1001D02*
X1556Y1001D01*
X483Y1000D02*
X502Y1000D01*
X536Y1000D02*
X555Y1000D01*
X1484Y1000D02*
X1503Y1000D01*
X1537Y1000D02*
X1556Y1000D01*
X483Y999D02*
X502Y999D01*
X535Y999D02*
X555Y999D01*
X1485Y999D02*
X1504Y999D01*
X1537Y999D02*
X1556Y999D01*
X483Y998D02*
X503Y998D01*
X535Y998D02*
X554Y998D01*
X1485Y998D02*
X1504Y998D01*
X1536Y998D02*
X1556Y998D01*
X484Y997D02*
X503Y997D01*
X534Y997D02*
X554Y997D01*
X1485Y997D02*
X1505Y997D01*
X1536Y997D02*
X1555Y997D01*
X484Y996D02*
X504Y996D01*
X533Y996D02*
X554Y996D01*
X1485Y996D02*
X1506Y996D01*
X1535Y996D02*
X1555Y996D01*
X484Y995D02*
X505Y995D01*
X533Y995D02*
X553Y995D01*
X1486Y995D02*
X1507Y995D01*
X1534Y995D02*
X1555Y995D01*
X485Y994D02*
X506Y994D01*
X532Y994D02*
X553Y994D01*
X1486Y994D02*
X1507Y994D01*
X1533Y994D02*
X1554Y994D01*
X485Y993D02*
X507Y993D01*
X531Y993D02*
X553Y993D01*
X1486Y993D02*
X1509Y993D01*
X1532Y993D02*
X1554Y993D01*
X485Y992D02*
X508Y992D01*
X529Y992D02*
X552Y992D01*
X1487Y992D02*
X1510Y992D01*
X1531Y992D02*
X1554Y992D01*
X486Y991D02*
X510Y991D01*
X528Y991D02*
X552Y991D01*
X1487Y991D02*
X1511Y991D01*
X1529Y991D02*
X1553Y991D01*
X486Y990D02*
X512Y990D01*
X526Y990D02*
X551Y990D01*
X1488Y990D02*
X1513Y990D01*
X1527Y990D02*
X1553Y990D01*
X487Y989D02*
X517Y989D01*
X520Y989D02*
X551Y989D01*
X1488Y989D02*
X1519Y989D01*
X1522Y989D02*
X1552Y989D01*
X487Y988D02*
X550Y988D01*
X1489Y988D02*
X1552Y988D01*
X488Y987D02*
X550Y987D01*
X1489Y987D02*
X1551Y987D01*
X489Y986D02*
X549Y986D01*
X1490Y986D02*
X1551Y986D01*
X489Y985D02*
X548Y985D01*
X1491Y985D02*
X1550Y985D01*
X490Y984D02*
X548Y984D01*
X1491Y984D02*
X1549Y984D01*
X491Y983D02*
X547Y983D01*
X1492Y983D02*
X1548Y983D01*
X492Y982D02*
X546Y982D01*
X1493Y982D02*
X1548Y982D01*
X492Y981D02*
X545Y981D01*
X1494Y981D02*
X1547Y981D01*
X493Y980D02*
X544Y980D01*
X1495Y980D02*
X1546Y980D01*
X495Y979D02*
X543Y979D01*
X1496Y979D02*
X1545Y979D01*
X496Y978D02*
X542Y978D01*
X1497Y978D02*
X1543Y978D01*
X497Y977D02*
X541Y977D01*
X1498Y977D02*
X1542Y977D01*
X498Y976D02*
X539Y976D01*
X1500Y976D02*
X1541Y976D01*
X500Y975D02*
X538Y975D01*
X1502Y975D02*
X1539Y975D01*
X502Y974D02*
X536Y974D01*
X1503Y974D02*
X1537Y974D01*
X504Y973D02*
X534Y973D01*
X1505Y973D02*
X1535Y973D01*
X506Y972D02*
X531Y972D01*
X1508Y972D02*
X1533Y972D01*
X509Y971D02*
X529Y971D01*
X1511Y971D02*
X1530Y971D01*
X513Y970D02*
X524Y970D01*
X1515Y970D02*
X1526Y970D01*
X515Y943D02*
X523Y943D01*
X1516Y943D02*
X1524Y943D01*
X510Y942D02*
X528Y942D01*
X1511Y942D02*
X1529Y942D01*
X507Y941D02*
X531Y941D01*
X1508Y941D02*
X1532Y941D01*
X504Y940D02*
X533Y940D01*
X1506Y940D02*
X1535Y940D01*
X502Y939D02*
X535Y939D01*
X1504Y939D02*
X1537Y939D01*
X500Y938D02*
X537Y938D01*
X1502Y938D02*
X1539Y938D01*
X499Y937D02*
X539Y937D01*
X1500Y937D02*
X1540Y937D01*
X497Y936D02*
X540Y936D01*
X1499Y936D02*
X1542Y936D01*
X496Y935D02*
X542Y935D01*
X1497Y935D02*
X1543Y935D01*
X495Y934D02*
X543Y934D01*
X1496Y934D02*
X1544Y934D01*
X494Y933D02*
X544Y933D01*
X1495Y933D02*
X1545Y933D01*
X493Y932D02*
X545Y932D01*
X1494Y932D02*
X1546Y932D01*
X492Y931D02*
X546Y931D01*
X1493Y931D02*
X1547Y931D01*
X491Y930D02*
X547Y930D01*
X1492Y930D02*
X1548Y930D01*
X490Y929D02*
X548Y929D01*
X1492Y929D02*
X1549Y929D01*
X489Y928D02*
X548Y928D01*
X1491Y928D02*
X1550Y928D01*
X489Y927D02*
X549Y927D01*
X1490Y927D02*
X1550Y927D01*
X488Y926D02*
X550Y926D01*
X1490Y926D02*
X1551Y926D01*
X488Y925D02*
X550Y925D01*
X1489Y925D02*
X1552Y925D01*
X487Y924D02*
X551Y924D01*
X1488Y924D02*
X1552Y924D01*
X486Y923D02*
X513Y923D01*
X525Y923D02*
X551Y923D01*
X1488Y923D02*
X1514Y923D01*
X1526Y923D02*
X1553Y923D01*
X486Y922D02*
X510Y922D01*
X527Y922D02*
X552Y922D01*
X1487Y922D02*
X1512Y922D01*
X1529Y922D02*
X1553Y922D01*
X486Y921D02*
X509Y921D01*
X529Y921D02*
X552Y921D01*
X1487Y921D02*
X1510Y921D01*
X1530Y921D02*
X1554Y921D01*
X485Y920D02*
X507Y920D01*
X530Y920D02*
X553Y920D01*
X1487Y920D02*
X1509Y920D01*
X1532Y920D02*
X1554Y920D01*
X485Y919D02*
X506Y919D01*
X531Y919D02*
X553Y919D01*
X1486Y919D02*
X1508Y919D01*
X1533Y919D02*
X1554Y919D01*
X484Y918D02*
X505Y918D01*
X532Y918D02*
X553Y918D01*
X1486Y918D02*
X1507Y918D01*
X1534Y918D02*
X1555Y918D01*
X484Y917D02*
X504Y917D01*
X533Y917D02*
X554Y917D01*
X1485Y917D02*
X1506Y917D01*
X1535Y917D02*
X1555Y917D01*
X484Y916D02*
X504Y916D01*
X534Y916D02*
X554Y916D01*
X1485Y916D02*
X1505Y916D01*
X1535Y916D02*
X1555Y916D01*
X483Y915D02*
X503Y915D01*
X535Y915D02*
X554Y915D01*
X1485Y915D02*
X1504Y915D01*
X1536Y915D02*
X1556Y915D01*
X483Y914D02*
X502Y914D01*
X535Y914D02*
X554Y914D01*
X1485Y914D02*
X1504Y914D01*
X1537Y914D02*
X1556Y914D01*
X483Y913D02*
X502Y913D01*
X536Y913D02*
X555Y913D01*
X1484Y913D02*
X1503Y913D01*
X1537Y913D02*
X1556Y913D01*
X483Y912D02*
X502Y912D01*
X536Y912D02*
X555Y912D01*
X1484Y912D02*
X1503Y912D01*
X1537Y912D02*
X1556Y912D01*
X483Y911D02*
X501Y911D01*
X536Y911D02*
X555Y911D01*
X1484Y911D02*
X1503Y911D01*
X1538Y911D02*
X1556Y911D01*
X483Y910D02*
X501Y910D01*
X537Y910D02*
X555Y910D01*
X1484Y910D02*
X1503Y910D01*
X1538Y910D02*
X1557Y910D01*
X482Y909D02*
X501Y909D01*
X537Y909D02*
X555Y909D01*
X1484Y909D02*
X1502Y909D01*
X1538Y909D02*
X1557Y909D01*
X482Y908D02*
X501Y908D01*
X537Y908D02*
X555Y908D01*
X1484Y908D02*
X1502Y908D01*
X1538Y908D02*
X1557Y908D01*
X482Y907D02*
X501Y907D01*
X537Y907D02*
X555Y907D01*
X1484Y907D02*
X1502Y907D01*
X1538Y907D02*
X1557Y907D01*
X482Y906D02*
X501Y906D01*
X537Y906D02*
X555Y906D01*
X1484Y906D02*
X1502Y906D01*
X1538Y906D02*
X1557Y906D01*
X482Y905D02*
X501Y905D01*
X537Y905D02*
X555Y905D01*
X1484Y905D02*
X1502Y905D01*
X1538Y905D02*
X1557Y905D01*
X482Y904D02*
X501Y904D01*
X537Y904D02*
X555Y904D01*
X1484Y904D02*
X1502Y904D01*
X1538Y904D02*
X1557Y904D01*
X482Y903D02*
X501Y903D01*
X537Y903D02*
X555Y903D01*
X1484Y903D02*
X1503Y903D01*
X1538Y903D02*
X1557Y903D01*
X483Y902D02*
X501Y902D01*
X536Y902D02*
X555Y902D01*
X1484Y902D02*
X1503Y902D01*
X1538Y902D02*
X1557Y902D01*
X483Y901D02*
X502Y901D01*
X536Y901D02*
X555Y901D01*
X1484Y901D02*
X1503Y901D01*
X1538Y901D02*
X1556Y901D01*
X483Y900D02*
X502Y900D01*
X536Y900D02*
X555Y900D01*
X1484Y900D02*
X1503Y900D01*
X1537Y900D02*
X1556Y900D01*
X483Y899D02*
X502Y899D01*
X535Y899D02*
X555Y899D01*
X1485Y899D02*
X1504Y899D01*
X1537Y899D02*
X1556Y899D01*
X483Y898D02*
X503Y898D01*
X535Y898D02*
X554Y898D01*
X1485Y898D02*
X1504Y898D01*
X1536Y898D02*
X1556Y898D01*
X484Y897D02*
X503Y897D01*
X534Y897D02*
X554Y897D01*
X1485Y897D02*
X1505Y897D01*
X1536Y897D02*
X1555Y897D01*
X484Y896D02*
X504Y896D01*
X534Y896D02*
X554Y896D01*
X1485Y896D02*
X1506Y896D01*
X1535Y896D02*
X1555Y896D01*
X484Y895D02*
X505Y895D01*
X533Y895D02*
X553Y895D01*
X1486Y895D02*
X1506Y895D01*
X1534Y895D02*
X1555Y895D01*
X485Y894D02*
X506Y894D01*
X532Y894D02*
X553Y894D01*
X1486Y894D02*
X1507Y894D01*
X1533Y894D02*
X1554Y894D01*
X485Y893D02*
X507Y893D01*
X531Y893D02*
X553Y893D01*
X1486Y893D02*
X1508Y893D01*
X1532Y893D02*
X1554Y893D01*
X485Y892D02*
X508Y892D01*
X529Y892D02*
X552Y892D01*
X1487Y892D02*
X1510Y892D01*
X1531Y892D02*
X1554Y892D01*
X486Y891D02*
X510Y891D01*
X528Y891D02*
X552Y891D01*
X1487Y891D02*
X1511Y891D01*
X1529Y891D02*
X1553Y891D01*
X486Y890D02*
X512Y890D01*
X526Y890D02*
X551Y890D01*
X1488Y890D02*
X1513Y890D01*
X1528Y890D02*
X1553Y890D01*
X487Y889D02*
X516Y889D01*
X522Y889D02*
X551Y889D01*
X1488Y889D02*
X1517Y889D01*
X1523Y889D02*
X1552Y889D01*
X487Y888D02*
X550Y888D01*
X1489Y888D02*
X1552Y888D01*
X488Y887D02*
X550Y887D01*
X1489Y887D02*
X1551Y887D01*
X489Y886D02*
X549Y886D01*
X1490Y886D02*
X1551Y886D01*
X489Y885D02*
X549Y885D01*
X1491Y885D02*
X1550Y885D01*
X490Y884D02*
X548Y884D01*
X1491Y884D02*
X1549Y884D01*
X491Y883D02*
X547Y883D01*
X1492Y883D02*
X1548Y883D01*
X491Y882D02*
X546Y882D01*
X1493Y882D02*
X1548Y882D01*
X492Y881D02*
X545Y881D01*
X1494Y881D02*
X1547Y881D01*
X493Y880D02*
X544Y880D01*
X1495Y880D02*
X1546Y880D01*
X494Y879D02*
X543Y879D01*
X1496Y879D02*
X1545Y879D01*
X496Y878D02*
X542Y878D01*
X1497Y878D02*
X1544Y878D01*
X497Y877D02*
X541Y877D01*
X1498Y877D02*
X1542Y877D01*
X498Y876D02*
X539Y876D01*
X1500Y876D02*
X1541Y876D01*
X500Y875D02*
X538Y875D01*
X1501Y875D02*
X1539Y875D01*
X502Y874D02*
X536Y874D01*
X1503Y874D02*
X1538Y874D01*
X504Y873D02*
X534Y873D01*
X1505Y873D02*
X1535Y873D01*
X506Y872D02*
X532Y872D01*
X1507Y872D02*
X1533Y872D01*
X509Y871D02*
X529Y871D01*
X1510Y871D02*
X1530Y871D01*
X513Y870D02*
X525Y870D01*
X1514Y870D02*
X1526Y870D01*
X515Y843D02*
X522Y843D01*
X1517Y843D02*
X1524Y843D01*
X510Y842D02*
X527Y842D01*
X1512Y842D02*
X1529Y842D01*
X507Y841D02*
X530Y841D01*
X1509Y841D02*
X1532Y841D01*
X505Y840D02*
X533Y840D01*
X1506Y840D02*
X1534Y840D01*
X503Y839D02*
X535Y839D01*
X1504Y839D02*
X1537Y839D01*
X501Y838D02*
X537Y838D01*
X1502Y838D02*
X1538Y838D01*
X499Y837D02*
X539Y837D01*
X1500Y837D02*
X1540Y837D01*
X498Y836D02*
X540Y836D01*
X1499Y836D02*
X1542Y836D01*
X496Y835D02*
X542Y835D01*
X1498Y835D02*
X1543Y835D01*
X495Y834D02*
X543Y834D01*
X1496Y834D02*
X1544Y834D01*
X494Y833D02*
X544Y833D01*
X1495Y833D02*
X1545Y833D01*
X493Y832D02*
X545Y832D01*
X1494Y832D02*
X1546Y832D01*
X492Y831D02*
X546Y831D01*
X1493Y831D02*
X1547Y831D01*
X491Y830D02*
X547Y830D01*
X1492Y830D02*
X1548Y830D01*
X490Y829D02*
X547Y829D01*
X1492Y829D02*
X1549Y829D01*
X490Y828D02*
X548Y828D01*
X1491Y828D02*
X1550Y828D01*
X489Y827D02*
X549Y827D01*
X1490Y827D02*
X1550Y827D01*
X488Y826D02*
X549Y826D01*
X1490Y826D02*
X1551Y826D01*
X488Y825D02*
X550Y825D01*
X1489Y825D02*
X1552Y825D01*
X487Y824D02*
X551Y824D01*
X1488Y824D02*
X1552Y824D01*
X487Y823D02*
X513Y823D01*
X525Y823D02*
X551Y823D01*
X1488Y823D02*
X1515Y823D01*
X1526Y823D02*
X1553Y823D01*
X486Y822D02*
X511Y822D01*
X527Y822D02*
X552Y822D01*
X1488Y822D02*
X1512Y822D01*
X1529Y822D02*
X1553Y822D01*
X486Y821D02*
X509Y821D01*
X529Y821D02*
X552Y821D01*
X1487Y821D02*
X1510Y821D01*
X1530Y821D02*
X1554Y821D01*
X485Y820D02*
X508Y820D01*
X530Y820D02*
X553Y820D01*
X1487Y820D02*
X1509Y820D01*
X1532Y820D02*
X1554Y820D01*
X485Y819D02*
X506Y819D01*
X531Y819D02*
X553Y819D01*
X1486Y819D02*
X1508Y819D01*
X1533Y819D02*
X1554Y819D01*
X484Y818D02*
X505Y818D01*
X532Y818D02*
X553Y818D01*
X1486Y818D02*
X1507Y818D01*
X1534Y818D02*
X1555Y818D01*
X484Y817D02*
X505Y817D01*
X533Y817D02*
X554Y817D01*
X1485Y817D02*
X1506Y817D01*
X1535Y817D02*
X1555Y817D01*
X484Y816D02*
X504Y816D01*
X534Y816D02*
X554Y816D01*
X1485Y816D02*
X1505Y816D01*
X1535Y816D02*
X1555Y816D01*
X484Y815D02*
X503Y815D01*
X535Y815D02*
X554Y815D01*
X1485Y815D02*
X1505Y815D01*
X1536Y815D02*
X1556Y815D01*
X483Y814D02*
X503Y814D01*
X535Y814D02*
X554Y814D01*
X1485Y814D02*
X1504Y814D01*
X1537Y814D02*
X1556Y814D01*
X483Y813D02*
X502Y813D01*
X536Y813D02*
X555Y813D01*
X1484Y813D02*
X1503Y813D01*
X1537Y813D02*
X1556Y813D01*
X483Y812D02*
X502Y812D01*
X536Y812D02*
X555Y812D01*
X1484Y812D02*
X1503Y812D01*
X1537Y812D02*
X1556Y812D01*
X483Y811D02*
X501Y811D01*
X536Y811D02*
X555Y811D01*
X1484Y811D02*
X1503Y811D01*
X1538Y811D02*
X1556Y811D01*
X483Y810D02*
X501Y810D01*
X537Y810D02*
X555Y810D01*
X1484Y810D02*
X1503Y810D01*
X1538Y810D02*
X1557Y810D01*
X482Y809D02*
X501Y809D01*
X537Y809D02*
X555Y809D01*
X1484Y809D02*
X1502Y809D01*
X1538Y809D02*
X1557Y809D01*
X482Y808D02*
X501Y808D01*
X537Y808D02*
X555Y808D01*
X1484Y808D02*
X1502Y808D01*
X1538Y808D02*
X1557Y808D01*
X482Y807D02*
X501Y807D01*
X537Y807D02*
X555Y807D01*
X1484Y807D02*
X1502Y807D01*
X1538Y807D02*
X1557Y807D01*
X482Y806D02*
X501Y806D01*
X537Y806D02*
X555Y806D01*
X1484Y806D02*
X1502Y806D01*
X1538Y806D02*
X1557Y806D01*
X482Y805D02*
X501Y805D01*
X537Y805D02*
X555Y805D01*
X1484Y805D02*
X1502Y805D01*
X1538Y805D02*
X1557Y805D01*
X482Y804D02*
X501Y804D01*
X537Y804D02*
X555Y804D01*
X1484Y804D02*
X1502Y804D01*
X1538Y804D02*
X1557Y804D01*
X482Y803D02*
X501Y803D01*
X537Y803D02*
X555Y803D01*
X1484Y803D02*
X1503Y803D01*
X1538Y803D02*
X1557Y803D01*
X483Y802D02*
X501Y802D01*
X536Y802D02*
X555Y802D01*
X1484Y802D02*
X1503Y802D01*
X1538Y802D02*
X1557Y802D01*
X483Y801D02*
X502Y801D01*
X536Y801D02*
X555Y801D01*
X1484Y801D02*
X1503Y801D01*
X1538Y801D02*
X1556Y801D01*
X483Y800D02*
X502Y800D01*
X536Y800D02*
X555Y800D01*
X1484Y800D02*
X1503Y800D01*
X1537Y800D02*
X1556Y800D01*
X483Y799D02*
X502Y799D01*
X535Y799D02*
X555Y799D01*
X1485Y799D02*
X1504Y799D01*
X1537Y799D02*
X1556Y799D01*
X483Y798D02*
X503Y798D01*
X535Y798D02*
X554Y798D01*
X1485Y798D02*
X1504Y798D01*
X1536Y798D02*
X1556Y798D01*
X484Y797D02*
X503Y797D01*
X534Y797D02*
X554Y797D01*
X1485Y797D02*
X1505Y797D01*
X1536Y797D02*
X1555Y797D01*
X484Y796D02*
X504Y796D01*
X534Y796D02*
X554Y796D01*
X1485Y796D02*
X1506Y796D01*
X1535Y796D02*
X1555Y796D01*
X484Y795D02*
X505Y795D01*
X533Y795D02*
X553Y795D01*
X1486Y795D02*
X1506Y795D01*
X1534Y795D02*
X1555Y795D01*
X485Y794D02*
X506Y794D01*
X532Y794D02*
X553Y794D01*
X1486Y794D02*
X1507Y794D01*
X1533Y794D02*
X1555Y794D01*
X485Y793D02*
X507Y793D01*
X531Y793D02*
X553Y793D01*
X1486Y793D02*
X1508Y793D01*
X1532Y793D02*
X1554Y793D01*
X485Y792D02*
X508Y792D01*
X530Y792D02*
X552Y792D01*
X1487Y792D02*
X1509Y792D01*
X1531Y792D02*
X1554Y792D01*
X486Y791D02*
X509Y791D01*
X528Y791D02*
X552Y791D01*
X1487Y791D02*
X1511Y791D01*
X1530Y791D02*
X1553Y791D01*
X486Y790D02*
X511Y790D01*
X526Y790D02*
X551Y790D01*
X1488Y790D02*
X1513Y790D01*
X1528Y790D02*
X1553Y790D01*
X487Y789D02*
X515Y789D01*
X523Y789D02*
X551Y789D01*
X1488Y789D02*
X1516Y789D01*
X1524Y789D02*
X1552Y789D01*
X487Y788D02*
X550Y788D01*
X1489Y788D02*
X1552Y788D01*
X488Y787D02*
X550Y787D01*
X1489Y787D02*
X1551Y787D01*
X488Y786D02*
X549Y786D01*
X1490Y786D02*
X1551Y786D01*
X489Y785D02*
X549Y785D01*
X1491Y785D02*
X1550Y785D01*
X490Y784D02*
X548Y784D01*
X1491Y784D02*
X1549Y784D01*
X491Y783D02*
X547Y783D01*
X1492Y783D02*
X1549Y783D01*
X491Y782D02*
X546Y782D01*
X1493Y782D02*
X1548Y782D01*
X492Y781D02*
X545Y781D01*
X1494Y781D02*
X1547Y781D01*
X493Y780D02*
X545Y780D01*
X1495Y780D02*
X1546Y780D01*
X494Y779D02*
X543Y779D01*
X1496Y779D02*
X1545Y779D01*
X495Y778D02*
X542Y778D01*
X1497Y778D02*
X1544Y778D01*
X497Y777D02*
X541Y777D01*
X1498Y777D02*
X1542Y777D01*
X498Y776D02*
X540Y776D01*
X1500Y776D02*
X1541Y776D01*
X500Y775D02*
X538Y775D01*
X1501Y775D02*
X1539Y775D01*
X501Y774D02*
X536Y774D01*
X1503Y774D02*
X1538Y774D01*
X503Y773D02*
X534Y773D01*
X1505Y773D02*
X1536Y773D01*
X506Y772D02*
X532Y772D01*
X1507Y772D02*
X1533Y772D01*
X508Y771D02*
X529Y771D01*
X1510Y771D02*
X1531Y771D01*
X512Y770D02*
X526Y770D01*
X1513Y770D02*
X1527Y770D01*
X517Y743D02*
X521Y743D01*
X1518Y743D02*
X1522Y743D01*
X511Y742D02*
X527Y742D01*
X1512Y742D02*
X1528Y742D01*
X508Y741D02*
X530Y741D01*
X1509Y741D02*
X1532Y741D01*
X505Y740D02*
X533Y740D01*
X1506Y740D02*
X1534Y740D01*
X503Y739D02*
X535Y739D01*
X1504Y739D02*
X1536Y739D01*
X501Y738D02*
X537Y738D01*
X1502Y738D02*
X1538Y738D01*
X499Y737D02*
X539Y737D01*
X1501Y737D02*
X1540Y737D01*
X498Y736D02*
X540Y736D01*
X1499Y736D02*
X1541Y736D01*
X496Y735D02*
X541Y735D01*
X1498Y735D02*
X1543Y735D01*
X495Y734D02*
X543Y734D01*
X1496Y734D02*
X1544Y734D01*
X494Y733D02*
X544Y733D01*
X1495Y733D02*
X1545Y733D01*
X493Y732D02*
X545Y732D01*
X1494Y732D02*
X1546Y732D01*
X492Y731D02*
X546Y731D01*
X1493Y731D02*
X1547Y731D01*
X491Y730D02*
X547Y730D01*
X1493Y730D02*
X1548Y730D01*
X490Y729D02*
X547Y729D01*
X1492Y729D02*
X1549Y729D01*
X490Y728D02*
X548Y728D01*
X1491Y728D02*
X1550Y728D01*
X489Y727D02*
X549Y727D01*
X1490Y727D02*
X1550Y727D01*
X488Y726D02*
X549Y726D01*
X1490Y726D02*
X1551Y726D01*
X488Y725D02*
X550Y725D01*
X1489Y725D02*
X1551Y725D01*
X487Y724D02*
X551Y724D01*
X1489Y724D02*
X1552Y724D01*
X487Y723D02*
X513Y723D01*
X524Y723D02*
X551Y723D01*
X1488Y723D02*
X1515Y723D01*
X1526Y723D02*
X1553Y723D01*
X486Y722D02*
X511Y722D01*
X527Y722D02*
X552Y722D01*
X1488Y722D02*
X1512Y722D01*
X1528Y722D02*
X1553Y722D01*
X486Y721D02*
X509Y721D01*
X529Y721D02*
X552Y721D01*
X1487Y721D02*
X1510Y721D01*
X1530Y721D02*
X1553Y721D01*
X485Y720D02*
X508Y720D01*
X530Y720D02*
X552Y720D01*
X1487Y720D02*
X1509Y720D01*
X1531Y720D02*
X1554Y720D01*
X485Y719D02*
X507Y719D01*
X531Y719D02*
X553Y719D01*
X1486Y719D02*
X1508Y719D01*
X1533Y719D02*
X1554Y719D01*
X484Y718D02*
X506Y718D01*
X532Y718D02*
X553Y718D01*
X1486Y718D02*
X1507Y718D01*
X1534Y718D02*
X1555Y718D01*
X484Y717D02*
X505Y717D01*
X533Y717D02*
X554Y717D01*
X1486Y717D02*
X1506Y717D01*
X1534Y717D02*
X1555Y717D01*
X484Y716D02*
X504Y716D01*
X534Y716D02*
X554Y716D01*
X1485Y716D02*
X1505Y716D01*
X1535Y716D02*
X1555Y716D01*
X484Y715D02*
X503Y715D01*
X535Y715D02*
X554Y715D01*
X1485Y715D02*
X1505Y715D01*
X1536Y715D02*
X1556Y715D01*
X483Y714D02*
X503Y714D01*
X535Y714D02*
X554Y714D01*
X1485Y714D02*
X1504Y714D01*
X1537Y714D02*
X1556Y714D01*
X483Y713D02*
X502Y713D01*
X536Y713D02*
X555Y713D01*
X1484Y713D02*
X1504Y713D01*
X1537Y713D02*
X1556Y713D01*
X483Y712D02*
X502Y712D01*
X536Y712D02*
X555Y712D01*
X1484Y712D02*
X1503Y712D01*
X1537Y712D02*
X1556Y712D01*
X483Y711D02*
X501Y711D01*
X536Y711D02*
X555Y711D01*
X1484Y711D02*
X1503Y711D01*
X1538Y711D02*
X1556Y711D01*
X483Y710D02*
X501Y710D01*
X537Y710D02*
X555Y710D01*
X1484Y710D02*
X1503Y710D01*
X1538Y710D02*
X1557Y710D01*
X482Y709D02*
X501Y709D01*
X537Y709D02*
X555Y709D01*
X1484Y709D02*
X1502Y709D01*
X1538Y709D02*
X1557Y709D01*
X482Y708D02*
X501Y708D01*
X537Y708D02*
X555Y708D01*
X1484Y708D02*
X1502Y708D01*
X1538Y708D02*
X1557Y708D01*
X482Y707D02*
X501Y707D01*
X537Y707D02*
X555Y707D01*
X1484Y707D02*
X1502Y707D01*
X1538Y707D02*
X1557Y707D01*
X482Y706D02*
X501Y706D01*
X537Y706D02*
X555Y706D01*
X1484Y706D02*
X1502Y706D01*
X1538Y706D02*
X1557Y706D01*
X482Y705D02*
X501Y705D01*
X537Y705D02*
X555Y705D01*
X1484Y705D02*
X1502Y705D01*
X1538Y705D02*
X1557Y705D01*
X482Y704D02*
X501Y704D01*
X537Y704D02*
X555Y704D01*
X1484Y704D02*
X1502Y704D01*
X1538Y704D02*
X1557Y704D01*
X482Y703D02*
X501Y703D01*
X537Y703D02*
X555Y703D01*
X1484Y703D02*
X1502Y703D01*
X1538Y703D02*
X1557Y703D01*
X483Y702D02*
X501Y702D01*
X536Y702D02*
X555Y702D01*
X1484Y702D02*
X1503Y702D01*
X1538Y702D02*
X1557Y702D01*
X483Y701D02*
X501Y701D01*
X536Y701D02*
X555Y701D01*
X1484Y701D02*
X1503Y701D01*
X1538Y701D02*
X1556Y701D01*
X483Y700D02*
X502Y700D01*
X536Y700D02*
X555Y700D01*
X1484Y700D02*
X1503Y700D01*
X1537Y700D02*
X1556Y700D01*
X483Y699D02*
X502Y699D01*
X536Y699D02*
X555Y699D01*
X1485Y699D02*
X1504Y699D01*
X1537Y699D02*
X1556Y699D01*
X483Y698D02*
X503Y698D01*
X535Y698D02*
X554Y698D01*
X1485Y698D02*
X1504Y698D01*
X1536Y698D02*
X1556Y698D01*
X484Y697D02*
X503Y697D01*
X534Y697D02*
X554Y697D01*
X1485Y697D02*
X1505Y697D01*
X1536Y697D02*
X1556Y697D01*
X484Y696D02*
X504Y696D01*
X534Y696D02*
X554Y696D01*
X1485Y696D02*
X1505Y696D01*
X1535Y696D02*
X1555Y696D01*
X484Y695D02*
X505Y695D01*
X533Y695D02*
X554Y695D01*
X1486Y695D02*
X1506Y695D01*
X1534Y695D02*
X1555Y695D01*
X485Y694D02*
X506Y694D01*
X532Y694D02*
X553Y694D01*
X1486Y694D02*
X1507Y694D01*
X1533Y694D02*
X1555Y694D01*
X485Y693D02*
X507Y693D01*
X531Y693D02*
X553Y693D01*
X1486Y693D02*
X1508Y693D01*
X1532Y693D02*
X1554Y693D01*
X485Y692D02*
X508Y692D01*
X530Y692D02*
X552Y692D01*
X1487Y692D02*
X1509Y692D01*
X1531Y692D02*
X1554Y692D01*
X486Y691D02*
X509Y691D01*
X528Y691D02*
X552Y691D01*
X1487Y691D02*
X1511Y691D01*
X1530Y691D02*
X1553Y691D01*
X486Y690D02*
X511Y690D01*
X527Y690D02*
X551Y690D01*
X1488Y690D02*
X1513Y690D01*
X1528Y690D02*
X1553Y690D01*
X487Y689D02*
X514Y689D01*
X524Y689D02*
X551Y689D01*
X1488Y689D02*
X1516Y689D01*
X1525Y689D02*
X1552Y689D01*
X487Y688D02*
X550Y688D01*
X1489Y688D02*
X1552Y688D01*
X488Y687D02*
X550Y687D01*
X1489Y687D02*
X1551Y687D01*
X488Y686D02*
X549Y686D01*
X1490Y686D02*
X1551Y686D01*
X489Y685D02*
X549Y685D01*
X1490Y685D02*
X1550Y685D01*
X490Y684D02*
X548Y684D01*
X1491Y684D02*
X1549Y684D01*
X490Y683D02*
X547Y683D01*
X1492Y683D02*
X1549Y683D01*
X491Y682D02*
X546Y682D01*
X1493Y682D02*
X1548Y682D01*
X492Y681D02*
X546Y681D01*
X1494Y681D02*
X1547Y681D01*
X493Y680D02*
X545Y680D01*
X1495Y680D02*
X1546Y680D01*
X494Y679D02*
X544Y679D01*
X1496Y679D02*
X1545Y679D01*
X495Y678D02*
X542Y678D01*
X1497Y678D02*
X1544Y678D01*
X497Y677D02*
X541Y677D01*
X1498Y677D02*
X1543Y677D01*
X498Y676D02*
X540Y676D01*
X1499Y676D02*
X1541Y676D01*
X500Y675D02*
X538Y675D01*
X1501Y675D02*
X1540Y675D01*
X501Y674D02*
X536Y674D01*
X1503Y674D02*
X1538Y674D01*
X503Y673D02*
X534Y673D01*
X1505Y673D02*
X1536Y673D01*
X505Y672D02*
X532Y672D01*
X1507Y672D02*
X1534Y672D01*
X508Y671D02*
X530Y671D01*
X1510Y671D02*
X1531Y671D01*
X512Y670D02*
X526Y670D01*
X1513Y670D02*
X1528Y670D01*
X519Y643D02*
X519Y643D01*
X1520Y643D02*
X1520Y643D01*
X511Y642D02*
X526Y642D01*
X1513Y642D02*
X1528Y642D01*
X2184Y642D02*
X2257Y642D01*
X508Y641D02*
X530Y641D01*
X1509Y641D02*
X1531Y641D01*
X2184Y641D02*
X2257Y641D01*
X505Y640D02*
X533Y640D01*
X1507Y640D02*
X1534Y640D01*
X2184Y640D02*
X2257Y640D01*
X503Y639D02*
X535Y639D01*
X1504Y639D02*
X1536Y639D01*
X2184Y639D02*
X2257Y639D01*
X501Y638D02*
X537Y638D01*
X1502Y638D02*
X1538Y638D01*
X2184Y638D02*
X2257Y638D01*
X499Y637D02*
X538Y637D01*
X1501Y637D02*
X1540Y637D01*
X2184Y637D02*
X2257Y637D01*
X498Y636D02*
X540Y636D01*
X1499Y636D02*
X1541Y636D01*
X2184Y636D02*
X2257Y636D01*
X496Y635D02*
X541Y635D01*
X1498Y635D02*
X1543Y635D01*
X2184Y635D02*
X2257Y635D01*
X495Y634D02*
X543Y634D01*
X1497Y634D02*
X1544Y634D01*
X2184Y634D02*
X2257Y634D01*
X494Y633D02*
X544Y633D01*
X1495Y633D02*
X1545Y633D01*
X2184Y633D02*
X2257Y633D01*
X493Y632D02*
X545Y632D01*
X1494Y632D02*
X1546Y632D01*
X2184Y632D02*
X2257Y632D01*
X492Y631D02*
X546Y631D01*
X1494Y631D02*
X1547Y631D01*
X2184Y631D02*
X2257Y631D01*
X491Y630D02*
X546Y630D01*
X1493Y630D02*
X1548Y630D01*
X2184Y630D02*
X2257Y630D01*
X490Y629D02*
X547Y629D01*
X1492Y629D02*
X1549Y629D01*
X2184Y629D02*
X2257Y629D01*
X490Y628D02*
X548Y628D01*
X1491Y628D02*
X1549Y628D01*
X2184Y628D02*
X2257Y628D01*
X489Y627D02*
X549Y627D01*
X1490Y627D02*
X1550Y627D01*
X2184Y627D02*
X2257Y627D01*
X488Y626D02*
X549Y626D01*
X1490Y626D02*
X1551Y626D01*
X2184Y626D02*
X2257Y626D01*
X488Y625D02*
X550Y625D01*
X1489Y625D02*
X1551Y625D01*
X2184Y625D02*
X2215Y625D01*
X2226Y625D02*
X2257Y625D01*
X487Y624D02*
X551Y624D01*
X1489Y624D02*
X1552Y624D01*
X2184Y624D02*
X2212Y624D01*
X2229Y624D02*
X2257Y624D01*
X487Y623D02*
X514Y623D01*
X524Y623D02*
X551Y623D01*
X1488Y623D02*
X1515Y623D01*
X1525Y623D02*
X1552Y623D01*
X2184Y623D02*
X2210Y623D01*
X2230Y623D02*
X2257Y623D01*
X486Y622D02*
X511Y622D01*
X527Y622D02*
X552Y622D01*
X1488Y622D02*
X1512Y622D01*
X1528Y622D02*
X1553Y622D01*
X2184Y622D02*
X2208Y622D01*
X2232Y622D02*
X2257Y622D01*
X486Y621D02*
X509Y621D01*
X529Y621D02*
X552Y621D01*
X1487Y621D02*
X1511Y621D01*
X1530Y621D02*
X1553Y621D01*
X2184Y621D02*
X2207Y621D01*
X2233Y621D02*
X2257Y621D01*
X485Y620D02*
X508Y620D01*
X530Y620D02*
X552Y620D01*
X1487Y620D02*
X1509Y620D01*
X1531Y620D02*
X1554Y620D01*
X2184Y620D02*
X2206Y620D01*
X2235Y620D02*
X2257Y620D01*
X485Y619D02*
X507Y619D01*
X531Y619D02*
X553Y619D01*
X1486Y619D02*
X1508Y619D01*
X1532Y619D02*
X1554Y619D01*
X2184Y619D02*
X2205Y619D01*
X2235Y619D02*
X2257Y619D01*
X485Y618D02*
X506Y618D01*
X532Y618D02*
X553Y618D01*
X1486Y618D02*
X1507Y618D01*
X1533Y618D02*
X1555Y618D01*
X2184Y618D02*
X2204Y618D01*
X2236Y618D02*
X2257Y618D01*
X484Y617D02*
X505Y617D01*
X533Y617D02*
X554Y617D01*
X1486Y617D02*
X1506Y617D01*
X1534Y617D02*
X1555Y617D01*
X2184Y617D02*
X2203Y617D01*
X2237Y617D02*
X2257Y617D01*
X484Y616D02*
X504Y616D01*
X534Y616D02*
X554Y616D01*
X1485Y616D02*
X1505Y616D01*
X1535Y616D02*
X1555Y616D01*
X2184Y616D02*
X2203Y616D01*
X2238Y616D02*
X2257Y616D01*
X484Y615D02*
X503Y615D01*
X534Y615D02*
X554Y615D01*
X1485Y615D02*
X1505Y615D01*
X1536Y615D02*
X1556Y615D01*
X2184Y615D02*
X2202Y615D01*
X2238Y615D02*
X2257Y615D01*
X483Y614D02*
X503Y614D01*
X535Y614D02*
X554Y614D01*
X1485Y614D02*
X1504Y614D01*
X1536Y614D02*
X1556Y614D01*
X2184Y614D02*
X2202Y614D01*
X2239Y614D02*
X2257Y614D01*
X483Y613D02*
X502Y613D01*
X536Y613D02*
X555Y613D01*
X1485Y613D02*
X1504Y613D01*
X1537Y613D02*
X1556Y613D01*
X2184Y613D02*
X2201Y613D01*
X2239Y613D02*
X2257Y613D01*
X483Y612D02*
X502Y612D01*
X536Y612D02*
X555Y612D01*
X1484Y612D02*
X1503Y612D01*
X1537Y612D02*
X1556Y612D01*
X2184Y612D02*
X2201Y612D01*
X2239Y612D02*
X2257Y612D01*
X483Y611D02*
X501Y611D01*
X536Y611D02*
X555Y611D01*
X1484Y611D02*
X1503Y611D01*
X1538Y611D02*
X1556Y611D01*
X2184Y611D02*
X2201Y611D01*
X2240Y611D02*
X2257Y611D01*
X483Y610D02*
X501Y610D01*
X536Y610D02*
X555Y610D01*
X1484Y610D02*
X1503Y610D01*
X1538Y610D02*
X1557Y610D01*
X2184Y610D02*
X2201Y610D01*
X2240Y610D02*
X2257Y610D01*
X482Y609D02*
X501Y609D01*
X537Y609D02*
X555Y609D01*
X1484Y609D02*
X1502Y609D01*
X1538Y609D02*
X1557Y609D01*
X2184Y609D02*
X2200Y609D01*
X2240Y609D02*
X2257Y609D01*
X482Y608D02*
X501Y608D01*
X537Y608D02*
X555Y608D01*
X1484Y608D02*
X1502Y608D01*
X1538Y608D02*
X1557Y608D01*
X2184Y608D02*
X2200Y608D01*
X2240Y608D02*
X2257Y608D01*
X482Y607D02*
X501Y607D01*
X537Y607D02*
X555Y607D01*
X1484Y607D02*
X1502Y607D01*
X1538Y607D02*
X1557Y607D01*
X2184Y607D02*
X2200Y607D01*
X2240Y607D02*
X2257Y607D01*
X482Y606D02*
X501Y606D01*
X537Y606D02*
X555Y606D01*
X1484Y606D02*
X1502Y606D01*
X1538Y606D02*
X1557Y606D01*
X2184Y606D02*
X2200Y606D01*
X2240Y606D02*
X2257Y606D01*
X482Y605D02*
X501Y605D01*
X537Y605D02*
X555Y605D01*
X1484Y605D02*
X1502Y605D01*
X1538Y605D02*
X1557Y605D01*
X2184Y605D02*
X2200Y605D01*
X2240Y605D02*
X2257Y605D01*
X482Y604D02*
X501Y604D01*
X537Y604D02*
X555Y604D01*
X1484Y604D02*
X1502Y604D01*
X1538Y604D02*
X1557Y604D01*
X2184Y604D02*
X2200Y604D01*
X2240Y604D02*
X2257Y604D01*
X482Y603D02*
X501Y603D01*
X537Y603D02*
X555Y603D01*
X1484Y603D02*
X1502Y603D01*
X1538Y603D02*
X1557Y603D01*
X2184Y603D02*
X2200Y603D01*
X2240Y603D02*
X2257Y603D01*
X483Y602D02*
X501Y602D01*
X536Y602D02*
X555Y602D01*
X1484Y602D02*
X1503Y602D01*
X1538Y602D02*
X1557Y602D01*
X2184Y602D02*
X2201Y602D01*
X2240Y602D02*
X2257Y602D01*
X483Y601D02*
X501Y601D01*
X536Y601D02*
X555Y601D01*
X1484Y601D02*
X1503Y601D01*
X1538Y601D02*
X1556Y601D01*
X2184Y601D02*
X2201Y601D01*
X2240Y601D02*
X2257Y601D01*
X483Y600D02*
X502Y600D01*
X536Y600D02*
X555Y600D01*
X1484Y600D02*
X1503Y600D01*
X1537Y600D02*
X1556Y600D01*
X2184Y600D02*
X2201Y600D01*
X2239Y600D02*
X2257Y600D01*
X483Y599D02*
X502Y599D01*
X536Y599D02*
X555Y599D01*
X1484Y599D02*
X1504Y599D01*
X1537Y599D02*
X1556Y599D01*
X2184Y599D02*
X2201Y599D01*
X2239Y599D02*
X2257Y599D01*
X483Y598D02*
X503Y598D01*
X535Y598D02*
X554Y598D01*
X1485Y598D02*
X1504Y598D01*
X1536Y598D02*
X1556Y598D01*
X2184Y598D02*
X2202Y598D01*
X2239Y598D02*
X2257Y598D01*
X484Y597D02*
X503Y597D01*
X534Y597D02*
X554Y597D01*
X1485Y597D02*
X1505Y597D01*
X1536Y597D02*
X1556Y597D01*
X2184Y597D02*
X2202Y597D01*
X2238Y597D02*
X2257Y597D01*
X484Y596D02*
X504Y596D01*
X534Y596D02*
X554Y596D01*
X1485Y596D02*
X1505Y596D01*
X1535Y596D02*
X1555Y596D01*
X2184Y596D02*
X2203Y596D01*
X2238Y596D02*
X2257Y596D01*
X484Y595D02*
X505Y595D01*
X533Y595D02*
X554Y595D01*
X1486Y595D02*
X1506Y595D01*
X1534Y595D02*
X1555Y595D01*
X2184Y595D02*
X2203Y595D01*
X2237Y595D02*
X2257Y595D01*
X484Y594D02*
X506Y594D01*
X532Y594D02*
X553Y594D01*
X1486Y594D02*
X1507Y594D01*
X1534Y594D02*
X1555Y594D01*
X2184Y594D02*
X2204Y594D01*
X2236Y594D02*
X2257Y594D01*
X485Y593D02*
X507Y593D01*
X531Y593D02*
X553Y593D01*
X1486Y593D02*
X1508Y593D01*
X1532Y593D02*
X1554Y593D01*
X2184Y593D02*
X2205Y593D01*
X2235Y593D02*
X2257Y593D01*
X485Y592D02*
X508Y592D01*
X530Y592D02*
X552Y592D01*
X1487Y592D02*
X1509Y592D01*
X1531Y592D02*
X1554Y592D01*
X2184Y592D02*
X2206Y592D01*
X2235Y592D02*
X2257Y592D01*
X486Y591D02*
X509Y591D01*
X529Y591D02*
X552Y591D01*
X1487Y591D02*
X1511Y591D01*
X1530Y591D02*
X1553Y591D01*
X2184Y591D02*
X2207Y591D01*
X2233Y591D02*
X2257Y591D01*
X486Y590D02*
X511Y590D01*
X527Y590D02*
X552Y590D01*
X1488Y590D02*
X1512Y590D01*
X1528Y590D02*
X1553Y590D01*
X2184Y590D02*
X2208Y590D01*
X2232Y590D02*
X2257Y590D01*
X487Y589D02*
X514Y589D01*
X524Y589D02*
X551Y589D01*
X1488Y589D02*
X1515Y589D01*
X1525Y589D02*
X1552Y589D01*
X2184Y589D02*
X2210Y589D01*
X2231Y589D02*
X2257Y589D01*
X487Y588D02*
X551Y588D01*
X1489Y588D02*
X1552Y588D01*
X2184Y588D02*
X2212Y588D01*
X2229Y588D02*
X2257Y588D01*
X488Y587D02*
X550Y587D01*
X1489Y587D02*
X1551Y587D01*
X2184Y587D02*
X2215Y587D01*
X2226Y587D02*
X2257Y587D01*
X488Y586D02*
X549Y586D01*
X1490Y586D02*
X1551Y586D01*
X2184Y586D02*
X2257Y586D01*
X489Y585D02*
X549Y585D01*
X1490Y585D02*
X1550Y585D01*
X2184Y585D02*
X2257Y585D01*
X490Y584D02*
X548Y584D01*
X1491Y584D02*
X1549Y584D01*
X2184Y584D02*
X2257Y584D01*
X490Y583D02*
X547Y583D01*
X1492Y583D02*
X1549Y583D01*
X2184Y583D02*
X2257Y583D01*
X491Y582D02*
X547Y582D01*
X1493Y582D02*
X1548Y582D01*
X2184Y582D02*
X2257Y582D01*
X492Y581D02*
X546Y581D01*
X1494Y581D02*
X1547Y581D01*
X2184Y581D02*
X2257Y581D01*
X493Y580D02*
X545Y580D01*
X1494Y580D02*
X1546Y580D01*
X2184Y580D02*
X2257Y580D01*
X494Y579D02*
X544Y579D01*
X1495Y579D02*
X1545Y579D01*
X2184Y579D02*
X2257Y579D01*
X495Y578D02*
X543Y578D01*
X1497Y578D02*
X1544Y578D01*
X2184Y578D02*
X2257Y578D01*
X496Y577D02*
X541Y577D01*
X1498Y577D02*
X1543Y577D01*
X2184Y577D02*
X2257Y577D01*
X498Y576D02*
X540Y576D01*
X1499Y576D02*
X1541Y576D01*
X2184Y576D02*
X2257Y576D01*
X499Y575D02*
X538Y575D01*
X1501Y575D02*
X1540Y575D01*
X2184Y575D02*
X2257Y575D01*
X501Y574D02*
X537Y574D01*
X1502Y574D02*
X1538Y574D01*
X2184Y574D02*
X2257Y574D01*
X503Y573D02*
X535Y573D01*
X1504Y573D02*
X1536Y573D01*
X2184Y573D02*
X2257Y573D01*
X505Y572D02*
X533Y572D01*
X1507Y572D02*
X1534Y572D01*
X2184Y572D02*
X2257Y572D01*
X508Y571D02*
X530Y571D01*
X1509Y571D02*
X1531Y571D01*
X2184Y571D02*
X2257Y571D01*
X511Y570D02*
X526Y570D01*
X1513Y570D02*
X1528Y570D01*
X2184Y570D02*
X2257Y570D01*
X519Y569D02*
X519Y569D01*
X1520Y569D02*
X1521Y569D01*
X2184Y569D02*
X2256Y569D01*
X512Y542D02*
X526Y542D01*
X1513Y542D02*
X1527Y542D01*
X508Y541D02*
X530Y541D01*
X1510Y541D02*
X1531Y541D01*
X505Y540D02*
X532Y540D01*
X1507Y540D02*
X1534Y540D01*
X503Y539D02*
X534Y539D01*
X1505Y539D02*
X1536Y539D01*
X501Y538D02*
X536Y538D01*
X1503Y538D02*
X1538Y538D01*
X500Y537D02*
X538Y537D01*
X1501Y537D02*
X1540Y537D01*
X498Y536D02*
X540Y536D01*
X1499Y536D02*
X1541Y536D01*
X497Y535D02*
X541Y535D01*
X1498Y535D02*
X1543Y535D01*
X495Y534D02*
X542Y534D01*
X1497Y534D02*
X1544Y534D01*
X494Y533D02*
X543Y533D01*
X1496Y533D02*
X1545Y533D01*
X493Y532D02*
X545Y532D01*
X1495Y532D02*
X1546Y532D01*
X492Y531D02*
X546Y531D01*
X1494Y531D02*
X1547Y531D01*
X491Y530D02*
X546Y530D01*
X1493Y530D02*
X1548Y530D01*
X490Y529D02*
X547Y529D01*
X1492Y529D02*
X1549Y529D01*
X490Y528D02*
X548Y528D01*
X1491Y528D02*
X1549Y528D01*
X489Y527D02*
X549Y527D01*
X1490Y527D02*
X1550Y527D01*
X488Y526D02*
X549Y526D01*
X1490Y526D02*
X1551Y526D01*
X488Y525D02*
X550Y525D01*
X1489Y525D02*
X1551Y525D01*
X487Y524D02*
X550Y524D01*
X1489Y524D02*
X1552Y524D01*
X487Y523D02*
X514Y523D01*
X523Y523D02*
X551Y523D01*
X1488Y523D02*
X1516Y523D01*
X1525Y523D02*
X1552Y523D01*
X486Y522D02*
X511Y522D01*
X527Y522D02*
X551Y522D01*
X1488Y522D02*
X1513Y522D01*
X1528Y522D02*
X1553Y522D01*
X486Y521D02*
X509Y521D01*
X528Y521D02*
X552Y521D01*
X1487Y521D02*
X1511Y521D01*
X1530Y521D02*
X1553Y521D01*
X485Y520D02*
X508Y520D01*
X530Y520D02*
X552Y520D01*
X1487Y520D02*
X1509Y520D01*
X1531Y520D02*
X1554Y520D01*
X485Y519D02*
X507Y519D01*
X531Y519D02*
X553Y519D01*
X1486Y519D02*
X1508Y519D01*
X1532Y519D02*
X1554Y519D01*
X485Y518D02*
X506Y518D01*
X532Y518D02*
X553Y518D01*
X1486Y518D02*
X1507Y518D01*
X1533Y518D02*
X1555Y518D01*
X484Y517D02*
X505Y517D01*
X533Y517D02*
X553Y517D01*
X1486Y517D02*
X1506Y517D01*
X1534Y517D02*
X1555Y517D01*
X484Y516D02*
X504Y516D01*
X534Y516D02*
X554Y516D01*
X1485Y516D02*
X1505Y516D01*
X1535Y516D02*
X1555Y516D01*
X484Y515D02*
X503Y515D01*
X534Y515D02*
X554Y515D01*
X1485Y515D02*
X1505Y515D01*
X1536Y515D02*
X1556Y515D01*
X483Y514D02*
X503Y514D01*
X535Y514D02*
X554Y514D01*
X1485Y514D02*
X1504Y514D01*
X1536Y514D02*
X1556Y514D01*
X483Y513D02*
X502Y513D01*
X536Y513D02*
X555Y513D01*
X1485Y513D02*
X1504Y513D01*
X1537Y513D02*
X1556Y513D01*
X483Y512D02*
X502Y512D01*
X536Y512D02*
X555Y512D01*
X1484Y512D02*
X1503Y512D01*
X1537Y512D02*
X1556Y512D01*
X483Y511D02*
X501Y511D01*
X536Y511D02*
X555Y511D01*
X1484Y511D02*
X1503Y511D01*
X1538Y511D02*
X1556Y511D01*
X483Y510D02*
X501Y510D01*
X536Y510D02*
X555Y510D01*
X1484Y510D02*
X1503Y510D01*
X1538Y510D02*
X1557Y510D01*
X482Y509D02*
X501Y509D01*
X537Y509D02*
X555Y509D01*
X1484Y509D02*
X1502Y509D01*
X1538Y509D02*
X1557Y509D01*
X482Y508D02*
X501Y508D01*
X537Y508D02*
X555Y508D01*
X1484Y508D02*
X1502Y508D01*
X1538Y508D02*
X1557Y508D01*
X482Y507D02*
X501Y507D01*
X537Y507D02*
X555Y507D01*
X1484Y507D02*
X1502Y507D01*
X1538Y507D02*
X1557Y507D01*
X482Y506D02*
X501Y506D01*
X537Y506D02*
X555Y506D01*
X1484Y506D02*
X1502Y506D01*
X1538Y506D02*
X1557Y506D01*
X482Y505D02*
X501Y505D01*
X537Y505D02*
X555Y505D01*
X1484Y505D02*
X1502Y505D01*
X1538Y505D02*
X1557Y505D01*
X482Y504D02*
X501Y504D01*
X537Y504D02*
X555Y504D01*
X1484Y504D02*
X1502Y504D01*
X1538Y504D02*
X1557Y504D01*
X482Y503D02*
X501Y503D01*
X537Y503D02*
X555Y503D01*
X1484Y503D02*
X1502Y503D01*
X1538Y503D02*
X1557Y503D01*
X483Y502D02*
X501Y502D01*
X537Y502D02*
X555Y502D01*
X1484Y502D02*
X1503Y502D01*
X1538Y502D02*
X1557Y502D01*
X483Y501D02*
X501Y501D01*
X536Y501D02*
X555Y501D01*
X1484Y501D02*
X1503Y501D01*
X1538Y501D02*
X1556Y501D01*
X483Y500D02*
X502Y500D01*
X536Y500D02*
X555Y500D01*
X1484Y500D02*
X1503Y500D01*
X1537Y500D02*
X1556Y500D01*
X483Y499D02*
X502Y499D01*
X536Y499D02*
X555Y499D01*
X1484Y499D02*
X1503Y499D01*
X1537Y499D02*
X1556Y499D01*
X483Y498D02*
X503Y498D01*
X535Y498D02*
X554Y498D01*
X1485Y498D02*
X1504Y498D01*
X1537Y498D02*
X1556Y498D01*
X484Y497D02*
X503Y497D01*
X535Y497D02*
X554Y497D01*
X1485Y497D02*
X1505Y497D01*
X1536Y497D02*
X1556Y497D01*
X484Y496D02*
X504Y496D01*
X534Y496D02*
X554Y496D01*
X1485Y496D02*
X1505Y496D01*
X1535Y496D02*
X1555Y496D01*
X484Y495D02*
X505Y495D01*
X533Y495D02*
X554Y495D01*
X1486Y495D02*
X1506Y495D01*
X1534Y495D02*
X1555Y495D01*
X484Y494D02*
X506Y494D01*
X532Y494D02*
X553Y494D01*
X1486Y494D02*
X1507Y494D01*
X1534Y494D02*
X1555Y494D01*
X485Y493D02*
X507Y493D01*
X531Y493D02*
X553Y493D01*
X1486Y493D02*
X1508Y493D01*
X1533Y493D02*
X1554Y493D01*
X485Y492D02*
X508Y492D01*
X530Y492D02*
X552Y492D01*
X1487Y492D02*
X1509Y492D01*
X1531Y492D02*
X1554Y492D01*
X486Y491D02*
X509Y491D01*
X529Y491D02*
X552Y491D01*
X1487Y491D02*
X1510Y491D01*
X1530Y491D02*
X1553Y491D01*
X486Y490D02*
X511Y490D01*
X527Y490D02*
X552Y490D01*
X1488Y490D02*
X1512Y490D01*
X1528Y490D02*
X1553Y490D01*
X487Y489D02*
X513Y489D01*
X524Y489D02*
X551Y489D01*
X1488Y489D02*
X1515Y489D01*
X1526Y489D02*
X1553Y489D01*
X487Y488D02*
X551Y488D01*
X1489Y488D02*
X1552Y488D01*
X488Y487D02*
X550Y487D01*
X1489Y487D02*
X1551Y487D01*
X488Y486D02*
X549Y486D01*
X1490Y486D02*
X1551Y486D01*
X489Y485D02*
X549Y485D01*
X1490Y485D02*
X1550Y485D01*
X490Y484D02*
X548Y484D01*
X1491Y484D02*
X1550Y484D01*
X490Y483D02*
X547Y483D01*
X1492Y483D02*
X1549Y483D01*
X491Y482D02*
X547Y482D01*
X1493Y482D02*
X1548Y482D01*
X492Y481D02*
X546Y481D01*
X1493Y481D02*
X1547Y481D01*
X493Y480D02*
X545Y480D01*
X1494Y480D02*
X1546Y480D01*
X494Y479D02*
X544Y479D01*
X1495Y479D02*
X1545Y479D01*
X495Y478D02*
X543Y478D01*
X1496Y478D02*
X1544Y478D01*
X496Y477D02*
X541Y477D01*
X1498Y477D02*
X1543Y477D01*
X498Y476D02*
X540Y476D01*
X1499Y476D02*
X1541Y476D01*
X499Y475D02*
X539Y475D01*
X1501Y475D02*
X1540Y475D01*
X501Y474D02*
X537Y474D01*
X1502Y474D02*
X1538Y474D01*
X503Y473D02*
X535Y473D01*
X1504Y473D02*
X1536Y473D01*
X505Y472D02*
X533Y472D01*
X1506Y472D02*
X1534Y472D01*
X507Y471D02*
X530Y471D01*
X1509Y471D02*
X1532Y471D01*
X511Y470D02*
X527Y470D01*
X1512Y470D02*
X1528Y470D01*
X517Y469D02*
X521Y469D01*
X1518Y469D02*
X1523Y469D01*
D02*
G04 End of Copper1*
M02*