; NON-PLATED HOLES START AT T1
; THROUGH (PLATED) HOLES START AT T100
M48
INCH
T100C0.031497
T101C0.035000
T102C0.039370
T103C0.035050
T104C0.043307
T105C0.038000
%
T100
X006254Y024879
X006254Y023895
T101
X007255Y022879
X011255Y022879
X029255Y016879
X028255Y017879
X026255Y017879
X021255Y008879
X028255Y009879
X026255Y013879
X011218Y020842
X024255Y020879
X018255Y007879
X021256Y020842
X025255Y008879
X024255Y021879
X021255Y017879
X033255Y016879
X024255Y016879
X021255Y012879
X025255Y009879
X018255Y003879
X021255Y016879
X024255Y019879
X028255Y021879
X024255Y017879
X028255Y008879
T102
X018255Y022879
X033255Y022879
X021255Y022879
X031255Y022879
X020255Y022879
X023255Y005879
X034255Y022879
X032255Y022879
X021255Y005879
X022255Y005879
X019255Y022879
T103
X005240Y005879
X015255Y011888
X015255Y006880
X015255Y014892
X015255Y012889
X015255Y018898
X005240Y012889
X005240Y013891
X005240Y018898
X005240Y016895
X005240Y009885
X005240Y008883
X005240Y004878
X015255Y010886
X015255Y004878
X015255Y013891
X005240Y015893
X015255Y005879
X015255Y017896
X015255Y009885
X005240Y011888
X005240Y010886
X015255Y016895
X015255Y008883
X005240Y017896
X005240Y007882
X005240Y014892
X005240Y006880
X015255Y015893
X015255Y007882
T104
X032255Y013879
X032255Y011879
X032255Y009879
T105
X003255Y016879
X003255Y015879
X003255Y014879
X034255Y020879
T00
M30
