; NON-PLATED HOLES START AT T1
; THROUGH (PLATED) HOLES START AT T100
M48
INCH
T100C0.043307
T101C0.039370
T102C0.038000
T103C0.035050
T104C0.035000
T105C0.031497
%
T100
X032255Y012879
X032255Y008879
X032255Y010879
T101
X034255Y021879
X022255Y004879
X032255Y021879
X019255Y021879
X021255Y004879
X031255Y021879
X018255Y021879
X021255Y021879
X033255Y021879
X020255Y004879
X020255Y021879
T102
X034255Y019879
X003255Y013879
X003255Y014879
X003255Y015879
T103
X015255Y006882
X015255Y017898
X015255Y011889
X005240Y008885
X015255Y013892
X015255Y005880
X015255Y014893
X005240Y014893
X015255Y003878
X005240Y012891
X015255Y016896
X015255Y008885
X015255Y004879
X015255Y009886
X015255Y012891
X005240Y006882
X015255Y007883
X005240Y013892
X005240Y010888
X005240Y016896
X005240Y011889
X005240Y004879
X015255Y010888
X005240Y009886
X005240Y007883
X015255Y015895
X005240Y005880
X005240Y003878
X005240Y017898
X005240Y015895
T104
X024255Y018879
X018255Y006879
X024255Y019879
X021256Y019842
X018255Y002879
X030255Y009879
X026255Y016879
X028255Y006879
X028255Y016879
X021255Y015879
X033255Y015879
X030255Y005879
X028255Y020879
X021255Y011879
X029255Y015879
X024255Y020879
X028255Y005879
X025255Y006879
X026255Y012879
X021255Y016879
X021255Y007879
X011218Y019842
X024255Y015879
X024255Y016879
X025255Y005879
X011255Y021879
X007255Y021879
T105
X006254Y022895
X006254Y023879
T00
M30
