G04 MADE WITH FRITZING*
G04 WWW.FRITZING.ORG*
G04 SINGLE SIDED*
G04 HOLES NOT PLATED*
G04 CONTOUR ON CENTER OF CONTOUR VECTOR*
%ASAXBY*%
%FSLAX23Y23*%
%MOIN*%
%OFA0B0*%
%SFA1.0B1.0*%
%ADD10C,0.084000*%
%ADD11C,0.088000*%
%ADD12C,0.072992*%
%ADD13C,0.085000*%
%ADD14C,0.093307*%
%ADD15C,0.089370*%
%ADD16R,0.072992X0.072992*%
%ADD17R,0.085000X0.085000*%
%ADD18R,0.001000X0.001000*%
%LNMASK0*%
G90*
G70*
G54D10*
X2226Y488D03*
X2126Y488D03*
X2026Y488D03*
X2226Y488D03*
X2126Y488D03*
X2026Y488D03*
X2226Y488D03*
X2126Y488D03*
X2026Y488D03*
G54D11*
X326Y1588D03*
X326Y1488D03*
X326Y1388D03*
X326Y1588D03*
X326Y1488D03*
X326Y1388D03*
G54D12*
X625Y2290D03*
X625Y2388D03*
X625Y2290D03*
X625Y2388D03*
G54D13*
X2426Y2088D03*
X2426Y1988D03*
X2426Y1888D03*
X2426Y2088D03*
X2426Y1988D03*
X2426Y1888D03*
G54D11*
X3426Y1988D03*
X3426Y1988D03*
G54D13*
X2826Y1688D03*
X2826Y2088D03*
X2826Y1688D03*
X2826Y2088D03*
X2626Y1288D03*
X2626Y1688D03*
X2626Y1288D03*
X2626Y1688D03*
X3026Y588D03*
X3026Y988D03*
X3026Y588D03*
X3026Y988D03*
X1126Y2188D03*
X726Y2188D03*
X1126Y2188D03*
X726Y2188D03*
X3326Y1588D03*
X2926Y1588D03*
X3326Y1588D03*
X2926Y1588D03*
X2526Y588D03*
X2826Y588D03*
X2526Y688D03*
X2826Y688D03*
X2526Y588D03*
X2826Y588D03*
X2526Y688D03*
X2826Y688D03*
X2426Y1688D03*
X2126Y1688D03*
X2426Y1588D03*
X2126Y1588D03*
X2426Y1688D03*
X2126Y1688D03*
X2426Y1588D03*
X2126Y1588D03*
X2126Y788D03*
X2126Y1188D03*
X2126Y788D03*
X2126Y1188D03*
X1826Y288D03*
X1826Y688D03*
X1826Y288D03*
X1826Y688D03*
X1122Y1984D03*
X2126Y1984D03*
G54D14*
X3226Y1288D03*
X3226Y1088D03*
X3226Y888D03*
X3226Y1288D03*
X3226Y1088D03*
X3226Y888D03*
G54D15*
X2126Y2188D03*
X2026Y2188D03*
X1926Y2188D03*
X1826Y2188D03*
X2126Y2188D03*
X2026Y2188D03*
X1926Y2188D03*
X1826Y2188D03*
X3426Y2188D03*
X3326Y2188D03*
X3226Y2188D03*
X3126Y2188D03*
X3426Y2188D03*
X3326Y2188D03*
X3226Y2188D03*
X3126Y2188D03*
G54D16*
X625Y2290D03*
X625Y2290D03*
G54D17*
X2526Y588D03*
X2526Y588D03*
X2426Y1688D03*
X2426Y1688D03*
G54D18*
X518Y1831D02*
X532Y1831D01*
X1519Y1831D02*
X1533Y1831D01*
X513Y1830D02*
X536Y1830D01*
X1515Y1830D02*
X1537Y1830D01*
X510Y1829D02*
X539Y1829D01*
X1512Y1829D02*
X1540Y1829D01*
X508Y1828D02*
X541Y1828D01*
X1509Y1828D02*
X1543Y1828D01*
X506Y1827D02*
X543Y1827D01*
X1507Y1827D02*
X1545Y1827D01*
X504Y1826D02*
X545Y1826D01*
X1505Y1826D02*
X1547Y1826D01*
X502Y1825D02*
X547Y1825D01*
X1504Y1825D02*
X1548Y1825D01*
X501Y1824D02*
X548Y1824D01*
X1502Y1824D02*
X1550Y1824D01*
X499Y1823D02*
X550Y1823D01*
X1501Y1823D02*
X1551Y1823D01*
X498Y1822D02*
X551Y1822D01*
X1500Y1822D02*
X1552Y1822D01*
X497Y1821D02*
X552Y1821D01*
X1498Y1821D02*
X1554Y1821D01*
X496Y1820D02*
X553Y1820D01*
X1497Y1820D02*
X1555Y1820D01*
X495Y1819D02*
X554Y1819D01*
X1496Y1819D02*
X1556Y1819D01*
X494Y1818D02*
X555Y1818D01*
X1495Y1818D02*
X1557Y1818D01*
X493Y1817D02*
X556Y1817D01*
X1495Y1817D02*
X1557Y1817D01*
X492Y1816D02*
X557Y1816D01*
X1494Y1816D02*
X1558Y1816D01*
X492Y1815D02*
X558Y1815D01*
X1493Y1815D02*
X1559Y1815D01*
X491Y1814D02*
X558Y1814D01*
X1492Y1814D02*
X1560Y1814D01*
X490Y1813D02*
X559Y1813D01*
X1492Y1813D02*
X1560Y1813D01*
X489Y1812D02*
X560Y1812D01*
X1491Y1812D02*
X1561Y1812D01*
X489Y1811D02*
X560Y1811D01*
X1490Y1811D02*
X1562Y1811D01*
X488Y1810D02*
X561Y1810D01*
X1490Y1810D02*
X1562Y1810D01*
X488Y1809D02*
X561Y1809D01*
X1489Y1809D02*
X1563Y1809D01*
X487Y1808D02*
X562Y1808D01*
X1489Y1808D02*
X1563Y1808D01*
X487Y1807D02*
X562Y1807D01*
X1488Y1807D02*
X1564Y1807D01*
X486Y1806D02*
X563Y1806D01*
X1488Y1806D02*
X1564Y1806D01*
X486Y1805D02*
X563Y1805D01*
X1487Y1805D02*
X1565Y1805D01*
X486Y1804D02*
X564Y1804D01*
X1487Y1804D02*
X1565Y1804D01*
X485Y1803D02*
X564Y1803D01*
X1487Y1803D02*
X1565Y1803D01*
X485Y1802D02*
X564Y1802D01*
X1486Y1802D02*
X1566Y1802D01*
X485Y1801D02*
X564Y1801D01*
X1486Y1801D02*
X1566Y1801D01*
X484Y1800D02*
X565Y1800D01*
X1486Y1800D02*
X1566Y1800D01*
X484Y1799D02*
X565Y1799D01*
X1486Y1799D02*
X1566Y1799D01*
X484Y1798D02*
X565Y1798D01*
X1485Y1798D02*
X1567Y1798D01*
X484Y1797D02*
X565Y1797D01*
X1485Y1797D02*
X1567Y1797D01*
X484Y1796D02*
X566Y1796D01*
X1485Y1796D02*
X1567Y1796D01*
X483Y1795D02*
X566Y1795D01*
X1485Y1795D02*
X1567Y1795D01*
X483Y1794D02*
X566Y1794D01*
X1485Y1794D02*
X1567Y1794D01*
X483Y1793D02*
X566Y1793D01*
X1485Y1793D02*
X1567Y1793D01*
X483Y1792D02*
X566Y1792D01*
X1485Y1792D02*
X1567Y1792D01*
X483Y1791D02*
X566Y1791D01*
X1485Y1791D02*
X1567Y1791D01*
X483Y1790D02*
X566Y1790D01*
X1484Y1790D02*
X1568Y1790D01*
X483Y1789D02*
X566Y1789D01*
X1484Y1789D02*
X1568Y1789D01*
X483Y1788D02*
X566Y1788D01*
X1485Y1788D02*
X1567Y1788D01*
X483Y1787D02*
X566Y1787D01*
X1485Y1787D02*
X1567Y1787D01*
X483Y1786D02*
X566Y1786D01*
X1485Y1786D02*
X1567Y1786D01*
X483Y1785D02*
X566Y1785D01*
X1485Y1785D02*
X1567Y1785D01*
X484Y1784D02*
X566Y1784D01*
X1485Y1784D02*
X1567Y1784D01*
X484Y1783D02*
X565Y1783D01*
X1485Y1783D02*
X1567Y1783D01*
X484Y1782D02*
X565Y1782D01*
X1485Y1782D02*
X1567Y1782D01*
X484Y1781D02*
X565Y1781D01*
X1485Y1781D02*
X1567Y1781D01*
X484Y1780D02*
X565Y1780D01*
X1486Y1780D02*
X1566Y1780D01*
X485Y1779D02*
X565Y1779D01*
X1486Y1779D02*
X1566Y1779D01*
X485Y1778D02*
X564Y1778D01*
X1486Y1778D02*
X1566Y1778D01*
X485Y1777D02*
X564Y1777D01*
X1486Y1777D02*
X1566Y1777D01*
X485Y1776D02*
X564Y1776D01*
X1487Y1776D02*
X1565Y1776D01*
X486Y1775D02*
X563Y1775D01*
X1487Y1775D02*
X1565Y1775D01*
X486Y1774D02*
X563Y1774D01*
X1488Y1774D02*
X1564Y1774D01*
X486Y1773D02*
X563Y1773D01*
X1488Y1773D02*
X1564Y1773D01*
X487Y1772D02*
X562Y1772D01*
X1488Y1772D02*
X1564Y1772D01*
X487Y1771D02*
X562Y1771D01*
X1489Y1771D02*
X1563Y1771D01*
X488Y1770D02*
X561Y1770D01*
X1489Y1770D02*
X1563Y1770D01*
X489Y1769D02*
X561Y1769D01*
X1490Y1769D02*
X1562Y1769D01*
X489Y1768D02*
X560Y1768D01*
X1491Y1768D02*
X1561Y1768D01*
X490Y1767D02*
X559Y1767D01*
X1491Y1767D02*
X1561Y1767D01*
X490Y1766D02*
X559Y1766D01*
X1492Y1766D02*
X1560Y1766D01*
X491Y1765D02*
X558Y1765D01*
X1493Y1765D02*
X1559Y1765D01*
X492Y1764D02*
X557Y1764D01*
X1493Y1764D02*
X1559Y1764D01*
X493Y1763D02*
X556Y1763D01*
X1494Y1763D02*
X1558Y1763D01*
X494Y1762D02*
X556Y1762D01*
X1495Y1762D02*
X1557Y1762D01*
X494Y1761D02*
X555Y1761D01*
X1496Y1761D02*
X1556Y1761D01*
X495Y1760D02*
X554Y1760D01*
X1497Y1760D02*
X1555Y1760D01*
X496Y1759D02*
X553Y1759D01*
X1498Y1759D02*
X1554Y1759D01*
X498Y1758D02*
X552Y1758D01*
X1499Y1758D02*
X1553Y1758D01*
X499Y1757D02*
X550Y1757D01*
X1500Y1757D02*
X1552Y1757D01*
X500Y1756D02*
X549Y1756D01*
X1502Y1756D02*
X1550Y1756D01*
X502Y1755D02*
X548Y1755D01*
X1503Y1755D02*
X1549Y1755D01*
X503Y1754D02*
X546Y1754D01*
X1505Y1754D02*
X1547Y1754D01*
X505Y1753D02*
X544Y1753D01*
X1506Y1753D02*
X1546Y1753D01*
X507Y1752D02*
X542Y1752D01*
X1508Y1752D02*
X1544Y1752D01*
X509Y1751D02*
X540Y1751D01*
X1510Y1751D02*
X1542Y1751D01*
X512Y1750D02*
X538Y1750D01*
X1513Y1750D02*
X1539Y1750D01*
X515Y1749D02*
X534Y1749D01*
X1517Y1749D02*
X1535Y1749D01*
X521Y1748D02*
X528Y1748D01*
X1522Y1748D02*
X1530Y1748D01*
X518Y1731D02*
X531Y1731D01*
X1520Y1731D02*
X1532Y1731D01*
X514Y1730D02*
X536Y1730D01*
X1515Y1730D02*
X1537Y1730D01*
X510Y1729D02*
X539Y1729D01*
X1512Y1729D02*
X1540Y1729D01*
X508Y1728D02*
X541Y1728D01*
X1509Y1728D02*
X1543Y1728D01*
X506Y1727D02*
X543Y1727D01*
X1507Y1727D02*
X1545Y1727D01*
X504Y1726D02*
X545Y1726D01*
X1506Y1726D02*
X1546Y1726D01*
X503Y1725D02*
X547Y1725D01*
X1504Y1725D02*
X1548Y1725D01*
X501Y1724D02*
X548Y1724D01*
X1502Y1724D02*
X1550Y1724D01*
X500Y1723D02*
X549Y1723D01*
X1501Y1723D02*
X1551Y1723D01*
X498Y1722D02*
X551Y1722D01*
X1500Y1722D02*
X1552Y1722D01*
X497Y1721D02*
X552Y1721D01*
X1499Y1721D02*
X1553Y1721D01*
X496Y1720D02*
X553Y1720D01*
X1497Y1720D02*
X1555Y1720D01*
X495Y1719D02*
X554Y1719D01*
X1496Y1719D02*
X1556Y1719D01*
X494Y1718D02*
X555Y1718D01*
X1496Y1718D02*
X1556Y1718D01*
X493Y1717D02*
X556Y1717D01*
X1495Y1717D02*
X1557Y1717D01*
X492Y1716D02*
X557Y1716D01*
X1494Y1716D02*
X1558Y1716D01*
X492Y1715D02*
X557Y1715D01*
X1493Y1715D02*
X1559Y1715D01*
X491Y1714D02*
X558Y1714D01*
X1492Y1714D02*
X1560Y1714D01*
X490Y1713D02*
X559Y1713D01*
X1492Y1713D02*
X1560Y1713D01*
X490Y1712D02*
X560Y1712D01*
X1491Y1712D02*
X1561Y1712D01*
X489Y1711D02*
X560Y1711D01*
X1490Y1711D02*
X1562Y1711D01*
X488Y1710D02*
X561Y1710D01*
X1490Y1710D02*
X1562Y1710D01*
X488Y1709D02*
X561Y1709D01*
X1489Y1709D02*
X1563Y1709D01*
X487Y1708D02*
X562Y1708D01*
X1489Y1708D02*
X1563Y1708D01*
X487Y1707D02*
X562Y1707D01*
X1488Y1707D02*
X1564Y1707D01*
X486Y1706D02*
X563Y1706D01*
X1488Y1706D02*
X1564Y1706D01*
X486Y1705D02*
X563Y1705D01*
X1487Y1705D02*
X1565Y1705D01*
X486Y1704D02*
X564Y1704D01*
X1487Y1704D02*
X1565Y1704D01*
X485Y1703D02*
X564Y1703D01*
X1487Y1703D02*
X1565Y1703D01*
X485Y1702D02*
X564Y1702D01*
X1486Y1702D02*
X1566Y1702D01*
X485Y1701D02*
X564Y1701D01*
X1486Y1701D02*
X1566Y1701D01*
X484Y1700D02*
X565Y1700D01*
X1486Y1700D02*
X1566Y1700D01*
X484Y1699D02*
X565Y1699D01*
X1486Y1699D02*
X1566Y1699D01*
X484Y1698D02*
X565Y1698D01*
X1485Y1698D02*
X1567Y1698D01*
X484Y1697D02*
X565Y1697D01*
X1485Y1697D02*
X1567Y1697D01*
X484Y1696D02*
X566Y1696D01*
X1485Y1696D02*
X1567Y1696D01*
X483Y1695D02*
X566Y1695D01*
X1485Y1695D02*
X1567Y1695D01*
X483Y1694D02*
X566Y1694D01*
X1485Y1694D02*
X1567Y1694D01*
X483Y1693D02*
X566Y1693D01*
X1485Y1693D02*
X1567Y1693D01*
X483Y1692D02*
X566Y1692D01*
X1485Y1692D02*
X1567Y1692D01*
X483Y1691D02*
X566Y1691D01*
X1485Y1691D02*
X1567Y1691D01*
X483Y1690D02*
X566Y1690D01*
X1484Y1690D02*
X1568Y1690D01*
X483Y1689D02*
X566Y1689D01*
X1484Y1689D02*
X1568Y1689D01*
X483Y1688D02*
X566Y1688D01*
X1485Y1688D02*
X1567Y1688D01*
X483Y1687D02*
X566Y1687D01*
X1485Y1687D02*
X1567Y1687D01*
X483Y1686D02*
X566Y1686D01*
X1485Y1686D02*
X1567Y1686D01*
X483Y1685D02*
X566Y1685D01*
X1485Y1685D02*
X1567Y1685D01*
X483Y1684D02*
X566Y1684D01*
X1485Y1684D02*
X1567Y1684D01*
X484Y1683D02*
X565Y1683D01*
X1485Y1683D02*
X1567Y1683D01*
X484Y1682D02*
X565Y1682D01*
X1485Y1682D02*
X1567Y1682D01*
X484Y1681D02*
X565Y1681D01*
X1485Y1681D02*
X1567Y1681D01*
X484Y1680D02*
X565Y1680D01*
X1486Y1680D02*
X1566Y1680D01*
X484Y1679D02*
X565Y1679D01*
X1486Y1679D02*
X1566Y1679D01*
X485Y1678D02*
X564Y1678D01*
X1486Y1678D02*
X1566Y1678D01*
X485Y1677D02*
X564Y1677D01*
X1486Y1677D02*
X1566Y1677D01*
X485Y1676D02*
X564Y1676D01*
X1487Y1676D02*
X1565Y1676D01*
X486Y1675D02*
X563Y1675D01*
X1487Y1675D02*
X1565Y1675D01*
X486Y1674D02*
X563Y1674D01*
X1487Y1674D02*
X1565Y1674D01*
X486Y1673D02*
X563Y1673D01*
X1488Y1673D02*
X1564Y1673D01*
X487Y1672D02*
X562Y1672D01*
X1488Y1672D02*
X1564Y1672D01*
X487Y1671D02*
X562Y1671D01*
X1489Y1671D02*
X1563Y1671D01*
X488Y1670D02*
X561Y1670D01*
X1489Y1670D02*
X1563Y1670D01*
X489Y1669D02*
X561Y1669D01*
X1490Y1669D02*
X1562Y1669D01*
X489Y1668D02*
X560Y1668D01*
X1491Y1668D02*
X1561Y1668D01*
X490Y1667D02*
X559Y1667D01*
X1491Y1667D02*
X1561Y1667D01*
X490Y1666D02*
X559Y1666D01*
X1492Y1666D02*
X1560Y1666D01*
X491Y1665D02*
X558Y1665D01*
X1493Y1665D02*
X1559Y1665D01*
X492Y1664D02*
X557Y1664D01*
X1493Y1664D02*
X1559Y1664D01*
X493Y1663D02*
X557Y1663D01*
X1494Y1663D02*
X1558Y1663D01*
X493Y1662D02*
X556Y1662D01*
X1495Y1662D02*
X1557Y1662D01*
X494Y1661D02*
X555Y1661D01*
X1496Y1661D02*
X1556Y1661D01*
X495Y1660D02*
X554Y1660D01*
X1497Y1660D02*
X1555Y1660D01*
X496Y1659D02*
X553Y1659D01*
X1498Y1659D02*
X1554Y1659D01*
X497Y1658D02*
X552Y1658D01*
X1499Y1658D02*
X1553Y1658D01*
X499Y1657D02*
X550Y1657D01*
X1500Y1657D02*
X1552Y1657D01*
X500Y1656D02*
X549Y1656D01*
X1501Y1656D02*
X1551Y1656D01*
X501Y1655D02*
X548Y1655D01*
X1503Y1655D02*
X1549Y1655D01*
X503Y1654D02*
X546Y1654D01*
X1504Y1654D02*
X1548Y1654D01*
X505Y1653D02*
X545Y1653D01*
X1506Y1653D02*
X1546Y1653D01*
X506Y1652D02*
X543Y1652D01*
X1508Y1652D02*
X1544Y1652D01*
X509Y1651D02*
X541Y1651D01*
X1510Y1651D02*
X1542Y1651D01*
X511Y1650D02*
X538Y1650D01*
X1513Y1650D02*
X1539Y1650D01*
X515Y1649D02*
X534Y1649D01*
X1516Y1649D02*
X1536Y1649D01*
X520Y1648D02*
X529Y1648D01*
X1521Y1648D02*
X1531Y1648D01*
X519Y1631D02*
X530Y1631D01*
X1520Y1631D02*
X1532Y1631D01*
X514Y1630D02*
X535Y1630D01*
X1516Y1630D02*
X1536Y1630D01*
X511Y1629D02*
X538Y1629D01*
X1512Y1629D02*
X1540Y1629D01*
X508Y1628D02*
X541Y1628D01*
X1510Y1628D02*
X1542Y1628D01*
X506Y1627D02*
X543Y1627D01*
X1508Y1627D02*
X1544Y1627D01*
X504Y1626D02*
X545Y1626D01*
X1506Y1626D02*
X1546Y1626D01*
X503Y1625D02*
X546Y1625D01*
X1504Y1625D02*
X1548Y1625D01*
X501Y1624D02*
X548Y1624D01*
X1503Y1624D02*
X1549Y1624D01*
X500Y1623D02*
X549Y1623D01*
X1501Y1623D02*
X1551Y1623D01*
X498Y1622D02*
X551Y1622D01*
X1500Y1622D02*
X1552Y1622D01*
X497Y1621D02*
X552Y1621D01*
X1499Y1621D02*
X1553Y1621D01*
X496Y1620D02*
X553Y1620D01*
X1498Y1620D02*
X1554Y1620D01*
X495Y1619D02*
X554Y1619D01*
X1497Y1619D02*
X1555Y1619D01*
X494Y1618D02*
X555Y1618D01*
X1496Y1618D02*
X1556Y1618D01*
X493Y1617D02*
X556Y1617D01*
X1495Y1617D02*
X1557Y1617D01*
X492Y1616D02*
X557Y1616D01*
X1494Y1616D02*
X1558Y1616D01*
X492Y1615D02*
X557Y1615D01*
X1493Y1615D02*
X1559Y1615D01*
X491Y1614D02*
X558Y1614D01*
X1492Y1614D02*
X1560Y1614D01*
X490Y1613D02*
X559Y1613D01*
X1492Y1613D02*
X1560Y1613D01*
X490Y1612D02*
X559Y1612D01*
X1491Y1612D02*
X1561Y1612D01*
X489Y1611D02*
X560Y1611D01*
X1490Y1611D02*
X1562Y1611D01*
X488Y1610D02*
X561Y1610D01*
X1490Y1610D02*
X1562Y1610D01*
X488Y1609D02*
X561Y1609D01*
X1489Y1609D02*
X1563Y1609D01*
X487Y1608D02*
X562Y1608D01*
X1489Y1608D02*
X1563Y1608D01*
X487Y1607D02*
X562Y1607D01*
X1488Y1607D02*
X1564Y1607D01*
X486Y1606D02*
X563Y1606D01*
X1488Y1606D02*
X1564Y1606D01*
X486Y1605D02*
X563Y1605D01*
X1487Y1605D02*
X1565Y1605D01*
X486Y1604D02*
X563Y1604D01*
X1487Y1604D02*
X1565Y1604D01*
X485Y1603D02*
X564Y1603D01*
X1487Y1603D02*
X1565Y1603D01*
X485Y1602D02*
X564Y1602D01*
X1486Y1602D02*
X1566Y1602D01*
X485Y1601D02*
X564Y1601D01*
X1486Y1601D02*
X1566Y1601D01*
X484Y1600D02*
X565Y1600D01*
X1486Y1600D02*
X1566Y1600D01*
X484Y1599D02*
X565Y1599D01*
X1486Y1599D02*
X1566Y1599D01*
X484Y1598D02*
X565Y1598D01*
X1485Y1598D02*
X1567Y1598D01*
X484Y1597D02*
X565Y1597D01*
X1485Y1597D02*
X1567Y1597D01*
X484Y1596D02*
X565Y1596D01*
X1485Y1596D02*
X1567Y1596D01*
X483Y1595D02*
X566Y1595D01*
X1485Y1595D02*
X1567Y1595D01*
X483Y1594D02*
X566Y1594D01*
X1485Y1594D02*
X1567Y1594D01*
X483Y1593D02*
X566Y1593D01*
X1485Y1593D02*
X1567Y1593D01*
X483Y1592D02*
X566Y1592D01*
X1485Y1592D02*
X1567Y1592D01*
X483Y1591D02*
X566Y1591D01*
X1485Y1591D02*
X1567Y1591D01*
X483Y1590D02*
X566Y1590D01*
X1484Y1590D02*
X1568Y1590D01*
X483Y1589D02*
X566Y1589D01*
X1484Y1589D02*
X1568Y1589D01*
X483Y1588D02*
X566Y1588D01*
X1485Y1588D02*
X1567Y1588D01*
X483Y1587D02*
X566Y1587D01*
X1485Y1587D02*
X1567Y1587D01*
X483Y1586D02*
X566Y1586D01*
X1485Y1586D02*
X1567Y1586D01*
X483Y1585D02*
X566Y1585D01*
X1485Y1585D02*
X1567Y1585D01*
X483Y1584D02*
X566Y1584D01*
X1485Y1584D02*
X1567Y1584D01*
X484Y1583D02*
X565Y1583D01*
X1485Y1583D02*
X1567Y1583D01*
X484Y1582D02*
X565Y1582D01*
X1485Y1582D02*
X1567Y1582D01*
X484Y1581D02*
X565Y1581D01*
X1485Y1581D02*
X1567Y1581D01*
X484Y1580D02*
X565Y1580D01*
X1486Y1580D02*
X1566Y1580D01*
X484Y1579D02*
X565Y1579D01*
X1486Y1579D02*
X1566Y1579D01*
X485Y1578D02*
X564Y1578D01*
X1486Y1578D02*
X1566Y1578D01*
X485Y1577D02*
X564Y1577D01*
X1486Y1577D02*
X1566Y1577D01*
X485Y1576D02*
X564Y1576D01*
X1487Y1576D02*
X1565Y1576D01*
X486Y1575D02*
X563Y1575D01*
X1487Y1575D02*
X1565Y1575D01*
X486Y1574D02*
X563Y1574D01*
X1487Y1574D02*
X1565Y1574D01*
X486Y1573D02*
X563Y1573D01*
X1488Y1573D02*
X1564Y1573D01*
X487Y1572D02*
X562Y1572D01*
X1488Y1572D02*
X1564Y1572D01*
X487Y1571D02*
X562Y1571D01*
X1489Y1571D02*
X1563Y1571D01*
X488Y1570D02*
X561Y1570D01*
X1489Y1570D02*
X1563Y1570D01*
X488Y1569D02*
X561Y1569D01*
X1490Y1569D02*
X1562Y1569D01*
X489Y1568D02*
X560Y1568D01*
X1490Y1568D02*
X1562Y1568D01*
X490Y1567D02*
X559Y1567D01*
X1491Y1567D02*
X1561Y1567D01*
X490Y1566D02*
X559Y1566D01*
X1492Y1566D02*
X1560Y1566D01*
X491Y1565D02*
X558Y1565D01*
X1492Y1565D02*
X1560Y1565D01*
X492Y1564D02*
X557Y1564D01*
X1493Y1564D02*
X1559Y1564D01*
X493Y1563D02*
X557Y1563D01*
X1494Y1563D02*
X1558Y1563D01*
X493Y1562D02*
X556Y1562D01*
X1495Y1562D02*
X1557Y1562D01*
X494Y1561D02*
X555Y1561D01*
X1496Y1561D02*
X1556Y1561D01*
X495Y1560D02*
X554Y1560D01*
X1497Y1560D02*
X1555Y1560D01*
X496Y1559D02*
X553Y1559D01*
X1498Y1559D02*
X1554Y1559D01*
X497Y1558D02*
X552Y1558D01*
X1499Y1558D02*
X1553Y1558D01*
X498Y1557D02*
X551Y1557D01*
X1500Y1557D02*
X1552Y1557D01*
X500Y1556D02*
X549Y1556D01*
X1501Y1556D02*
X1551Y1556D01*
X501Y1555D02*
X548Y1555D01*
X1503Y1555D02*
X1549Y1555D01*
X503Y1554D02*
X546Y1554D01*
X1504Y1554D02*
X1548Y1554D01*
X504Y1553D02*
X545Y1553D01*
X1506Y1553D02*
X1546Y1553D01*
X506Y1552D02*
X543Y1552D01*
X1508Y1552D02*
X1544Y1552D01*
X508Y1551D02*
X541Y1551D01*
X1510Y1551D02*
X1542Y1551D01*
X511Y1550D02*
X538Y1550D01*
X1512Y1550D02*
X1540Y1550D01*
X514Y1549D02*
X535Y1549D01*
X1516Y1549D02*
X1536Y1549D01*
X519Y1548D02*
X530Y1548D01*
X1521Y1548D02*
X1531Y1548D01*
X520Y1531D02*
X530Y1531D01*
X1521Y1531D02*
X1531Y1531D01*
X515Y1530D02*
X535Y1530D01*
X1516Y1530D02*
X1536Y1530D01*
X511Y1529D02*
X538Y1529D01*
X1513Y1529D02*
X1539Y1529D01*
X508Y1528D02*
X541Y1528D01*
X1510Y1528D02*
X1542Y1528D01*
X506Y1527D02*
X543Y1527D01*
X1508Y1527D02*
X1544Y1527D01*
X504Y1526D02*
X545Y1526D01*
X1506Y1526D02*
X1546Y1526D01*
X503Y1525D02*
X546Y1525D01*
X1504Y1525D02*
X1548Y1525D01*
X501Y1524D02*
X548Y1524D01*
X1503Y1524D02*
X1549Y1524D01*
X500Y1523D02*
X549Y1523D01*
X1501Y1523D02*
X1551Y1523D01*
X499Y1522D02*
X551Y1522D01*
X1500Y1522D02*
X1552Y1522D01*
X497Y1521D02*
X552Y1521D01*
X1499Y1521D02*
X1553Y1521D01*
X496Y1520D02*
X553Y1520D01*
X1498Y1520D02*
X1554Y1520D01*
X495Y1519D02*
X554Y1519D01*
X1497Y1519D02*
X1555Y1519D01*
X494Y1518D02*
X555Y1518D01*
X1496Y1518D02*
X1556Y1518D01*
X493Y1517D02*
X556Y1517D01*
X1495Y1517D02*
X1557Y1517D01*
X493Y1516D02*
X557Y1516D01*
X1494Y1516D02*
X1558Y1516D01*
X492Y1515D02*
X557Y1515D01*
X1493Y1515D02*
X1559Y1515D01*
X491Y1514D02*
X558Y1514D01*
X1493Y1514D02*
X1559Y1514D01*
X490Y1513D02*
X559Y1513D01*
X1492Y1513D02*
X1560Y1513D01*
X490Y1512D02*
X559Y1512D01*
X1491Y1512D02*
X1561Y1512D01*
X489Y1511D02*
X560Y1511D01*
X1491Y1511D02*
X1561Y1511D01*
X488Y1510D02*
X561Y1510D01*
X1490Y1510D02*
X1562Y1510D01*
X488Y1509D02*
X561Y1509D01*
X1489Y1509D02*
X1563Y1509D01*
X487Y1508D02*
X562Y1508D01*
X1489Y1508D02*
X1563Y1508D01*
X487Y1507D02*
X562Y1507D01*
X1488Y1507D02*
X1564Y1507D01*
X486Y1506D02*
X563Y1506D01*
X1488Y1506D02*
X1564Y1506D01*
X486Y1505D02*
X563Y1505D01*
X1487Y1505D02*
X1565Y1505D01*
X486Y1504D02*
X563Y1504D01*
X1487Y1504D02*
X1565Y1504D01*
X485Y1503D02*
X564Y1503D01*
X1487Y1503D02*
X1565Y1503D01*
X485Y1502D02*
X564Y1502D01*
X1486Y1502D02*
X1566Y1502D01*
X485Y1501D02*
X564Y1501D01*
X1486Y1501D02*
X1566Y1501D01*
X484Y1500D02*
X565Y1500D01*
X1486Y1500D02*
X1566Y1500D01*
X484Y1499D02*
X565Y1499D01*
X1486Y1499D02*
X1566Y1499D01*
X484Y1498D02*
X565Y1498D01*
X1485Y1498D02*
X1567Y1498D01*
X484Y1497D02*
X565Y1497D01*
X1485Y1497D02*
X1567Y1497D01*
X484Y1496D02*
X565Y1496D01*
X1485Y1496D02*
X1567Y1496D01*
X483Y1495D02*
X566Y1495D01*
X1485Y1495D02*
X1567Y1495D01*
X483Y1494D02*
X566Y1494D01*
X1485Y1494D02*
X1567Y1494D01*
X483Y1493D02*
X566Y1493D01*
X1485Y1493D02*
X1567Y1493D01*
X483Y1492D02*
X566Y1492D01*
X1485Y1492D02*
X1567Y1492D01*
X483Y1491D02*
X566Y1491D01*
X1485Y1491D02*
X1567Y1491D01*
X483Y1490D02*
X566Y1490D01*
X1484Y1490D02*
X1568Y1490D01*
X483Y1489D02*
X566Y1489D01*
X1484Y1489D02*
X1568Y1489D01*
X483Y1488D02*
X566Y1488D01*
X1485Y1488D02*
X1567Y1488D01*
X483Y1487D02*
X566Y1487D01*
X1485Y1487D02*
X1567Y1487D01*
X483Y1486D02*
X566Y1486D01*
X1485Y1486D02*
X1567Y1486D01*
X483Y1485D02*
X566Y1485D01*
X1485Y1485D02*
X1567Y1485D01*
X483Y1484D02*
X566Y1484D01*
X1485Y1484D02*
X1567Y1484D01*
X484Y1483D02*
X566Y1483D01*
X1485Y1483D02*
X1567Y1483D01*
X484Y1482D02*
X565Y1482D01*
X1485Y1482D02*
X1567Y1482D01*
X484Y1481D02*
X565Y1481D01*
X1485Y1481D02*
X1567Y1481D01*
X484Y1480D02*
X565Y1480D01*
X1486Y1480D02*
X1566Y1480D01*
X484Y1479D02*
X565Y1479D01*
X1486Y1479D02*
X1566Y1479D01*
X485Y1478D02*
X564Y1478D01*
X1486Y1478D02*
X1566Y1478D01*
X485Y1477D02*
X564Y1477D01*
X1486Y1477D02*
X1566Y1477D01*
X485Y1476D02*
X564Y1476D01*
X1487Y1476D02*
X1565Y1476D01*
X486Y1475D02*
X563Y1475D01*
X1487Y1475D02*
X1565Y1475D01*
X486Y1474D02*
X563Y1474D01*
X1487Y1474D02*
X1565Y1474D01*
X486Y1473D02*
X563Y1473D01*
X1488Y1473D02*
X1564Y1473D01*
X487Y1472D02*
X562Y1472D01*
X1488Y1472D02*
X1564Y1472D01*
X487Y1471D02*
X562Y1471D01*
X1489Y1471D02*
X1563Y1471D01*
X488Y1470D02*
X561Y1470D01*
X1489Y1470D02*
X1563Y1470D01*
X488Y1469D02*
X561Y1469D01*
X1490Y1469D02*
X1562Y1469D01*
X489Y1468D02*
X560Y1468D01*
X1490Y1468D02*
X1562Y1468D01*
X490Y1467D02*
X560Y1467D01*
X1491Y1467D02*
X1561Y1467D01*
X490Y1466D02*
X559Y1466D01*
X1492Y1466D02*
X1560Y1466D01*
X491Y1465D02*
X558Y1465D01*
X1492Y1465D02*
X1560Y1465D01*
X492Y1464D02*
X557Y1464D01*
X1493Y1464D02*
X1559Y1464D01*
X492Y1463D02*
X557Y1463D01*
X1494Y1463D02*
X1558Y1463D01*
X493Y1462D02*
X556Y1462D01*
X1495Y1462D02*
X1557Y1462D01*
X494Y1461D02*
X555Y1461D01*
X1496Y1461D02*
X1556Y1461D01*
X495Y1460D02*
X554Y1460D01*
X1496Y1460D02*
X1556Y1460D01*
X496Y1459D02*
X553Y1459D01*
X1498Y1459D02*
X1554Y1459D01*
X497Y1458D02*
X552Y1458D01*
X1499Y1458D02*
X1553Y1458D01*
X498Y1457D02*
X551Y1457D01*
X1500Y1457D02*
X1552Y1457D01*
X500Y1456D02*
X549Y1456D01*
X1501Y1456D02*
X1551Y1456D01*
X501Y1455D02*
X548Y1455D01*
X1503Y1455D02*
X1549Y1455D01*
X503Y1454D02*
X547Y1454D01*
X1504Y1454D02*
X1548Y1454D01*
X504Y1453D02*
X545Y1453D01*
X1506Y1453D02*
X1546Y1453D01*
X506Y1452D02*
X543Y1452D01*
X1507Y1452D02*
X1545Y1452D01*
X508Y1451D02*
X541Y1451D01*
X1509Y1451D02*
X1543Y1451D01*
X511Y1450D02*
X539Y1450D01*
X1512Y1450D02*
X1540Y1450D01*
X514Y1449D02*
X535Y1449D01*
X1515Y1449D02*
X1537Y1449D01*
X518Y1448D02*
X531Y1448D01*
X1520Y1448D02*
X1532Y1448D01*
X520Y1431D02*
X529Y1431D01*
X1522Y1431D02*
X1530Y1431D01*
X515Y1430D02*
X534Y1430D01*
X1516Y1430D02*
X1536Y1430D01*
X511Y1429D02*
X538Y1429D01*
X1513Y1429D02*
X1539Y1429D01*
X509Y1428D02*
X540Y1428D01*
X1510Y1428D02*
X1542Y1428D01*
X507Y1427D02*
X543Y1427D01*
X1508Y1427D02*
X1544Y1427D01*
X505Y1426D02*
X544Y1426D01*
X1506Y1426D02*
X1546Y1426D01*
X503Y1425D02*
X546Y1425D01*
X1504Y1425D02*
X1548Y1425D01*
X501Y1424D02*
X548Y1424D01*
X1503Y1424D02*
X1549Y1424D01*
X500Y1423D02*
X549Y1423D01*
X1502Y1423D02*
X1550Y1423D01*
X499Y1422D02*
X550Y1422D01*
X1500Y1422D02*
X1552Y1422D01*
X498Y1421D02*
X552Y1421D01*
X1499Y1421D02*
X1553Y1421D01*
X496Y1420D02*
X553Y1420D01*
X1498Y1420D02*
X1554Y1420D01*
X495Y1419D02*
X554Y1419D01*
X1497Y1419D02*
X1555Y1419D01*
X494Y1418D02*
X555Y1418D01*
X1496Y1418D02*
X1556Y1418D01*
X494Y1417D02*
X556Y1417D01*
X1495Y1417D02*
X1557Y1417D01*
X493Y1416D02*
X556Y1416D01*
X1494Y1416D02*
X1558Y1416D01*
X492Y1415D02*
X557Y1415D01*
X1493Y1415D02*
X1559Y1415D01*
X491Y1414D02*
X558Y1414D01*
X1493Y1414D02*
X1559Y1414D01*
X490Y1413D02*
X559Y1413D01*
X1492Y1413D02*
X1560Y1413D01*
X490Y1412D02*
X559Y1412D01*
X1491Y1412D02*
X1561Y1412D01*
X489Y1411D02*
X560Y1411D01*
X1491Y1411D02*
X1561Y1411D01*
X489Y1410D02*
X561Y1410D01*
X1490Y1410D02*
X1562Y1410D01*
X488Y1409D02*
X561Y1409D01*
X1489Y1409D02*
X1563Y1409D01*
X487Y1408D02*
X562Y1408D01*
X1489Y1408D02*
X1563Y1408D01*
X487Y1407D02*
X562Y1407D01*
X1488Y1407D02*
X1564Y1407D01*
X486Y1406D02*
X563Y1406D01*
X1488Y1406D02*
X1564Y1406D01*
X486Y1405D02*
X563Y1405D01*
X1488Y1405D02*
X1564Y1405D01*
X486Y1404D02*
X563Y1404D01*
X1487Y1404D02*
X1565Y1404D01*
X485Y1403D02*
X564Y1403D01*
X1487Y1403D02*
X1565Y1403D01*
X485Y1402D02*
X564Y1402D01*
X1486Y1402D02*
X1566Y1402D01*
X485Y1401D02*
X564Y1401D01*
X1486Y1401D02*
X1566Y1401D01*
X484Y1400D02*
X565Y1400D01*
X1486Y1400D02*
X1566Y1400D01*
X484Y1399D02*
X565Y1399D01*
X1486Y1399D02*
X1566Y1399D01*
X484Y1398D02*
X565Y1398D01*
X1485Y1398D02*
X1567Y1398D01*
X484Y1397D02*
X565Y1397D01*
X1485Y1397D02*
X1567Y1397D01*
X484Y1396D02*
X565Y1396D01*
X1485Y1396D02*
X1567Y1396D01*
X483Y1395D02*
X566Y1395D01*
X1485Y1395D02*
X1567Y1395D01*
X483Y1394D02*
X566Y1394D01*
X1485Y1394D02*
X1567Y1394D01*
X483Y1393D02*
X566Y1393D01*
X1485Y1393D02*
X1567Y1393D01*
X483Y1392D02*
X566Y1392D01*
X1485Y1392D02*
X1567Y1392D01*
X483Y1391D02*
X566Y1391D01*
X1485Y1391D02*
X1567Y1391D01*
X483Y1390D02*
X566Y1390D01*
X1484Y1390D02*
X1568Y1390D01*
X483Y1389D02*
X566Y1389D01*
X1484Y1389D02*
X1568Y1389D01*
X483Y1388D02*
X566Y1388D01*
X1485Y1388D02*
X1567Y1388D01*
X483Y1387D02*
X566Y1387D01*
X1485Y1387D02*
X1567Y1387D01*
X483Y1386D02*
X566Y1386D01*
X1485Y1386D02*
X1567Y1386D01*
X483Y1385D02*
X566Y1385D01*
X1485Y1385D02*
X1567Y1385D01*
X483Y1384D02*
X566Y1384D01*
X1485Y1384D02*
X1567Y1384D01*
X484Y1383D02*
X566Y1383D01*
X1485Y1383D02*
X1567Y1383D01*
X484Y1382D02*
X565Y1382D01*
X1485Y1382D02*
X1567Y1382D01*
X484Y1381D02*
X565Y1381D01*
X1485Y1381D02*
X1567Y1381D01*
X484Y1380D02*
X565Y1380D01*
X1486Y1380D02*
X1566Y1380D01*
X484Y1379D02*
X565Y1379D01*
X1486Y1379D02*
X1566Y1379D01*
X485Y1378D02*
X564Y1378D01*
X1486Y1378D02*
X1566Y1378D01*
X485Y1377D02*
X564Y1377D01*
X1486Y1377D02*
X1566Y1377D01*
X485Y1376D02*
X564Y1376D01*
X1487Y1376D02*
X1565Y1376D01*
X486Y1375D02*
X564Y1375D01*
X1487Y1375D02*
X1565Y1375D01*
X486Y1374D02*
X563Y1374D01*
X1487Y1374D02*
X1565Y1374D01*
X486Y1373D02*
X563Y1373D01*
X1488Y1373D02*
X1564Y1373D01*
X487Y1372D02*
X562Y1372D01*
X1488Y1372D02*
X1564Y1372D01*
X487Y1371D02*
X562Y1371D01*
X1489Y1371D02*
X1563Y1371D01*
X488Y1370D02*
X561Y1370D01*
X1489Y1370D02*
X1563Y1370D01*
X488Y1369D02*
X561Y1369D01*
X1490Y1369D02*
X1562Y1369D01*
X489Y1368D02*
X560Y1368D01*
X1490Y1368D02*
X1562Y1368D01*
X490Y1367D02*
X560Y1367D01*
X1491Y1367D02*
X1561Y1367D01*
X490Y1366D02*
X559Y1366D01*
X1492Y1366D02*
X1560Y1366D01*
X491Y1365D02*
X558Y1365D01*
X1492Y1365D02*
X1560Y1365D01*
X492Y1364D02*
X558Y1364D01*
X1493Y1364D02*
X1559Y1364D01*
X492Y1363D02*
X557Y1363D01*
X1494Y1363D02*
X1558Y1363D01*
X493Y1362D02*
X556Y1362D01*
X1495Y1362D02*
X1557Y1362D01*
X494Y1361D02*
X555Y1361D01*
X1495Y1361D02*
X1557Y1361D01*
X495Y1360D02*
X554Y1360D01*
X1496Y1360D02*
X1556Y1360D01*
X496Y1359D02*
X553Y1359D01*
X1497Y1359D02*
X1555Y1359D01*
X497Y1358D02*
X552Y1358D01*
X1499Y1358D02*
X1553Y1358D01*
X498Y1357D02*
X551Y1357D01*
X1500Y1357D02*
X1552Y1357D01*
X500Y1356D02*
X550Y1356D01*
X1501Y1356D02*
X1551Y1356D01*
X501Y1355D02*
X548Y1355D01*
X1502Y1355D02*
X1550Y1355D01*
X502Y1354D02*
X547Y1354D01*
X1504Y1354D02*
X1548Y1354D01*
X504Y1353D02*
X545Y1353D01*
X1505Y1353D02*
X1547Y1353D01*
X506Y1352D02*
X543Y1352D01*
X1507Y1352D02*
X1545Y1352D01*
X508Y1351D02*
X541Y1351D01*
X1509Y1351D02*
X1543Y1351D01*
X510Y1350D02*
X539Y1350D01*
X1512Y1350D02*
X1540Y1350D01*
X513Y1349D02*
X536Y1349D01*
X1515Y1349D02*
X1537Y1349D01*
X518Y1348D02*
X531Y1348D01*
X1519Y1348D02*
X1533Y1348D01*
X521Y1331D02*
X528Y1331D01*
X1523Y1331D02*
X1529Y1331D01*
X515Y1330D02*
X534Y1330D01*
X1517Y1330D02*
X1535Y1330D01*
X512Y1329D02*
X537Y1329D01*
X1513Y1329D02*
X1539Y1329D01*
X509Y1328D02*
X540Y1328D01*
X1510Y1328D02*
X1542Y1328D01*
X507Y1327D02*
X542Y1327D01*
X1508Y1327D02*
X1544Y1327D01*
X505Y1326D02*
X544Y1326D01*
X1506Y1326D02*
X1546Y1326D01*
X503Y1325D02*
X546Y1325D01*
X1505Y1325D02*
X1547Y1325D01*
X502Y1324D02*
X548Y1324D01*
X1503Y1324D02*
X1549Y1324D01*
X500Y1323D02*
X549Y1323D01*
X1502Y1323D02*
X1550Y1323D01*
X499Y1322D02*
X550Y1322D01*
X1500Y1322D02*
X1552Y1322D01*
X498Y1321D02*
X551Y1321D01*
X1499Y1321D02*
X1553Y1321D01*
X497Y1320D02*
X553Y1320D01*
X1498Y1320D02*
X1554Y1320D01*
X495Y1319D02*
X554Y1319D01*
X1497Y1319D02*
X1555Y1319D01*
X495Y1318D02*
X555Y1318D01*
X1496Y1318D02*
X1556Y1318D01*
X494Y1317D02*
X556Y1317D01*
X1495Y1317D02*
X1557Y1317D01*
X493Y1316D02*
X556Y1316D01*
X1494Y1316D02*
X1558Y1316D01*
X492Y1315D02*
X557Y1315D01*
X1493Y1315D02*
X1559Y1315D01*
X491Y1314D02*
X558Y1314D01*
X1493Y1314D02*
X1559Y1314D01*
X490Y1313D02*
X559Y1313D01*
X1492Y1313D02*
X1560Y1313D01*
X490Y1312D02*
X559Y1312D01*
X1491Y1312D02*
X1561Y1312D01*
X489Y1311D02*
X560Y1311D01*
X1491Y1311D02*
X1561Y1311D01*
X489Y1310D02*
X561Y1310D01*
X1490Y1310D02*
X1562Y1310D01*
X488Y1309D02*
X561Y1309D01*
X1489Y1309D02*
X1563Y1309D01*
X488Y1308D02*
X562Y1308D01*
X1489Y1308D02*
X1563Y1308D01*
X487Y1307D02*
X562Y1307D01*
X1488Y1307D02*
X1564Y1307D01*
X487Y1306D02*
X563Y1306D01*
X1488Y1306D02*
X1564Y1306D01*
X486Y1305D02*
X563Y1305D01*
X1488Y1305D02*
X1564Y1305D01*
X486Y1304D02*
X563Y1304D01*
X1487Y1304D02*
X1565Y1304D01*
X485Y1303D02*
X564Y1303D01*
X1487Y1303D02*
X1565Y1303D01*
X485Y1302D02*
X564Y1302D01*
X1486Y1302D02*
X1566Y1302D01*
X485Y1301D02*
X564Y1301D01*
X1486Y1301D02*
X1566Y1301D01*
X485Y1300D02*
X565Y1300D01*
X1486Y1300D02*
X1566Y1300D01*
X484Y1299D02*
X565Y1299D01*
X1486Y1299D02*
X1566Y1299D01*
X484Y1298D02*
X565Y1298D01*
X1485Y1298D02*
X1567Y1298D01*
X484Y1297D02*
X565Y1297D01*
X1485Y1297D02*
X1567Y1297D01*
X484Y1296D02*
X565Y1296D01*
X1485Y1296D02*
X1567Y1296D01*
X484Y1295D02*
X566Y1295D01*
X1485Y1295D02*
X1567Y1295D01*
X483Y1294D02*
X566Y1294D01*
X1485Y1294D02*
X1567Y1294D01*
X483Y1293D02*
X566Y1293D01*
X1485Y1293D02*
X1567Y1293D01*
X483Y1292D02*
X566Y1292D01*
X1485Y1292D02*
X1567Y1292D01*
X483Y1291D02*
X566Y1291D01*
X1485Y1291D02*
X1567Y1291D01*
X483Y1290D02*
X566Y1290D01*
X1484Y1290D02*
X1568Y1290D01*
X483Y1289D02*
X566Y1289D01*
X1484Y1289D02*
X1568Y1289D01*
X483Y1288D02*
X566Y1288D01*
X1485Y1288D02*
X1567Y1288D01*
X483Y1287D02*
X566Y1287D01*
X1485Y1287D02*
X1567Y1287D01*
X483Y1286D02*
X566Y1286D01*
X1485Y1286D02*
X1567Y1286D01*
X483Y1285D02*
X566Y1285D01*
X1485Y1285D02*
X1567Y1285D01*
X483Y1284D02*
X566Y1284D01*
X1485Y1284D02*
X1567Y1284D01*
X484Y1283D02*
X566Y1283D01*
X1485Y1283D02*
X1567Y1283D01*
X484Y1282D02*
X565Y1282D01*
X1485Y1282D02*
X1567Y1282D01*
X484Y1281D02*
X565Y1281D01*
X1485Y1281D02*
X1567Y1281D01*
X484Y1280D02*
X565Y1280D01*
X1486Y1280D02*
X1566Y1280D01*
X484Y1279D02*
X565Y1279D01*
X1486Y1279D02*
X1566Y1279D01*
X485Y1278D02*
X565Y1278D01*
X1486Y1278D02*
X1566Y1278D01*
X485Y1277D02*
X564Y1277D01*
X1486Y1277D02*
X1566Y1277D01*
X485Y1276D02*
X564Y1276D01*
X1487Y1276D02*
X1565Y1276D01*
X486Y1275D02*
X564Y1275D01*
X1487Y1275D02*
X1565Y1275D01*
X486Y1274D02*
X563Y1274D01*
X1487Y1274D02*
X1565Y1274D01*
X486Y1273D02*
X563Y1273D01*
X1488Y1273D02*
X1564Y1273D01*
X487Y1272D02*
X562Y1272D01*
X1488Y1272D02*
X1564Y1272D01*
X487Y1271D02*
X562Y1271D01*
X1489Y1271D02*
X1563Y1271D01*
X488Y1270D02*
X561Y1270D01*
X1489Y1270D02*
X1563Y1270D01*
X488Y1269D02*
X561Y1269D01*
X1490Y1269D02*
X1562Y1269D01*
X489Y1268D02*
X560Y1268D01*
X1490Y1268D02*
X1562Y1268D01*
X489Y1267D02*
X560Y1267D01*
X1491Y1267D02*
X1561Y1267D01*
X490Y1266D02*
X559Y1266D01*
X1492Y1266D02*
X1560Y1266D01*
X491Y1265D02*
X558Y1265D01*
X1492Y1265D02*
X1560Y1265D01*
X492Y1264D02*
X558Y1264D01*
X1493Y1264D02*
X1559Y1264D01*
X492Y1263D02*
X557Y1263D01*
X1494Y1263D02*
X1558Y1263D01*
X493Y1262D02*
X556Y1262D01*
X1494Y1262D02*
X1558Y1262D01*
X494Y1261D02*
X555Y1261D01*
X1495Y1261D02*
X1557Y1261D01*
X495Y1260D02*
X554Y1260D01*
X1496Y1260D02*
X1556Y1260D01*
X496Y1259D02*
X553Y1259D01*
X1497Y1259D02*
X1555Y1259D01*
X497Y1258D02*
X552Y1258D01*
X1498Y1258D02*
X1554Y1258D01*
X498Y1257D02*
X551Y1257D01*
X1500Y1257D02*
X1552Y1257D01*
X499Y1256D02*
X550Y1256D01*
X1501Y1256D02*
X1551Y1256D01*
X501Y1255D02*
X548Y1255D01*
X1502Y1255D02*
X1550Y1255D01*
X502Y1254D02*
X547Y1254D01*
X1504Y1254D02*
X1548Y1254D01*
X504Y1253D02*
X545Y1253D01*
X1505Y1253D02*
X1547Y1253D01*
X506Y1252D02*
X544Y1252D01*
X1507Y1252D02*
X1545Y1252D01*
X508Y1251D02*
X542Y1251D01*
X1509Y1251D02*
X1543Y1251D01*
X510Y1250D02*
X539Y1250D01*
X1511Y1250D02*
X1541Y1250D01*
X513Y1249D02*
X536Y1249D01*
X1514Y1249D02*
X1538Y1249D01*
X517Y1248D02*
X532Y1248D01*
X1519Y1248D02*
X1533Y1248D01*
X523Y1231D02*
X526Y1231D01*
X1524Y1231D02*
X1528Y1231D01*
X516Y1230D02*
X533Y1230D01*
X1517Y1230D02*
X1535Y1230D01*
X512Y1229D02*
X537Y1229D01*
X1513Y1229D02*
X1539Y1229D01*
X509Y1228D02*
X540Y1228D01*
X1511Y1228D02*
X1541Y1228D01*
X507Y1227D02*
X542Y1227D01*
X1508Y1227D02*
X1544Y1227D01*
X505Y1226D02*
X544Y1226D01*
X1506Y1226D02*
X1546Y1226D01*
X503Y1225D02*
X546Y1225D01*
X1505Y1225D02*
X1547Y1225D01*
X502Y1224D02*
X547Y1224D01*
X1503Y1224D02*
X1549Y1224D01*
X500Y1223D02*
X549Y1223D01*
X1502Y1223D02*
X1550Y1223D01*
X499Y1222D02*
X550Y1222D01*
X1500Y1222D02*
X1552Y1222D01*
X498Y1221D02*
X551Y1221D01*
X1499Y1221D02*
X1553Y1221D01*
X497Y1220D02*
X552Y1220D01*
X1498Y1220D02*
X1554Y1220D01*
X496Y1219D02*
X554Y1219D01*
X1497Y1219D02*
X1555Y1219D01*
X495Y1218D02*
X555Y1218D01*
X1496Y1218D02*
X1556Y1218D01*
X494Y1217D02*
X555Y1217D01*
X1495Y1217D02*
X1557Y1217D01*
X493Y1216D02*
X556Y1216D01*
X1494Y1216D02*
X1558Y1216D01*
X492Y1215D02*
X557Y1215D01*
X1494Y1215D02*
X1558Y1215D01*
X491Y1214D02*
X558Y1214D01*
X1493Y1214D02*
X1559Y1214D01*
X491Y1213D02*
X559Y1213D01*
X1492Y1213D02*
X1560Y1213D01*
X490Y1212D02*
X559Y1212D01*
X1491Y1212D02*
X1561Y1212D01*
X489Y1211D02*
X560Y1211D01*
X1491Y1211D02*
X1561Y1211D01*
X489Y1210D02*
X560Y1210D01*
X1490Y1210D02*
X1562Y1210D01*
X488Y1209D02*
X561Y1209D01*
X1490Y1209D02*
X1562Y1209D01*
X488Y1208D02*
X562Y1208D01*
X1489Y1208D02*
X1563Y1208D01*
X487Y1207D02*
X562Y1207D01*
X1489Y1207D02*
X1563Y1207D01*
X487Y1206D02*
X563Y1206D01*
X1488Y1206D02*
X1564Y1206D01*
X486Y1205D02*
X563Y1205D01*
X1488Y1205D02*
X1564Y1205D01*
X486Y1204D02*
X563Y1204D01*
X1487Y1204D02*
X1565Y1204D01*
X485Y1203D02*
X564Y1203D01*
X1487Y1203D02*
X1565Y1203D01*
X485Y1202D02*
X564Y1202D01*
X1487Y1202D02*
X1565Y1202D01*
X485Y1201D02*
X564Y1201D01*
X1486Y1201D02*
X1566Y1201D01*
X485Y1200D02*
X565Y1200D01*
X1486Y1200D02*
X1566Y1200D01*
X484Y1199D02*
X565Y1199D01*
X1486Y1199D02*
X1566Y1199D01*
X484Y1198D02*
X565Y1198D01*
X1485Y1198D02*
X1567Y1198D01*
X484Y1197D02*
X565Y1197D01*
X1485Y1197D02*
X1567Y1197D01*
X484Y1196D02*
X565Y1196D01*
X1485Y1196D02*
X1567Y1196D01*
X484Y1195D02*
X566Y1195D01*
X1485Y1195D02*
X1567Y1195D01*
X483Y1194D02*
X566Y1194D01*
X1485Y1194D02*
X1567Y1194D01*
X483Y1193D02*
X566Y1193D01*
X1485Y1193D02*
X1567Y1193D01*
X483Y1192D02*
X566Y1192D01*
X1485Y1192D02*
X1567Y1192D01*
X483Y1191D02*
X566Y1191D01*
X1485Y1191D02*
X1567Y1191D01*
X483Y1190D02*
X566Y1190D01*
X1485Y1190D02*
X1567Y1190D01*
X483Y1189D02*
X566Y1189D01*
X1484Y1189D02*
X1568Y1189D01*
X483Y1188D02*
X566Y1188D01*
X1485Y1188D02*
X1567Y1188D01*
X483Y1187D02*
X566Y1187D01*
X1485Y1187D02*
X1567Y1187D01*
X483Y1186D02*
X566Y1186D01*
X1485Y1186D02*
X1567Y1186D01*
X483Y1185D02*
X566Y1185D01*
X1485Y1185D02*
X1567Y1185D01*
X483Y1184D02*
X566Y1184D01*
X1485Y1184D02*
X1567Y1184D01*
X484Y1183D02*
X566Y1183D01*
X1485Y1183D02*
X1567Y1183D01*
X484Y1182D02*
X565Y1182D01*
X1485Y1182D02*
X1567Y1182D01*
X484Y1181D02*
X565Y1181D01*
X1485Y1181D02*
X1567Y1181D01*
X484Y1180D02*
X565Y1180D01*
X1486Y1180D02*
X1566Y1180D01*
X484Y1179D02*
X565Y1179D01*
X1486Y1179D02*
X1566Y1179D01*
X485Y1178D02*
X565Y1178D01*
X1486Y1178D02*
X1566Y1178D01*
X485Y1177D02*
X564Y1177D01*
X1486Y1177D02*
X1566Y1177D01*
X485Y1176D02*
X564Y1176D01*
X1487Y1176D02*
X1565Y1176D01*
X485Y1175D02*
X564Y1175D01*
X1487Y1175D02*
X1565Y1175D01*
X486Y1174D02*
X563Y1174D01*
X1487Y1174D02*
X1565Y1174D01*
X486Y1173D02*
X563Y1173D01*
X1488Y1173D02*
X1564Y1173D01*
X487Y1172D02*
X562Y1172D01*
X1488Y1172D02*
X1564Y1172D01*
X487Y1171D02*
X562Y1171D01*
X1489Y1171D02*
X1563Y1171D01*
X488Y1170D02*
X561Y1170D01*
X1489Y1170D02*
X1563Y1170D01*
X488Y1169D02*
X561Y1169D01*
X1490Y1169D02*
X1562Y1169D01*
X489Y1168D02*
X560Y1168D01*
X1490Y1168D02*
X1562Y1168D01*
X489Y1167D02*
X560Y1167D01*
X1491Y1167D02*
X1561Y1167D01*
X490Y1166D02*
X559Y1166D01*
X1491Y1166D02*
X1561Y1166D01*
X491Y1165D02*
X558Y1165D01*
X1492Y1165D02*
X1560Y1165D01*
X491Y1164D02*
X558Y1164D01*
X1493Y1164D02*
X1559Y1164D01*
X492Y1163D02*
X557Y1163D01*
X1494Y1163D02*
X1558Y1163D01*
X493Y1162D02*
X556Y1162D01*
X1494Y1162D02*
X1558Y1162D01*
X494Y1161D02*
X555Y1161D01*
X1495Y1161D02*
X1557Y1161D01*
X495Y1160D02*
X554Y1160D01*
X1496Y1160D02*
X1556Y1160D01*
X496Y1159D02*
X553Y1159D01*
X1497Y1159D02*
X1555Y1159D01*
X497Y1158D02*
X552Y1158D01*
X1498Y1158D02*
X1554Y1158D01*
X498Y1157D02*
X551Y1157D01*
X1499Y1157D02*
X1553Y1157D01*
X499Y1156D02*
X550Y1156D01*
X1501Y1156D02*
X1551Y1156D01*
X501Y1155D02*
X549Y1155D01*
X1502Y1155D02*
X1550Y1155D01*
X502Y1154D02*
X547Y1154D01*
X1503Y1154D02*
X1549Y1154D01*
X504Y1153D02*
X545Y1153D01*
X1505Y1153D02*
X1547Y1153D01*
X505Y1152D02*
X544Y1152D01*
X1507Y1152D02*
X1545Y1152D01*
X507Y1151D02*
X542Y1151D01*
X1509Y1151D02*
X1543Y1151D01*
X510Y1150D02*
X539Y1150D01*
X1511Y1150D02*
X1541Y1150D01*
X513Y1149D02*
X537Y1149D01*
X1514Y1149D02*
X1538Y1149D01*
X517Y1148D02*
X533Y1148D01*
X1518Y1148D02*
X1534Y1148D01*
X516Y1130D02*
X533Y1130D01*
X1518Y1130D02*
X1534Y1130D01*
X512Y1129D02*
X537Y1129D01*
X1514Y1129D02*
X1538Y1129D01*
X510Y1128D02*
X540Y1128D01*
X1511Y1128D02*
X1541Y1128D01*
X507Y1127D02*
X542Y1127D01*
X1509Y1127D02*
X1543Y1127D01*
X505Y1126D02*
X544Y1126D01*
X1507Y1126D02*
X1545Y1126D01*
X504Y1125D02*
X546Y1125D01*
X1505Y1125D02*
X1547Y1125D01*
X502Y1124D02*
X547Y1124D01*
X1503Y1124D02*
X1549Y1124D01*
X501Y1123D02*
X549Y1123D01*
X1502Y1123D02*
X1550Y1123D01*
X499Y1122D02*
X550Y1122D01*
X1501Y1122D02*
X1551Y1122D01*
X498Y1121D02*
X551Y1121D01*
X1499Y1121D02*
X1553Y1121D01*
X497Y1120D02*
X552Y1120D01*
X1498Y1120D02*
X1554Y1120D01*
X496Y1119D02*
X553Y1119D01*
X1497Y1119D02*
X1555Y1119D01*
X495Y1118D02*
X554Y1118D01*
X1496Y1118D02*
X1556Y1118D01*
X494Y1117D02*
X555Y1117D01*
X1495Y1117D02*
X1557Y1117D01*
X493Y1116D02*
X556Y1116D01*
X1494Y1116D02*
X1558Y1116D01*
X492Y1115D02*
X557Y1115D01*
X1494Y1115D02*
X1558Y1115D01*
X491Y1114D02*
X558Y1114D01*
X1493Y1114D02*
X1559Y1114D01*
X491Y1113D02*
X558Y1113D01*
X1492Y1113D02*
X1560Y1113D01*
X490Y1112D02*
X559Y1112D01*
X1491Y1112D02*
X1561Y1112D01*
X489Y1111D02*
X560Y1111D01*
X1491Y1111D02*
X1561Y1111D01*
X489Y1110D02*
X560Y1110D01*
X1490Y1110D02*
X1562Y1110D01*
X488Y1109D02*
X561Y1109D01*
X1490Y1109D02*
X1562Y1109D01*
X488Y1108D02*
X561Y1108D01*
X1489Y1108D02*
X1563Y1108D01*
X487Y1107D02*
X562Y1107D01*
X1489Y1107D02*
X1563Y1107D01*
X487Y1106D02*
X562Y1106D01*
X1488Y1106D02*
X1564Y1106D01*
X486Y1105D02*
X563Y1105D01*
X1488Y1105D02*
X1564Y1105D01*
X486Y1104D02*
X563Y1104D01*
X1487Y1104D02*
X1565Y1104D01*
X485Y1103D02*
X564Y1103D01*
X1487Y1103D02*
X1565Y1103D01*
X485Y1102D02*
X564Y1102D01*
X1487Y1102D02*
X1565Y1102D01*
X485Y1101D02*
X564Y1101D01*
X1486Y1101D02*
X1566Y1101D01*
X485Y1100D02*
X565Y1100D01*
X1486Y1100D02*
X1566Y1100D01*
X484Y1099D02*
X565Y1099D01*
X1486Y1099D02*
X1566Y1099D01*
X484Y1098D02*
X565Y1098D01*
X1486Y1098D02*
X1566Y1098D01*
X484Y1097D02*
X565Y1097D01*
X1485Y1097D02*
X1567Y1097D01*
X484Y1096D02*
X565Y1096D01*
X1485Y1096D02*
X1567Y1096D01*
X484Y1095D02*
X566Y1095D01*
X1485Y1095D02*
X1567Y1095D01*
X483Y1094D02*
X566Y1094D01*
X1485Y1094D02*
X1567Y1094D01*
X483Y1093D02*
X566Y1093D01*
X1485Y1093D02*
X1567Y1093D01*
X483Y1092D02*
X566Y1092D01*
X1485Y1092D02*
X1567Y1092D01*
X483Y1091D02*
X566Y1091D01*
X1485Y1091D02*
X1567Y1091D01*
X483Y1090D02*
X566Y1090D01*
X1485Y1090D02*
X1567Y1090D01*
X483Y1089D02*
X566Y1089D01*
X1484Y1089D02*
X1568Y1089D01*
X483Y1088D02*
X566Y1088D01*
X1485Y1088D02*
X1567Y1088D01*
X483Y1087D02*
X566Y1087D01*
X1485Y1087D02*
X1567Y1087D01*
X483Y1086D02*
X566Y1086D01*
X1485Y1086D02*
X1567Y1086D01*
X483Y1085D02*
X566Y1085D01*
X1485Y1085D02*
X1567Y1085D01*
X483Y1084D02*
X566Y1084D01*
X1485Y1084D02*
X1567Y1084D01*
X484Y1083D02*
X566Y1083D01*
X1485Y1083D02*
X1567Y1083D01*
X484Y1082D02*
X565Y1082D01*
X1485Y1082D02*
X1567Y1082D01*
X484Y1081D02*
X565Y1081D01*
X1485Y1081D02*
X1567Y1081D01*
X484Y1080D02*
X565Y1080D01*
X1485Y1080D02*
X1566Y1080D01*
X484Y1079D02*
X565Y1079D01*
X1486Y1079D02*
X1566Y1079D01*
X485Y1078D02*
X565Y1078D01*
X1486Y1078D02*
X1566Y1078D01*
X485Y1077D02*
X564Y1077D01*
X1486Y1077D02*
X1566Y1077D01*
X485Y1076D02*
X564Y1076D01*
X1487Y1076D02*
X1565Y1076D01*
X485Y1075D02*
X564Y1075D01*
X1487Y1075D02*
X1565Y1075D01*
X486Y1074D02*
X563Y1074D01*
X1487Y1074D02*
X1565Y1074D01*
X486Y1073D02*
X563Y1073D01*
X1488Y1073D02*
X1564Y1073D01*
X487Y1072D02*
X563Y1072D01*
X1488Y1072D02*
X1564Y1072D01*
X487Y1071D02*
X562Y1071D01*
X1489Y1071D02*
X1563Y1071D01*
X488Y1070D02*
X562Y1070D01*
X1489Y1070D02*
X1563Y1070D01*
X488Y1069D02*
X561Y1069D01*
X1490Y1069D02*
X1562Y1069D01*
X489Y1068D02*
X560Y1068D01*
X1490Y1068D02*
X1562Y1068D01*
X489Y1067D02*
X560Y1067D01*
X1491Y1067D02*
X1561Y1067D01*
X490Y1066D02*
X559Y1066D01*
X1491Y1066D02*
X1561Y1066D01*
X491Y1065D02*
X558Y1065D01*
X1492Y1065D02*
X1560Y1065D01*
X491Y1064D02*
X558Y1064D01*
X1493Y1064D02*
X1559Y1064D01*
X492Y1063D02*
X557Y1063D01*
X1494Y1063D02*
X1558Y1063D01*
X493Y1062D02*
X556Y1062D01*
X1494Y1062D02*
X1558Y1062D01*
X494Y1061D02*
X555Y1061D01*
X1495Y1061D02*
X1557Y1061D01*
X495Y1060D02*
X554Y1060D01*
X1496Y1060D02*
X1556Y1060D01*
X496Y1059D02*
X554Y1059D01*
X1497Y1059D02*
X1555Y1059D01*
X497Y1058D02*
X552Y1058D01*
X1498Y1058D02*
X1554Y1058D01*
X498Y1057D02*
X551Y1057D01*
X1499Y1057D02*
X1553Y1057D01*
X499Y1056D02*
X550Y1056D01*
X1501Y1056D02*
X1551Y1056D01*
X500Y1055D02*
X549Y1055D01*
X1502Y1055D02*
X1550Y1055D01*
X502Y1054D02*
X547Y1054D01*
X1503Y1054D02*
X1549Y1054D01*
X503Y1053D02*
X546Y1053D01*
X1505Y1053D02*
X1547Y1053D01*
X505Y1052D02*
X544Y1052D01*
X1507Y1052D02*
X1545Y1052D01*
X507Y1051D02*
X542Y1051D01*
X1509Y1051D02*
X1543Y1051D01*
X509Y1050D02*
X540Y1050D01*
X1511Y1050D02*
X1541Y1050D01*
X512Y1049D02*
X537Y1049D01*
X1514Y1049D02*
X1538Y1049D01*
X516Y1048D02*
X533Y1048D01*
X1517Y1048D02*
X1535Y1048D01*
X524Y1047D02*
X525Y1047D01*
X1525Y1047D02*
X1527Y1047D01*
X517Y1030D02*
X532Y1030D01*
X1518Y1030D02*
X1534Y1030D01*
X513Y1029D02*
X536Y1029D01*
X1514Y1029D02*
X1538Y1029D01*
X510Y1028D02*
X539Y1028D01*
X1511Y1028D02*
X1541Y1028D01*
X507Y1027D02*
X542Y1027D01*
X1509Y1027D02*
X1543Y1027D01*
X505Y1026D02*
X544Y1026D01*
X1507Y1026D02*
X1545Y1026D01*
X504Y1025D02*
X545Y1025D01*
X1505Y1025D02*
X1547Y1025D01*
X502Y1024D02*
X547Y1024D01*
X1504Y1024D02*
X1548Y1024D01*
X501Y1023D02*
X548Y1023D01*
X1502Y1023D02*
X1550Y1023D01*
X499Y1022D02*
X550Y1022D01*
X1501Y1022D02*
X1551Y1022D01*
X498Y1021D02*
X551Y1021D01*
X1499Y1021D02*
X1553Y1021D01*
X497Y1020D02*
X552Y1020D01*
X1498Y1020D02*
X1554Y1020D01*
X496Y1019D02*
X553Y1019D01*
X1497Y1019D02*
X1555Y1019D01*
X495Y1018D02*
X554Y1018D01*
X1496Y1018D02*
X1556Y1018D01*
X494Y1017D02*
X555Y1017D01*
X1495Y1017D02*
X1557Y1017D01*
X493Y1016D02*
X556Y1016D01*
X1494Y1016D02*
X1558Y1016D01*
X492Y1015D02*
X557Y1015D01*
X1494Y1015D02*
X1558Y1015D01*
X491Y1014D02*
X558Y1014D01*
X1493Y1014D02*
X1559Y1014D01*
X491Y1013D02*
X558Y1013D01*
X1492Y1013D02*
X1560Y1013D01*
X490Y1012D02*
X559Y1012D01*
X1491Y1012D02*
X1561Y1012D01*
X489Y1011D02*
X560Y1011D01*
X1491Y1011D02*
X1561Y1011D01*
X489Y1010D02*
X560Y1010D01*
X1490Y1010D02*
X1562Y1010D01*
X488Y1009D02*
X561Y1009D01*
X1490Y1009D02*
X1562Y1009D01*
X488Y1008D02*
X561Y1008D01*
X1489Y1008D02*
X1563Y1008D01*
X487Y1007D02*
X562Y1007D01*
X1489Y1007D02*
X1563Y1007D01*
X487Y1006D02*
X562Y1006D01*
X1488Y1006D02*
X1564Y1006D01*
X486Y1005D02*
X563Y1005D01*
X1488Y1005D02*
X1564Y1005D01*
X486Y1004D02*
X563Y1004D01*
X1487Y1004D02*
X1565Y1004D01*
X486Y1003D02*
X564Y1003D01*
X1487Y1003D02*
X1565Y1003D01*
X485Y1002D02*
X564Y1002D01*
X1487Y1002D02*
X1565Y1002D01*
X485Y1001D02*
X564Y1001D01*
X1486Y1001D02*
X1566Y1001D01*
X485Y1000D02*
X565Y1000D01*
X1486Y1000D02*
X1566Y1000D01*
X484Y999D02*
X565Y999D01*
X1486Y999D02*
X1566Y999D01*
X484Y998D02*
X565Y998D01*
X1486Y998D02*
X1566Y998D01*
X484Y997D02*
X565Y997D01*
X1485Y997D02*
X1567Y997D01*
X484Y996D02*
X565Y996D01*
X1485Y996D02*
X1567Y996D01*
X484Y995D02*
X566Y995D01*
X1485Y995D02*
X1567Y995D01*
X483Y994D02*
X566Y994D01*
X1485Y994D02*
X1567Y994D01*
X483Y993D02*
X566Y993D01*
X1485Y993D02*
X1567Y993D01*
X483Y992D02*
X566Y992D01*
X1485Y992D02*
X1567Y992D01*
X483Y991D02*
X566Y991D01*
X1485Y991D02*
X1567Y991D01*
X483Y990D02*
X566Y990D01*
X1485Y990D02*
X1567Y990D01*
X483Y989D02*
X566Y989D01*
X1484Y989D02*
X1568Y989D01*
X483Y988D02*
X566Y988D01*
X1484Y988D02*
X1567Y988D01*
X483Y987D02*
X566Y987D01*
X1485Y987D02*
X1567Y987D01*
X483Y986D02*
X566Y986D01*
X1485Y986D02*
X1567Y986D01*
X483Y985D02*
X566Y985D01*
X1485Y985D02*
X1567Y985D01*
X483Y984D02*
X566Y984D01*
X1485Y984D02*
X1567Y984D01*
X484Y983D02*
X566Y983D01*
X1485Y983D02*
X1567Y983D01*
X484Y982D02*
X565Y982D01*
X1485Y982D02*
X1567Y982D01*
X484Y981D02*
X565Y981D01*
X1485Y981D02*
X1567Y981D01*
X484Y980D02*
X565Y980D01*
X1485Y980D02*
X1567Y980D01*
X484Y979D02*
X565Y979D01*
X1486Y979D02*
X1566Y979D01*
X485Y978D02*
X565Y978D01*
X1486Y978D02*
X1566Y978D01*
X485Y977D02*
X564Y977D01*
X1486Y977D02*
X1566Y977D01*
X485Y976D02*
X564Y976D01*
X1487Y976D02*
X1565Y976D01*
X485Y975D02*
X564Y975D01*
X1487Y975D02*
X1565Y975D01*
X486Y974D02*
X563Y974D01*
X1487Y974D02*
X1565Y974D01*
X486Y973D02*
X563Y973D01*
X1488Y973D02*
X1564Y973D01*
X487Y972D02*
X563Y972D01*
X1488Y972D02*
X1564Y972D01*
X487Y971D02*
X562Y971D01*
X1488Y971D02*
X1564Y971D01*
X488Y970D02*
X562Y970D01*
X1489Y970D02*
X1563Y970D01*
X488Y969D02*
X561Y969D01*
X1489Y969D02*
X1563Y969D01*
X489Y968D02*
X560Y968D01*
X1490Y968D02*
X1562Y968D01*
X489Y967D02*
X560Y967D01*
X1491Y967D02*
X1561Y967D01*
X490Y966D02*
X559Y966D01*
X1491Y966D02*
X1561Y966D01*
X491Y965D02*
X559Y965D01*
X1492Y965D02*
X1560Y965D01*
X491Y964D02*
X558Y964D01*
X1493Y964D02*
X1559Y964D01*
X492Y963D02*
X557Y963D01*
X1493Y963D02*
X1559Y963D01*
X493Y962D02*
X556Y962D01*
X1494Y962D02*
X1558Y962D01*
X494Y961D02*
X555Y961D01*
X1495Y961D02*
X1557Y961D01*
X495Y960D02*
X555Y960D01*
X1496Y960D02*
X1556Y960D01*
X495Y959D02*
X554Y959D01*
X1497Y959D02*
X1555Y959D01*
X497Y958D02*
X553Y958D01*
X1498Y958D02*
X1554Y958D01*
X498Y957D02*
X551Y957D01*
X1499Y957D02*
X1553Y957D01*
X499Y956D02*
X550Y956D01*
X1500Y956D02*
X1552Y956D01*
X500Y955D02*
X549Y955D01*
X1502Y955D02*
X1550Y955D01*
X502Y954D02*
X547Y954D01*
X1503Y954D02*
X1549Y954D01*
X503Y953D02*
X546Y953D01*
X1505Y953D02*
X1547Y953D01*
X505Y952D02*
X544Y952D01*
X1506Y952D02*
X1546Y952D01*
X507Y951D02*
X542Y951D01*
X1508Y951D02*
X1544Y951D01*
X509Y950D02*
X540Y950D01*
X1510Y950D02*
X1542Y950D01*
X512Y949D02*
X537Y949D01*
X1513Y949D02*
X1539Y949D01*
X516Y948D02*
X534Y948D01*
X1517Y948D02*
X1535Y948D01*
X522Y947D02*
X527Y947D01*
X1523Y947D02*
X1529Y947D01*
X517Y930D02*
X532Y930D01*
X1519Y930D02*
X1533Y930D01*
X513Y929D02*
X536Y929D01*
X1515Y929D02*
X1537Y929D01*
X510Y928D02*
X539Y928D01*
X1512Y928D02*
X1540Y928D01*
X508Y927D02*
X541Y927D01*
X1509Y927D02*
X1543Y927D01*
X506Y926D02*
X543Y926D01*
X1507Y926D02*
X1545Y926D01*
X504Y925D02*
X545Y925D01*
X1505Y925D02*
X1547Y925D01*
X502Y924D02*
X547Y924D01*
X1504Y924D02*
X1548Y924D01*
X501Y923D02*
X548Y923D01*
X1502Y923D02*
X1550Y923D01*
X499Y922D02*
X550Y922D01*
X1501Y922D02*
X1551Y922D01*
X498Y921D02*
X551Y921D01*
X1500Y921D02*
X1552Y921D01*
X497Y920D02*
X552Y920D01*
X1498Y920D02*
X1554Y920D01*
X496Y919D02*
X553Y919D01*
X1497Y919D02*
X1555Y919D01*
X495Y918D02*
X554Y918D01*
X1496Y918D02*
X1556Y918D01*
X494Y917D02*
X555Y917D01*
X1495Y917D02*
X1557Y917D01*
X493Y916D02*
X556Y916D01*
X1495Y916D02*
X1557Y916D01*
X492Y915D02*
X557Y915D01*
X1494Y915D02*
X1558Y915D01*
X492Y914D02*
X558Y914D01*
X1493Y914D02*
X1559Y914D01*
X491Y913D02*
X558Y913D01*
X1492Y913D02*
X1560Y913D01*
X490Y912D02*
X559Y912D01*
X1492Y912D02*
X1560Y912D01*
X489Y911D02*
X560Y911D01*
X1491Y911D02*
X1561Y911D01*
X489Y910D02*
X560Y910D01*
X1490Y910D02*
X1562Y910D01*
X488Y909D02*
X561Y909D01*
X1490Y909D02*
X1562Y909D01*
X488Y908D02*
X561Y908D01*
X1489Y908D02*
X1563Y908D01*
X487Y907D02*
X562Y907D01*
X1489Y907D02*
X1563Y907D01*
X487Y906D02*
X562Y906D01*
X1488Y906D02*
X1564Y906D01*
X486Y905D02*
X563Y905D01*
X1488Y905D02*
X1564Y905D01*
X486Y904D02*
X563Y904D01*
X1487Y904D02*
X1565Y904D01*
X486Y903D02*
X564Y903D01*
X1487Y903D02*
X1565Y903D01*
X485Y902D02*
X564Y902D01*
X1487Y902D02*
X1565Y902D01*
X485Y901D02*
X564Y901D01*
X1486Y901D02*
X1566Y901D01*
X485Y900D02*
X564Y900D01*
X1486Y900D02*
X1566Y900D01*
X484Y899D02*
X565Y899D01*
X1486Y899D02*
X1566Y899D01*
X484Y898D02*
X565Y898D01*
X1486Y898D02*
X1566Y898D01*
X484Y897D02*
X565Y897D01*
X1485Y897D02*
X1567Y897D01*
X484Y896D02*
X565Y896D01*
X1485Y896D02*
X1567Y896D01*
X484Y895D02*
X566Y895D01*
X1485Y895D02*
X1567Y895D01*
X483Y894D02*
X566Y894D01*
X1485Y894D02*
X1567Y894D01*
X483Y893D02*
X566Y893D01*
X1485Y893D02*
X1567Y893D01*
X483Y892D02*
X566Y892D01*
X1485Y892D02*
X1567Y892D01*
X483Y891D02*
X566Y891D01*
X1485Y891D02*
X1567Y891D01*
X483Y890D02*
X566Y890D01*
X1485Y890D02*
X1567Y890D01*
X483Y889D02*
X566Y889D01*
X1484Y889D02*
X1568Y889D01*
X483Y888D02*
X566Y888D01*
X1484Y888D02*
X1568Y888D01*
X483Y887D02*
X566Y887D01*
X1485Y887D02*
X1567Y887D01*
X483Y886D02*
X566Y886D01*
X1485Y886D02*
X1567Y886D01*
X483Y885D02*
X566Y885D01*
X1485Y885D02*
X1567Y885D01*
X483Y884D02*
X566Y884D01*
X1485Y884D02*
X1567Y884D01*
X484Y883D02*
X566Y883D01*
X1485Y883D02*
X1567Y883D01*
X484Y882D02*
X565Y882D01*
X1485Y882D02*
X1567Y882D01*
X484Y881D02*
X565Y881D01*
X1485Y881D02*
X1567Y881D01*
X484Y880D02*
X565Y880D01*
X1485Y880D02*
X1567Y880D01*
X484Y879D02*
X565Y879D01*
X1486Y879D02*
X1566Y879D01*
X485Y878D02*
X565Y878D01*
X1486Y878D02*
X1566Y878D01*
X485Y877D02*
X564Y877D01*
X1486Y877D02*
X1566Y877D01*
X485Y876D02*
X564Y876D01*
X1486Y876D02*
X1566Y876D01*
X485Y875D02*
X564Y875D01*
X1487Y875D02*
X1565Y875D01*
X486Y874D02*
X563Y874D01*
X1487Y874D02*
X1565Y874D01*
X486Y873D02*
X563Y873D01*
X1488Y873D02*
X1564Y873D01*
X486Y872D02*
X563Y872D01*
X1488Y872D02*
X1564Y872D01*
X487Y871D02*
X562Y871D01*
X1488Y871D02*
X1564Y871D01*
X487Y870D02*
X562Y870D01*
X1489Y870D02*
X1563Y870D01*
X488Y869D02*
X561Y869D01*
X1489Y869D02*
X1563Y869D01*
X489Y868D02*
X561Y868D01*
X1490Y868D02*
X1562Y868D01*
X489Y867D02*
X560Y867D01*
X1491Y867D02*
X1561Y867D01*
X490Y866D02*
X559Y866D01*
X1491Y866D02*
X1561Y866D01*
X490Y865D02*
X559Y865D01*
X1492Y865D02*
X1560Y865D01*
X491Y864D02*
X558Y864D01*
X1493Y864D02*
X1559Y864D01*
X492Y863D02*
X557Y863D01*
X1493Y863D02*
X1559Y863D01*
X493Y862D02*
X556Y862D01*
X1494Y862D02*
X1558Y862D01*
X494Y861D02*
X556Y861D01*
X1495Y861D02*
X1557Y861D01*
X494Y860D02*
X555Y860D01*
X1496Y860D02*
X1556Y860D01*
X495Y859D02*
X554Y859D01*
X1497Y859D02*
X1555Y859D01*
X496Y858D02*
X553Y858D01*
X1498Y858D02*
X1554Y858D01*
X498Y857D02*
X552Y857D01*
X1499Y857D02*
X1553Y857D01*
X499Y856D02*
X550Y856D01*
X1500Y856D02*
X1552Y856D01*
X500Y855D02*
X549Y855D01*
X1502Y855D02*
X1550Y855D01*
X502Y854D02*
X548Y854D01*
X1503Y854D02*
X1549Y854D01*
X503Y853D02*
X546Y853D01*
X1505Y853D02*
X1547Y853D01*
X505Y852D02*
X544Y852D01*
X1506Y852D02*
X1546Y852D01*
X507Y851D02*
X542Y851D01*
X1508Y851D02*
X1544Y851D01*
X509Y850D02*
X540Y850D01*
X1510Y850D02*
X1542Y850D01*
X512Y849D02*
X538Y849D01*
X1513Y849D02*
X1539Y849D01*
X515Y848D02*
X534Y848D01*
X1517Y848D02*
X1535Y848D01*
X521Y847D02*
X528Y847D01*
X1522Y847D02*
X1530Y847D01*
X518Y830D02*
X531Y830D01*
X1520Y830D02*
X1532Y830D01*
X514Y829D02*
X536Y829D01*
X1515Y829D02*
X1537Y829D01*
X510Y828D02*
X539Y828D01*
X1512Y828D02*
X1540Y828D01*
X508Y827D02*
X541Y827D01*
X1509Y827D02*
X1543Y827D01*
X506Y826D02*
X543Y826D01*
X1507Y826D02*
X1545Y826D01*
X504Y825D02*
X545Y825D01*
X1506Y825D02*
X1546Y825D01*
X503Y824D02*
X547Y824D01*
X1504Y824D02*
X1548Y824D01*
X501Y823D02*
X548Y823D01*
X1502Y823D02*
X1550Y823D01*
X500Y822D02*
X549Y822D01*
X1501Y822D02*
X1551Y822D01*
X498Y821D02*
X551Y821D01*
X1500Y821D02*
X1552Y821D01*
X497Y820D02*
X552Y820D01*
X1499Y820D02*
X1553Y820D01*
X496Y819D02*
X553Y819D01*
X1497Y819D02*
X1555Y819D01*
X495Y818D02*
X554Y818D01*
X1496Y818D02*
X1556Y818D01*
X494Y817D02*
X555Y817D01*
X1496Y817D02*
X1556Y817D01*
X493Y816D02*
X556Y816D01*
X1495Y816D02*
X1557Y816D01*
X492Y815D02*
X557Y815D01*
X1494Y815D02*
X1558Y815D01*
X492Y814D02*
X557Y814D01*
X1493Y814D02*
X1559Y814D01*
X491Y813D02*
X558Y813D01*
X1492Y813D02*
X1560Y813D01*
X490Y812D02*
X559Y812D01*
X1492Y812D02*
X1560Y812D01*
X490Y811D02*
X560Y811D01*
X1491Y811D02*
X1561Y811D01*
X489Y810D02*
X560Y810D01*
X1490Y810D02*
X1562Y810D01*
X488Y809D02*
X561Y809D01*
X1490Y809D02*
X1562Y809D01*
X488Y808D02*
X561Y808D01*
X1489Y808D02*
X1563Y808D01*
X487Y807D02*
X562Y807D01*
X1489Y807D02*
X1563Y807D01*
X487Y806D02*
X562Y806D01*
X1488Y806D02*
X1564Y806D01*
X486Y805D02*
X563Y805D01*
X1488Y805D02*
X1564Y805D01*
X486Y804D02*
X563Y804D01*
X1487Y804D02*
X1565Y804D01*
X486Y803D02*
X564Y803D01*
X1487Y803D02*
X1565Y803D01*
X485Y802D02*
X564Y802D01*
X1487Y802D02*
X1565Y802D01*
X485Y801D02*
X564Y801D01*
X1486Y801D02*
X1566Y801D01*
X485Y800D02*
X564Y800D01*
X1486Y800D02*
X1566Y800D01*
X484Y799D02*
X565Y799D01*
X1486Y799D02*
X1566Y799D01*
X484Y798D02*
X565Y798D01*
X1486Y798D02*
X1566Y798D01*
X484Y797D02*
X565Y797D01*
X1485Y797D02*
X1567Y797D01*
X484Y796D02*
X565Y796D01*
X1485Y796D02*
X1567Y796D01*
X484Y795D02*
X566Y795D01*
X1485Y795D02*
X1567Y795D01*
X483Y794D02*
X566Y794D01*
X1485Y794D02*
X1567Y794D01*
X483Y793D02*
X566Y793D01*
X1485Y793D02*
X1567Y793D01*
X483Y792D02*
X566Y792D01*
X1485Y792D02*
X1567Y792D01*
X483Y791D02*
X566Y791D01*
X1485Y791D02*
X1567Y791D01*
X483Y790D02*
X566Y790D01*
X1485Y790D02*
X1567Y790D01*
X483Y789D02*
X566Y789D01*
X1484Y789D02*
X1568Y789D01*
X483Y788D02*
X566Y788D01*
X1484Y788D02*
X1568Y788D01*
X483Y787D02*
X566Y787D01*
X1485Y787D02*
X1567Y787D01*
X483Y786D02*
X566Y786D01*
X1485Y786D02*
X1567Y786D01*
X483Y785D02*
X566Y785D01*
X1485Y785D02*
X1567Y785D01*
X483Y784D02*
X566Y784D01*
X1485Y784D02*
X1567Y784D01*
X483Y783D02*
X566Y783D01*
X1485Y783D02*
X1567Y783D01*
X484Y782D02*
X565Y782D01*
X1485Y782D02*
X1567Y782D01*
X484Y781D02*
X565Y781D01*
X1485Y781D02*
X1567Y781D01*
X484Y780D02*
X565Y780D01*
X1485Y780D02*
X1567Y780D01*
X484Y779D02*
X565Y779D01*
X1486Y779D02*
X1566Y779D01*
X484Y778D02*
X565Y778D01*
X1486Y778D02*
X1566Y778D01*
X485Y777D02*
X564Y777D01*
X1486Y777D02*
X1566Y777D01*
X485Y776D02*
X564Y776D01*
X1486Y776D02*
X1566Y776D01*
X485Y775D02*
X564Y775D01*
X1487Y775D02*
X1565Y775D01*
X486Y774D02*
X563Y774D01*
X1487Y774D02*
X1565Y774D01*
X486Y773D02*
X563Y773D01*
X1487Y773D02*
X1565Y773D01*
X486Y772D02*
X563Y772D01*
X1488Y772D02*
X1564Y772D01*
X487Y771D02*
X562Y771D01*
X1488Y771D02*
X1564Y771D01*
X487Y770D02*
X562Y770D01*
X1489Y770D02*
X1563Y770D01*
X488Y769D02*
X561Y769D01*
X1489Y769D02*
X1563Y769D01*
X489Y768D02*
X561Y768D01*
X1490Y768D02*
X1562Y768D01*
X489Y767D02*
X560Y767D01*
X1491Y767D02*
X1561Y767D01*
X490Y766D02*
X559Y766D01*
X1491Y766D02*
X1561Y766D01*
X490Y765D02*
X559Y765D01*
X1492Y765D02*
X1560Y765D01*
X491Y764D02*
X558Y764D01*
X1493Y764D02*
X1559Y764D01*
X492Y763D02*
X557Y763D01*
X1493Y763D02*
X1559Y763D01*
X493Y762D02*
X557Y762D01*
X1494Y762D02*
X1558Y762D01*
X493Y761D02*
X556Y761D01*
X1495Y761D02*
X1557Y761D01*
X494Y760D02*
X555Y760D01*
X1496Y760D02*
X1556Y760D01*
X495Y759D02*
X554Y759D01*
X1497Y759D02*
X1555Y759D01*
X496Y758D02*
X553Y758D01*
X1498Y758D02*
X1554Y758D01*
X497Y757D02*
X552Y757D01*
X1499Y757D02*
X1553Y757D01*
X499Y756D02*
X550Y756D01*
X1500Y756D02*
X1552Y756D01*
X500Y755D02*
X549Y755D01*
X1501Y755D02*
X1551Y755D01*
X501Y754D02*
X548Y754D01*
X1503Y754D02*
X1549Y754D01*
X503Y753D02*
X546Y753D01*
X1504Y753D02*
X1548Y753D01*
X505Y752D02*
X545Y752D01*
X1506Y752D02*
X1546Y752D01*
X506Y751D02*
X543Y751D01*
X1508Y751D02*
X1544Y751D01*
X509Y750D02*
X541Y750D01*
X1510Y750D02*
X1542Y750D01*
X511Y749D02*
X538Y749D01*
X1513Y749D02*
X1539Y749D01*
X515Y748D02*
X534Y748D01*
X1516Y748D02*
X1536Y748D01*
X520Y747D02*
X529Y747D01*
X1521Y747D02*
X1531Y747D01*
X519Y730D02*
X530Y730D01*
X1520Y730D02*
X1532Y730D01*
X514Y729D02*
X535Y729D01*
X1516Y729D02*
X1536Y729D01*
X511Y728D02*
X538Y728D01*
X1512Y728D02*
X1540Y728D01*
X508Y727D02*
X541Y727D01*
X1510Y727D02*
X1542Y727D01*
X506Y726D02*
X543Y726D01*
X1508Y726D02*
X1544Y726D01*
X504Y725D02*
X545Y725D01*
X1506Y725D02*
X1546Y725D01*
X503Y724D02*
X546Y724D01*
X1504Y724D02*
X1548Y724D01*
X501Y723D02*
X548Y723D01*
X1503Y723D02*
X1549Y723D01*
X500Y722D02*
X549Y722D01*
X1501Y722D02*
X1551Y722D01*
X498Y721D02*
X551Y721D01*
X1500Y721D02*
X1552Y721D01*
X497Y720D02*
X552Y720D01*
X1499Y720D02*
X1553Y720D01*
X496Y719D02*
X553Y719D01*
X1498Y719D02*
X1554Y719D01*
X495Y718D02*
X554Y718D01*
X1497Y718D02*
X1555Y718D01*
X494Y717D02*
X555Y717D01*
X1496Y717D02*
X1556Y717D01*
X493Y716D02*
X556Y716D01*
X1495Y716D02*
X1557Y716D01*
X492Y715D02*
X557Y715D01*
X1494Y715D02*
X1558Y715D01*
X492Y714D02*
X557Y714D01*
X1493Y714D02*
X1559Y714D01*
X491Y713D02*
X558Y713D01*
X1492Y713D02*
X1560Y713D01*
X490Y712D02*
X559Y712D01*
X1492Y712D02*
X1560Y712D01*
X490Y711D02*
X559Y711D01*
X1491Y711D02*
X1561Y711D01*
X489Y710D02*
X560Y710D01*
X1490Y710D02*
X1562Y710D01*
X488Y709D02*
X561Y709D01*
X1490Y709D02*
X1562Y709D01*
X488Y708D02*
X561Y708D01*
X1489Y708D02*
X1563Y708D01*
X487Y707D02*
X562Y707D01*
X1489Y707D02*
X1563Y707D01*
X487Y706D02*
X562Y706D01*
X1488Y706D02*
X1564Y706D01*
X486Y705D02*
X563Y705D01*
X1488Y705D02*
X1564Y705D01*
X486Y704D02*
X563Y704D01*
X1487Y704D02*
X1565Y704D01*
X486Y703D02*
X563Y703D01*
X1487Y703D02*
X1565Y703D01*
X485Y702D02*
X564Y702D01*
X1487Y702D02*
X1565Y702D01*
X485Y701D02*
X564Y701D01*
X1486Y701D02*
X1566Y701D01*
X485Y700D02*
X564Y700D01*
X1486Y700D02*
X1566Y700D01*
X484Y699D02*
X565Y699D01*
X1486Y699D02*
X1566Y699D01*
X484Y698D02*
X565Y698D01*
X1486Y698D02*
X1566Y698D01*
X484Y697D02*
X565Y697D01*
X1485Y697D02*
X1567Y697D01*
X484Y696D02*
X565Y696D01*
X1485Y696D02*
X1567Y696D01*
X484Y695D02*
X565Y695D01*
X1485Y695D02*
X1567Y695D01*
X483Y694D02*
X566Y694D01*
X1485Y694D02*
X1567Y694D01*
X483Y693D02*
X566Y693D01*
X1485Y693D02*
X1567Y693D01*
X483Y692D02*
X566Y692D01*
X1485Y692D02*
X1567Y692D01*
X483Y691D02*
X566Y691D01*
X1485Y691D02*
X1567Y691D01*
X483Y690D02*
X566Y690D01*
X1485Y690D02*
X1567Y690D01*
X483Y689D02*
X566Y689D01*
X1484Y689D02*
X1568Y689D01*
X483Y688D02*
X566Y688D01*
X1484Y688D02*
X1568Y688D01*
X483Y687D02*
X566Y687D01*
X1485Y687D02*
X1567Y687D01*
X483Y686D02*
X566Y686D01*
X1485Y686D02*
X1567Y686D01*
X483Y685D02*
X566Y685D01*
X1485Y685D02*
X1567Y685D01*
X483Y684D02*
X566Y684D01*
X1485Y684D02*
X1567Y684D01*
X483Y683D02*
X566Y683D01*
X1485Y683D02*
X1567Y683D01*
X484Y682D02*
X565Y682D01*
X1485Y682D02*
X1567Y682D01*
X484Y681D02*
X565Y681D01*
X1485Y681D02*
X1567Y681D01*
X484Y680D02*
X565Y680D01*
X1485Y680D02*
X1567Y680D01*
X484Y679D02*
X565Y679D01*
X1486Y679D02*
X1566Y679D01*
X484Y678D02*
X565Y678D01*
X1486Y678D02*
X1566Y678D01*
X485Y677D02*
X564Y677D01*
X1486Y677D02*
X1566Y677D01*
X485Y676D02*
X564Y676D01*
X1486Y676D02*
X1566Y676D01*
X485Y675D02*
X564Y675D01*
X1487Y675D02*
X1565Y675D01*
X486Y674D02*
X563Y674D01*
X1487Y674D02*
X1565Y674D01*
X486Y673D02*
X563Y673D01*
X1487Y673D02*
X1565Y673D01*
X486Y672D02*
X563Y672D01*
X1488Y672D02*
X1564Y672D01*
X487Y671D02*
X562Y671D01*
X1488Y671D02*
X1564Y671D01*
X487Y670D02*
X562Y670D01*
X1489Y670D02*
X1563Y670D01*
X488Y669D02*
X561Y669D01*
X1489Y669D02*
X1563Y669D01*
X488Y668D02*
X561Y668D01*
X1490Y668D02*
X1562Y668D01*
X489Y667D02*
X560Y667D01*
X1490Y667D02*
X1562Y667D01*
X490Y666D02*
X559Y666D01*
X1491Y666D02*
X1561Y666D01*
X490Y665D02*
X559Y665D01*
X1492Y665D02*
X1560Y665D01*
X491Y664D02*
X558Y664D01*
X1492Y664D02*
X1560Y664D01*
X492Y663D02*
X557Y663D01*
X1493Y663D02*
X1559Y663D01*
X493Y662D02*
X557Y662D01*
X1494Y662D02*
X1558Y662D01*
X493Y661D02*
X556Y661D01*
X1495Y661D02*
X1557Y661D01*
X494Y660D02*
X555Y660D01*
X1496Y660D02*
X1556Y660D01*
X495Y659D02*
X554Y659D01*
X1497Y659D02*
X1555Y659D01*
X496Y658D02*
X553Y658D01*
X1498Y658D02*
X1554Y658D01*
X497Y657D02*
X552Y657D01*
X1499Y657D02*
X1553Y657D01*
X499Y656D02*
X551Y656D01*
X1500Y656D02*
X1552Y656D01*
X500Y655D02*
X549Y655D01*
X1501Y655D02*
X1551Y655D01*
X501Y654D02*
X548Y654D01*
X1503Y654D02*
X1549Y654D01*
X503Y653D02*
X546Y653D01*
X1504Y653D02*
X1548Y653D01*
X504Y652D02*
X545Y652D01*
X1506Y652D02*
X1546Y652D01*
X506Y651D02*
X543Y651D01*
X1508Y651D02*
X1544Y651D01*
X508Y650D02*
X541Y650D01*
X1510Y650D02*
X1542Y650D01*
X511Y649D02*
X538Y649D01*
X1512Y649D02*
X1540Y649D01*
X514Y648D02*
X535Y648D01*
X1516Y648D02*
X1536Y648D01*
X519Y647D02*
X530Y647D01*
X1521Y647D02*
X1531Y647D01*
X520Y630D02*
X530Y630D01*
X1521Y630D02*
X1531Y630D01*
X515Y629D02*
X535Y629D01*
X1516Y629D02*
X1536Y629D01*
X511Y628D02*
X538Y628D01*
X1513Y628D02*
X1539Y628D01*
X508Y627D02*
X541Y627D01*
X1510Y627D02*
X1542Y627D01*
X506Y626D02*
X543Y626D01*
X1508Y626D02*
X1544Y626D01*
X504Y625D02*
X545Y625D01*
X1506Y625D02*
X1546Y625D01*
X503Y624D02*
X546Y624D01*
X1504Y624D02*
X1548Y624D01*
X501Y623D02*
X548Y623D01*
X1503Y623D02*
X1549Y623D01*
X500Y622D02*
X549Y622D01*
X1501Y622D02*
X1551Y622D01*
X499Y621D02*
X551Y621D01*
X1500Y621D02*
X1552Y621D01*
X497Y620D02*
X552Y620D01*
X1499Y620D02*
X1553Y620D01*
X496Y619D02*
X553Y619D01*
X1498Y619D02*
X1554Y619D01*
X495Y618D02*
X554Y618D01*
X1497Y618D02*
X1555Y618D01*
X494Y617D02*
X555Y617D01*
X1496Y617D02*
X1556Y617D01*
X493Y616D02*
X556Y616D01*
X1495Y616D02*
X1557Y616D01*
X493Y615D02*
X557Y615D01*
X1494Y615D02*
X1558Y615D01*
X492Y614D02*
X557Y614D01*
X1493Y614D02*
X1559Y614D01*
X491Y613D02*
X558Y613D01*
X1493Y613D02*
X1559Y613D01*
X490Y612D02*
X559Y612D01*
X1492Y612D02*
X1560Y612D01*
X490Y611D02*
X559Y611D01*
X1491Y611D02*
X1561Y611D01*
X489Y610D02*
X560Y610D01*
X1491Y610D02*
X1561Y610D01*
X488Y609D02*
X561Y609D01*
X1490Y609D02*
X1562Y609D01*
X488Y608D02*
X561Y608D01*
X1489Y608D02*
X1563Y608D01*
X487Y607D02*
X562Y607D01*
X1489Y607D02*
X1563Y607D01*
X487Y606D02*
X562Y606D01*
X1488Y606D02*
X1564Y606D01*
X486Y605D02*
X563Y605D01*
X1488Y605D02*
X1564Y605D01*
X486Y604D02*
X563Y604D01*
X1487Y604D02*
X1565Y604D01*
X486Y603D02*
X563Y603D01*
X1487Y603D02*
X1565Y603D01*
X485Y602D02*
X564Y602D01*
X1487Y602D02*
X1565Y602D01*
X485Y601D02*
X564Y601D01*
X1486Y601D02*
X1566Y601D01*
X485Y600D02*
X564Y600D01*
X1486Y600D02*
X1566Y600D01*
X484Y599D02*
X565Y599D01*
X1486Y599D02*
X1566Y599D01*
X484Y598D02*
X565Y598D01*
X1486Y598D02*
X1566Y598D01*
X484Y597D02*
X565Y597D01*
X1485Y597D02*
X1567Y597D01*
X484Y596D02*
X565Y596D01*
X1485Y596D02*
X1567Y596D01*
X484Y595D02*
X565Y595D01*
X1485Y595D02*
X1567Y595D01*
X483Y594D02*
X566Y594D01*
X1485Y594D02*
X1567Y594D01*
X483Y593D02*
X566Y593D01*
X1485Y593D02*
X1567Y593D01*
X483Y592D02*
X566Y592D01*
X1485Y592D02*
X1567Y592D01*
X483Y591D02*
X566Y591D01*
X1485Y591D02*
X1567Y591D01*
X483Y590D02*
X566Y590D01*
X1485Y590D02*
X1567Y590D01*
X483Y589D02*
X566Y589D01*
X1484Y589D02*
X1568Y589D01*
X483Y588D02*
X566Y588D01*
X1484Y588D02*
X1568Y588D01*
X483Y587D02*
X566Y587D01*
X1485Y587D02*
X1567Y587D01*
X483Y586D02*
X566Y586D01*
X1485Y586D02*
X1567Y586D01*
X483Y585D02*
X566Y585D01*
X1485Y585D02*
X1567Y585D01*
X483Y584D02*
X566Y584D01*
X1485Y584D02*
X1567Y584D01*
X483Y583D02*
X566Y583D01*
X1485Y583D02*
X1567Y583D01*
X484Y582D02*
X566Y582D01*
X1485Y582D02*
X1567Y582D01*
X484Y581D02*
X565Y581D01*
X1485Y581D02*
X1567Y581D01*
X484Y580D02*
X565Y580D01*
X1485Y580D02*
X1567Y580D01*
X484Y579D02*
X565Y579D01*
X1486Y579D02*
X1566Y579D01*
X484Y578D02*
X565Y578D01*
X1486Y578D02*
X1566Y578D01*
X485Y577D02*
X564Y577D01*
X1486Y577D02*
X1566Y577D01*
X485Y576D02*
X564Y576D01*
X1486Y576D02*
X1566Y576D01*
X485Y575D02*
X564Y575D01*
X1487Y575D02*
X1565Y575D01*
X486Y574D02*
X563Y574D01*
X1487Y574D02*
X1565Y574D01*
X486Y573D02*
X563Y573D01*
X1487Y573D02*
X1565Y573D01*
X486Y572D02*
X563Y572D01*
X1488Y572D02*
X1564Y572D01*
X487Y571D02*
X562Y571D01*
X1488Y571D02*
X1564Y571D01*
X487Y570D02*
X562Y570D01*
X1489Y570D02*
X1563Y570D01*
X488Y569D02*
X561Y569D01*
X1489Y569D02*
X1563Y569D01*
X488Y568D02*
X561Y568D01*
X1490Y568D02*
X1562Y568D01*
X489Y567D02*
X560Y567D01*
X1490Y567D02*
X1562Y567D01*
X490Y566D02*
X560Y566D01*
X1491Y566D02*
X1561Y566D01*
X490Y565D02*
X559Y565D01*
X1492Y565D02*
X1560Y565D01*
X491Y564D02*
X558Y564D01*
X1492Y564D02*
X1560Y564D01*
X492Y563D02*
X557Y563D01*
X1493Y563D02*
X1559Y563D01*
X492Y562D02*
X557Y562D01*
X1494Y562D02*
X1558Y562D01*
X493Y561D02*
X556Y561D01*
X1495Y561D02*
X1557Y561D01*
X494Y560D02*
X555Y560D01*
X1496Y560D02*
X1556Y560D01*
X495Y559D02*
X554Y559D01*
X1496Y559D02*
X1556Y559D01*
X496Y558D02*
X553Y558D01*
X1498Y558D02*
X1554Y558D01*
X497Y557D02*
X552Y557D01*
X1499Y557D02*
X1553Y557D01*
X498Y556D02*
X551Y556D01*
X1500Y556D02*
X1552Y556D01*
X500Y555D02*
X549Y555D01*
X1501Y555D02*
X1551Y555D01*
X501Y554D02*
X548Y554D01*
X1503Y554D02*
X1549Y554D01*
X503Y553D02*
X547Y553D01*
X1504Y553D02*
X1548Y553D01*
X504Y552D02*
X545Y552D01*
X1506Y552D02*
X1546Y552D01*
X506Y551D02*
X543Y551D01*
X1507Y551D02*
X1545Y551D01*
X508Y550D02*
X541Y550D01*
X1509Y550D02*
X1543Y550D01*
X511Y549D02*
X538Y549D01*
X1512Y549D02*
X1540Y549D01*
X514Y548D02*
X535Y548D01*
X1515Y548D02*
X1537Y548D01*
X519Y547D02*
X531Y547D01*
X1520Y547D02*
X1532Y547D01*
X520Y530D02*
X529Y530D01*
X1522Y530D02*
X1530Y530D01*
X2185Y530D02*
X2267Y530D01*
X515Y529D02*
X534Y529D01*
X1516Y529D02*
X1536Y529D01*
X2184Y529D02*
X2268Y529D01*
X511Y528D02*
X538Y528D01*
X1513Y528D02*
X1539Y528D01*
X2184Y528D02*
X2268Y528D01*
X509Y527D02*
X540Y527D01*
X1510Y527D02*
X1542Y527D01*
X2184Y527D02*
X2268Y527D01*
X507Y526D02*
X543Y526D01*
X1508Y526D02*
X1544Y526D01*
X2184Y526D02*
X2268Y526D01*
X505Y525D02*
X544Y525D01*
X1506Y525D02*
X1546Y525D01*
X2184Y525D02*
X2268Y525D01*
X503Y524D02*
X546Y524D01*
X1504Y524D02*
X1548Y524D01*
X2184Y524D02*
X2268Y524D01*
X501Y523D02*
X548Y523D01*
X1503Y523D02*
X1549Y523D01*
X2184Y523D02*
X2268Y523D01*
X500Y522D02*
X549Y522D01*
X1502Y522D02*
X1550Y522D01*
X2184Y522D02*
X2268Y522D01*
X499Y521D02*
X550Y521D01*
X1500Y521D02*
X1552Y521D01*
X2184Y521D02*
X2268Y521D01*
X498Y520D02*
X552Y520D01*
X1499Y520D02*
X1553Y520D01*
X2184Y520D02*
X2268Y520D01*
X496Y519D02*
X553Y519D01*
X1498Y519D02*
X1554Y519D01*
X2184Y519D02*
X2268Y519D01*
X495Y518D02*
X554Y518D01*
X1497Y518D02*
X1555Y518D01*
X2184Y518D02*
X2268Y518D01*
X494Y517D02*
X555Y517D01*
X1496Y517D02*
X1556Y517D01*
X2184Y517D02*
X2268Y517D01*
X494Y516D02*
X556Y516D01*
X1495Y516D02*
X1557Y516D01*
X2184Y516D02*
X2268Y516D01*
X493Y515D02*
X556Y515D01*
X1494Y515D02*
X1558Y515D01*
X2184Y515D02*
X2268Y515D01*
X492Y514D02*
X557Y514D01*
X1493Y514D02*
X1559Y514D01*
X2184Y514D02*
X2268Y514D01*
X491Y513D02*
X558Y513D01*
X1493Y513D02*
X1559Y513D01*
X2184Y513D02*
X2268Y513D01*
X490Y512D02*
X559Y512D01*
X1492Y512D02*
X1560Y512D01*
X2184Y512D02*
X2268Y512D01*
X490Y511D02*
X559Y511D01*
X1491Y511D02*
X1561Y511D01*
X2184Y511D02*
X2268Y511D01*
X489Y510D02*
X560Y510D01*
X1491Y510D02*
X1561Y510D01*
X2184Y510D02*
X2268Y510D01*
X489Y509D02*
X561Y509D01*
X1490Y509D02*
X1562Y509D01*
X2184Y509D02*
X2268Y509D01*
X488Y508D02*
X561Y508D01*
X1489Y508D02*
X1563Y508D01*
X2184Y508D02*
X2268Y508D01*
X487Y507D02*
X562Y507D01*
X1489Y507D02*
X1563Y507D01*
X2184Y507D02*
X2268Y507D01*
X487Y506D02*
X562Y506D01*
X1488Y506D02*
X1564Y506D01*
X2184Y506D02*
X2268Y506D01*
X486Y505D02*
X563Y505D01*
X1488Y505D02*
X1564Y505D01*
X2184Y505D02*
X2268Y505D01*
X486Y504D02*
X563Y504D01*
X1488Y504D02*
X1564Y504D01*
X2184Y504D02*
X2268Y504D01*
X486Y503D02*
X563Y503D01*
X1487Y503D02*
X1565Y503D01*
X2184Y503D02*
X2268Y503D01*
X485Y502D02*
X564Y502D01*
X1487Y502D02*
X1565Y502D01*
X2184Y502D02*
X2220Y502D01*
X2232Y502D02*
X2268Y502D01*
X485Y501D02*
X564Y501D01*
X1486Y501D02*
X1566Y501D01*
X2184Y501D02*
X2218Y501D01*
X2234Y501D02*
X2268Y501D01*
X485Y500D02*
X564Y500D01*
X1486Y500D02*
X1566Y500D01*
X2184Y500D02*
X2217Y500D01*
X2235Y500D02*
X2268Y500D01*
X484Y499D02*
X565Y499D01*
X1486Y499D02*
X1566Y499D01*
X2184Y499D02*
X2215Y499D01*
X2236Y499D02*
X2268Y499D01*
X484Y498D02*
X565Y498D01*
X1486Y498D02*
X1566Y498D01*
X2184Y498D02*
X2215Y498D01*
X2237Y498D02*
X2268Y498D01*
X484Y497D02*
X565Y497D01*
X1485Y497D02*
X1567Y497D01*
X2184Y497D02*
X2214Y497D01*
X2238Y497D02*
X2268Y497D01*
X484Y496D02*
X565Y496D01*
X1485Y496D02*
X1567Y496D01*
X2184Y496D02*
X2213Y496D01*
X2239Y496D02*
X2268Y496D01*
X484Y495D02*
X565Y495D01*
X1485Y495D02*
X1567Y495D01*
X2184Y495D02*
X2212Y495D01*
X2240Y495D02*
X2268Y495D01*
X483Y494D02*
X566Y494D01*
X1485Y494D02*
X1567Y494D01*
X2184Y494D02*
X2212Y494D01*
X2240Y494D02*
X2268Y494D01*
X483Y493D02*
X566Y493D01*
X1485Y493D02*
X1567Y493D01*
X2184Y493D02*
X2212Y493D01*
X2240Y493D02*
X2268Y493D01*
X483Y492D02*
X566Y492D01*
X1485Y492D02*
X1567Y492D01*
X2184Y492D02*
X2211Y492D01*
X2241Y492D02*
X2268Y492D01*
X483Y491D02*
X566Y491D01*
X1485Y491D02*
X1567Y491D01*
X2184Y491D02*
X2211Y491D01*
X2241Y491D02*
X2268Y491D01*
X483Y490D02*
X566Y490D01*
X1485Y490D02*
X1567Y490D01*
X2184Y490D02*
X2211Y490D01*
X2241Y490D02*
X2268Y490D01*
X483Y489D02*
X566Y489D01*
X1484Y489D02*
X1568Y489D01*
X2184Y489D02*
X2211Y489D01*
X2241Y489D02*
X2268Y489D01*
X483Y488D02*
X566Y488D01*
X1484Y488D02*
X1568Y488D01*
X2184Y488D02*
X2211Y488D01*
X2241Y488D02*
X2268Y488D01*
X483Y487D02*
X566Y487D01*
X1485Y487D02*
X1567Y487D01*
X2184Y487D02*
X2211Y487D01*
X2241Y487D02*
X2268Y487D01*
X483Y486D02*
X566Y486D01*
X1485Y486D02*
X1567Y486D01*
X2184Y486D02*
X2211Y486D01*
X2241Y486D02*
X2268Y486D01*
X483Y485D02*
X566Y485D01*
X1485Y485D02*
X1567Y485D01*
X2184Y485D02*
X2211Y485D01*
X2241Y485D02*
X2268Y485D01*
X483Y484D02*
X566Y484D01*
X1485Y484D02*
X1567Y484D01*
X2184Y484D02*
X2211Y484D01*
X2241Y484D02*
X2268Y484D01*
X483Y483D02*
X566Y483D01*
X1485Y483D02*
X1567Y483D01*
X2184Y483D02*
X2212Y483D01*
X2240Y483D02*
X2268Y483D01*
X484Y482D02*
X566Y482D01*
X1485Y482D02*
X1567Y482D01*
X2184Y482D02*
X2212Y482D01*
X2240Y482D02*
X2268Y482D01*
X484Y481D02*
X565Y481D01*
X1485Y481D02*
X1567Y481D01*
X2184Y481D02*
X2213Y481D01*
X2239Y481D02*
X2268Y481D01*
X484Y480D02*
X565Y480D01*
X1485Y480D02*
X1567Y480D01*
X2184Y480D02*
X2213Y480D01*
X2239Y480D02*
X2268Y480D01*
X484Y479D02*
X565Y479D01*
X1486Y479D02*
X1566Y479D01*
X2184Y479D02*
X2214Y479D01*
X2238Y479D02*
X2268Y479D01*
X484Y478D02*
X565Y478D01*
X1486Y478D02*
X1566Y478D01*
X2184Y478D02*
X2215Y478D01*
X2237Y478D02*
X2268Y478D01*
X485Y477D02*
X564Y477D01*
X1486Y477D02*
X1566Y477D01*
X2184Y477D02*
X2216Y477D01*
X2236Y477D02*
X2268Y477D01*
X485Y476D02*
X564Y476D01*
X1486Y476D02*
X1566Y476D01*
X2184Y476D02*
X2217Y476D01*
X2235Y476D02*
X2268Y476D01*
X485Y475D02*
X564Y475D01*
X1487Y475D02*
X1565Y475D01*
X2184Y475D02*
X2219Y475D01*
X2233Y475D02*
X2268Y475D01*
X486Y474D02*
X564Y474D01*
X1487Y474D02*
X1565Y474D01*
X2184Y474D02*
X2222Y474D01*
X2230Y474D02*
X2268Y474D01*
X486Y473D02*
X563Y473D01*
X1487Y473D02*
X1565Y473D01*
X2184Y473D02*
X2268Y473D01*
X486Y472D02*
X563Y472D01*
X1488Y472D02*
X1564Y472D01*
X2184Y472D02*
X2268Y472D01*
X487Y471D02*
X562Y471D01*
X1488Y471D02*
X1564Y471D01*
X2184Y471D02*
X2268Y471D01*
X487Y470D02*
X562Y470D01*
X1489Y470D02*
X1563Y470D01*
X2184Y470D02*
X2268Y470D01*
X488Y469D02*
X561Y469D01*
X1489Y469D02*
X1563Y469D01*
X2184Y469D02*
X2268Y469D01*
X488Y468D02*
X561Y468D01*
X1490Y468D02*
X1562Y468D01*
X2184Y468D02*
X2268Y468D01*
X489Y467D02*
X560Y467D01*
X1490Y467D02*
X1562Y467D01*
X2184Y467D02*
X2268Y467D01*
X490Y466D02*
X560Y466D01*
X1491Y466D02*
X1561Y466D01*
X2184Y466D02*
X2268Y466D01*
X490Y465D02*
X559Y465D01*
X1492Y465D02*
X1560Y465D01*
X2184Y465D02*
X2268Y465D01*
X491Y464D02*
X558Y464D01*
X1492Y464D02*
X1560Y464D01*
X2184Y464D02*
X2268Y464D01*
X492Y463D02*
X558Y463D01*
X1493Y463D02*
X1559Y463D01*
X2184Y463D02*
X2268Y463D01*
X492Y462D02*
X557Y462D01*
X1494Y462D02*
X1558Y462D01*
X2184Y462D02*
X2268Y462D01*
X493Y461D02*
X556Y461D01*
X1495Y461D02*
X1557Y461D01*
X2184Y461D02*
X2268Y461D01*
X494Y460D02*
X555Y460D01*
X1495Y460D02*
X1557Y460D01*
X2184Y460D02*
X2268Y460D01*
X495Y459D02*
X554Y459D01*
X1496Y459D02*
X1556Y459D01*
X2184Y459D02*
X2268Y459D01*
X496Y458D02*
X553Y458D01*
X1497Y458D02*
X1555Y458D01*
X2184Y458D02*
X2268Y458D01*
X497Y457D02*
X552Y457D01*
X1499Y457D02*
X1553Y457D01*
X2184Y457D02*
X2268Y457D01*
X498Y456D02*
X551Y456D01*
X1500Y456D02*
X1552Y456D01*
X2184Y456D02*
X2268Y456D01*
X500Y455D02*
X550Y455D01*
X1501Y455D02*
X1551Y455D01*
X2184Y455D02*
X2268Y455D01*
X501Y454D02*
X548Y454D01*
X1502Y454D02*
X1550Y454D01*
X2184Y454D02*
X2268Y454D01*
X502Y453D02*
X547Y453D01*
X1504Y453D02*
X1548Y453D01*
X2184Y453D02*
X2268Y453D01*
X504Y452D02*
X545Y452D01*
X1505Y452D02*
X1547Y452D01*
X2184Y452D02*
X2268Y452D01*
X506Y451D02*
X543Y451D01*
X1507Y451D02*
X1545Y451D01*
X2184Y451D02*
X2268Y451D01*
X508Y450D02*
X541Y450D01*
X1509Y450D02*
X1543Y450D01*
X2184Y450D02*
X2268Y450D01*
X510Y449D02*
X539Y449D01*
X1512Y449D02*
X1540Y449D01*
X2184Y449D02*
X2268Y449D01*
X513Y448D02*
X536Y448D01*
X1515Y448D02*
X1537Y448D01*
X2184Y448D02*
X2268Y448D01*
X518Y447D02*
X531Y447D01*
X1519Y447D02*
X1533Y447D01*
X2184Y447D02*
X2268Y447D01*
X521Y430D02*
X528Y430D01*
X1523Y430D02*
X1529Y430D01*
X515Y429D02*
X534Y429D01*
X1517Y429D02*
X1535Y429D01*
X512Y428D02*
X537Y428D01*
X1513Y428D02*
X1539Y428D01*
X509Y427D02*
X540Y427D01*
X1510Y427D02*
X1542Y427D01*
X507Y426D02*
X542Y426D01*
X1508Y426D02*
X1544Y426D01*
X505Y425D02*
X544Y425D01*
X1506Y425D02*
X1546Y425D01*
X503Y424D02*
X546Y424D01*
X1505Y424D02*
X1547Y424D01*
X502Y423D02*
X548Y423D01*
X1503Y423D02*
X1549Y423D01*
X500Y422D02*
X549Y422D01*
X1502Y422D02*
X1550Y422D01*
X499Y421D02*
X550Y421D01*
X1500Y421D02*
X1552Y421D01*
X498Y420D02*
X551Y420D01*
X1499Y420D02*
X1553Y420D01*
X497Y419D02*
X553Y419D01*
X1498Y419D02*
X1554Y419D01*
X495Y418D02*
X554Y418D01*
X1497Y418D02*
X1555Y418D01*
X495Y417D02*
X555Y417D01*
X1496Y417D02*
X1556Y417D01*
X494Y416D02*
X556Y416D01*
X1495Y416D02*
X1557Y416D01*
X493Y415D02*
X556Y415D01*
X1494Y415D02*
X1558Y415D01*
X492Y414D02*
X557Y414D01*
X1493Y414D02*
X1559Y414D01*
X491Y413D02*
X558Y413D01*
X1493Y413D02*
X1559Y413D01*
X490Y412D02*
X559Y412D01*
X1492Y412D02*
X1560Y412D01*
X490Y411D02*
X559Y411D01*
X1491Y411D02*
X1561Y411D01*
X489Y410D02*
X560Y410D01*
X1491Y410D02*
X1561Y410D01*
X489Y409D02*
X561Y409D01*
X1490Y409D02*
X1562Y409D01*
X488Y408D02*
X561Y408D01*
X1489Y408D02*
X1563Y408D01*
X488Y407D02*
X562Y407D01*
X1489Y407D02*
X1563Y407D01*
X487Y406D02*
X562Y406D01*
X1488Y406D02*
X1564Y406D01*
X487Y405D02*
X563Y405D01*
X1488Y405D02*
X1564Y405D01*
X486Y404D02*
X563Y404D01*
X1488Y404D02*
X1564Y404D01*
X486Y403D02*
X563Y403D01*
X1487Y403D02*
X1565Y403D01*
X485Y402D02*
X564Y402D01*
X1487Y402D02*
X1565Y402D01*
X485Y401D02*
X564Y401D01*
X1486Y401D02*
X1566Y401D01*
X485Y400D02*
X564Y400D01*
X1486Y400D02*
X1566Y400D01*
X485Y399D02*
X565Y399D01*
X1486Y399D02*
X1566Y399D01*
X484Y398D02*
X565Y398D01*
X1486Y398D02*
X1566Y398D01*
X484Y397D02*
X565Y397D01*
X1485Y397D02*
X1567Y397D01*
X484Y396D02*
X565Y396D01*
X1485Y396D02*
X1567Y396D01*
X484Y395D02*
X565Y395D01*
X1485Y395D02*
X1567Y395D01*
X484Y394D02*
X566Y394D01*
X1485Y394D02*
X1567Y394D01*
X483Y393D02*
X566Y393D01*
X1485Y393D02*
X1567Y393D01*
X483Y392D02*
X566Y392D01*
X1485Y392D02*
X1567Y392D01*
X483Y391D02*
X566Y391D01*
X1485Y391D02*
X1567Y391D01*
X483Y390D02*
X566Y390D01*
X1485Y390D02*
X1567Y390D01*
X483Y389D02*
X566Y389D01*
X1484Y389D02*
X1568Y389D01*
X483Y388D02*
X566Y388D01*
X1484Y388D02*
X1568Y388D01*
X483Y387D02*
X566Y387D01*
X1485Y387D02*
X1567Y387D01*
X483Y386D02*
X566Y386D01*
X1485Y386D02*
X1567Y386D01*
X483Y385D02*
X566Y385D01*
X1485Y385D02*
X1567Y385D01*
X483Y384D02*
X566Y384D01*
X1485Y384D02*
X1567Y384D01*
X483Y383D02*
X566Y383D01*
X1485Y383D02*
X1567Y383D01*
X484Y382D02*
X566Y382D01*
X1485Y382D02*
X1567Y382D01*
X484Y381D02*
X565Y381D01*
X1485Y381D02*
X1567Y381D01*
X484Y380D02*
X565Y380D01*
X1485Y380D02*
X1567Y380D01*
X484Y379D02*
X565Y379D01*
X1486Y379D02*
X1566Y379D01*
X484Y378D02*
X565Y378D01*
X1486Y378D02*
X1566Y378D01*
X485Y377D02*
X565Y377D01*
X1486Y377D02*
X1566Y377D01*
X485Y376D02*
X564Y376D01*
X1486Y376D02*
X1566Y376D01*
X485Y375D02*
X564Y375D01*
X1487Y375D02*
X1565Y375D01*
X486Y374D02*
X564Y374D01*
X1487Y374D02*
X1565Y374D01*
X486Y373D02*
X563Y373D01*
X1487Y373D02*
X1565Y373D01*
X486Y372D02*
X563Y372D01*
X1488Y372D02*
X1564Y372D01*
X487Y371D02*
X562Y371D01*
X1488Y371D02*
X1564Y371D01*
X487Y370D02*
X562Y370D01*
X1489Y370D02*
X1563Y370D01*
X488Y369D02*
X561Y369D01*
X1489Y369D02*
X1563Y369D01*
X488Y368D02*
X561Y368D01*
X1490Y368D02*
X1562Y368D01*
X489Y367D02*
X560Y367D01*
X1490Y367D02*
X1562Y367D01*
X489Y366D02*
X560Y366D01*
X1491Y366D02*
X1561Y366D01*
X490Y365D02*
X559Y365D01*
X1492Y365D02*
X1560Y365D01*
X491Y364D02*
X558Y364D01*
X1492Y364D02*
X1560Y364D01*
X492Y363D02*
X558Y363D01*
X1493Y363D02*
X1559Y363D01*
X492Y362D02*
X557Y362D01*
X1494Y362D02*
X1558Y362D01*
X493Y361D02*
X556Y361D01*
X1494Y361D02*
X1558Y361D01*
X494Y360D02*
X555Y360D01*
X1495Y360D02*
X1557Y360D01*
X495Y359D02*
X554Y359D01*
X1496Y359D02*
X1556Y359D01*
X496Y358D02*
X553Y358D01*
X1497Y358D02*
X1555Y358D01*
X497Y357D02*
X552Y357D01*
X1498Y357D02*
X1554Y357D01*
X498Y356D02*
X551Y356D01*
X1500Y356D02*
X1552Y356D01*
X499Y355D02*
X550Y355D01*
X1501Y355D02*
X1551Y355D01*
X501Y354D02*
X548Y354D01*
X1502Y354D02*
X1550Y354D01*
X502Y353D02*
X547Y353D01*
X1504Y353D02*
X1548Y353D01*
X504Y352D02*
X545Y352D01*
X1505Y352D02*
X1547Y352D01*
X506Y351D02*
X544Y351D01*
X1507Y351D02*
X1545Y351D01*
X508Y350D02*
X542Y350D01*
X1509Y350D02*
X1543Y350D01*
X510Y349D02*
X539Y349D01*
X1511Y349D02*
X1541Y349D01*
X513Y348D02*
X536Y348D01*
X1514Y348D02*
X1538Y348D01*
X517Y347D02*
X532Y347D01*
X1519Y347D02*
X1533Y347D01*
D02*
G04 End of Mask0*
M02*