G04 MADE WITH FRITZING*
G04 WWW.FRITZING.ORG*
G04 DOUBLE SIDED*
G04 HOLES PLATED*
G04 CONTOUR ON CENTER OF CONTOUR VECTOR*
%ASAXBY*%
%FSLAX23Y23*%
%MOIN*%
%OFA0B0*%
%SFA1.0B1.0*%
%ADD10R,3.937010X2.755910X3.921010X2.739910*%
%ADD11C,0.008000*%
%ADD12R,0.001000X0.001000*%
%LNSILK1*%
G90*
G70*
G54D11*
X4Y2752D02*
X3933Y2752D01*
X3933Y4D01*
X4Y4D01*
X4Y2752D01*
D02*
G54D12*
X3141Y2712D02*
X3144Y2712D01*
X3139Y2711D02*
X3146Y2711D01*
X3138Y2710D02*
X3147Y2710D01*
X2928Y2709D02*
X2936Y2709D01*
X2958Y2709D02*
X2959Y2709D01*
X3138Y2709D02*
X3147Y2709D01*
X3484Y2709D02*
X3495Y2709D01*
X3584Y2709D02*
X3603Y2709D01*
X3628Y2709D02*
X3661Y2709D01*
X3730Y2709D02*
X3731Y2709D01*
X3758Y2709D02*
X3759Y2709D01*
X3780Y2709D02*
X3797Y2709D01*
X2928Y2708D02*
X2936Y2708D01*
X2956Y2708D02*
X2960Y2708D01*
X3138Y2708D02*
X3147Y2708D01*
X3482Y2708D02*
X3496Y2708D01*
X3581Y2708D02*
X3606Y2708D01*
X3628Y2708D02*
X3661Y2708D01*
X3729Y2708D02*
X3733Y2708D01*
X3756Y2708D02*
X3760Y2708D01*
X3779Y2708D02*
X3797Y2708D01*
X2928Y2707D02*
X2937Y2707D01*
X2956Y2707D02*
X2961Y2707D01*
X3138Y2707D02*
X3147Y2707D01*
X3481Y2707D02*
X3497Y2707D01*
X3580Y2707D02*
X3608Y2707D01*
X3628Y2707D02*
X3661Y2707D01*
X3728Y2707D02*
X3733Y2707D01*
X3756Y2707D02*
X3761Y2707D01*
X3778Y2707D02*
X3797Y2707D01*
X2928Y2706D02*
X2937Y2706D01*
X2955Y2706D02*
X2961Y2706D01*
X3087Y2706D02*
X3088Y2706D01*
X3138Y2706D02*
X3147Y2706D01*
X3337Y2706D02*
X3338Y2706D01*
X3481Y2706D02*
X3497Y2706D01*
X3579Y2706D02*
X3609Y2706D01*
X3628Y2706D02*
X3661Y2706D01*
X3728Y2706D02*
X3734Y2706D01*
X3755Y2706D02*
X3761Y2706D01*
X3778Y2706D02*
X3797Y2706D01*
X2928Y2705D02*
X2938Y2705D01*
X2955Y2705D02*
X2961Y2705D01*
X3085Y2705D02*
X3090Y2705D01*
X3138Y2705D02*
X3147Y2705D01*
X3335Y2705D02*
X3340Y2705D01*
X3481Y2705D02*
X3497Y2705D01*
X3579Y2705D02*
X3610Y2705D01*
X3628Y2705D02*
X3661Y2705D01*
X3728Y2705D02*
X3734Y2705D01*
X3755Y2705D02*
X3761Y2705D01*
X3778Y2705D02*
X3797Y2705D01*
X2928Y2704D02*
X2938Y2704D01*
X2955Y2704D02*
X2961Y2704D01*
X3085Y2704D02*
X3090Y2704D01*
X3138Y2704D02*
X3147Y2704D01*
X3335Y2704D02*
X3340Y2704D01*
X3482Y2704D02*
X3497Y2704D01*
X3578Y2704D02*
X3610Y2704D01*
X3628Y2704D02*
X3661Y2704D01*
X3728Y2704D02*
X3734Y2704D01*
X3755Y2704D02*
X3761Y2704D01*
X3778Y2704D02*
X3797Y2704D01*
X2928Y2703D02*
X2939Y2703D01*
X2955Y2703D02*
X2961Y2703D01*
X3085Y2703D02*
X3091Y2703D01*
X3139Y2703D02*
X3146Y2703D01*
X3335Y2703D02*
X3341Y2703D01*
X3482Y2703D02*
X3497Y2703D01*
X3578Y2703D02*
X3611Y2703D01*
X3628Y2703D02*
X3661Y2703D01*
X3728Y2703D02*
X3734Y2703D01*
X3755Y2703D02*
X3761Y2703D01*
X3779Y2703D02*
X3797Y2703D01*
X2928Y2702D02*
X2939Y2702D01*
X2955Y2702D02*
X2961Y2702D01*
X3085Y2702D02*
X3091Y2702D01*
X3335Y2702D02*
X3341Y2702D01*
X3491Y2702D02*
X3497Y2702D01*
X3578Y2702D02*
X3584Y2702D01*
X3603Y2702D02*
X3611Y2702D01*
X3628Y2702D02*
X3634Y2702D01*
X3641Y2702D02*
X3648Y2702D01*
X3655Y2702D02*
X3661Y2702D01*
X3728Y2702D02*
X3734Y2702D01*
X3755Y2702D02*
X3761Y2702D01*
X3791Y2702D02*
X3797Y2702D01*
X2928Y2701D02*
X2940Y2701D01*
X2955Y2701D02*
X2961Y2701D01*
X3085Y2701D02*
X3091Y2701D01*
X3335Y2701D02*
X3341Y2701D01*
X3491Y2701D02*
X3497Y2701D01*
X3578Y2701D02*
X3584Y2701D01*
X3605Y2701D02*
X3611Y2701D01*
X3628Y2701D02*
X3634Y2701D01*
X3641Y2701D02*
X3647Y2701D01*
X3655Y2701D02*
X3661Y2701D01*
X3728Y2701D02*
X3734Y2701D01*
X3755Y2701D02*
X3761Y2701D01*
X3791Y2701D02*
X3797Y2701D01*
X2928Y2700D02*
X2940Y2700D01*
X2955Y2700D02*
X2961Y2700D01*
X3085Y2700D02*
X3091Y2700D01*
X3335Y2700D02*
X3341Y2700D01*
X3491Y2700D02*
X3497Y2700D01*
X3578Y2700D02*
X3584Y2700D01*
X3605Y2700D02*
X3611Y2700D01*
X3628Y2700D02*
X3634Y2700D01*
X3641Y2700D02*
X3647Y2700D01*
X3655Y2700D02*
X3661Y2700D01*
X3728Y2700D02*
X3734Y2700D01*
X3755Y2700D02*
X3761Y2700D01*
X3791Y2700D02*
X3797Y2700D01*
X2928Y2699D02*
X2940Y2699D01*
X2955Y2699D02*
X2961Y2699D01*
X3085Y2699D02*
X3091Y2699D01*
X3335Y2699D02*
X3341Y2699D01*
X3491Y2699D02*
X3497Y2699D01*
X3578Y2699D02*
X3585Y2699D01*
X3605Y2699D02*
X3611Y2699D01*
X3628Y2699D02*
X3634Y2699D01*
X3641Y2699D02*
X3647Y2699D01*
X3655Y2699D02*
X3661Y2699D01*
X3728Y2699D02*
X3734Y2699D01*
X3755Y2699D02*
X3761Y2699D01*
X3791Y2699D02*
X3797Y2699D01*
X2928Y2698D02*
X2941Y2698D01*
X2955Y2698D02*
X2961Y2698D01*
X3085Y2698D02*
X3091Y2698D01*
X3335Y2698D02*
X3341Y2698D01*
X3491Y2698D02*
X3497Y2698D01*
X3578Y2698D02*
X3586Y2698D01*
X3606Y2698D02*
X3611Y2698D01*
X3628Y2698D02*
X3633Y2698D01*
X3641Y2698D02*
X3647Y2698D01*
X3656Y2698D02*
X3661Y2698D01*
X3728Y2698D02*
X3734Y2698D01*
X3755Y2698D02*
X3761Y2698D01*
X3791Y2698D02*
X3797Y2698D01*
X2928Y2697D02*
X2941Y2697D01*
X2955Y2697D02*
X2961Y2697D01*
X3085Y2697D02*
X3091Y2697D01*
X3335Y2697D02*
X3341Y2697D01*
X3491Y2697D02*
X3497Y2697D01*
X3579Y2697D02*
X3587Y2697D01*
X3607Y2697D02*
X3610Y2697D01*
X3629Y2697D02*
X3632Y2697D01*
X3641Y2697D02*
X3647Y2697D01*
X3657Y2697D02*
X3660Y2697D01*
X3728Y2697D02*
X3734Y2697D01*
X3755Y2697D02*
X3761Y2697D01*
X3791Y2697D02*
X3797Y2697D01*
X2928Y2696D02*
X2942Y2696D01*
X2955Y2696D02*
X2961Y2696D01*
X3085Y2696D02*
X3091Y2696D01*
X3335Y2696D02*
X3341Y2696D01*
X3491Y2696D02*
X3497Y2696D01*
X3580Y2696D02*
X3588Y2696D01*
X3641Y2696D02*
X3647Y2696D01*
X3728Y2696D02*
X3734Y2696D01*
X3755Y2696D02*
X3761Y2696D01*
X3791Y2696D02*
X3797Y2696D01*
X2928Y2695D02*
X2942Y2695D01*
X2955Y2695D02*
X2961Y2695D01*
X3085Y2695D02*
X3091Y2695D01*
X3335Y2695D02*
X3341Y2695D01*
X3491Y2695D02*
X3497Y2695D01*
X3580Y2695D02*
X3588Y2695D01*
X3641Y2695D02*
X3647Y2695D01*
X3728Y2695D02*
X3734Y2695D01*
X3755Y2695D02*
X3761Y2695D01*
X3791Y2695D02*
X3797Y2695D01*
X2928Y2694D02*
X2934Y2694D01*
X2936Y2694D02*
X2943Y2694D01*
X2955Y2694D02*
X2961Y2694D01*
X2986Y2694D02*
X3003Y2694D01*
X3030Y2694D02*
X3032Y2694D01*
X3057Y2694D02*
X3059Y2694D01*
X3080Y2694D02*
X3106Y2694D01*
X3133Y2694D02*
X3146Y2694D01*
X3191Y2694D02*
X3209Y2694D01*
X3238Y2694D02*
X3251Y2694D01*
X3280Y2694D02*
X3282Y2694D01*
X3294Y2694D02*
X3303Y2694D01*
X3330Y2694D02*
X3356Y2694D01*
X3380Y2694D02*
X3382Y2694D01*
X3393Y2694D02*
X3404Y2694D01*
X3438Y2694D02*
X3451Y2694D01*
X3491Y2694D02*
X3497Y2694D01*
X3581Y2694D02*
X3589Y2694D01*
X3641Y2694D02*
X3647Y2694D01*
X3728Y2694D02*
X3734Y2694D01*
X3755Y2694D02*
X3761Y2694D01*
X3791Y2694D02*
X3797Y2694D01*
X2928Y2693D02*
X2934Y2693D01*
X2936Y2693D02*
X2943Y2693D01*
X2955Y2693D02*
X2961Y2693D01*
X2985Y2693D02*
X3005Y2693D01*
X3028Y2693D02*
X3033Y2693D01*
X3056Y2693D02*
X3061Y2693D01*
X3078Y2693D02*
X3107Y2693D01*
X3132Y2693D02*
X3147Y2693D01*
X3189Y2693D02*
X3211Y2693D01*
X3235Y2693D02*
X3253Y2693D01*
X3278Y2693D02*
X3283Y2693D01*
X3292Y2693D02*
X3305Y2693D01*
X3328Y2693D02*
X3357Y2693D01*
X3378Y2693D02*
X3383Y2693D01*
X3392Y2693D02*
X3406Y2693D01*
X3435Y2693D02*
X3453Y2693D01*
X3491Y2693D02*
X3497Y2693D01*
X3582Y2693D02*
X3590Y2693D01*
X3641Y2693D02*
X3647Y2693D01*
X3728Y2693D02*
X3734Y2693D01*
X3755Y2693D02*
X3761Y2693D01*
X3791Y2693D02*
X3797Y2693D01*
X2928Y2692D02*
X2934Y2692D01*
X2937Y2692D02*
X2943Y2692D01*
X2955Y2692D02*
X2961Y2692D01*
X2985Y2692D02*
X3007Y2692D01*
X3028Y2692D02*
X3033Y2692D01*
X3055Y2692D02*
X3061Y2692D01*
X3078Y2692D02*
X3108Y2692D01*
X3131Y2692D02*
X3147Y2692D01*
X3187Y2692D02*
X3211Y2692D01*
X3234Y2692D02*
X3255Y2692D01*
X3278Y2692D02*
X3283Y2692D01*
X3290Y2692D02*
X3307Y2692D01*
X3328Y2692D02*
X3358Y2692D01*
X3378Y2692D02*
X3383Y2692D01*
X3391Y2692D02*
X3407Y2692D01*
X3434Y2692D02*
X3455Y2692D01*
X3491Y2692D02*
X3497Y2692D01*
X3583Y2692D02*
X3591Y2692D01*
X3641Y2692D02*
X3647Y2692D01*
X3728Y2692D02*
X3735Y2692D01*
X3754Y2692D02*
X3761Y2692D01*
X3791Y2692D02*
X3797Y2692D01*
X2928Y2691D02*
X2934Y2691D01*
X2937Y2691D02*
X2944Y2691D01*
X2955Y2691D02*
X2961Y2691D01*
X2985Y2691D02*
X3008Y2691D01*
X3028Y2691D02*
X3034Y2691D01*
X3055Y2691D02*
X3061Y2691D01*
X3078Y2691D02*
X3108Y2691D01*
X3131Y2691D02*
X3147Y2691D01*
X3186Y2691D02*
X3211Y2691D01*
X3233Y2691D02*
X3256Y2691D01*
X3278Y2691D02*
X3284Y2691D01*
X3289Y2691D02*
X3308Y2691D01*
X3328Y2691D02*
X3358Y2691D01*
X3378Y2691D02*
X3384Y2691D01*
X3390Y2691D02*
X3408Y2691D01*
X3433Y2691D02*
X3456Y2691D01*
X3491Y2691D02*
X3497Y2691D01*
X3583Y2691D02*
X3591Y2691D01*
X3641Y2691D02*
X3647Y2691D01*
X3729Y2691D02*
X3735Y2691D01*
X3754Y2691D02*
X3760Y2691D01*
X3791Y2691D02*
X3797Y2691D01*
X2928Y2690D02*
X2934Y2690D01*
X2938Y2690D02*
X2944Y2690D01*
X2955Y2690D02*
X2961Y2690D01*
X2985Y2690D02*
X3008Y2690D01*
X3028Y2690D02*
X3034Y2690D01*
X3055Y2690D02*
X3061Y2690D01*
X3078Y2690D02*
X3108Y2690D01*
X3131Y2690D02*
X3147Y2690D01*
X3185Y2690D02*
X3211Y2690D01*
X3232Y2690D02*
X3257Y2690D01*
X3278Y2690D02*
X3284Y2690D01*
X3287Y2690D02*
X3308Y2690D01*
X3328Y2690D02*
X3358Y2690D01*
X3378Y2690D02*
X3384Y2690D01*
X3388Y2690D02*
X3409Y2690D01*
X3432Y2690D02*
X3457Y2690D01*
X3491Y2690D02*
X3497Y2690D01*
X3584Y2690D02*
X3592Y2690D01*
X3641Y2690D02*
X3647Y2690D01*
X3729Y2690D02*
X3735Y2690D01*
X3753Y2690D02*
X3760Y2690D01*
X3791Y2690D02*
X3797Y2690D01*
X2928Y2689D02*
X2934Y2689D01*
X2938Y2689D02*
X2945Y2689D01*
X2955Y2689D02*
X2961Y2689D01*
X2985Y2689D02*
X3009Y2689D01*
X3028Y2689D02*
X3034Y2689D01*
X3055Y2689D02*
X3061Y2689D01*
X3078Y2689D02*
X3107Y2689D01*
X3132Y2689D02*
X3147Y2689D01*
X3184Y2689D02*
X3211Y2689D01*
X3231Y2689D02*
X3258Y2689D01*
X3278Y2689D02*
X3309Y2689D01*
X3328Y2689D02*
X3357Y2689D01*
X3378Y2689D02*
X3384Y2689D01*
X3387Y2689D02*
X3410Y2689D01*
X3431Y2689D02*
X3458Y2689D01*
X3491Y2689D02*
X3497Y2689D01*
X3585Y2689D02*
X3593Y2689D01*
X3641Y2689D02*
X3647Y2689D01*
X3729Y2689D02*
X3736Y2689D01*
X3753Y2689D02*
X3760Y2689D01*
X3791Y2689D02*
X3797Y2689D01*
X2928Y2688D02*
X2934Y2688D01*
X2939Y2688D02*
X2945Y2688D01*
X2955Y2688D02*
X2961Y2688D01*
X2986Y2688D02*
X3010Y2688D01*
X3028Y2688D02*
X3034Y2688D01*
X3055Y2688D02*
X3061Y2688D01*
X3079Y2688D02*
X3106Y2688D01*
X3133Y2688D02*
X3147Y2688D01*
X3183Y2688D02*
X3210Y2688D01*
X3230Y2688D02*
X3259Y2688D01*
X3278Y2688D02*
X3310Y2688D01*
X3329Y2688D02*
X3356Y2688D01*
X3378Y2688D02*
X3384Y2688D01*
X3386Y2688D02*
X3410Y2688D01*
X3430Y2688D02*
X3459Y2688D01*
X3491Y2688D02*
X3497Y2688D01*
X3586Y2688D02*
X3594Y2688D01*
X3641Y2688D02*
X3647Y2688D01*
X3730Y2688D02*
X3736Y2688D01*
X3753Y2688D02*
X3759Y2688D01*
X3791Y2688D02*
X3797Y2688D01*
X2928Y2687D02*
X2934Y2687D01*
X2939Y2687D02*
X2946Y2687D01*
X2955Y2687D02*
X2961Y2687D01*
X3003Y2687D02*
X3010Y2687D01*
X3028Y2687D02*
X3034Y2687D01*
X3055Y2687D02*
X3061Y2687D01*
X3085Y2687D02*
X3091Y2687D01*
X3141Y2687D02*
X3147Y2687D01*
X3182Y2687D02*
X3191Y2687D01*
X3229Y2687D02*
X3238Y2687D01*
X3251Y2687D02*
X3260Y2687D01*
X3278Y2687D02*
X3294Y2687D01*
X3302Y2687D02*
X3310Y2687D01*
X3335Y2687D02*
X3341Y2687D01*
X3378Y2687D02*
X3395Y2687D01*
X3403Y2687D02*
X3411Y2687D01*
X3429Y2687D02*
X3438Y2687D01*
X3451Y2687D02*
X3460Y2687D01*
X3491Y2687D02*
X3497Y2687D01*
X3587Y2687D02*
X3595Y2687D01*
X3641Y2687D02*
X3647Y2687D01*
X3730Y2687D02*
X3737Y2687D01*
X3752Y2687D02*
X3759Y2687D01*
X3791Y2687D02*
X3797Y2687D01*
X2928Y2686D02*
X2934Y2686D01*
X2939Y2686D02*
X2946Y2686D01*
X2955Y2686D02*
X2961Y2686D01*
X3004Y2686D02*
X3010Y2686D01*
X3028Y2686D02*
X3034Y2686D01*
X3055Y2686D02*
X3061Y2686D01*
X3085Y2686D02*
X3091Y2686D01*
X3142Y2686D02*
X3147Y2686D01*
X3181Y2686D02*
X3190Y2686D01*
X3229Y2686D02*
X3237Y2686D01*
X3253Y2686D02*
X3260Y2686D01*
X3278Y2686D02*
X3293Y2686D01*
X3304Y2686D02*
X3310Y2686D01*
X3335Y2686D02*
X3341Y2686D01*
X3378Y2686D02*
X3394Y2686D01*
X3405Y2686D02*
X3411Y2686D01*
X3429Y2686D02*
X3437Y2686D01*
X3453Y2686D02*
X3460Y2686D01*
X3491Y2686D02*
X3497Y2686D01*
X3587Y2686D02*
X3595Y2686D01*
X3641Y2686D02*
X3647Y2686D01*
X3730Y2686D02*
X3737Y2686D01*
X3752Y2686D02*
X3758Y2686D01*
X3791Y2686D02*
X3797Y2686D01*
X2928Y2685D02*
X2934Y2685D01*
X2940Y2685D02*
X2947Y2685D01*
X2955Y2685D02*
X2961Y2685D01*
X3004Y2685D02*
X3010Y2685D01*
X3028Y2685D02*
X3034Y2685D01*
X3055Y2685D02*
X3061Y2685D01*
X3085Y2685D02*
X3091Y2685D01*
X3142Y2685D02*
X3147Y2685D01*
X3180Y2685D02*
X3189Y2685D01*
X3228Y2685D02*
X3235Y2685D01*
X3254Y2685D02*
X3261Y2685D01*
X3278Y2685D02*
X3291Y2685D01*
X3304Y2685D02*
X3310Y2685D01*
X3335Y2685D02*
X3341Y2685D01*
X3378Y2685D02*
X3392Y2685D01*
X3405Y2685D02*
X3411Y2685D01*
X3428Y2685D02*
X3435Y2685D01*
X3454Y2685D02*
X3461Y2685D01*
X3491Y2685D02*
X3497Y2685D01*
X3588Y2685D02*
X3596Y2685D01*
X3641Y2685D02*
X3647Y2685D01*
X3731Y2685D02*
X3737Y2685D01*
X3752Y2685D02*
X3758Y2685D01*
X3791Y2685D02*
X3797Y2685D01*
X2928Y2684D02*
X2934Y2684D01*
X2940Y2684D02*
X2947Y2684D01*
X2955Y2684D02*
X2961Y2684D01*
X3004Y2684D02*
X3010Y2684D01*
X3028Y2684D02*
X3034Y2684D01*
X3055Y2684D02*
X3061Y2684D01*
X3085Y2684D02*
X3091Y2684D01*
X3142Y2684D02*
X3147Y2684D01*
X3179Y2684D02*
X3188Y2684D01*
X3228Y2684D02*
X3235Y2684D01*
X3254Y2684D02*
X3261Y2684D01*
X3278Y2684D02*
X3290Y2684D01*
X3304Y2684D02*
X3310Y2684D01*
X3335Y2684D02*
X3341Y2684D01*
X3378Y2684D02*
X3391Y2684D01*
X3405Y2684D02*
X3411Y2684D01*
X3428Y2684D02*
X3435Y2684D01*
X3454Y2684D02*
X3461Y2684D01*
X3491Y2684D02*
X3497Y2684D01*
X3589Y2684D02*
X3597Y2684D01*
X3641Y2684D02*
X3647Y2684D01*
X3731Y2684D02*
X3738Y2684D01*
X3751Y2684D02*
X3758Y2684D01*
X3791Y2684D02*
X3797Y2684D01*
X2928Y2683D02*
X2934Y2683D01*
X2941Y2683D02*
X2947Y2683D01*
X2955Y2683D02*
X2961Y2683D01*
X3004Y2683D02*
X3010Y2683D01*
X3028Y2683D02*
X3034Y2683D01*
X3055Y2683D02*
X3061Y2683D01*
X3085Y2683D02*
X3091Y2683D01*
X3142Y2683D02*
X3147Y2683D01*
X3179Y2683D02*
X3187Y2683D01*
X3228Y2683D02*
X3234Y2683D01*
X3255Y2683D02*
X3261Y2683D01*
X3278Y2683D02*
X3288Y2683D01*
X3304Y2683D02*
X3310Y2683D01*
X3335Y2683D02*
X3341Y2683D01*
X3378Y2683D02*
X3390Y2683D01*
X3405Y2683D02*
X3411Y2683D01*
X3428Y2683D02*
X3434Y2683D01*
X3455Y2683D02*
X3461Y2683D01*
X3491Y2683D02*
X3497Y2683D01*
X3590Y2683D02*
X3598Y2683D01*
X3641Y2683D02*
X3647Y2683D01*
X3732Y2683D02*
X3738Y2683D01*
X3751Y2683D02*
X3757Y2683D01*
X3791Y2683D02*
X3797Y2683D01*
X2928Y2682D02*
X2934Y2682D01*
X2941Y2682D02*
X2948Y2682D01*
X2955Y2682D02*
X2961Y2682D01*
X3004Y2682D02*
X3010Y2682D01*
X3028Y2682D02*
X3034Y2682D01*
X3055Y2682D02*
X3061Y2682D01*
X3085Y2682D02*
X3091Y2682D01*
X3142Y2682D02*
X3147Y2682D01*
X3178Y2682D02*
X3186Y2682D01*
X3228Y2682D02*
X3234Y2682D01*
X3255Y2682D02*
X3261Y2682D01*
X3278Y2682D02*
X3287Y2682D01*
X3304Y2682D02*
X3310Y2682D01*
X3335Y2682D02*
X3341Y2682D01*
X3378Y2682D02*
X3389Y2682D01*
X3405Y2682D02*
X3411Y2682D01*
X3428Y2682D02*
X3434Y2682D01*
X3455Y2682D02*
X3461Y2682D01*
X3491Y2682D02*
X3497Y2682D01*
X3590Y2682D02*
X3598Y2682D01*
X3641Y2682D02*
X3647Y2682D01*
X3732Y2682D02*
X3739Y2682D01*
X3750Y2682D02*
X3757Y2682D01*
X3791Y2682D02*
X3797Y2682D01*
X2928Y2681D02*
X2934Y2681D01*
X2942Y2681D02*
X2948Y2681D01*
X2955Y2681D02*
X2961Y2681D01*
X3004Y2681D02*
X3010Y2681D01*
X3028Y2681D02*
X3034Y2681D01*
X3055Y2681D02*
X3061Y2681D01*
X3085Y2681D02*
X3091Y2681D01*
X3142Y2681D02*
X3147Y2681D01*
X3178Y2681D02*
X3184Y2681D01*
X3228Y2681D02*
X3234Y2681D01*
X3255Y2681D02*
X3261Y2681D01*
X3278Y2681D02*
X3285Y2681D01*
X3304Y2681D02*
X3310Y2681D01*
X3335Y2681D02*
X3341Y2681D01*
X3378Y2681D02*
X3388Y2681D01*
X3405Y2681D02*
X3411Y2681D01*
X3428Y2681D02*
X3434Y2681D01*
X3455Y2681D02*
X3461Y2681D01*
X3491Y2681D02*
X3497Y2681D01*
X3591Y2681D02*
X3599Y2681D01*
X3641Y2681D02*
X3647Y2681D01*
X3732Y2681D02*
X3739Y2681D01*
X3750Y2681D02*
X3757Y2681D01*
X3791Y2681D02*
X3797Y2681D01*
X2928Y2680D02*
X2934Y2680D01*
X2942Y2680D02*
X2949Y2680D01*
X2955Y2680D02*
X2961Y2680D01*
X3004Y2680D02*
X3011Y2680D01*
X3028Y2680D02*
X3034Y2680D01*
X3055Y2680D02*
X3061Y2680D01*
X3085Y2680D02*
X3091Y2680D01*
X3142Y2680D02*
X3147Y2680D01*
X3178Y2680D02*
X3184Y2680D01*
X3228Y2680D02*
X3234Y2680D01*
X3255Y2680D02*
X3261Y2680D01*
X3278Y2680D02*
X3284Y2680D01*
X3305Y2680D02*
X3311Y2680D01*
X3335Y2680D02*
X3341Y2680D01*
X3378Y2680D02*
X3387Y2680D01*
X3406Y2680D02*
X3410Y2680D01*
X3428Y2680D02*
X3434Y2680D01*
X3455Y2680D02*
X3461Y2680D01*
X3491Y2680D02*
X3497Y2680D01*
X3592Y2680D02*
X3600Y2680D01*
X3641Y2680D02*
X3647Y2680D01*
X3733Y2680D02*
X3739Y2680D01*
X3750Y2680D02*
X3756Y2680D01*
X3791Y2680D02*
X3797Y2680D01*
X2928Y2679D02*
X2934Y2679D01*
X2942Y2679D02*
X2949Y2679D01*
X2955Y2679D02*
X2961Y2679D01*
X2984Y2679D02*
X3011Y2679D01*
X3028Y2679D02*
X3034Y2679D01*
X3055Y2679D02*
X3061Y2679D01*
X3085Y2679D02*
X3091Y2679D01*
X3142Y2679D02*
X3147Y2679D01*
X3178Y2679D02*
X3184Y2679D01*
X3228Y2679D02*
X3234Y2679D01*
X3255Y2679D02*
X3261Y2679D01*
X3278Y2679D02*
X3284Y2679D01*
X3305Y2679D02*
X3311Y2679D01*
X3335Y2679D02*
X3341Y2679D01*
X3378Y2679D02*
X3385Y2679D01*
X3407Y2679D02*
X3409Y2679D01*
X3428Y2679D02*
X3434Y2679D01*
X3455Y2679D02*
X3461Y2679D01*
X3491Y2679D02*
X3497Y2679D01*
X3593Y2679D02*
X3601Y2679D01*
X3641Y2679D02*
X3647Y2679D01*
X3733Y2679D02*
X3740Y2679D01*
X3749Y2679D02*
X3756Y2679D01*
X3791Y2679D02*
X3797Y2679D01*
X3807Y2679D02*
X3810Y2679D01*
X2928Y2678D02*
X2934Y2678D01*
X2943Y2678D02*
X2950Y2678D01*
X2955Y2678D02*
X2961Y2678D01*
X2982Y2678D02*
X3011Y2678D01*
X3028Y2678D02*
X3034Y2678D01*
X3055Y2678D02*
X3061Y2678D01*
X3085Y2678D02*
X3091Y2678D01*
X3142Y2678D02*
X3147Y2678D01*
X3178Y2678D02*
X3184Y2678D01*
X3228Y2678D02*
X3234Y2678D01*
X3255Y2678D02*
X3261Y2678D01*
X3278Y2678D02*
X3284Y2678D01*
X3305Y2678D02*
X3311Y2678D01*
X3335Y2678D02*
X3341Y2678D01*
X3378Y2678D02*
X3384Y2678D01*
X3428Y2678D02*
X3434Y2678D01*
X3455Y2678D02*
X3461Y2678D01*
X3491Y2678D02*
X3497Y2678D01*
X3594Y2678D02*
X3602Y2678D01*
X3641Y2678D02*
X3647Y2678D01*
X3734Y2678D02*
X3740Y2678D01*
X3749Y2678D02*
X3755Y2678D01*
X3791Y2678D02*
X3797Y2678D01*
X3806Y2678D02*
X3811Y2678D01*
X2928Y2677D02*
X2934Y2677D01*
X2943Y2677D02*
X2950Y2677D01*
X2955Y2677D02*
X2961Y2677D01*
X2981Y2677D02*
X3011Y2677D01*
X3028Y2677D02*
X3034Y2677D01*
X3055Y2677D02*
X3061Y2677D01*
X3085Y2677D02*
X3091Y2677D01*
X3142Y2677D02*
X3147Y2677D01*
X3178Y2677D02*
X3184Y2677D01*
X3228Y2677D02*
X3234Y2677D01*
X3255Y2677D02*
X3261Y2677D01*
X3278Y2677D02*
X3284Y2677D01*
X3305Y2677D02*
X3311Y2677D01*
X3335Y2677D02*
X3341Y2677D01*
X3378Y2677D02*
X3384Y2677D01*
X3428Y2677D02*
X3434Y2677D01*
X3455Y2677D02*
X3461Y2677D01*
X3491Y2677D02*
X3497Y2677D01*
X3594Y2677D02*
X3602Y2677D01*
X3641Y2677D02*
X3647Y2677D01*
X3734Y2677D02*
X3741Y2677D01*
X3748Y2677D02*
X3755Y2677D01*
X3791Y2677D02*
X3797Y2677D01*
X3805Y2677D02*
X3811Y2677D01*
X2928Y2676D02*
X2934Y2676D01*
X2944Y2676D02*
X2950Y2676D01*
X2955Y2676D02*
X2961Y2676D01*
X2980Y2676D02*
X3011Y2676D01*
X3028Y2676D02*
X3034Y2676D01*
X3055Y2676D02*
X3061Y2676D01*
X3085Y2676D02*
X3091Y2676D01*
X3142Y2676D02*
X3147Y2676D01*
X3178Y2676D02*
X3184Y2676D01*
X3228Y2676D02*
X3234Y2676D01*
X3255Y2676D02*
X3261Y2676D01*
X3278Y2676D02*
X3284Y2676D01*
X3305Y2676D02*
X3311Y2676D01*
X3335Y2676D02*
X3341Y2676D01*
X3378Y2676D02*
X3384Y2676D01*
X3428Y2676D02*
X3434Y2676D01*
X3455Y2676D02*
X3461Y2676D01*
X3491Y2676D02*
X3497Y2676D01*
X3595Y2676D02*
X3603Y2676D01*
X3641Y2676D02*
X3647Y2676D01*
X3734Y2676D02*
X3741Y2676D01*
X3748Y2676D02*
X3755Y2676D01*
X3791Y2676D02*
X3797Y2676D01*
X3805Y2676D02*
X3811Y2676D01*
X2928Y2675D02*
X2934Y2675D01*
X2944Y2675D02*
X2951Y2675D01*
X2955Y2675D02*
X2961Y2675D01*
X2979Y2675D02*
X3011Y2675D01*
X3028Y2675D02*
X3034Y2675D01*
X3055Y2675D02*
X3061Y2675D01*
X3085Y2675D02*
X3091Y2675D01*
X3142Y2675D02*
X3147Y2675D01*
X3178Y2675D02*
X3184Y2675D01*
X3228Y2675D02*
X3234Y2675D01*
X3255Y2675D02*
X3261Y2675D01*
X3278Y2675D02*
X3284Y2675D01*
X3305Y2675D02*
X3311Y2675D01*
X3335Y2675D02*
X3341Y2675D01*
X3378Y2675D02*
X3384Y2675D01*
X3428Y2675D02*
X3434Y2675D01*
X3455Y2675D02*
X3461Y2675D01*
X3491Y2675D02*
X3497Y2675D01*
X3596Y2675D02*
X3604Y2675D01*
X3641Y2675D02*
X3647Y2675D01*
X3735Y2675D02*
X3741Y2675D01*
X3748Y2675D02*
X3754Y2675D01*
X3791Y2675D02*
X3797Y2675D01*
X3805Y2675D02*
X3811Y2675D01*
X2928Y2674D02*
X2934Y2674D01*
X2945Y2674D02*
X2951Y2674D01*
X2955Y2674D02*
X2961Y2674D01*
X2979Y2674D02*
X3011Y2674D01*
X3028Y2674D02*
X3034Y2674D01*
X3055Y2674D02*
X3061Y2674D01*
X3085Y2674D02*
X3091Y2674D01*
X3142Y2674D02*
X3147Y2674D01*
X3178Y2674D02*
X3184Y2674D01*
X3228Y2674D02*
X3234Y2674D01*
X3255Y2674D02*
X3261Y2674D01*
X3278Y2674D02*
X3284Y2674D01*
X3305Y2674D02*
X3311Y2674D01*
X3335Y2674D02*
X3341Y2674D01*
X3378Y2674D02*
X3384Y2674D01*
X3428Y2674D02*
X3434Y2674D01*
X3455Y2674D02*
X3461Y2674D01*
X3491Y2674D02*
X3497Y2674D01*
X3597Y2674D02*
X3605Y2674D01*
X3641Y2674D02*
X3647Y2674D01*
X3735Y2674D02*
X3742Y2674D01*
X3747Y2674D02*
X3754Y2674D01*
X3791Y2674D02*
X3797Y2674D01*
X3805Y2674D02*
X3811Y2674D01*
X2928Y2673D02*
X2934Y2673D01*
X2945Y2673D02*
X2952Y2673D01*
X2955Y2673D02*
X2961Y2673D01*
X2978Y2673D02*
X3011Y2673D01*
X3028Y2673D02*
X3034Y2673D01*
X3055Y2673D02*
X3061Y2673D01*
X3085Y2673D02*
X3091Y2673D01*
X3142Y2673D02*
X3147Y2673D01*
X3178Y2673D02*
X3184Y2673D01*
X3228Y2673D02*
X3234Y2673D01*
X3255Y2673D02*
X3261Y2673D01*
X3278Y2673D02*
X3284Y2673D01*
X3305Y2673D02*
X3311Y2673D01*
X3335Y2673D02*
X3341Y2673D01*
X3378Y2673D02*
X3384Y2673D01*
X3428Y2673D02*
X3434Y2673D01*
X3455Y2673D02*
X3461Y2673D01*
X3491Y2673D02*
X3497Y2673D01*
X3597Y2673D02*
X3605Y2673D01*
X3641Y2673D02*
X3647Y2673D01*
X3736Y2673D02*
X3742Y2673D01*
X3747Y2673D02*
X3753Y2673D01*
X3791Y2673D02*
X3797Y2673D01*
X3805Y2673D02*
X3811Y2673D01*
X2928Y2672D02*
X2934Y2672D01*
X2946Y2672D02*
X2952Y2672D01*
X2955Y2672D02*
X2961Y2672D01*
X2978Y2672D02*
X2985Y2672D01*
X3003Y2672D02*
X3011Y2672D01*
X3028Y2672D02*
X3034Y2672D01*
X3055Y2672D02*
X3061Y2672D01*
X3085Y2672D02*
X3091Y2672D01*
X3142Y2672D02*
X3147Y2672D01*
X3178Y2672D02*
X3184Y2672D01*
X3228Y2672D02*
X3234Y2672D01*
X3255Y2672D02*
X3261Y2672D01*
X3278Y2672D02*
X3284Y2672D01*
X3305Y2672D02*
X3311Y2672D01*
X3335Y2672D02*
X3341Y2672D01*
X3378Y2672D02*
X3384Y2672D01*
X3428Y2672D02*
X3434Y2672D01*
X3455Y2672D02*
X3461Y2672D01*
X3491Y2672D02*
X3497Y2672D01*
X3598Y2672D02*
X3606Y2672D01*
X3641Y2672D02*
X3647Y2672D01*
X3736Y2672D02*
X3743Y2672D01*
X3746Y2672D02*
X3753Y2672D01*
X3791Y2672D02*
X3797Y2672D01*
X3805Y2672D02*
X3811Y2672D01*
X2928Y2671D02*
X2934Y2671D01*
X2946Y2671D02*
X2953Y2671D01*
X2955Y2671D02*
X2961Y2671D01*
X2978Y2671D02*
X2984Y2671D01*
X3004Y2671D02*
X3011Y2671D01*
X3028Y2671D02*
X3034Y2671D01*
X3055Y2671D02*
X3061Y2671D01*
X3085Y2671D02*
X3091Y2671D01*
X3142Y2671D02*
X3147Y2671D01*
X3178Y2671D02*
X3184Y2671D01*
X3228Y2671D02*
X3234Y2671D01*
X3255Y2671D02*
X3261Y2671D01*
X3278Y2671D02*
X3284Y2671D01*
X3305Y2671D02*
X3311Y2671D01*
X3335Y2671D02*
X3341Y2671D01*
X3378Y2671D02*
X3384Y2671D01*
X3428Y2671D02*
X3434Y2671D01*
X3455Y2671D02*
X3461Y2671D01*
X3491Y2671D02*
X3497Y2671D01*
X3599Y2671D02*
X3607Y2671D01*
X3641Y2671D02*
X3647Y2671D01*
X3736Y2671D02*
X3743Y2671D01*
X3746Y2671D02*
X3753Y2671D01*
X3791Y2671D02*
X3797Y2671D01*
X3805Y2671D02*
X3811Y2671D01*
X2928Y2670D02*
X2934Y2670D01*
X2946Y2670D02*
X2953Y2670D01*
X2955Y2670D02*
X2961Y2670D01*
X2978Y2670D02*
X2984Y2670D01*
X3005Y2670D02*
X3011Y2670D01*
X3028Y2670D02*
X3034Y2670D01*
X3055Y2670D02*
X3061Y2670D01*
X3085Y2670D02*
X3091Y2670D01*
X3142Y2670D02*
X3147Y2670D01*
X3178Y2670D02*
X3184Y2670D01*
X3228Y2670D02*
X3234Y2670D01*
X3255Y2670D02*
X3261Y2670D01*
X3278Y2670D02*
X3284Y2670D01*
X3305Y2670D02*
X3311Y2670D01*
X3335Y2670D02*
X3341Y2670D01*
X3378Y2670D02*
X3384Y2670D01*
X3428Y2670D02*
X3434Y2670D01*
X3455Y2670D02*
X3461Y2670D01*
X3491Y2670D02*
X3497Y2670D01*
X3600Y2670D02*
X3608Y2670D01*
X3641Y2670D02*
X3647Y2670D01*
X3737Y2670D02*
X3743Y2670D01*
X3746Y2670D02*
X3752Y2670D01*
X3791Y2670D02*
X3797Y2670D01*
X3805Y2670D02*
X3811Y2670D01*
X2928Y2669D02*
X2934Y2669D01*
X2947Y2669D02*
X2961Y2669D01*
X2978Y2669D02*
X2984Y2669D01*
X3005Y2669D02*
X3011Y2669D01*
X3028Y2669D02*
X3034Y2669D01*
X3055Y2669D02*
X3061Y2669D01*
X3085Y2669D02*
X3091Y2669D01*
X3142Y2669D02*
X3147Y2669D01*
X3178Y2669D02*
X3184Y2669D01*
X3228Y2669D02*
X3234Y2669D01*
X3255Y2669D02*
X3261Y2669D01*
X3278Y2669D02*
X3284Y2669D01*
X3305Y2669D02*
X3311Y2669D01*
X3335Y2669D02*
X3341Y2669D01*
X3378Y2669D02*
X3384Y2669D01*
X3428Y2669D02*
X3434Y2669D01*
X3455Y2669D02*
X3461Y2669D01*
X3491Y2669D02*
X3497Y2669D01*
X3601Y2669D02*
X3609Y2669D01*
X3641Y2669D02*
X3647Y2669D01*
X3737Y2669D02*
X3752Y2669D01*
X3791Y2669D02*
X3797Y2669D01*
X3805Y2669D02*
X3811Y2669D01*
X2928Y2668D02*
X2934Y2668D01*
X2947Y2668D02*
X2961Y2668D01*
X2978Y2668D02*
X2984Y2668D01*
X3005Y2668D02*
X3011Y2668D01*
X3028Y2668D02*
X3034Y2668D01*
X3053Y2668D02*
X3061Y2668D01*
X3085Y2668D02*
X3091Y2668D01*
X3142Y2668D02*
X3147Y2668D01*
X3178Y2668D02*
X3185Y2668D01*
X3228Y2668D02*
X3234Y2668D01*
X3255Y2668D02*
X3261Y2668D01*
X3278Y2668D02*
X3284Y2668D01*
X3305Y2668D02*
X3311Y2668D01*
X3335Y2668D02*
X3341Y2668D01*
X3378Y2668D02*
X3384Y2668D01*
X3428Y2668D02*
X3434Y2668D01*
X3455Y2668D02*
X3461Y2668D01*
X3491Y2668D02*
X3497Y2668D01*
X3601Y2668D02*
X3609Y2668D01*
X3641Y2668D02*
X3647Y2668D01*
X3737Y2668D02*
X3751Y2668D01*
X3791Y2668D02*
X3797Y2668D01*
X3805Y2668D02*
X3811Y2668D01*
X2928Y2667D02*
X2934Y2667D01*
X2948Y2667D02*
X2961Y2667D01*
X2978Y2667D02*
X2984Y2667D01*
X3005Y2667D02*
X3011Y2667D01*
X3028Y2667D02*
X3034Y2667D01*
X3052Y2667D02*
X3061Y2667D01*
X3085Y2667D02*
X3091Y2667D01*
X3107Y2667D02*
X3110Y2667D01*
X3142Y2667D02*
X3147Y2667D01*
X3178Y2667D02*
X3186Y2667D01*
X3228Y2667D02*
X3234Y2667D01*
X3255Y2667D02*
X3261Y2667D01*
X3278Y2667D02*
X3284Y2667D01*
X3305Y2667D02*
X3311Y2667D01*
X3335Y2667D02*
X3341Y2667D01*
X3357Y2667D02*
X3360Y2667D01*
X3378Y2667D02*
X3384Y2667D01*
X3428Y2667D02*
X3434Y2667D01*
X3455Y2667D02*
X3461Y2667D01*
X3491Y2667D02*
X3497Y2667D01*
X3579Y2667D02*
X3582Y2667D01*
X3602Y2667D02*
X3610Y2667D01*
X3641Y2667D02*
X3647Y2667D01*
X3738Y2667D02*
X3751Y2667D01*
X3791Y2667D02*
X3797Y2667D01*
X3805Y2667D02*
X3811Y2667D01*
X2928Y2666D02*
X2934Y2666D01*
X2948Y2666D02*
X2961Y2666D01*
X2978Y2666D02*
X2984Y2666D01*
X3004Y2666D02*
X3011Y2666D01*
X3028Y2666D02*
X3035Y2666D01*
X3050Y2666D02*
X3061Y2666D01*
X3085Y2666D02*
X3091Y2666D01*
X3106Y2666D02*
X3111Y2666D01*
X3142Y2666D02*
X3147Y2666D01*
X3179Y2666D02*
X3187Y2666D01*
X3228Y2666D02*
X3234Y2666D01*
X3255Y2666D02*
X3261Y2666D01*
X3278Y2666D02*
X3284Y2666D01*
X3305Y2666D02*
X3311Y2666D01*
X3335Y2666D02*
X3341Y2666D01*
X3356Y2666D02*
X3361Y2666D01*
X3378Y2666D02*
X3384Y2666D01*
X3428Y2666D02*
X3434Y2666D01*
X3455Y2666D02*
X3461Y2666D01*
X3491Y2666D02*
X3497Y2666D01*
X3578Y2666D02*
X3583Y2666D01*
X3603Y2666D02*
X3611Y2666D01*
X3641Y2666D02*
X3647Y2666D01*
X3738Y2666D02*
X3751Y2666D01*
X3791Y2666D02*
X3797Y2666D01*
X3805Y2666D02*
X3811Y2666D01*
X2928Y2665D02*
X2934Y2665D01*
X2949Y2665D02*
X2961Y2665D01*
X2978Y2665D02*
X2984Y2665D01*
X3002Y2665D02*
X3011Y2665D01*
X3029Y2665D02*
X3035Y2665D01*
X3049Y2665D02*
X3061Y2665D01*
X3085Y2665D02*
X3091Y2665D01*
X3105Y2665D02*
X3111Y2665D01*
X3142Y2665D02*
X3147Y2665D01*
X3179Y2665D02*
X3188Y2665D01*
X3228Y2665D02*
X3235Y2665D01*
X3254Y2665D02*
X3261Y2665D01*
X3278Y2665D02*
X3284Y2665D01*
X3305Y2665D02*
X3311Y2665D01*
X3335Y2665D02*
X3341Y2665D01*
X3355Y2665D02*
X3361Y2665D01*
X3378Y2665D02*
X3384Y2665D01*
X3428Y2665D02*
X3435Y2665D01*
X3454Y2665D02*
X3461Y2665D01*
X3491Y2665D02*
X3497Y2665D01*
X3578Y2665D02*
X3584Y2665D01*
X3604Y2665D02*
X3611Y2665D01*
X3641Y2665D02*
X3647Y2665D01*
X3739Y2665D02*
X3750Y2665D01*
X3791Y2665D02*
X3797Y2665D01*
X3805Y2665D02*
X3811Y2665D01*
X462Y2664D02*
X488Y2664D01*
X514Y2664D02*
X516Y2664D01*
X542Y2664D02*
X544Y2664D01*
X562Y2664D02*
X588Y2664D01*
X2928Y2664D02*
X2934Y2664D01*
X2949Y2664D02*
X2961Y2664D01*
X2978Y2664D02*
X2984Y2664D01*
X3001Y2664D02*
X3011Y2664D01*
X3029Y2664D02*
X3035Y2664D01*
X3047Y2664D02*
X3061Y2664D01*
X3085Y2664D02*
X3091Y2664D01*
X3105Y2664D02*
X3111Y2664D01*
X3142Y2664D02*
X3147Y2664D01*
X3180Y2664D02*
X3190Y2664D01*
X3228Y2664D02*
X3236Y2664D01*
X3253Y2664D02*
X3261Y2664D01*
X3278Y2664D02*
X3284Y2664D01*
X3305Y2664D02*
X3311Y2664D01*
X3335Y2664D02*
X3341Y2664D01*
X3355Y2664D02*
X3361Y2664D01*
X3378Y2664D02*
X3384Y2664D01*
X3428Y2664D02*
X3436Y2664D01*
X3453Y2664D02*
X3461Y2664D01*
X3491Y2664D02*
X3497Y2664D01*
X3578Y2664D02*
X3584Y2664D01*
X3604Y2664D02*
X3611Y2664D01*
X3641Y2664D02*
X3647Y2664D01*
X3739Y2664D02*
X3750Y2664D01*
X3791Y2664D02*
X3797Y2664D01*
X3805Y2664D02*
X3811Y2664D01*
X462Y2663D02*
X490Y2663D01*
X513Y2663D02*
X517Y2663D01*
X540Y2663D02*
X545Y2663D01*
X562Y2663D02*
X590Y2663D01*
X2928Y2663D02*
X2934Y2663D01*
X2949Y2663D02*
X2961Y2663D01*
X2978Y2663D02*
X2985Y2663D01*
X2999Y2663D02*
X3011Y2663D01*
X3029Y2663D02*
X3036Y2663D01*
X3045Y2663D02*
X3061Y2663D01*
X3085Y2663D02*
X3092Y2663D01*
X3104Y2663D02*
X3111Y2663D01*
X3142Y2663D02*
X3147Y2663D01*
X3181Y2663D02*
X3191Y2663D01*
X3229Y2663D02*
X3237Y2663D01*
X3252Y2663D02*
X3260Y2663D01*
X3278Y2663D02*
X3284Y2663D01*
X3305Y2663D02*
X3311Y2663D01*
X3335Y2663D02*
X3342Y2663D01*
X3354Y2663D02*
X3361Y2663D01*
X3378Y2663D02*
X3384Y2663D01*
X3429Y2663D02*
X3437Y2663D01*
X3452Y2663D02*
X3460Y2663D01*
X3491Y2663D02*
X3497Y2663D01*
X3578Y2663D02*
X3584Y2663D01*
X3605Y2663D02*
X3611Y2663D01*
X3641Y2663D02*
X3647Y2663D01*
X3739Y2663D02*
X3749Y2663D01*
X3791Y2663D02*
X3797Y2663D01*
X3805Y2663D02*
X3811Y2663D01*
X462Y2662D02*
X492Y2662D01*
X512Y2662D02*
X518Y2662D01*
X540Y2662D02*
X545Y2662D01*
X562Y2662D02*
X592Y2662D01*
X2928Y2662D02*
X2934Y2662D01*
X2950Y2662D02*
X2961Y2662D01*
X2978Y2662D02*
X3011Y2662D01*
X3029Y2662D02*
X3061Y2662D01*
X3085Y2662D02*
X3111Y2662D01*
X3135Y2662D02*
X3154Y2662D01*
X3182Y2662D02*
X3208Y2662D01*
X3229Y2662D02*
X3260Y2662D01*
X3278Y2662D02*
X3284Y2662D01*
X3305Y2662D02*
X3311Y2662D01*
X3335Y2662D02*
X3361Y2662D01*
X3378Y2662D02*
X3384Y2662D01*
X3429Y2662D02*
X3460Y2662D01*
X3485Y2662D02*
X3504Y2662D01*
X3578Y2662D02*
X3611Y2662D01*
X3641Y2662D02*
X3647Y2662D01*
X3740Y2662D02*
X3749Y2662D01*
X3781Y2662D02*
X3811Y2662D01*
X462Y2661D02*
X493Y2661D01*
X512Y2661D02*
X518Y2661D01*
X540Y2661D02*
X546Y2661D01*
X562Y2661D02*
X593Y2661D01*
X2928Y2661D02*
X2934Y2661D01*
X2950Y2661D02*
X2961Y2661D01*
X2979Y2661D02*
X3011Y2661D01*
X3030Y2661D02*
X3061Y2661D01*
X3086Y2661D02*
X3110Y2661D01*
X3132Y2661D02*
X3157Y2661D01*
X3183Y2661D02*
X3210Y2661D01*
X3230Y2661D02*
X3259Y2661D01*
X3278Y2661D02*
X3284Y2661D01*
X3305Y2661D02*
X3311Y2661D01*
X3336Y2661D02*
X3360Y2661D01*
X3378Y2661D02*
X3384Y2661D01*
X3430Y2661D02*
X3459Y2661D01*
X3482Y2661D02*
X3507Y2661D01*
X3578Y2661D02*
X3611Y2661D01*
X3641Y2661D02*
X3647Y2661D01*
X3740Y2661D02*
X3749Y2661D01*
X3779Y2661D02*
X3811Y2661D01*
X462Y2660D02*
X494Y2660D01*
X512Y2660D02*
X518Y2660D01*
X540Y2660D02*
X546Y2660D01*
X562Y2660D02*
X594Y2660D01*
X2928Y2660D02*
X2934Y2660D01*
X2951Y2660D02*
X2961Y2660D01*
X2979Y2660D02*
X3011Y2660D01*
X3030Y2660D02*
X3053Y2660D01*
X3055Y2660D02*
X3061Y2660D01*
X3086Y2660D02*
X3110Y2660D01*
X3131Y2660D02*
X3157Y2660D01*
X3184Y2660D02*
X3211Y2660D01*
X3231Y2660D02*
X3258Y2660D01*
X3278Y2660D02*
X3284Y2660D01*
X3305Y2660D02*
X3311Y2660D01*
X3336Y2660D02*
X3360Y2660D01*
X3378Y2660D02*
X3384Y2660D01*
X3431Y2660D02*
X3458Y2660D01*
X3481Y2660D02*
X3507Y2660D01*
X3579Y2660D02*
X3611Y2660D01*
X3641Y2660D02*
X3647Y2660D01*
X3741Y2660D02*
X3748Y2660D01*
X3778Y2660D02*
X3811Y2660D01*
X462Y2659D02*
X494Y2659D01*
X512Y2659D02*
X518Y2659D01*
X540Y2659D02*
X546Y2659D01*
X562Y2659D02*
X594Y2659D01*
X2928Y2659D02*
X2934Y2659D01*
X2951Y2659D02*
X2961Y2659D01*
X2980Y2659D02*
X3011Y2659D01*
X3031Y2659D02*
X3051Y2659D01*
X3055Y2659D02*
X3061Y2659D01*
X3087Y2659D02*
X3109Y2659D01*
X3131Y2659D02*
X3158Y2659D01*
X3186Y2659D02*
X3211Y2659D01*
X3232Y2659D02*
X3257Y2659D01*
X3278Y2659D02*
X3284Y2659D01*
X3305Y2659D02*
X3311Y2659D01*
X3337Y2659D02*
X3359Y2659D01*
X3378Y2659D02*
X3384Y2659D01*
X3432Y2659D02*
X3457Y2659D01*
X3481Y2659D02*
X3508Y2659D01*
X3579Y2659D02*
X3610Y2659D01*
X3641Y2659D02*
X3647Y2659D01*
X3741Y2659D02*
X3748Y2659D01*
X3778Y2659D02*
X3811Y2659D01*
X462Y2658D02*
X495Y2658D01*
X512Y2658D02*
X518Y2658D01*
X540Y2658D02*
X546Y2658D01*
X562Y2658D02*
X595Y2658D01*
X2928Y2658D02*
X2934Y2658D01*
X2952Y2658D02*
X2961Y2658D01*
X2981Y2658D02*
X3003Y2658D01*
X3005Y2658D02*
X3011Y2658D01*
X3032Y2658D02*
X3050Y2658D01*
X3055Y2658D02*
X3061Y2658D01*
X3088Y2658D02*
X3108Y2658D01*
X3131Y2658D02*
X3158Y2658D01*
X3187Y2658D02*
X3211Y2658D01*
X3233Y2658D02*
X3256Y2658D01*
X3278Y2658D02*
X3284Y2658D01*
X3305Y2658D02*
X3311Y2658D01*
X3338Y2658D02*
X3358Y2658D01*
X3378Y2658D02*
X3384Y2658D01*
X3433Y2658D02*
X3456Y2658D01*
X3481Y2658D02*
X3508Y2658D01*
X3580Y2658D02*
X3609Y2658D01*
X3642Y2658D02*
X3647Y2658D01*
X3741Y2658D02*
X3748Y2658D01*
X3778Y2658D02*
X3811Y2658D01*
X462Y2657D02*
X468Y2657D01*
X488Y2657D02*
X495Y2657D01*
X512Y2657D02*
X518Y2657D01*
X540Y2657D02*
X546Y2657D01*
X562Y2657D02*
X568Y2657D01*
X588Y2657D02*
X595Y2657D01*
X2928Y2657D02*
X2933Y2657D01*
X2952Y2657D02*
X2961Y2657D01*
X2982Y2657D02*
X3002Y2657D01*
X3006Y2657D02*
X3011Y2657D01*
X3033Y2657D02*
X3048Y2657D01*
X3056Y2657D02*
X3061Y2657D01*
X3089Y2657D02*
X3107Y2657D01*
X3132Y2657D02*
X3157Y2657D01*
X3188Y2657D02*
X3211Y2657D01*
X3235Y2657D02*
X3254Y2657D01*
X3278Y2657D02*
X3283Y2657D01*
X3306Y2657D02*
X3311Y2657D01*
X3339Y2657D02*
X3357Y2657D01*
X3378Y2657D02*
X3383Y2657D01*
X3435Y2657D02*
X3454Y2657D01*
X3482Y2657D02*
X3507Y2657D01*
X3581Y2657D02*
X3608Y2657D01*
X3642Y2657D02*
X3647Y2657D01*
X3742Y2657D02*
X3747Y2657D01*
X3778Y2657D02*
X3811Y2657D01*
X462Y2656D02*
X468Y2656D01*
X489Y2656D02*
X495Y2656D01*
X512Y2656D02*
X518Y2656D01*
X540Y2656D02*
X546Y2656D01*
X562Y2656D02*
X568Y2656D01*
X589Y2656D02*
X595Y2656D01*
X2929Y2656D02*
X2933Y2656D01*
X2953Y2656D02*
X2961Y2656D01*
X2984Y2656D02*
X3000Y2656D01*
X3006Y2656D02*
X3010Y2656D01*
X3035Y2656D02*
X3046Y2656D01*
X3056Y2656D02*
X3060Y2656D01*
X3091Y2656D02*
X3105Y2656D01*
X3132Y2656D02*
X3157Y2656D01*
X3190Y2656D02*
X3210Y2656D01*
X3236Y2656D02*
X3253Y2656D01*
X3279Y2656D02*
X3283Y2656D01*
X3306Y2656D02*
X3310Y2656D01*
X3341Y2656D02*
X3355Y2656D01*
X3379Y2656D02*
X3383Y2656D01*
X3436Y2656D02*
X3453Y2656D01*
X3482Y2656D02*
X3507Y2656D01*
X3583Y2656D02*
X3607Y2656D01*
X3643Y2656D02*
X3646Y2656D01*
X3742Y2656D02*
X3746Y2656D01*
X3779Y2656D02*
X3810Y2656D01*
X462Y2655D02*
X468Y2655D01*
X489Y2655D02*
X496Y2655D01*
X512Y2655D02*
X518Y2655D01*
X540Y2655D02*
X546Y2655D01*
X562Y2655D02*
X568Y2655D01*
X589Y2655D02*
X596Y2655D01*
X462Y2654D02*
X468Y2654D01*
X490Y2654D02*
X496Y2654D01*
X512Y2654D02*
X518Y2654D01*
X540Y2654D02*
X546Y2654D01*
X562Y2654D02*
X568Y2654D01*
X590Y2654D02*
X596Y2654D01*
X462Y2653D02*
X468Y2653D01*
X490Y2653D02*
X496Y2653D01*
X512Y2653D02*
X518Y2653D01*
X540Y2653D02*
X546Y2653D01*
X562Y2653D02*
X568Y2653D01*
X590Y2653D02*
X596Y2653D01*
X462Y2652D02*
X468Y2652D01*
X490Y2652D02*
X496Y2652D01*
X512Y2652D02*
X518Y2652D01*
X540Y2652D02*
X546Y2652D01*
X562Y2652D02*
X568Y2652D01*
X590Y2652D02*
X596Y2652D01*
X462Y2651D02*
X468Y2651D01*
X490Y2651D02*
X496Y2651D01*
X512Y2651D02*
X518Y2651D01*
X540Y2651D02*
X546Y2651D01*
X562Y2651D02*
X568Y2651D01*
X590Y2651D02*
X596Y2651D01*
X462Y2650D02*
X468Y2650D01*
X490Y2650D02*
X496Y2650D01*
X512Y2650D02*
X518Y2650D01*
X540Y2650D02*
X546Y2650D01*
X562Y2650D02*
X568Y2650D01*
X590Y2650D02*
X596Y2650D01*
X462Y2649D02*
X468Y2649D01*
X490Y2649D02*
X496Y2649D01*
X512Y2649D02*
X518Y2649D01*
X540Y2649D02*
X546Y2649D01*
X562Y2649D02*
X568Y2649D01*
X589Y2649D02*
X596Y2649D01*
X462Y2648D02*
X468Y2648D01*
X490Y2648D02*
X496Y2648D01*
X512Y2648D02*
X518Y2648D01*
X540Y2648D02*
X546Y2648D01*
X562Y2648D02*
X568Y2648D01*
X589Y2648D02*
X595Y2648D01*
X462Y2647D02*
X468Y2647D01*
X490Y2647D02*
X496Y2647D01*
X512Y2647D02*
X518Y2647D01*
X540Y2647D02*
X546Y2647D01*
X562Y2647D02*
X568Y2647D01*
X587Y2647D02*
X595Y2647D01*
X462Y2646D02*
X468Y2646D01*
X490Y2646D02*
X496Y2646D01*
X512Y2646D02*
X518Y2646D01*
X527Y2646D02*
X530Y2646D01*
X540Y2646D02*
X546Y2646D01*
X562Y2646D02*
X595Y2646D01*
X462Y2645D02*
X468Y2645D01*
X490Y2645D02*
X496Y2645D01*
X512Y2645D02*
X518Y2645D01*
X526Y2645D02*
X531Y2645D01*
X540Y2645D02*
X546Y2645D01*
X562Y2645D02*
X594Y2645D01*
X462Y2644D02*
X468Y2644D01*
X490Y2644D02*
X496Y2644D01*
X512Y2644D02*
X518Y2644D01*
X526Y2644D02*
X532Y2644D01*
X540Y2644D02*
X546Y2644D01*
X562Y2644D02*
X594Y2644D01*
X462Y2643D02*
X468Y2643D01*
X490Y2643D02*
X496Y2643D01*
X512Y2643D02*
X518Y2643D01*
X526Y2643D02*
X532Y2643D01*
X540Y2643D02*
X546Y2643D01*
X562Y2643D02*
X593Y2643D01*
X462Y2642D02*
X468Y2642D01*
X490Y2642D02*
X496Y2642D01*
X512Y2642D02*
X518Y2642D01*
X526Y2642D02*
X532Y2642D01*
X540Y2642D02*
X546Y2642D01*
X562Y2642D02*
X592Y2642D01*
X462Y2641D02*
X468Y2641D01*
X490Y2641D02*
X496Y2641D01*
X512Y2641D02*
X518Y2641D01*
X526Y2641D02*
X532Y2641D01*
X540Y2641D02*
X546Y2641D01*
X562Y2641D02*
X590Y2641D01*
X462Y2640D02*
X468Y2640D01*
X489Y2640D02*
X496Y2640D01*
X512Y2640D02*
X518Y2640D01*
X526Y2640D02*
X532Y2640D01*
X540Y2640D02*
X546Y2640D01*
X562Y2640D02*
X588Y2640D01*
X462Y2639D02*
X468Y2639D01*
X489Y2639D02*
X495Y2639D01*
X512Y2639D02*
X518Y2639D01*
X526Y2639D02*
X532Y2639D01*
X540Y2639D02*
X546Y2639D01*
X562Y2639D02*
X568Y2639D01*
X574Y2639D02*
X582Y2639D01*
X462Y2638D02*
X468Y2638D01*
X487Y2638D02*
X495Y2638D01*
X512Y2638D02*
X518Y2638D01*
X526Y2638D02*
X532Y2638D01*
X540Y2638D02*
X546Y2638D01*
X562Y2638D02*
X568Y2638D01*
X575Y2638D02*
X582Y2638D01*
X462Y2637D02*
X495Y2637D01*
X512Y2637D02*
X518Y2637D01*
X526Y2637D02*
X532Y2637D01*
X540Y2637D02*
X546Y2637D01*
X562Y2637D02*
X568Y2637D01*
X576Y2637D02*
X583Y2637D01*
X462Y2636D02*
X494Y2636D01*
X512Y2636D02*
X518Y2636D01*
X526Y2636D02*
X532Y2636D01*
X540Y2636D02*
X546Y2636D01*
X562Y2636D02*
X568Y2636D01*
X576Y2636D02*
X583Y2636D01*
X462Y2635D02*
X493Y2635D01*
X512Y2635D02*
X518Y2635D01*
X526Y2635D02*
X532Y2635D01*
X540Y2635D02*
X546Y2635D01*
X562Y2635D02*
X568Y2635D01*
X577Y2635D02*
X584Y2635D01*
X462Y2634D02*
X493Y2634D01*
X512Y2634D02*
X518Y2634D01*
X526Y2634D02*
X532Y2634D01*
X540Y2634D02*
X546Y2634D01*
X562Y2634D02*
X568Y2634D01*
X577Y2634D02*
X584Y2634D01*
X462Y2633D02*
X491Y2633D01*
X512Y2633D02*
X518Y2633D01*
X526Y2633D02*
X532Y2633D01*
X540Y2633D02*
X546Y2633D01*
X562Y2633D02*
X568Y2633D01*
X578Y2633D02*
X585Y2633D01*
X462Y2632D02*
X490Y2632D01*
X512Y2632D02*
X518Y2632D01*
X526Y2632D02*
X532Y2632D01*
X540Y2632D02*
X546Y2632D01*
X562Y2632D02*
X568Y2632D01*
X578Y2632D02*
X586Y2632D01*
X462Y2631D02*
X487Y2631D01*
X512Y2631D02*
X518Y2631D01*
X526Y2631D02*
X532Y2631D01*
X540Y2631D02*
X546Y2631D01*
X562Y2631D02*
X568Y2631D01*
X579Y2631D02*
X586Y2631D01*
X462Y2630D02*
X468Y2630D01*
X512Y2630D02*
X518Y2630D01*
X526Y2630D02*
X532Y2630D01*
X540Y2630D02*
X546Y2630D01*
X562Y2630D02*
X568Y2630D01*
X580Y2630D02*
X587Y2630D01*
X462Y2629D02*
X468Y2629D01*
X512Y2629D02*
X518Y2629D01*
X526Y2629D02*
X532Y2629D01*
X540Y2629D02*
X546Y2629D01*
X562Y2629D02*
X568Y2629D01*
X580Y2629D02*
X587Y2629D01*
X462Y2628D02*
X468Y2628D01*
X512Y2628D02*
X518Y2628D01*
X526Y2628D02*
X532Y2628D01*
X540Y2628D02*
X546Y2628D01*
X562Y2628D02*
X568Y2628D01*
X581Y2628D02*
X588Y2628D01*
X462Y2627D02*
X468Y2627D01*
X512Y2627D02*
X518Y2627D01*
X526Y2627D02*
X532Y2627D01*
X540Y2627D02*
X546Y2627D01*
X562Y2627D02*
X568Y2627D01*
X581Y2627D02*
X589Y2627D01*
X462Y2626D02*
X468Y2626D01*
X512Y2626D02*
X518Y2626D01*
X526Y2626D02*
X532Y2626D01*
X540Y2626D02*
X546Y2626D01*
X562Y2626D02*
X568Y2626D01*
X582Y2626D02*
X589Y2626D01*
X462Y2625D02*
X468Y2625D01*
X512Y2625D02*
X518Y2625D01*
X526Y2625D02*
X532Y2625D01*
X540Y2625D02*
X546Y2625D01*
X562Y2625D02*
X568Y2625D01*
X583Y2625D02*
X590Y2625D01*
X462Y2624D02*
X468Y2624D01*
X512Y2624D02*
X518Y2624D01*
X526Y2624D02*
X532Y2624D01*
X540Y2624D02*
X546Y2624D01*
X562Y2624D02*
X568Y2624D01*
X583Y2624D02*
X590Y2624D01*
X462Y2623D02*
X468Y2623D01*
X512Y2623D02*
X518Y2623D01*
X526Y2623D02*
X532Y2623D01*
X540Y2623D02*
X546Y2623D01*
X562Y2623D02*
X568Y2623D01*
X584Y2623D02*
X591Y2623D01*
X462Y2622D02*
X468Y2622D01*
X512Y2622D02*
X518Y2622D01*
X526Y2622D02*
X532Y2622D01*
X540Y2622D02*
X546Y2622D01*
X562Y2622D02*
X568Y2622D01*
X584Y2622D02*
X591Y2622D01*
X462Y2621D02*
X468Y2621D01*
X512Y2621D02*
X518Y2621D01*
X526Y2621D02*
X532Y2621D01*
X540Y2621D02*
X546Y2621D01*
X562Y2621D02*
X568Y2621D01*
X585Y2621D02*
X592Y2621D01*
X462Y2620D02*
X468Y2620D01*
X512Y2620D02*
X518Y2620D01*
X525Y2620D02*
X532Y2620D01*
X539Y2620D02*
X546Y2620D01*
X562Y2620D02*
X568Y2620D01*
X585Y2620D02*
X593Y2620D01*
X462Y2619D02*
X468Y2619D01*
X512Y2619D02*
X519Y2619D01*
X525Y2619D02*
X533Y2619D01*
X539Y2619D02*
X546Y2619D01*
X562Y2619D02*
X568Y2619D01*
X586Y2619D02*
X593Y2619D01*
X462Y2618D02*
X468Y2618D01*
X513Y2618D02*
X520Y2618D01*
X524Y2618D02*
X533Y2618D01*
X538Y2618D02*
X545Y2618D01*
X562Y2618D02*
X568Y2618D01*
X587Y2618D02*
X594Y2618D01*
X462Y2617D02*
X468Y2617D01*
X513Y2617D02*
X545Y2617D01*
X562Y2617D02*
X568Y2617D01*
X587Y2617D02*
X594Y2617D01*
X462Y2616D02*
X468Y2616D01*
X514Y2616D02*
X544Y2616D01*
X562Y2616D02*
X568Y2616D01*
X588Y2616D02*
X595Y2616D01*
X462Y2615D02*
X468Y2615D01*
X514Y2615D02*
X544Y2615D01*
X562Y2615D02*
X568Y2615D01*
X588Y2615D02*
X595Y2615D01*
X462Y2614D02*
X468Y2614D01*
X515Y2614D02*
X543Y2614D01*
X562Y2614D02*
X568Y2614D01*
X589Y2614D02*
X596Y2614D01*
X462Y2613D02*
X468Y2613D01*
X515Y2613D02*
X542Y2613D01*
X562Y2613D02*
X568Y2613D01*
X590Y2613D02*
X596Y2613D01*
X463Y2612D02*
X468Y2612D01*
X516Y2612D02*
X528Y2612D01*
X530Y2612D02*
X542Y2612D01*
X563Y2612D02*
X568Y2612D01*
X590Y2612D02*
X595Y2612D01*
X464Y2611D02*
X467Y2611D01*
X517Y2611D02*
X527Y2611D01*
X531Y2611D02*
X541Y2611D01*
X564Y2611D02*
X567Y2611D01*
X591Y2611D02*
X594Y2611D01*
X2053Y2605D02*
X2054Y2605D01*
X2101Y2605D02*
X2127Y2605D01*
X2151Y2605D02*
X2177Y2605D01*
X2251Y2605D02*
X2252Y2605D01*
X3351Y2605D02*
X3377Y2605D01*
X2051Y2604D02*
X2055Y2604D01*
X2100Y2604D02*
X2129Y2604D01*
X2150Y2604D02*
X2179Y2604D01*
X2250Y2604D02*
X2254Y2604D01*
X3350Y2604D02*
X3379Y2604D01*
X2051Y2603D02*
X2056Y2603D01*
X2099Y2603D02*
X2130Y2603D01*
X2149Y2603D02*
X2180Y2603D01*
X2249Y2603D02*
X2254Y2603D01*
X3349Y2603D02*
X3380Y2603D01*
X2050Y2602D02*
X2056Y2602D01*
X2099Y2602D02*
X2131Y2602D01*
X2149Y2602D02*
X2181Y2602D01*
X2249Y2602D02*
X2255Y2602D01*
X3349Y2602D02*
X3381Y2602D01*
X2050Y2601D02*
X2056Y2601D01*
X2099Y2601D02*
X2132Y2601D01*
X2149Y2601D02*
X2182Y2601D01*
X2249Y2601D02*
X2255Y2601D01*
X3349Y2601D02*
X3382Y2601D01*
X2050Y2600D02*
X2056Y2600D01*
X2099Y2600D02*
X2132Y2600D01*
X2149Y2600D02*
X2182Y2600D01*
X2249Y2600D02*
X2255Y2600D01*
X3349Y2600D02*
X3382Y2600D01*
X2050Y2599D02*
X2056Y2599D01*
X2073Y2599D02*
X2075Y2599D01*
X2100Y2599D02*
X2132Y2599D01*
X2150Y2599D02*
X2182Y2599D01*
X2249Y2599D02*
X2255Y2599D01*
X3350Y2599D02*
X3382Y2599D01*
X2050Y2598D02*
X2056Y2598D01*
X2072Y2598D02*
X2076Y2598D01*
X2126Y2598D02*
X2132Y2598D01*
X2176Y2598D02*
X2182Y2598D01*
X2249Y2598D02*
X2255Y2598D01*
X3376Y2598D02*
X3382Y2598D01*
X2050Y2597D02*
X2056Y2597D01*
X2071Y2597D02*
X2077Y2597D01*
X2126Y2597D02*
X2132Y2597D01*
X2176Y2597D02*
X2182Y2597D01*
X2249Y2597D02*
X2255Y2597D01*
X3376Y2597D02*
X3382Y2597D01*
X2050Y2596D02*
X2056Y2596D01*
X2071Y2596D02*
X2077Y2596D01*
X2126Y2596D02*
X2132Y2596D01*
X2176Y2596D02*
X2182Y2596D01*
X2249Y2596D02*
X2255Y2596D01*
X3376Y2596D02*
X3382Y2596D01*
X2050Y2595D02*
X2056Y2595D01*
X2071Y2595D02*
X2077Y2595D01*
X2126Y2595D02*
X2132Y2595D01*
X2176Y2595D02*
X2182Y2595D01*
X2249Y2595D02*
X2255Y2595D01*
X3376Y2595D02*
X3382Y2595D01*
X2050Y2594D02*
X2056Y2594D01*
X2071Y2594D02*
X2077Y2594D01*
X2126Y2594D02*
X2132Y2594D01*
X2176Y2594D02*
X2182Y2594D01*
X2249Y2594D02*
X2255Y2594D01*
X3376Y2594D02*
X3382Y2594D01*
X2050Y2593D02*
X2056Y2593D01*
X2071Y2593D02*
X2077Y2593D01*
X2126Y2593D02*
X2132Y2593D01*
X2176Y2593D02*
X2182Y2593D01*
X2249Y2593D02*
X2255Y2593D01*
X3376Y2593D02*
X3382Y2593D01*
X2050Y2592D02*
X2056Y2592D01*
X2071Y2592D02*
X2077Y2592D01*
X2126Y2592D02*
X2132Y2592D01*
X2176Y2592D02*
X2182Y2592D01*
X2249Y2592D02*
X2255Y2592D01*
X3376Y2592D02*
X3382Y2592D01*
X2050Y2591D02*
X2056Y2591D01*
X2071Y2591D02*
X2077Y2591D01*
X2126Y2591D02*
X2132Y2591D01*
X2176Y2591D02*
X2182Y2591D01*
X2249Y2591D02*
X2255Y2591D01*
X3376Y2591D02*
X3382Y2591D01*
X2050Y2590D02*
X2056Y2590D01*
X2071Y2590D02*
X2077Y2590D01*
X2126Y2590D02*
X2132Y2590D01*
X2176Y2590D02*
X2182Y2590D01*
X2200Y2590D02*
X2202Y2590D01*
X2208Y2590D02*
X2213Y2590D01*
X2222Y2590D02*
X2225Y2590D01*
X2249Y2590D02*
X2255Y2590D01*
X2265Y2590D02*
X2274Y2590D01*
X2302Y2590D02*
X2330Y2590D01*
X3376Y2590D02*
X3382Y2590D01*
X2050Y2589D02*
X2056Y2589D01*
X2071Y2589D02*
X2077Y2589D01*
X2126Y2589D02*
X2132Y2589D01*
X2176Y2589D02*
X2182Y2589D01*
X2199Y2589D02*
X2203Y2589D01*
X2206Y2589D02*
X2215Y2589D01*
X2220Y2589D02*
X2228Y2589D01*
X2249Y2589D02*
X2255Y2589D01*
X2263Y2589D02*
X2276Y2589D01*
X2301Y2589D02*
X2331Y2589D01*
X3376Y2589D02*
X3382Y2589D01*
X2050Y2588D02*
X2056Y2588D01*
X2071Y2588D02*
X2077Y2588D01*
X2126Y2588D02*
X2132Y2588D01*
X2176Y2588D02*
X2182Y2588D01*
X2198Y2588D02*
X2216Y2588D01*
X2219Y2588D02*
X2229Y2588D01*
X2249Y2588D02*
X2255Y2588D01*
X2261Y2588D02*
X2278Y2588D01*
X2300Y2588D02*
X2332Y2588D01*
X3376Y2588D02*
X3382Y2588D01*
X2050Y2587D02*
X2056Y2587D01*
X2071Y2587D02*
X2077Y2587D01*
X2126Y2587D02*
X2132Y2587D01*
X2176Y2587D02*
X2182Y2587D01*
X2198Y2587D02*
X2230Y2587D01*
X2249Y2587D02*
X2255Y2587D01*
X2259Y2587D02*
X2279Y2587D01*
X2300Y2587D02*
X2332Y2587D01*
X3376Y2587D02*
X3382Y2587D01*
X2050Y2586D02*
X2056Y2586D01*
X2071Y2586D02*
X2077Y2586D01*
X2126Y2586D02*
X2132Y2586D01*
X2176Y2586D02*
X2182Y2586D01*
X2198Y2586D02*
X2231Y2586D01*
X2249Y2586D02*
X2255Y2586D01*
X2258Y2586D02*
X2279Y2586D01*
X2300Y2586D02*
X2332Y2586D01*
X3376Y2586D02*
X3382Y2586D01*
X2050Y2585D02*
X2056Y2585D01*
X2071Y2585D02*
X2077Y2585D01*
X2126Y2585D02*
X2132Y2585D01*
X2176Y2585D02*
X2182Y2585D01*
X2198Y2585D02*
X2231Y2585D01*
X2249Y2585D02*
X2280Y2585D01*
X2301Y2585D02*
X2332Y2585D01*
X3376Y2585D02*
X3382Y2585D01*
X2050Y2584D02*
X2056Y2584D01*
X2071Y2584D02*
X2077Y2584D01*
X2126Y2584D02*
X2132Y2584D01*
X2176Y2584D02*
X2182Y2584D01*
X2198Y2584D02*
X2231Y2584D01*
X2249Y2584D02*
X2281Y2584D01*
X2302Y2584D02*
X2332Y2584D01*
X3376Y2584D02*
X3382Y2584D01*
X2050Y2583D02*
X2056Y2583D01*
X2071Y2583D02*
X2077Y2583D01*
X2125Y2583D02*
X2132Y2583D01*
X2175Y2583D02*
X2182Y2583D01*
X2198Y2583D02*
X2209Y2583D01*
X2212Y2583D02*
X2223Y2583D01*
X2225Y2583D02*
X2232Y2583D01*
X2249Y2583D02*
X2265Y2583D01*
X2273Y2583D02*
X2281Y2583D01*
X2324Y2583D02*
X2332Y2583D01*
X3376Y2583D02*
X3382Y2583D01*
X2050Y2582D02*
X2056Y2582D01*
X2071Y2582D02*
X2077Y2582D01*
X2124Y2582D02*
X2132Y2582D01*
X2174Y2582D02*
X2182Y2582D01*
X2198Y2582D02*
X2208Y2582D01*
X2212Y2582D02*
X2221Y2582D01*
X2226Y2582D02*
X2232Y2582D01*
X2249Y2582D02*
X2264Y2582D01*
X2275Y2582D02*
X2281Y2582D01*
X2323Y2582D02*
X2331Y2582D01*
X3376Y2582D02*
X3382Y2582D01*
X2050Y2581D02*
X2056Y2581D01*
X2071Y2581D02*
X2077Y2581D01*
X2107Y2581D02*
X2131Y2581D01*
X2157Y2581D02*
X2181Y2581D01*
X2198Y2581D02*
X2206Y2581D01*
X2212Y2581D02*
X2220Y2581D01*
X2226Y2581D02*
X2232Y2581D01*
X2249Y2581D02*
X2262Y2581D01*
X2275Y2581D02*
X2281Y2581D01*
X2322Y2581D02*
X2331Y2581D01*
X3353Y2581D02*
X3382Y2581D01*
X2050Y2580D02*
X2056Y2580D01*
X2071Y2580D02*
X2077Y2580D01*
X2106Y2580D02*
X2131Y2580D01*
X2156Y2580D02*
X2181Y2580D01*
X2198Y2580D02*
X2205Y2580D01*
X2212Y2580D02*
X2219Y2580D01*
X2226Y2580D02*
X2232Y2580D01*
X2249Y2580D02*
X2261Y2580D01*
X2275Y2580D02*
X2281Y2580D01*
X2321Y2580D02*
X2330Y2580D01*
X3351Y2580D02*
X3382Y2580D01*
X2050Y2579D02*
X2056Y2579D01*
X2071Y2579D02*
X2077Y2579D01*
X2106Y2579D02*
X2130Y2579D01*
X2156Y2579D02*
X2180Y2579D01*
X2198Y2579D02*
X2204Y2579D01*
X2212Y2579D02*
X2218Y2579D01*
X2226Y2579D02*
X2232Y2579D01*
X2249Y2579D02*
X2259Y2579D01*
X2275Y2579D02*
X2281Y2579D01*
X2319Y2579D02*
X2329Y2579D01*
X3350Y2579D02*
X3382Y2579D01*
X2050Y2578D02*
X2056Y2578D01*
X2071Y2578D02*
X2077Y2578D01*
X2106Y2578D02*
X2130Y2578D01*
X2156Y2578D02*
X2180Y2578D01*
X2198Y2578D02*
X2204Y2578D01*
X2212Y2578D02*
X2218Y2578D01*
X2226Y2578D02*
X2232Y2578D01*
X2249Y2578D02*
X2257Y2578D01*
X2275Y2578D02*
X2281Y2578D01*
X2318Y2578D02*
X2328Y2578D01*
X3350Y2578D02*
X3381Y2578D01*
X2050Y2577D02*
X2056Y2577D01*
X2071Y2577D02*
X2077Y2577D01*
X2106Y2577D02*
X2130Y2577D01*
X2156Y2577D02*
X2180Y2577D01*
X2198Y2577D02*
X2204Y2577D01*
X2212Y2577D02*
X2218Y2577D01*
X2226Y2577D02*
X2232Y2577D01*
X2249Y2577D02*
X2256Y2577D01*
X2275Y2577D02*
X2281Y2577D01*
X2317Y2577D02*
X2326Y2577D01*
X3349Y2577D02*
X3380Y2577D01*
X2050Y2576D02*
X2056Y2576D01*
X2071Y2576D02*
X2077Y2576D01*
X2106Y2576D02*
X2131Y2576D01*
X2156Y2576D02*
X2181Y2576D01*
X2198Y2576D02*
X2204Y2576D01*
X2212Y2576D02*
X2218Y2576D01*
X2226Y2576D02*
X2232Y2576D01*
X2249Y2576D02*
X2255Y2576D01*
X2275Y2576D02*
X2281Y2576D01*
X2316Y2576D02*
X2325Y2576D01*
X3349Y2576D02*
X3379Y2576D01*
X2050Y2575D02*
X2079Y2575D01*
X2108Y2575D02*
X2131Y2575D01*
X2158Y2575D02*
X2181Y2575D01*
X2198Y2575D02*
X2204Y2575D01*
X2212Y2575D02*
X2218Y2575D01*
X2226Y2575D02*
X2232Y2575D01*
X2249Y2575D02*
X2255Y2575D01*
X2275Y2575D02*
X2281Y2575D01*
X2315Y2575D02*
X2324Y2575D01*
X3349Y2575D02*
X3377Y2575D01*
X2050Y2574D02*
X2080Y2574D01*
X2124Y2574D02*
X2132Y2574D01*
X2174Y2574D02*
X2182Y2574D01*
X2198Y2574D02*
X2204Y2574D01*
X2212Y2574D02*
X2218Y2574D01*
X2226Y2574D02*
X2232Y2574D01*
X2249Y2574D02*
X2255Y2574D01*
X2275Y2574D02*
X2282Y2574D01*
X2314Y2574D02*
X2323Y2574D01*
X3349Y2574D02*
X3355Y2574D01*
X2050Y2573D02*
X2080Y2573D01*
X2126Y2573D02*
X2132Y2573D01*
X2176Y2573D02*
X2182Y2573D01*
X2198Y2573D02*
X2204Y2573D01*
X2212Y2573D02*
X2218Y2573D01*
X2226Y2573D02*
X2232Y2573D01*
X2249Y2573D02*
X2255Y2573D01*
X2276Y2573D02*
X2282Y2573D01*
X2313Y2573D02*
X2322Y2573D01*
X3349Y2573D02*
X3355Y2573D01*
X2050Y2572D02*
X2080Y2572D01*
X2126Y2572D02*
X2132Y2572D01*
X2176Y2572D02*
X2182Y2572D01*
X2198Y2572D02*
X2204Y2572D01*
X2212Y2572D02*
X2218Y2572D01*
X2226Y2572D02*
X2232Y2572D01*
X2249Y2572D02*
X2255Y2572D01*
X2276Y2572D02*
X2282Y2572D01*
X2312Y2572D02*
X2321Y2572D01*
X3349Y2572D02*
X3355Y2572D01*
X2050Y2571D02*
X2080Y2571D01*
X2126Y2571D02*
X2132Y2571D01*
X2176Y2571D02*
X2182Y2571D01*
X2198Y2571D02*
X2204Y2571D01*
X2212Y2571D02*
X2218Y2571D01*
X2226Y2571D02*
X2232Y2571D01*
X2249Y2571D02*
X2255Y2571D01*
X2276Y2571D02*
X2282Y2571D01*
X2311Y2571D02*
X2320Y2571D01*
X3349Y2571D02*
X3355Y2571D01*
X2050Y2570D02*
X2080Y2570D01*
X2126Y2570D02*
X2132Y2570D01*
X2176Y2570D02*
X2182Y2570D01*
X2198Y2570D02*
X2204Y2570D01*
X2212Y2570D02*
X2218Y2570D01*
X2226Y2570D02*
X2232Y2570D01*
X2249Y2570D02*
X2255Y2570D01*
X2276Y2570D02*
X2282Y2570D01*
X2310Y2570D02*
X2319Y2570D01*
X3349Y2570D02*
X3355Y2570D01*
X2050Y2569D02*
X2078Y2569D01*
X2126Y2569D02*
X2132Y2569D01*
X2176Y2569D02*
X2182Y2569D01*
X2198Y2569D02*
X2204Y2569D01*
X2212Y2569D02*
X2218Y2569D01*
X2226Y2569D02*
X2232Y2569D01*
X2249Y2569D02*
X2255Y2569D01*
X2276Y2569D02*
X2282Y2569D01*
X2309Y2569D02*
X2318Y2569D01*
X3349Y2569D02*
X3355Y2569D01*
X2071Y2568D02*
X2077Y2568D01*
X2126Y2568D02*
X2132Y2568D01*
X2176Y2568D02*
X2182Y2568D01*
X2198Y2568D02*
X2204Y2568D01*
X2212Y2568D02*
X2218Y2568D01*
X2226Y2568D02*
X2232Y2568D01*
X2249Y2568D02*
X2255Y2568D01*
X2276Y2568D02*
X2282Y2568D01*
X2308Y2568D02*
X2317Y2568D01*
X3349Y2568D02*
X3355Y2568D01*
X2071Y2567D02*
X2077Y2567D01*
X2126Y2567D02*
X2132Y2567D01*
X2176Y2567D02*
X2182Y2567D01*
X2198Y2567D02*
X2204Y2567D01*
X2212Y2567D02*
X2218Y2567D01*
X2226Y2567D02*
X2232Y2567D01*
X2249Y2567D02*
X2255Y2567D01*
X2276Y2567D02*
X2282Y2567D01*
X2307Y2567D02*
X2316Y2567D01*
X3349Y2567D02*
X3355Y2567D01*
X2071Y2566D02*
X2077Y2566D01*
X2126Y2566D02*
X2132Y2566D01*
X2176Y2566D02*
X2182Y2566D01*
X2198Y2566D02*
X2204Y2566D01*
X2212Y2566D02*
X2218Y2566D01*
X2226Y2566D02*
X2232Y2566D01*
X2249Y2566D02*
X2255Y2566D01*
X2276Y2566D02*
X2282Y2566D01*
X2306Y2566D02*
X2315Y2566D01*
X3349Y2566D02*
X3355Y2566D01*
X2071Y2565D02*
X2077Y2565D01*
X2126Y2565D02*
X2132Y2565D01*
X2176Y2565D02*
X2182Y2565D01*
X2198Y2565D02*
X2204Y2565D01*
X2212Y2565D02*
X2218Y2565D01*
X2226Y2565D02*
X2232Y2565D01*
X2249Y2565D02*
X2255Y2565D01*
X2276Y2565D02*
X2282Y2565D01*
X2305Y2565D02*
X2314Y2565D01*
X3349Y2565D02*
X3355Y2565D01*
X2071Y2564D02*
X2077Y2564D01*
X2126Y2564D02*
X2132Y2564D01*
X2176Y2564D02*
X2182Y2564D01*
X2198Y2564D02*
X2204Y2564D01*
X2212Y2564D02*
X2218Y2564D01*
X2226Y2564D02*
X2232Y2564D01*
X2249Y2564D02*
X2255Y2564D01*
X2276Y2564D02*
X2282Y2564D01*
X2304Y2564D02*
X2313Y2564D01*
X3349Y2564D02*
X3355Y2564D01*
X2071Y2563D02*
X2077Y2563D01*
X2126Y2563D02*
X2132Y2563D01*
X2176Y2563D02*
X2182Y2563D01*
X2198Y2563D02*
X2204Y2563D01*
X2212Y2563D02*
X2218Y2563D01*
X2226Y2563D02*
X2232Y2563D01*
X2249Y2563D02*
X2255Y2563D01*
X2276Y2563D02*
X2282Y2563D01*
X2303Y2563D02*
X2312Y2563D01*
X3349Y2563D02*
X3355Y2563D01*
X2071Y2562D02*
X2077Y2562D01*
X2126Y2562D02*
X2132Y2562D01*
X2176Y2562D02*
X2182Y2562D01*
X2198Y2562D02*
X2204Y2562D01*
X2212Y2562D02*
X2218Y2562D01*
X2226Y2562D02*
X2232Y2562D01*
X2249Y2562D02*
X2255Y2562D01*
X2276Y2562D02*
X2282Y2562D01*
X2302Y2562D02*
X2311Y2562D01*
X3349Y2562D02*
X3355Y2562D01*
X2071Y2561D02*
X2077Y2561D01*
X2126Y2561D02*
X2132Y2561D01*
X2176Y2561D02*
X2182Y2561D01*
X2198Y2561D02*
X2204Y2561D01*
X2212Y2561D02*
X2218Y2561D01*
X2226Y2561D02*
X2232Y2561D01*
X2249Y2561D02*
X2255Y2561D01*
X2276Y2561D02*
X2282Y2561D01*
X2301Y2561D02*
X2310Y2561D01*
X3349Y2561D02*
X3355Y2561D01*
X2071Y2560D02*
X2077Y2560D01*
X2126Y2560D02*
X2132Y2560D01*
X2176Y2560D02*
X2182Y2560D01*
X2198Y2560D02*
X2204Y2560D01*
X2212Y2560D02*
X2218Y2560D01*
X2226Y2560D02*
X2232Y2560D01*
X2249Y2560D02*
X2255Y2560D01*
X2276Y2560D02*
X2282Y2560D01*
X2300Y2560D02*
X2309Y2560D01*
X3349Y2560D02*
X3355Y2560D01*
X2071Y2559D02*
X2077Y2559D01*
X2126Y2559D02*
X2132Y2559D01*
X2176Y2559D02*
X2182Y2559D01*
X2198Y2559D02*
X2204Y2559D01*
X2212Y2559D02*
X2218Y2559D01*
X2227Y2559D02*
X2233Y2559D01*
X2249Y2559D02*
X2255Y2559D01*
X2276Y2559D02*
X2282Y2559D01*
X2299Y2559D02*
X2308Y2559D01*
X3349Y2559D02*
X3355Y2559D01*
X2071Y2558D02*
X2077Y2558D01*
X2102Y2558D02*
X2132Y2558D01*
X2152Y2558D02*
X2182Y2558D01*
X2198Y2558D02*
X2204Y2558D01*
X2212Y2558D02*
X2218Y2558D01*
X2227Y2558D02*
X2233Y2558D01*
X2249Y2558D02*
X2255Y2558D01*
X2276Y2558D02*
X2282Y2558D01*
X2299Y2558D02*
X2329Y2558D01*
X3349Y2558D02*
X3379Y2558D01*
X2071Y2557D02*
X2077Y2557D01*
X2100Y2557D02*
X2132Y2557D01*
X2150Y2557D02*
X2182Y2557D01*
X2198Y2557D02*
X2204Y2557D01*
X2212Y2557D02*
X2218Y2557D01*
X2227Y2557D02*
X2233Y2557D01*
X2249Y2557D02*
X2255Y2557D01*
X2276Y2557D02*
X2282Y2557D01*
X2299Y2557D02*
X2331Y2557D01*
X3349Y2557D02*
X3381Y2557D01*
X2071Y2556D02*
X2077Y2556D01*
X2099Y2556D02*
X2132Y2556D01*
X2149Y2556D02*
X2182Y2556D01*
X2198Y2556D02*
X2204Y2556D01*
X2212Y2556D02*
X2218Y2556D01*
X2227Y2556D02*
X2233Y2556D01*
X2249Y2556D02*
X2255Y2556D01*
X2276Y2556D02*
X2282Y2556D01*
X2299Y2556D02*
X2332Y2556D01*
X3349Y2556D02*
X3382Y2556D01*
X2071Y2555D02*
X2077Y2555D01*
X2099Y2555D02*
X2131Y2555D01*
X2149Y2555D02*
X2181Y2555D01*
X2198Y2555D02*
X2204Y2555D01*
X2212Y2555D02*
X2218Y2555D01*
X2227Y2555D02*
X2233Y2555D01*
X2249Y2555D02*
X2255Y2555D01*
X2276Y2555D02*
X2282Y2555D01*
X2299Y2555D02*
X2332Y2555D01*
X3349Y2555D02*
X3382Y2555D01*
X2071Y2554D02*
X2077Y2554D01*
X2099Y2554D02*
X2131Y2554D01*
X2149Y2554D02*
X2181Y2554D01*
X2198Y2554D02*
X2204Y2554D01*
X2212Y2554D02*
X2218Y2554D01*
X2227Y2554D02*
X2233Y2554D01*
X2249Y2554D02*
X2255Y2554D01*
X2276Y2554D02*
X2282Y2554D01*
X2299Y2554D02*
X2332Y2554D01*
X3349Y2554D02*
X3382Y2554D01*
X2071Y2553D02*
X2077Y2553D01*
X2099Y2553D02*
X2130Y2553D01*
X2149Y2553D02*
X2180Y2553D01*
X2198Y2553D02*
X2204Y2553D01*
X2213Y2553D02*
X2218Y2553D01*
X2227Y2553D02*
X2232Y2553D01*
X2249Y2553D02*
X2254Y2553D01*
X2277Y2553D02*
X2282Y2553D01*
X2299Y2553D02*
X2332Y2553D01*
X3349Y2553D02*
X3382Y2553D01*
X2072Y2552D02*
X2076Y2552D01*
X2100Y2552D02*
X2129Y2552D01*
X2150Y2552D02*
X2179Y2552D01*
X2199Y2552D02*
X2203Y2552D01*
X2214Y2552D02*
X2217Y2552D01*
X2228Y2552D02*
X2232Y2552D01*
X2250Y2552D02*
X2253Y2552D01*
X2277Y2552D02*
X2281Y2552D01*
X2300Y2552D02*
X2331Y2552D01*
X3349Y2552D02*
X3381Y2552D01*
X901Y2457D02*
X927Y2457D01*
X951Y2457D02*
X982Y2457D01*
X1004Y2457D02*
X1027Y2457D01*
X899Y2456D02*
X929Y2456D01*
X949Y2456D02*
X982Y2456D01*
X1002Y2456D02*
X1029Y2456D01*
X899Y2455D02*
X930Y2455D01*
X949Y2455D02*
X982Y2455D01*
X1000Y2455D02*
X1030Y2455D01*
X899Y2454D02*
X931Y2454D01*
X949Y2454D02*
X982Y2454D01*
X1000Y2454D02*
X1031Y2454D01*
X1060Y2454D02*
X1070Y2454D01*
X899Y2453D02*
X931Y2453D01*
X948Y2453D02*
X982Y2453D01*
X999Y2453D02*
X1031Y2453D01*
X1056Y2453D02*
X1073Y2453D01*
X899Y2452D02*
X932Y2452D01*
X948Y2452D02*
X982Y2452D01*
X999Y2452D02*
X1032Y2452D01*
X1054Y2452D02*
X1075Y2452D01*
X900Y2451D02*
X932Y2451D01*
X948Y2451D02*
X982Y2451D01*
X999Y2451D02*
X1032Y2451D01*
X1052Y2451D02*
X1077Y2451D01*
X926Y2450D02*
X932Y2450D01*
X949Y2450D02*
X955Y2450D01*
X976Y2450D02*
X982Y2450D01*
X998Y2450D02*
X1005Y2450D01*
X1026Y2450D02*
X1032Y2450D01*
X1051Y2450D02*
X1078Y2450D01*
X926Y2449D02*
X932Y2449D01*
X949Y2449D02*
X954Y2449D01*
X976Y2449D02*
X982Y2449D01*
X998Y2449D02*
X1004Y2449D01*
X1026Y2449D02*
X1032Y2449D01*
X1050Y2449D02*
X1080Y2449D01*
X926Y2448D02*
X932Y2448D01*
X950Y2448D02*
X953Y2448D01*
X976Y2448D02*
X982Y2448D01*
X998Y2448D02*
X1004Y2448D01*
X1026Y2448D02*
X1032Y2448D01*
X1049Y2448D02*
X1059Y2448D01*
X1070Y2448D02*
X1081Y2448D01*
X926Y2447D02*
X932Y2447D01*
X976Y2447D02*
X982Y2447D01*
X998Y2447D02*
X1004Y2447D01*
X1026Y2447D02*
X1032Y2447D01*
X1048Y2447D02*
X1057Y2447D01*
X1073Y2447D02*
X1081Y2447D01*
X926Y2446D02*
X932Y2446D01*
X976Y2446D02*
X982Y2446D01*
X998Y2446D02*
X1004Y2446D01*
X1026Y2446D02*
X1032Y2446D01*
X1047Y2446D02*
X1055Y2446D01*
X1074Y2446D02*
X1082Y2446D01*
X926Y2445D02*
X932Y2445D01*
X976Y2445D02*
X982Y2445D01*
X998Y2445D02*
X1004Y2445D01*
X1026Y2445D02*
X1032Y2445D01*
X1046Y2445D02*
X1054Y2445D01*
X1075Y2445D02*
X1083Y2445D01*
X926Y2444D02*
X932Y2444D01*
X976Y2444D02*
X982Y2444D01*
X998Y2444D02*
X1004Y2444D01*
X1026Y2444D02*
X1032Y2444D01*
X1046Y2444D02*
X1053Y2444D01*
X1076Y2444D02*
X1083Y2444D01*
X926Y2443D02*
X932Y2443D01*
X976Y2443D02*
X982Y2443D01*
X998Y2443D02*
X1004Y2443D01*
X1026Y2443D02*
X1032Y2443D01*
X1045Y2443D02*
X1052Y2443D01*
X1077Y2443D02*
X1084Y2443D01*
X926Y2442D02*
X932Y2442D01*
X976Y2442D02*
X982Y2442D01*
X998Y2442D02*
X1004Y2442D01*
X1026Y2442D02*
X1032Y2442D01*
X1045Y2442D02*
X1051Y2442D01*
X1078Y2442D02*
X1084Y2442D01*
X926Y2441D02*
X932Y2441D01*
X976Y2441D02*
X982Y2441D01*
X998Y2441D02*
X1004Y2441D01*
X1026Y2441D02*
X1032Y2441D01*
X1044Y2441D02*
X1051Y2441D01*
X1078Y2441D02*
X1085Y2441D01*
X926Y2440D02*
X932Y2440D01*
X976Y2440D02*
X982Y2440D01*
X998Y2440D02*
X1004Y2440D01*
X1026Y2440D02*
X1032Y2440D01*
X1044Y2440D02*
X1050Y2440D01*
X1079Y2440D02*
X1085Y2440D01*
X926Y2439D02*
X932Y2439D01*
X976Y2439D02*
X982Y2439D01*
X998Y2439D02*
X1004Y2439D01*
X1026Y2439D02*
X1032Y2439D01*
X1044Y2439D02*
X1050Y2439D01*
X1079Y2439D02*
X1085Y2439D01*
X926Y2438D02*
X932Y2438D01*
X976Y2438D02*
X982Y2438D01*
X998Y2438D02*
X1004Y2438D01*
X1026Y2438D02*
X1032Y2438D01*
X1044Y2438D02*
X1050Y2438D01*
X1079Y2438D02*
X1085Y2438D01*
X926Y2437D02*
X932Y2437D01*
X975Y2437D02*
X982Y2437D01*
X998Y2437D02*
X1004Y2437D01*
X1026Y2437D02*
X1032Y2437D01*
X1043Y2437D02*
X1050Y2437D01*
X1079Y2437D02*
X1085Y2437D01*
X926Y2436D02*
X932Y2436D01*
X974Y2436D02*
X982Y2436D01*
X998Y2436D02*
X1004Y2436D01*
X1026Y2436D02*
X1032Y2436D01*
X1043Y2436D02*
X1049Y2436D01*
X1080Y2436D02*
X1086Y2436D01*
X926Y2435D02*
X932Y2435D01*
X973Y2435D02*
X982Y2435D01*
X998Y2435D02*
X1004Y2435D01*
X1026Y2435D02*
X1032Y2435D01*
X1043Y2435D02*
X1049Y2435D01*
X1080Y2435D02*
X1086Y2435D01*
X926Y2434D02*
X932Y2434D01*
X972Y2434D02*
X981Y2434D01*
X998Y2434D02*
X1004Y2434D01*
X1026Y2434D02*
X1032Y2434D01*
X1043Y2434D02*
X1049Y2434D01*
X1080Y2434D02*
X1086Y2434D01*
X903Y2433D02*
X932Y2433D01*
X971Y2433D02*
X980Y2433D01*
X998Y2433D02*
X1004Y2433D01*
X1026Y2433D02*
X1032Y2433D01*
X1043Y2433D02*
X1049Y2433D01*
X1080Y2433D02*
X1086Y2433D01*
X901Y2432D02*
X932Y2432D01*
X969Y2432D02*
X979Y2432D01*
X998Y2432D02*
X1004Y2432D01*
X1026Y2432D02*
X1032Y2432D01*
X1043Y2432D02*
X1049Y2432D01*
X1080Y2432D02*
X1086Y2432D01*
X900Y2431D02*
X932Y2431D01*
X968Y2431D02*
X978Y2431D01*
X998Y2431D02*
X1004Y2431D01*
X1026Y2431D02*
X1032Y2431D01*
X1043Y2431D02*
X1049Y2431D01*
X1080Y2431D02*
X1086Y2431D01*
X899Y2430D02*
X931Y2430D01*
X967Y2430D02*
X977Y2430D01*
X998Y2430D02*
X1004Y2430D01*
X1026Y2430D02*
X1032Y2430D01*
X1043Y2430D02*
X1049Y2430D01*
X1080Y2430D02*
X1086Y2430D01*
X899Y2429D02*
X930Y2429D01*
X966Y2429D02*
X976Y2429D01*
X998Y2429D02*
X1004Y2429D01*
X1026Y2429D02*
X1032Y2429D01*
X1044Y2429D02*
X1050Y2429D01*
X1079Y2429D02*
X1085Y2429D01*
X899Y2428D02*
X929Y2428D01*
X965Y2428D02*
X975Y2428D01*
X998Y2428D02*
X1004Y2428D01*
X1026Y2428D02*
X1032Y2428D01*
X1044Y2428D02*
X1050Y2428D01*
X1079Y2428D02*
X1085Y2428D01*
X898Y2427D02*
X927Y2427D01*
X964Y2427D02*
X973Y2427D01*
X998Y2427D02*
X1004Y2427D01*
X1026Y2427D02*
X1032Y2427D01*
X1044Y2427D02*
X1050Y2427D01*
X1079Y2427D02*
X1085Y2427D01*
X898Y2426D02*
X904Y2426D01*
X963Y2426D02*
X972Y2426D01*
X998Y2426D02*
X1004Y2426D01*
X1026Y2426D02*
X1032Y2426D01*
X1044Y2426D02*
X1050Y2426D01*
X1079Y2426D02*
X1085Y2426D01*
X898Y2425D02*
X904Y2425D01*
X962Y2425D02*
X971Y2425D01*
X998Y2425D02*
X1004Y2425D01*
X1026Y2425D02*
X1032Y2425D01*
X1045Y2425D02*
X1051Y2425D01*
X1078Y2425D02*
X1084Y2425D01*
X898Y2424D02*
X904Y2424D01*
X962Y2424D02*
X970Y2424D01*
X998Y2424D02*
X1004Y2424D01*
X1026Y2424D02*
X1032Y2424D01*
X1045Y2424D02*
X1051Y2424D01*
X1078Y2424D02*
X1084Y2424D01*
X898Y2423D02*
X904Y2423D01*
X962Y2423D02*
X969Y2423D01*
X998Y2423D02*
X1004Y2423D01*
X1026Y2423D02*
X1032Y2423D01*
X1046Y2423D02*
X1052Y2423D01*
X1077Y2423D02*
X1083Y2423D01*
X898Y2422D02*
X904Y2422D01*
X962Y2422D02*
X968Y2422D01*
X998Y2422D02*
X1004Y2422D01*
X1026Y2422D02*
X1032Y2422D01*
X1046Y2422D02*
X1053Y2422D01*
X1076Y2422D02*
X1083Y2422D01*
X898Y2421D02*
X904Y2421D01*
X962Y2421D02*
X968Y2421D01*
X998Y2421D02*
X1004Y2421D01*
X1026Y2421D02*
X1032Y2421D01*
X1047Y2421D02*
X1054Y2421D01*
X1076Y2421D02*
X1082Y2421D01*
X898Y2420D02*
X904Y2420D01*
X962Y2420D02*
X968Y2420D01*
X998Y2420D02*
X1004Y2420D01*
X1026Y2420D02*
X1032Y2420D01*
X1048Y2420D02*
X1055Y2420D01*
X1074Y2420D02*
X1082Y2420D01*
X898Y2419D02*
X904Y2419D01*
X962Y2419D02*
X968Y2419D01*
X998Y2419D02*
X1004Y2419D01*
X1026Y2419D02*
X1032Y2419D01*
X1048Y2419D02*
X1056Y2419D01*
X1073Y2419D02*
X1081Y2419D01*
X898Y2418D02*
X904Y2418D01*
X962Y2418D02*
X968Y2418D01*
X998Y2418D02*
X1004Y2418D01*
X1026Y2418D02*
X1032Y2418D01*
X1049Y2418D02*
X1057Y2418D01*
X1072Y2418D02*
X1080Y2418D01*
X898Y2417D02*
X904Y2417D01*
X962Y2417D02*
X968Y2417D01*
X998Y2417D02*
X1004Y2417D01*
X1026Y2417D02*
X1032Y2417D01*
X1050Y2417D02*
X1059Y2417D01*
X1070Y2417D02*
X1079Y2417D01*
X898Y2416D02*
X904Y2416D01*
X962Y2416D02*
X968Y2416D01*
X998Y2416D02*
X1004Y2416D01*
X1026Y2416D02*
X1032Y2416D01*
X1051Y2416D02*
X1060Y2416D01*
X1069Y2416D02*
X1078Y2416D01*
X898Y2415D02*
X904Y2415D01*
X962Y2415D02*
X968Y2415D01*
X998Y2415D02*
X1004Y2415D01*
X1026Y2415D02*
X1032Y2415D01*
X1053Y2415D02*
X1060Y2415D01*
X1069Y2415D02*
X1077Y2415D01*
X898Y2414D02*
X904Y2414D01*
X962Y2414D02*
X968Y2414D01*
X998Y2414D02*
X1004Y2414D01*
X1026Y2414D02*
X1032Y2414D01*
X1054Y2414D02*
X1060Y2414D01*
X1069Y2414D02*
X1075Y2414D01*
X898Y2413D02*
X904Y2413D01*
X962Y2413D02*
X968Y2413D01*
X998Y2413D02*
X1004Y2413D01*
X1026Y2413D02*
X1032Y2413D01*
X1055Y2413D02*
X1060Y2413D01*
X1069Y2413D02*
X1074Y2413D01*
X898Y2412D02*
X904Y2412D01*
X962Y2412D02*
X968Y2412D01*
X998Y2412D02*
X1004Y2412D01*
X1026Y2412D02*
X1032Y2412D01*
X1055Y2412D02*
X1060Y2412D01*
X1069Y2412D02*
X1074Y2412D01*
X898Y2411D02*
X904Y2411D01*
X962Y2411D02*
X968Y2411D01*
X998Y2411D02*
X1004Y2411D01*
X1026Y2411D02*
X1032Y2411D01*
X1055Y2411D02*
X1060Y2411D01*
X1069Y2411D02*
X1074Y2411D01*
X898Y2410D02*
X929Y2410D01*
X962Y2410D02*
X968Y2410D01*
X998Y2410D02*
X1032Y2410D01*
X1055Y2410D02*
X1060Y2410D01*
X1069Y2410D02*
X1074Y2410D01*
X898Y2409D02*
X931Y2409D01*
X962Y2409D02*
X968Y2409D01*
X999Y2409D02*
X1032Y2409D01*
X1055Y2409D02*
X1060Y2409D01*
X1069Y2409D02*
X1074Y2409D01*
X898Y2408D02*
X932Y2408D01*
X962Y2408D02*
X968Y2408D01*
X999Y2408D02*
X1032Y2408D01*
X1042Y2408D02*
X1060Y2408D01*
X1069Y2408D02*
X1087Y2408D01*
X898Y2407D02*
X932Y2407D01*
X962Y2407D02*
X968Y2407D01*
X999Y2407D02*
X1031Y2407D01*
X1042Y2407D02*
X1060Y2407D01*
X1069Y2407D02*
X1087Y2407D01*
X898Y2406D02*
X932Y2406D01*
X962Y2406D02*
X968Y2406D01*
X1000Y2406D02*
X1031Y2406D01*
X1042Y2406D02*
X1060Y2406D01*
X1069Y2406D02*
X1087Y2406D01*
X898Y2405D02*
X932Y2405D01*
X963Y2405D02*
X968Y2405D01*
X1001Y2405D02*
X1030Y2405D01*
X1042Y2405D02*
X1060Y2405D01*
X1069Y2405D02*
X1087Y2405D01*
X898Y2404D02*
X931Y2404D01*
X963Y2404D02*
X967Y2404D01*
X1002Y2404D02*
X1028Y2404D01*
X1042Y2404D02*
X1060Y2404D01*
X1069Y2404D02*
X1087Y2404D01*
X2559Y2382D02*
X2575Y2382D01*
X2656Y2382D02*
X2668Y2382D01*
X2716Y2382D02*
X2735Y2382D01*
X2467Y2381D02*
X2471Y2381D01*
X2509Y2381D02*
X2512Y2381D01*
X2556Y2381D02*
X2579Y2381D01*
X2653Y2381D02*
X2672Y2381D01*
X2711Y2381D02*
X2736Y2381D01*
X2467Y2380D02*
X2472Y2380D01*
X2508Y2380D02*
X2513Y2380D01*
X2555Y2380D02*
X2581Y2380D01*
X2653Y2380D02*
X2674Y2380D01*
X2709Y2380D02*
X2736Y2380D01*
X2466Y2379D02*
X2472Y2379D01*
X2508Y2379D02*
X2513Y2379D01*
X2554Y2379D02*
X2584Y2379D01*
X2652Y2379D02*
X2675Y2379D01*
X2708Y2379D02*
X2736Y2379D01*
X2466Y2378D02*
X2472Y2378D01*
X2508Y2378D02*
X2514Y2378D01*
X2553Y2378D02*
X2585Y2378D01*
X2652Y2378D02*
X2676Y2378D01*
X2707Y2378D02*
X2736Y2378D01*
X2466Y2377D02*
X2472Y2377D01*
X2508Y2377D02*
X2514Y2377D01*
X2553Y2377D02*
X2586Y2377D01*
X2653Y2377D02*
X2677Y2377D01*
X2706Y2377D02*
X2736Y2377D01*
X2466Y2376D02*
X2472Y2376D01*
X2508Y2376D02*
X2514Y2376D01*
X2552Y2376D02*
X2586Y2376D01*
X2654Y2376D02*
X2677Y2376D01*
X2705Y2376D02*
X2736Y2376D01*
X2466Y2375D02*
X2472Y2375D01*
X2508Y2375D02*
X2514Y2375D01*
X2552Y2375D02*
X2559Y2375D01*
X2576Y2375D02*
X2586Y2375D01*
X2669Y2375D02*
X2678Y2375D01*
X2704Y2375D02*
X2715Y2375D01*
X2729Y2375D02*
X2736Y2375D01*
X2466Y2374D02*
X2472Y2374D01*
X2508Y2374D02*
X2514Y2374D01*
X2552Y2374D02*
X2558Y2374D01*
X2578Y2374D02*
X2585Y2374D01*
X2671Y2374D02*
X2678Y2374D01*
X2704Y2374D02*
X2712Y2374D01*
X2730Y2374D02*
X2736Y2374D01*
X2466Y2373D02*
X2472Y2373D01*
X2508Y2373D02*
X2514Y2373D01*
X2552Y2373D02*
X2558Y2373D01*
X2581Y2373D02*
X2585Y2373D01*
X2672Y2373D02*
X2679Y2373D01*
X2703Y2373D02*
X2711Y2373D01*
X2730Y2373D02*
X2736Y2373D01*
X2466Y2372D02*
X2472Y2372D01*
X2508Y2372D02*
X2514Y2372D01*
X2552Y2372D02*
X2558Y2372D01*
X2672Y2372D02*
X2679Y2372D01*
X2703Y2372D02*
X2710Y2372D01*
X2730Y2372D02*
X2736Y2372D01*
X2466Y2371D02*
X2472Y2371D01*
X2508Y2371D02*
X2514Y2371D01*
X2552Y2371D02*
X2558Y2371D01*
X2673Y2371D02*
X2680Y2371D01*
X2703Y2371D02*
X2709Y2371D01*
X2730Y2371D02*
X2736Y2371D01*
X2466Y2370D02*
X2472Y2370D01*
X2508Y2370D02*
X2514Y2370D01*
X2552Y2370D02*
X2558Y2370D01*
X2673Y2370D02*
X2680Y2370D01*
X2703Y2370D02*
X2709Y2370D01*
X2730Y2370D02*
X2736Y2370D01*
X2466Y2369D02*
X2472Y2369D01*
X2508Y2369D02*
X2514Y2369D01*
X2552Y2369D02*
X2558Y2369D01*
X2674Y2369D02*
X2681Y2369D01*
X2702Y2369D02*
X2708Y2369D01*
X2730Y2369D02*
X2736Y2369D01*
X2466Y2368D02*
X2472Y2368D01*
X2508Y2368D02*
X2514Y2368D01*
X2552Y2368D02*
X2558Y2368D01*
X2674Y2368D02*
X2681Y2368D01*
X2702Y2368D02*
X2708Y2368D01*
X2730Y2368D02*
X2736Y2368D01*
X2466Y2367D02*
X2472Y2367D01*
X2508Y2367D02*
X2514Y2367D01*
X2552Y2367D02*
X2558Y2367D01*
X2675Y2367D02*
X2682Y2367D01*
X2702Y2367D02*
X2708Y2367D01*
X2730Y2367D02*
X2736Y2367D01*
X2466Y2366D02*
X2472Y2366D01*
X2508Y2366D02*
X2514Y2366D01*
X2552Y2366D02*
X2558Y2366D01*
X2675Y2366D02*
X2682Y2366D01*
X2702Y2366D02*
X2708Y2366D01*
X2730Y2366D02*
X2736Y2366D01*
X2466Y2365D02*
X2472Y2365D01*
X2508Y2365D02*
X2514Y2365D01*
X2552Y2365D02*
X2558Y2365D01*
X2676Y2365D02*
X2683Y2365D01*
X2702Y2365D02*
X2708Y2365D01*
X2730Y2365D02*
X2736Y2365D01*
X2466Y2364D02*
X2472Y2364D01*
X2506Y2364D02*
X2534Y2364D01*
X2552Y2364D02*
X2558Y2364D01*
X2676Y2364D02*
X2683Y2364D01*
X2702Y2364D02*
X2709Y2364D01*
X2730Y2364D02*
X2736Y2364D01*
X2466Y2363D02*
X2472Y2363D01*
X2505Y2363D02*
X2534Y2363D01*
X2552Y2363D02*
X2558Y2363D01*
X2677Y2363D02*
X2684Y2363D01*
X2703Y2363D02*
X2709Y2363D01*
X2730Y2363D02*
X2736Y2363D01*
X2466Y2362D02*
X2472Y2362D01*
X2504Y2362D02*
X2534Y2362D01*
X2552Y2362D02*
X2558Y2362D01*
X2677Y2362D02*
X2684Y2362D01*
X2703Y2362D02*
X2709Y2362D01*
X2730Y2362D02*
X2736Y2362D01*
X2464Y2361D02*
X2472Y2361D01*
X2504Y2361D02*
X2534Y2361D01*
X2552Y2361D02*
X2558Y2361D01*
X2678Y2361D02*
X2685Y2361D01*
X2703Y2361D02*
X2710Y2361D01*
X2730Y2361D02*
X2736Y2361D01*
X2463Y2360D02*
X2472Y2360D01*
X2504Y2360D02*
X2534Y2360D01*
X2552Y2360D02*
X2558Y2360D01*
X2678Y2360D02*
X2685Y2360D01*
X2703Y2360D02*
X2711Y2360D01*
X2730Y2360D02*
X2736Y2360D01*
X2462Y2359D02*
X2472Y2359D01*
X2505Y2359D02*
X2534Y2359D01*
X2552Y2359D02*
X2558Y2359D01*
X2679Y2359D02*
X2685Y2359D01*
X2704Y2359D02*
X2713Y2359D01*
X2730Y2359D02*
X2736Y2359D01*
X2461Y2358D02*
X2471Y2358D01*
X2506Y2358D02*
X2534Y2358D01*
X2552Y2358D02*
X2579Y2358D01*
X2679Y2358D02*
X2686Y2358D01*
X2705Y2358D02*
X2736Y2358D01*
X2460Y2357D02*
X2470Y2357D01*
X2507Y2357D02*
X2514Y2357D01*
X2528Y2357D02*
X2534Y2357D01*
X2552Y2357D02*
X2579Y2357D01*
X2680Y2357D02*
X2686Y2357D01*
X2705Y2357D02*
X2736Y2357D01*
X2459Y2356D02*
X2468Y2356D01*
X2508Y2356D02*
X2514Y2356D01*
X2528Y2356D02*
X2534Y2356D01*
X2553Y2356D02*
X2579Y2356D01*
X2680Y2356D02*
X2686Y2356D01*
X2706Y2356D02*
X2736Y2356D01*
X2457Y2355D02*
X2467Y2355D01*
X2508Y2355D02*
X2514Y2355D01*
X2528Y2355D02*
X2534Y2355D01*
X2553Y2355D02*
X2579Y2355D01*
X2680Y2355D02*
X2686Y2355D01*
X2707Y2355D02*
X2736Y2355D01*
X2456Y2354D02*
X2466Y2354D01*
X2508Y2354D02*
X2514Y2354D01*
X2528Y2354D02*
X2534Y2354D01*
X2554Y2354D02*
X2579Y2354D01*
X2680Y2354D02*
X2686Y2354D01*
X2706Y2354D02*
X2736Y2354D01*
X2455Y2353D02*
X2465Y2353D01*
X2508Y2353D02*
X2514Y2353D01*
X2528Y2353D02*
X2534Y2353D01*
X2555Y2353D02*
X2579Y2353D01*
X2680Y2353D02*
X2686Y2353D01*
X2705Y2353D02*
X2736Y2353D01*
X2454Y2352D02*
X2464Y2352D01*
X2508Y2352D02*
X2514Y2352D01*
X2528Y2352D02*
X2534Y2352D01*
X2557Y2352D02*
X2579Y2352D01*
X2679Y2352D02*
X2686Y2352D01*
X2705Y2352D02*
X2736Y2352D01*
X2453Y2351D02*
X2462Y2351D01*
X2508Y2351D02*
X2514Y2351D01*
X2528Y2351D02*
X2534Y2351D01*
X2573Y2351D02*
X2579Y2351D01*
X2679Y2351D02*
X2685Y2351D01*
X2704Y2351D02*
X2713Y2351D01*
X2730Y2351D02*
X2736Y2351D01*
X2453Y2350D02*
X2461Y2350D01*
X2508Y2350D02*
X2514Y2350D01*
X2528Y2350D02*
X2534Y2350D01*
X2573Y2350D02*
X2579Y2350D01*
X2679Y2350D02*
X2685Y2350D01*
X2703Y2350D02*
X2711Y2350D01*
X2730Y2350D02*
X2736Y2350D01*
X2452Y2349D02*
X2460Y2349D01*
X2508Y2349D02*
X2514Y2349D01*
X2528Y2349D02*
X2534Y2349D01*
X2573Y2349D02*
X2579Y2349D01*
X2678Y2349D02*
X2685Y2349D01*
X2703Y2349D02*
X2710Y2349D01*
X2730Y2349D02*
X2736Y2349D01*
X2452Y2348D02*
X2459Y2348D01*
X2508Y2348D02*
X2514Y2348D01*
X2528Y2348D02*
X2534Y2348D01*
X2573Y2348D02*
X2579Y2348D01*
X2677Y2348D02*
X2684Y2348D01*
X2703Y2348D02*
X2709Y2348D01*
X2730Y2348D02*
X2736Y2348D01*
X2452Y2347D02*
X2458Y2347D01*
X2508Y2347D02*
X2514Y2347D01*
X2528Y2347D02*
X2534Y2347D01*
X2573Y2347D02*
X2579Y2347D01*
X2677Y2347D02*
X2684Y2347D01*
X2703Y2347D02*
X2709Y2347D01*
X2730Y2347D02*
X2736Y2347D01*
X2452Y2346D02*
X2458Y2346D01*
X2508Y2346D02*
X2514Y2346D01*
X2528Y2346D02*
X2534Y2346D01*
X2573Y2346D02*
X2579Y2346D01*
X2676Y2346D02*
X2683Y2346D01*
X2702Y2346D02*
X2709Y2346D01*
X2730Y2346D02*
X2736Y2346D01*
X2452Y2345D02*
X2458Y2345D01*
X2508Y2345D02*
X2514Y2345D01*
X2528Y2345D02*
X2534Y2345D01*
X2573Y2345D02*
X2579Y2345D01*
X2676Y2345D02*
X2683Y2345D01*
X2702Y2345D02*
X2708Y2345D01*
X2730Y2345D02*
X2736Y2345D01*
X2452Y2344D02*
X2458Y2344D01*
X2508Y2344D02*
X2514Y2344D01*
X2528Y2344D02*
X2534Y2344D01*
X2573Y2344D02*
X2579Y2344D01*
X2675Y2344D02*
X2682Y2344D01*
X2702Y2344D02*
X2708Y2344D01*
X2730Y2344D02*
X2736Y2344D01*
X2452Y2343D02*
X2458Y2343D01*
X2508Y2343D02*
X2514Y2343D01*
X2528Y2343D02*
X2534Y2343D01*
X2573Y2343D02*
X2579Y2343D01*
X2675Y2343D02*
X2682Y2343D01*
X2702Y2343D02*
X2708Y2343D01*
X2730Y2343D02*
X2736Y2343D01*
X2452Y2342D02*
X2458Y2342D01*
X2508Y2342D02*
X2514Y2342D01*
X2528Y2342D02*
X2534Y2342D01*
X2573Y2342D02*
X2579Y2342D01*
X2674Y2342D02*
X2681Y2342D01*
X2702Y2342D02*
X2708Y2342D01*
X2730Y2342D02*
X2736Y2342D01*
X2452Y2341D02*
X2458Y2341D01*
X2508Y2341D02*
X2514Y2341D01*
X2528Y2341D02*
X2534Y2341D01*
X2573Y2341D02*
X2579Y2341D01*
X2674Y2341D02*
X2681Y2341D01*
X2702Y2341D02*
X2708Y2341D01*
X2730Y2341D02*
X2736Y2341D01*
X2452Y2340D02*
X2458Y2340D01*
X2508Y2340D02*
X2514Y2340D01*
X2528Y2340D02*
X2534Y2340D01*
X2573Y2340D02*
X2579Y2340D01*
X2673Y2340D02*
X2680Y2340D01*
X2702Y2340D02*
X2709Y2340D01*
X2730Y2340D02*
X2736Y2340D01*
X2452Y2339D02*
X2458Y2339D01*
X2508Y2339D02*
X2514Y2339D01*
X2528Y2339D02*
X2534Y2339D01*
X2573Y2339D02*
X2579Y2339D01*
X2673Y2339D02*
X2680Y2339D01*
X2703Y2339D02*
X2709Y2339D01*
X2730Y2339D02*
X2736Y2339D01*
X2452Y2338D02*
X2458Y2338D01*
X2508Y2338D02*
X2514Y2338D01*
X2528Y2338D02*
X2534Y2338D01*
X2573Y2338D02*
X2579Y2338D01*
X2672Y2338D02*
X2679Y2338D01*
X2703Y2338D02*
X2710Y2338D01*
X2730Y2338D02*
X2736Y2338D01*
X2452Y2337D02*
X2458Y2337D01*
X2481Y2337D02*
X2485Y2337D01*
X2508Y2337D02*
X2513Y2337D01*
X2528Y2337D02*
X2534Y2337D01*
X2573Y2337D02*
X2579Y2337D01*
X2672Y2337D02*
X2679Y2337D01*
X2703Y2337D02*
X2710Y2337D01*
X2730Y2337D02*
X2736Y2337D01*
X2452Y2336D02*
X2458Y2336D01*
X2480Y2336D02*
X2485Y2336D01*
X2508Y2336D02*
X2513Y2336D01*
X2528Y2336D02*
X2534Y2336D01*
X2573Y2336D02*
X2579Y2336D01*
X2671Y2336D02*
X2678Y2336D01*
X2704Y2336D02*
X2712Y2336D01*
X2730Y2336D02*
X2736Y2336D01*
X2452Y2335D02*
X2459Y2335D01*
X2480Y2335D02*
X2486Y2335D01*
X2508Y2335D02*
X2513Y2335D01*
X2528Y2335D02*
X2534Y2335D01*
X2573Y2335D02*
X2579Y2335D01*
X2669Y2335D02*
X2678Y2335D01*
X2704Y2335D02*
X2714Y2335D01*
X2730Y2335D02*
X2736Y2335D01*
X2452Y2334D02*
X2486Y2334D01*
X2510Y2334D02*
X2511Y2334D01*
X2528Y2334D02*
X2534Y2334D01*
X2554Y2334D02*
X2579Y2334D01*
X2654Y2334D02*
X2677Y2334D01*
X2705Y2334D02*
X2736Y2334D01*
X2452Y2333D02*
X2486Y2333D01*
X2528Y2333D02*
X2534Y2333D01*
X2553Y2333D02*
X2579Y2333D01*
X2653Y2333D02*
X2677Y2333D01*
X2706Y2333D02*
X2736Y2333D01*
X2452Y2332D02*
X2486Y2332D01*
X2528Y2332D02*
X2534Y2332D01*
X2552Y2332D02*
X2579Y2332D01*
X2652Y2332D02*
X2676Y2332D01*
X2707Y2332D02*
X2736Y2332D01*
X2452Y2331D02*
X2486Y2331D01*
X2528Y2331D02*
X2534Y2331D01*
X2552Y2331D02*
X2579Y2331D01*
X2652Y2331D02*
X2675Y2331D01*
X2708Y2331D02*
X2736Y2331D01*
X2452Y2330D02*
X2486Y2330D01*
X2529Y2330D02*
X2534Y2330D01*
X2553Y2330D02*
X2579Y2330D01*
X2653Y2330D02*
X2674Y2330D01*
X2709Y2330D02*
X2736Y2330D01*
X2452Y2329D02*
X2485Y2329D01*
X2529Y2329D02*
X2533Y2329D01*
X2553Y2329D02*
X2579Y2329D01*
X2653Y2329D02*
X2672Y2329D01*
X2711Y2329D02*
X2736Y2329D01*
X2453Y2328D02*
X2483Y2328D01*
X2531Y2328D02*
X2531Y2328D01*
X2555Y2328D02*
X2579Y2328D01*
X2655Y2328D02*
X2669Y2328D01*
X2715Y2328D02*
X2736Y2328D01*
X3515Y2255D02*
X3516Y2255D01*
X3513Y2254D02*
X3518Y2254D01*
X3513Y2253D02*
X3518Y2253D01*
X3512Y2252D02*
X3518Y2252D01*
X3607Y2252D02*
X3609Y2252D01*
X3512Y2251D02*
X3519Y2251D01*
X3606Y2251D02*
X3611Y2251D01*
X3512Y2250D02*
X3519Y2250D01*
X3606Y2250D02*
X3611Y2250D01*
X3511Y2249D02*
X3519Y2249D01*
X3606Y2249D02*
X3611Y2249D01*
X3511Y2248D02*
X3520Y2248D01*
X3605Y2248D02*
X3612Y2248D01*
X3511Y2247D02*
X3520Y2247D01*
X3605Y2247D02*
X3612Y2247D01*
X3511Y2246D02*
X3520Y2246D01*
X3605Y2246D02*
X3612Y2246D01*
X3510Y2245D02*
X3521Y2245D01*
X3605Y2245D02*
X3612Y2245D01*
X3510Y2244D02*
X3521Y2244D01*
X3605Y2244D02*
X3612Y2244D01*
X3510Y2243D02*
X3521Y2243D01*
X3605Y2243D02*
X3612Y2243D01*
X3509Y2242D02*
X3521Y2242D01*
X3605Y2242D02*
X3612Y2242D01*
X3509Y2241D02*
X3522Y2241D01*
X3605Y2241D02*
X3612Y2241D01*
X3509Y2240D02*
X3522Y2240D01*
X3550Y2240D02*
X3553Y2240D01*
X3565Y2240D02*
X3574Y2240D01*
X3600Y2240D02*
X3627Y2240D01*
X3508Y2239D02*
X3522Y2239D01*
X3549Y2239D02*
X3554Y2239D01*
X3562Y2239D02*
X3576Y2239D01*
X3599Y2239D02*
X3628Y2239D01*
X3508Y2238D02*
X3514Y2238D01*
X3516Y2238D02*
X3523Y2238D01*
X3549Y2238D02*
X3554Y2238D01*
X3561Y2238D02*
X3578Y2238D01*
X3599Y2238D02*
X3628Y2238D01*
X3508Y2237D02*
X3514Y2237D01*
X3517Y2237D02*
X3523Y2237D01*
X3549Y2237D02*
X3555Y2237D01*
X3559Y2237D02*
X3579Y2237D01*
X3599Y2237D02*
X3629Y2237D01*
X3508Y2236D02*
X3514Y2236D01*
X3517Y2236D02*
X3523Y2236D01*
X3549Y2236D02*
X3555Y2236D01*
X3558Y2236D02*
X3579Y2236D01*
X3599Y2236D02*
X3628Y2236D01*
X3507Y2235D02*
X3514Y2235D01*
X3517Y2235D02*
X3523Y2235D01*
X3549Y2235D02*
X3580Y2235D01*
X3599Y2235D02*
X3628Y2235D01*
X3507Y2234D02*
X3513Y2234D01*
X3517Y2234D02*
X3524Y2234D01*
X3549Y2234D02*
X3581Y2234D01*
X3601Y2234D02*
X3627Y2234D01*
X3507Y2233D02*
X3513Y2233D01*
X3518Y2233D02*
X3524Y2233D01*
X3549Y2233D02*
X3565Y2233D01*
X3574Y2233D02*
X3581Y2233D01*
X3605Y2233D02*
X3612Y2233D01*
X3506Y2232D02*
X3513Y2232D01*
X3518Y2232D02*
X3524Y2232D01*
X3549Y2232D02*
X3564Y2232D01*
X3575Y2232D02*
X3581Y2232D01*
X3605Y2232D02*
X3612Y2232D01*
X3506Y2231D02*
X3512Y2231D01*
X3518Y2231D02*
X3525Y2231D01*
X3549Y2231D02*
X3562Y2231D01*
X3575Y2231D02*
X3581Y2231D01*
X3605Y2231D02*
X3612Y2231D01*
X3506Y2230D02*
X3512Y2230D01*
X3519Y2230D02*
X3525Y2230D01*
X3549Y2230D02*
X3560Y2230D01*
X3575Y2230D02*
X3581Y2230D01*
X3605Y2230D02*
X3612Y2230D01*
X3506Y2229D02*
X3512Y2229D01*
X3519Y2229D02*
X3525Y2229D01*
X3549Y2229D02*
X3559Y2229D01*
X3575Y2229D02*
X3581Y2229D01*
X3605Y2229D02*
X3612Y2229D01*
X3505Y2228D02*
X3512Y2228D01*
X3519Y2228D02*
X3525Y2228D01*
X3549Y2228D02*
X3557Y2228D01*
X3575Y2228D02*
X3581Y2228D01*
X3605Y2228D02*
X3612Y2228D01*
X3505Y2227D02*
X3511Y2227D01*
X3519Y2227D02*
X3526Y2227D01*
X3549Y2227D02*
X3556Y2227D01*
X3575Y2227D02*
X3581Y2227D01*
X3605Y2227D02*
X3612Y2227D01*
X3505Y2226D02*
X3511Y2226D01*
X3520Y2226D02*
X3526Y2226D01*
X3549Y2226D02*
X3555Y2226D01*
X3575Y2226D02*
X3581Y2226D01*
X3605Y2226D02*
X3612Y2226D01*
X3504Y2225D02*
X3511Y2225D01*
X3520Y2225D02*
X3526Y2225D01*
X3549Y2225D02*
X3555Y2225D01*
X3575Y2225D02*
X3581Y2225D01*
X3605Y2225D02*
X3612Y2225D01*
X3504Y2224D02*
X3510Y2224D01*
X3520Y2224D02*
X3527Y2224D01*
X3549Y2224D02*
X3555Y2224D01*
X3575Y2224D02*
X3582Y2224D01*
X3605Y2224D02*
X3612Y2224D01*
X3504Y2223D02*
X3510Y2223D01*
X3521Y2223D02*
X3527Y2223D01*
X3549Y2223D02*
X3555Y2223D01*
X3576Y2223D02*
X3582Y2223D01*
X3605Y2223D02*
X3612Y2223D01*
X3503Y2222D02*
X3510Y2222D01*
X3521Y2222D02*
X3527Y2222D01*
X3549Y2222D02*
X3555Y2222D01*
X3576Y2222D02*
X3582Y2222D01*
X3605Y2222D02*
X3612Y2222D01*
X3503Y2221D02*
X3510Y2221D01*
X3521Y2221D02*
X3528Y2221D01*
X3549Y2221D02*
X3555Y2221D01*
X3576Y2221D02*
X3582Y2221D01*
X3605Y2221D02*
X3612Y2221D01*
X3503Y2220D02*
X3510Y2220D01*
X3521Y2220D02*
X3528Y2220D01*
X3549Y2220D02*
X3555Y2220D01*
X3576Y2220D02*
X3582Y2220D01*
X3605Y2220D02*
X3612Y2220D01*
X3503Y2219D02*
X3528Y2219D01*
X3549Y2219D02*
X3555Y2219D01*
X3576Y2219D02*
X3582Y2219D01*
X3605Y2219D02*
X3612Y2219D01*
X3502Y2218D02*
X3528Y2218D01*
X3549Y2218D02*
X3555Y2218D01*
X3576Y2218D02*
X3582Y2218D01*
X3605Y2218D02*
X3612Y2218D01*
X3502Y2217D02*
X3529Y2217D01*
X3549Y2217D02*
X3555Y2217D01*
X3576Y2217D02*
X3582Y2217D01*
X3605Y2217D02*
X3612Y2217D01*
X3502Y2216D02*
X3529Y2216D01*
X3549Y2216D02*
X3555Y2216D01*
X3576Y2216D02*
X3582Y2216D01*
X3605Y2216D02*
X3612Y2216D01*
X3501Y2215D02*
X3529Y2215D01*
X3549Y2215D02*
X3555Y2215D01*
X3576Y2215D02*
X3582Y2215D01*
X3605Y2215D02*
X3612Y2215D01*
X3501Y2214D02*
X3530Y2214D01*
X3549Y2214D02*
X3555Y2214D01*
X3576Y2214D02*
X3582Y2214D01*
X3605Y2214D02*
X3612Y2214D01*
X3629Y2214D02*
X3629Y2214D01*
X3501Y2213D02*
X3530Y2213D01*
X3549Y2213D02*
X3555Y2213D01*
X3576Y2213D02*
X3582Y2213D01*
X3605Y2213D02*
X3612Y2213D01*
X3627Y2213D02*
X3631Y2213D01*
X3501Y2212D02*
X3507Y2212D01*
X3524Y2212D02*
X3530Y2212D01*
X3549Y2212D02*
X3555Y2212D01*
X3576Y2212D02*
X3582Y2212D01*
X3605Y2212D02*
X3612Y2212D01*
X3627Y2212D02*
X3632Y2212D01*
X3500Y2211D02*
X3507Y2211D01*
X3524Y2211D02*
X3530Y2211D01*
X3549Y2211D02*
X3555Y2211D01*
X3576Y2211D02*
X3582Y2211D01*
X3606Y2211D02*
X3612Y2211D01*
X3626Y2211D02*
X3632Y2211D01*
X3500Y2210D02*
X3506Y2210D01*
X3524Y2210D02*
X3531Y2210D01*
X3549Y2210D02*
X3555Y2210D01*
X3576Y2210D02*
X3582Y2210D01*
X3606Y2210D02*
X3612Y2210D01*
X3626Y2210D02*
X3632Y2210D01*
X3500Y2209D02*
X3506Y2209D01*
X3525Y2209D02*
X3531Y2209D01*
X3549Y2209D02*
X3555Y2209D01*
X3576Y2209D02*
X3582Y2209D01*
X3606Y2209D02*
X3613Y2209D01*
X3625Y2209D02*
X3632Y2209D01*
X3499Y2208D02*
X3506Y2208D01*
X3525Y2208D02*
X3531Y2208D01*
X3549Y2208D02*
X3555Y2208D01*
X3576Y2208D02*
X3582Y2208D01*
X3606Y2208D02*
X3632Y2208D01*
X3499Y2207D02*
X3505Y2207D01*
X3525Y2207D02*
X3532Y2207D01*
X3549Y2207D02*
X3555Y2207D01*
X3576Y2207D02*
X3582Y2207D01*
X3607Y2207D02*
X3631Y2207D01*
X3499Y2206D02*
X3505Y2206D01*
X3526Y2206D02*
X3532Y2206D01*
X3549Y2206D02*
X3555Y2206D01*
X3576Y2206D02*
X3582Y2206D01*
X3607Y2206D02*
X3631Y2206D01*
X3499Y2205D02*
X3505Y2205D01*
X3526Y2205D02*
X3532Y2205D01*
X3549Y2205D02*
X3555Y2205D01*
X3576Y2205D02*
X3582Y2205D01*
X3608Y2205D02*
X3630Y2205D01*
X3499Y2204D02*
X3505Y2204D01*
X3526Y2204D02*
X3532Y2204D01*
X3549Y2204D02*
X3554Y2204D01*
X3576Y2204D02*
X3582Y2204D01*
X3609Y2204D02*
X3629Y2204D01*
X3499Y2203D02*
X3504Y2203D01*
X3527Y2203D02*
X3532Y2203D01*
X3549Y2203D02*
X3554Y2203D01*
X3577Y2203D02*
X3582Y2203D01*
X3610Y2203D02*
X3628Y2203D01*
X3500Y2202D02*
X3503Y2202D01*
X3527Y2202D02*
X3531Y2202D01*
X3550Y2202D02*
X3553Y2202D01*
X3577Y2202D02*
X3581Y2202D01*
X3612Y2202D02*
X3626Y2202D01*
X2930Y2019D02*
X2959Y2019D01*
X3030Y2019D02*
X3061Y2019D01*
X3080Y2019D02*
X3083Y2019D01*
X2929Y2018D02*
X2960Y2018D01*
X3029Y2018D02*
X3062Y2018D01*
X3079Y2018D02*
X3084Y2018D01*
X2929Y2017D02*
X2961Y2017D01*
X3029Y2017D02*
X3062Y2017D01*
X3079Y2017D02*
X3085Y2017D01*
X3142Y2017D02*
X3148Y2017D01*
X2929Y2016D02*
X2961Y2016D01*
X3029Y2016D02*
X3062Y2016D01*
X3079Y2016D02*
X3085Y2016D01*
X3138Y2016D02*
X3152Y2016D01*
X2929Y2015D02*
X2962Y2015D01*
X3029Y2015D02*
X3062Y2015D01*
X3079Y2015D02*
X3085Y2015D01*
X3135Y2015D02*
X3155Y2015D01*
X2930Y2014D02*
X2962Y2014D01*
X3029Y2014D02*
X3062Y2014D01*
X3079Y2014D02*
X3085Y2014D01*
X3133Y2014D02*
X3157Y2014D01*
X2931Y2013D02*
X2962Y2013D01*
X3029Y2013D02*
X3062Y2013D01*
X3079Y2013D02*
X3085Y2013D01*
X3131Y2013D02*
X3158Y2013D01*
X2956Y2012D02*
X2962Y2012D01*
X3029Y2012D02*
X3035Y2012D01*
X3056Y2012D02*
X3062Y2012D01*
X3079Y2012D02*
X3085Y2012D01*
X3130Y2012D02*
X3159Y2012D01*
X2956Y2011D02*
X2962Y2011D01*
X3029Y2011D02*
X3035Y2011D01*
X3056Y2011D02*
X3062Y2011D01*
X3079Y2011D02*
X3085Y2011D01*
X3129Y2011D02*
X3140Y2011D01*
X3149Y2011D02*
X3160Y2011D01*
X2956Y2010D02*
X2962Y2010D01*
X3029Y2010D02*
X3035Y2010D01*
X3056Y2010D02*
X3062Y2010D01*
X3079Y2010D02*
X3085Y2010D01*
X3128Y2010D02*
X3137Y2010D01*
X3152Y2010D02*
X3161Y2010D01*
X2956Y2009D02*
X2962Y2009D01*
X3029Y2009D02*
X3035Y2009D01*
X3056Y2009D02*
X3062Y2009D01*
X3079Y2009D02*
X3085Y2009D01*
X3127Y2009D02*
X3136Y2009D01*
X3154Y2009D02*
X3162Y2009D01*
X2956Y2008D02*
X2962Y2008D01*
X3029Y2008D02*
X3035Y2008D01*
X3056Y2008D02*
X3062Y2008D01*
X3079Y2008D02*
X3085Y2008D01*
X3127Y2008D02*
X3134Y2008D01*
X3155Y2008D02*
X3163Y2008D01*
X2956Y2007D02*
X2962Y2007D01*
X3029Y2007D02*
X3035Y2007D01*
X3056Y2007D02*
X3062Y2007D01*
X3079Y2007D02*
X3085Y2007D01*
X3126Y2007D02*
X3133Y2007D01*
X3156Y2007D02*
X3163Y2007D01*
X2956Y2006D02*
X2962Y2006D01*
X3029Y2006D02*
X3035Y2006D01*
X3056Y2006D02*
X3062Y2006D01*
X3079Y2006D02*
X3085Y2006D01*
X3126Y2006D02*
X3132Y2006D01*
X3157Y2006D02*
X3164Y2006D01*
X2956Y2005D02*
X2962Y2005D01*
X3029Y2005D02*
X3035Y2005D01*
X3056Y2005D02*
X3062Y2005D01*
X3079Y2005D02*
X3085Y2005D01*
X3105Y2005D02*
X3106Y2005D01*
X3125Y2005D02*
X3132Y2005D01*
X3158Y2005D02*
X3164Y2005D01*
X2956Y2004D02*
X2962Y2004D01*
X3029Y2004D02*
X3035Y2004D01*
X3056Y2004D02*
X3062Y2004D01*
X3079Y2004D02*
X3085Y2004D01*
X3104Y2004D02*
X3108Y2004D01*
X3125Y2004D02*
X3131Y2004D01*
X3158Y2004D02*
X3165Y2004D01*
X2956Y2003D02*
X2962Y2003D01*
X3029Y2003D02*
X3035Y2003D01*
X3056Y2003D02*
X3062Y2003D01*
X3079Y2003D02*
X3085Y2003D01*
X3102Y2003D02*
X3108Y2003D01*
X3124Y2003D02*
X3131Y2003D01*
X3159Y2003D02*
X3165Y2003D01*
X2956Y2002D02*
X2962Y2002D01*
X3029Y2002D02*
X3062Y2002D01*
X3079Y2002D02*
X3085Y2002D01*
X3101Y2002D02*
X3109Y2002D01*
X3124Y2002D02*
X3130Y2002D01*
X3159Y2002D02*
X3165Y2002D01*
X2956Y2001D02*
X2962Y2001D01*
X3029Y2001D02*
X3062Y2001D01*
X3079Y2001D02*
X3085Y2001D01*
X3100Y2001D02*
X3109Y2001D01*
X3124Y2001D02*
X3130Y2001D01*
X3159Y2001D02*
X3166Y2001D01*
X2956Y2000D02*
X2962Y2000D01*
X3029Y2000D02*
X3062Y2000D01*
X3079Y2000D02*
X3085Y2000D01*
X3099Y2000D02*
X3108Y2000D01*
X3124Y2000D02*
X3130Y2000D01*
X3160Y2000D02*
X3166Y2000D01*
X2956Y1999D02*
X2962Y1999D01*
X3029Y1999D02*
X3062Y1999D01*
X3079Y1999D02*
X3085Y1999D01*
X3098Y1999D02*
X3108Y1999D01*
X3124Y1999D02*
X3130Y1999D01*
X3160Y1999D02*
X3166Y1999D01*
X2956Y1998D02*
X2962Y1998D01*
X3029Y1998D02*
X3062Y1998D01*
X3079Y1998D02*
X3085Y1998D01*
X3097Y1998D02*
X3106Y1998D01*
X3124Y1998D02*
X3130Y1998D01*
X3160Y1998D02*
X3166Y1998D01*
X2955Y1997D02*
X2962Y1997D01*
X3029Y1997D02*
X3062Y1997D01*
X3079Y1997D02*
X3085Y1997D01*
X3095Y1997D02*
X3105Y1997D01*
X3123Y1997D02*
X3129Y1997D01*
X3160Y1997D02*
X3166Y1997D01*
X2938Y1996D02*
X2962Y1996D01*
X3030Y1996D02*
X3062Y1996D01*
X3079Y1996D02*
X3085Y1996D01*
X3094Y1996D02*
X3104Y1996D01*
X3123Y1996D02*
X3129Y1996D01*
X3160Y1996D02*
X3166Y1996D01*
X2936Y1995D02*
X2961Y1995D01*
X3056Y1995D02*
X3062Y1995D01*
X3079Y1995D02*
X3085Y1995D01*
X3093Y1995D02*
X3103Y1995D01*
X3123Y1995D02*
X3129Y1995D01*
X3160Y1995D02*
X3166Y1995D01*
X2936Y1994D02*
X2960Y1994D01*
X3056Y1994D02*
X3062Y1994D01*
X3079Y1994D02*
X3085Y1994D01*
X3092Y1994D02*
X3102Y1994D01*
X3124Y1994D02*
X3130Y1994D01*
X3160Y1994D02*
X3166Y1994D01*
X2936Y1993D02*
X2960Y1993D01*
X3056Y1993D02*
X3062Y1993D01*
X3079Y1993D02*
X3085Y1993D01*
X3091Y1993D02*
X3101Y1993D01*
X3124Y1993D02*
X3130Y1993D01*
X3160Y1993D02*
X3166Y1993D01*
X2936Y1992D02*
X2960Y1992D01*
X3056Y1992D02*
X3062Y1992D01*
X3079Y1992D02*
X3085Y1992D01*
X3090Y1992D02*
X3099Y1992D01*
X3124Y1992D02*
X3130Y1992D01*
X3160Y1992D02*
X3166Y1992D01*
X2936Y1991D02*
X2961Y1991D01*
X3056Y1991D02*
X3062Y1991D01*
X3079Y1991D02*
X3085Y1991D01*
X3088Y1991D02*
X3098Y1991D01*
X3124Y1991D02*
X3130Y1991D01*
X3160Y1991D02*
X3165Y1991D01*
X2937Y1990D02*
X2961Y1990D01*
X3056Y1990D02*
X3062Y1990D01*
X3079Y1990D02*
X3085Y1990D01*
X3087Y1990D02*
X3097Y1990D01*
X3124Y1990D02*
X3130Y1990D01*
X3159Y1990D02*
X3165Y1990D01*
X2954Y1989D02*
X2962Y1989D01*
X3056Y1989D02*
X3062Y1989D01*
X3079Y1989D02*
X3096Y1989D01*
X3125Y1989D02*
X3131Y1989D01*
X3159Y1989D02*
X3165Y1989D01*
X2955Y1988D02*
X2962Y1988D01*
X3056Y1988D02*
X3062Y1988D01*
X3079Y1988D02*
X3095Y1988D01*
X3125Y1988D02*
X3131Y1988D01*
X3159Y1988D02*
X3165Y1988D01*
X2956Y1987D02*
X2962Y1987D01*
X2991Y1987D02*
X3000Y1987D01*
X3056Y1987D02*
X3062Y1987D01*
X3079Y1987D02*
X3094Y1987D01*
X3125Y1987D02*
X3131Y1987D01*
X3158Y1987D02*
X3164Y1987D01*
X2956Y1986D02*
X2962Y1986D01*
X2990Y1986D02*
X3001Y1986D01*
X3056Y1986D02*
X3062Y1986D01*
X3079Y1986D02*
X3094Y1986D01*
X3126Y1986D02*
X3132Y1986D01*
X3157Y1986D02*
X3164Y1986D01*
X2956Y1985D02*
X2962Y1985D01*
X2989Y1985D02*
X3002Y1985D01*
X3056Y1985D02*
X3062Y1985D01*
X3079Y1985D02*
X3096Y1985D01*
X3126Y1985D02*
X3133Y1985D01*
X3157Y1985D02*
X3163Y1985D01*
X2956Y1984D02*
X2962Y1984D01*
X2989Y1984D02*
X3002Y1984D01*
X3056Y1984D02*
X3062Y1984D01*
X3079Y1984D02*
X3097Y1984D01*
X3127Y1984D02*
X3134Y1984D01*
X3156Y1984D02*
X3163Y1984D01*
X2956Y1983D02*
X2962Y1983D01*
X2989Y1983D02*
X3002Y1983D01*
X3056Y1983D02*
X3062Y1983D01*
X3079Y1983D02*
X3098Y1983D01*
X3128Y1983D02*
X3135Y1983D01*
X3155Y1983D02*
X3162Y1983D01*
X2956Y1982D02*
X2962Y1982D01*
X2989Y1982D02*
X3002Y1982D01*
X3056Y1982D02*
X3062Y1982D01*
X3079Y1982D02*
X3099Y1982D01*
X3128Y1982D02*
X3136Y1982D01*
X3154Y1982D02*
X3161Y1982D01*
X2956Y1981D02*
X2962Y1981D01*
X2989Y1981D02*
X3002Y1981D01*
X3056Y1981D02*
X3062Y1981D01*
X3079Y1981D02*
X3087Y1981D01*
X3091Y1981D02*
X3100Y1981D01*
X3129Y1981D02*
X3137Y1981D01*
X3153Y1981D02*
X3160Y1981D01*
X2956Y1980D02*
X2962Y1980D01*
X2989Y1980D02*
X3002Y1980D01*
X3056Y1980D02*
X3062Y1980D01*
X3079Y1980D02*
X3085Y1980D01*
X3092Y1980D02*
X3102Y1980D01*
X3130Y1980D02*
X3139Y1980D01*
X3151Y1980D02*
X3159Y1980D01*
X2956Y1979D02*
X2962Y1979D01*
X2989Y1979D02*
X3002Y1979D01*
X3056Y1979D02*
X3062Y1979D01*
X3079Y1979D02*
X3085Y1979D01*
X3093Y1979D02*
X3103Y1979D01*
X3131Y1979D02*
X3140Y1979D01*
X3150Y1979D02*
X3158Y1979D01*
X2956Y1978D02*
X2962Y1978D01*
X2989Y1978D02*
X3002Y1978D01*
X3056Y1978D02*
X3062Y1978D01*
X3079Y1978D02*
X3085Y1978D01*
X3094Y1978D02*
X3104Y1978D01*
X3132Y1978D02*
X3140Y1978D01*
X3149Y1978D02*
X3157Y1978D01*
X2956Y1977D02*
X2962Y1977D01*
X2989Y1977D02*
X3002Y1977D01*
X3056Y1977D02*
X3062Y1977D01*
X3079Y1977D02*
X3085Y1977D01*
X3095Y1977D02*
X3105Y1977D01*
X3134Y1977D02*
X3140Y1977D01*
X3149Y1977D02*
X3156Y1977D01*
X2956Y1976D02*
X2962Y1976D01*
X2990Y1976D02*
X3001Y1976D01*
X3056Y1976D02*
X3062Y1976D01*
X3079Y1976D02*
X3085Y1976D01*
X3096Y1976D02*
X3106Y1976D01*
X3135Y1976D02*
X3140Y1976D01*
X3149Y1976D02*
X3154Y1976D01*
X2956Y1975D02*
X2962Y1975D01*
X2991Y1975D02*
X3000Y1975D01*
X3056Y1975D02*
X3062Y1975D01*
X3079Y1975D02*
X3085Y1975D01*
X3098Y1975D02*
X3107Y1975D01*
X3136Y1975D02*
X3140Y1975D01*
X3149Y1975D02*
X3154Y1975D01*
X2956Y1974D02*
X2962Y1974D01*
X3056Y1974D02*
X3062Y1974D01*
X3079Y1974D02*
X3085Y1974D01*
X3099Y1974D02*
X3109Y1974D01*
X3136Y1974D02*
X3140Y1974D01*
X3149Y1974D02*
X3154Y1974D01*
X2956Y1973D02*
X2962Y1973D01*
X3056Y1973D02*
X3062Y1973D01*
X3079Y1973D02*
X3085Y1973D01*
X3100Y1973D02*
X3110Y1973D01*
X3136Y1973D02*
X3140Y1973D01*
X3149Y1973D02*
X3154Y1973D01*
X2930Y1972D02*
X2962Y1972D01*
X3054Y1972D02*
X3062Y1972D01*
X3079Y1972D02*
X3085Y1972D01*
X3101Y1972D02*
X3111Y1972D01*
X3136Y1972D02*
X3140Y1972D01*
X3149Y1972D02*
X3154Y1972D01*
X2929Y1971D02*
X2962Y1971D01*
X3053Y1971D02*
X3062Y1971D01*
X3079Y1971D02*
X3085Y1971D01*
X3102Y1971D02*
X3112Y1971D01*
X3122Y1971D02*
X3140Y1971D01*
X3149Y1971D02*
X3167Y1971D01*
X2929Y1970D02*
X2962Y1970D01*
X3053Y1970D02*
X3062Y1970D01*
X3079Y1970D02*
X3085Y1970D01*
X3103Y1970D02*
X3112Y1970D01*
X3122Y1970D02*
X3140Y1970D01*
X3149Y1970D02*
X3167Y1970D01*
X2929Y1969D02*
X2961Y1969D01*
X3053Y1969D02*
X3062Y1969D01*
X3079Y1969D02*
X3085Y1969D01*
X3105Y1969D02*
X3112Y1969D01*
X3122Y1969D02*
X3140Y1969D01*
X3149Y1969D02*
X3167Y1969D01*
X2929Y1968D02*
X2960Y1968D01*
X3053Y1968D02*
X3062Y1968D01*
X3079Y1968D02*
X3084Y1968D01*
X3106Y1968D02*
X3112Y1968D01*
X3122Y1968D02*
X3140Y1968D01*
X3149Y1968D02*
X3167Y1968D01*
X2930Y1967D02*
X2959Y1967D01*
X3054Y1967D02*
X3061Y1967D01*
X3080Y1967D02*
X3084Y1967D01*
X3107Y1967D02*
X3111Y1967D01*
X3122Y1967D02*
X3140Y1967D01*
X3149Y1967D02*
X3167Y1967D01*
X2931Y1966D02*
X2957Y1966D01*
X3055Y1966D02*
X3060Y1966D01*
X3081Y1966D02*
X3082Y1966D01*
X3108Y1966D02*
X3110Y1966D01*
X3122Y1966D02*
X3140Y1966D01*
X3150Y1966D02*
X3167Y1966D01*
X3121Y1857D02*
X3139Y1857D01*
X3174Y1857D02*
X3198Y1857D01*
X3221Y1857D02*
X3223Y1857D01*
X3120Y1856D02*
X3139Y1856D01*
X3172Y1856D02*
X3199Y1856D01*
X3220Y1856D02*
X3224Y1856D01*
X425Y1855D02*
X427Y1855D01*
X451Y1855D02*
X468Y1855D01*
X3119Y1855D02*
X3139Y1855D01*
X3171Y1855D02*
X3201Y1855D01*
X3219Y1855D02*
X3225Y1855D01*
X423Y1854D02*
X428Y1854D01*
X449Y1854D02*
X468Y1854D01*
X3119Y1854D02*
X3139Y1854D01*
X3170Y1854D02*
X3201Y1854D01*
X3219Y1854D02*
X3225Y1854D01*
X3280Y1854D02*
X3291Y1854D01*
X423Y1853D02*
X429Y1853D01*
X449Y1853D02*
X468Y1853D01*
X3119Y1853D02*
X3139Y1853D01*
X3169Y1853D02*
X3202Y1853D01*
X3219Y1853D02*
X3225Y1853D01*
X3276Y1853D02*
X3294Y1853D01*
X423Y1852D02*
X429Y1852D01*
X449Y1852D02*
X468Y1852D01*
X3119Y1852D02*
X3139Y1852D01*
X3169Y1852D02*
X3202Y1852D01*
X3219Y1852D02*
X3225Y1852D01*
X3274Y1852D02*
X3296Y1852D01*
X423Y1851D02*
X429Y1851D01*
X449Y1851D02*
X468Y1851D01*
X3120Y1851D02*
X3139Y1851D01*
X3169Y1851D02*
X3202Y1851D01*
X3219Y1851D02*
X3225Y1851D01*
X3272Y1851D02*
X3298Y1851D01*
X423Y1850D02*
X429Y1850D01*
X449Y1850D02*
X468Y1850D01*
X3133Y1850D02*
X3139Y1850D01*
X3169Y1850D02*
X3175Y1850D01*
X3196Y1850D02*
X3202Y1850D01*
X3219Y1850D02*
X3225Y1850D01*
X3271Y1850D02*
X3299Y1850D01*
X423Y1849D02*
X429Y1849D01*
X450Y1849D02*
X468Y1849D01*
X3133Y1849D02*
X3139Y1849D01*
X3169Y1849D02*
X3175Y1849D01*
X3196Y1849D02*
X3202Y1849D01*
X3219Y1849D02*
X3225Y1849D01*
X3270Y1849D02*
X3300Y1849D01*
X423Y1848D02*
X429Y1848D01*
X462Y1848D02*
X468Y1848D01*
X3133Y1848D02*
X3139Y1848D01*
X3169Y1848D02*
X3175Y1848D01*
X3196Y1848D02*
X3202Y1848D01*
X3219Y1848D02*
X3225Y1848D01*
X3269Y1848D02*
X3279Y1848D01*
X3291Y1848D02*
X3301Y1848D01*
X423Y1847D02*
X429Y1847D01*
X462Y1847D02*
X468Y1847D01*
X3133Y1847D02*
X3139Y1847D01*
X3169Y1847D02*
X3175Y1847D01*
X3196Y1847D02*
X3202Y1847D01*
X3219Y1847D02*
X3225Y1847D01*
X3268Y1847D02*
X3277Y1847D01*
X3293Y1847D02*
X3302Y1847D01*
X423Y1846D02*
X429Y1846D01*
X462Y1846D02*
X468Y1846D01*
X3133Y1846D02*
X3139Y1846D01*
X3169Y1846D02*
X3175Y1846D01*
X3196Y1846D02*
X3202Y1846D01*
X3219Y1846D02*
X3225Y1846D01*
X3267Y1846D02*
X3275Y1846D01*
X3295Y1846D02*
X3303Y1846D01*
X423Y1845D02*
X429Y1845D01*
X462Y1845D02*
X468Y1845D01*
X3133Y1845D02*
X3139Y1845D01*
X3169Y1845D02*
X3175Y1845D01*
X3196Y1845D02*
X3202Y1845D01*
X3219Y1845D02*
X3225Y1845D01*
X3267Y1845D02*
X3274Y1845D01*
X3296Y1845D02*
X3303Y1845D01*
X423Y1844D02*
X429Y1844D01*
X462Y1844D02*
X468Y1844D01*
X3133Y1844D02*
X3139Y1844D01*
X3169Y1844D02*
X3175Y1844D01*
X3196Y1844D02*
X3202Y1844D01*
X3219Y1844D02*
X3225Y1844D01*
X3266Y1844D02*
X3273Y1844D01*
X3297Y1844D02*
X3304Y1844D01*
X423Y1843D02*
X429Y1843D01*
X462Y1843D02*
X468Y1843D01*
X3133Y1843D02*
X3139Y1843D01*
X3169Y1843D02*
X3175Y1843D01*
X3196Y1843D02*
X3202Y1843D01*
X3219Y1843D02*
X3225Y1843D01*
X3266Y1843D02*
X3272Y1843D01*
X3298Y1843D02*
X3304Y1843D01*
X423Y1842D02*
X429Y1842D01*
X462Y1842D02*
X468Y1842D01*
X3133Y1842D02*
X3139Y1842D01*
X3169Y1842D02*
X3175Y1842D01*
X3196Y1842D02*
X3202Y1842D01*
X3219Y1842D02*
X3225Y1842D01*
X3245Y1842D02*
X3247Y1842D01*
X3265Y1842D02*
X3272Y1842D01*
X3298Y1842D02*
X3305Y1842D01*
X423Y1841D02*
X429Y1841D01*
X462Y1841D02*
X468Y1841D01*
X3133Y1841D02*
X3139Y1841D01*
X3169Y1841D02*
X3175Y1841D01*
X3196Y1841D02*
X3202Y1841D01*
X3219Y1841D02*
X3225Y1841D01*
X3243Y1841D02*
X3248Y1841D01*
X3265Y1841D02*
X3271Y1841D01*
X3299Y1841D02*
X3305Y1841D01*
X423Y1840D02*
X429Y1840D01*
X462Y1840D02*
X468Y1840D01*
X3133Y1840D02*
X3139Y1840D01*
X3169Y1840D02*
X3175Y1840D01*
X3196Y1840D02*
X3202Y1840D01*
X3219Y1840D02*
X3225Y1840D01*
X3242Y1840D02*
X3249Y1840D01*
X3265Y1840D02*
X3271Y1840D01*
X3299Y1840D02*
X3305Y1840D01*
X423Y1839D02*
X429Y1839D01*
X462Y1839D02*
X468Y1839D01*
X3133Y1839D02*
X3139Y1839D01*
X3169Y1839D02*
X3175Y1839D01*
X3196Y1839D02*
X3202Y1839D01*
X3219Y1839D02*
X3225Y1839D01*
X3241Y1839D02*
X3249Y1839D01*
X3264Y1839D02*
X3270Y1839D01*
X3299Y1839D02*
X3306Y1839D01*
X423Y1838D02*
X429Y1838D01*
X462Y1838D02*
X468Y1838D01*
X3133Y1838D02*
X3139Y1838D01*
X3169Y1838D02*
X3175Y1838D01*
X3196Y1838D02*
X3202Y1838D01*
X3219Y1838D02*
X3225Y1838D01*
X3240Y1838D02*
X3249Y1838D01*
X3264Y1838D02*
X3270Y1838D01*
X3300Y1838D02*
X3306Y1838D01*
X423Y1837D02*
X429Y1837D01*
X462Y1837D02*
X468Y1837D01*
X3133Y1837D02*
X3139Y1837D01*
X3169Y1837D02*
X3175Y1837D01*
X3196Y1837D02*
X3202Y1837D01*
X3219Y1837D02*
X3225Y1837D01*
X3239Y1837D02*
X3248Y1837D01*
X3264Y1837D02*
X3270Y1837D01*
X3300Y1837D02*
X3306Y1837D01*
X423Y1836D02*
X429Y1836D01*
X462Y1836D02*
X468Y1836D01*
X3133Y1836D02*
X3139Y1836D01*
X3169Y1836D02*
X3175Y1836D01*
X3196Y1836D02*
X3202Y1836D01*
X3219Y1836D02*
X3225Y1836D01*
X3237Y1836D02*
X3247Y1836D01*
X3264Y1836D02*
X3270Y1836D01*
X3300Y1836D02*
X3306Y1836D01*
X423Y1835D02*
X429Y1835D01*
X462Y1835D02*
X468Y1835D01*
X3133Y1835D02*
X3139Y1835D01*
X3169Y1835D02*
X3175Y1835D01*
X3196Y1835D02*
X3202Y1835D01*
X3219Y1835D02*
X3225Y1835D01*
X3236Y1835D02*
X3246Y1835D01*
X3264Y1835D02*
X3270Y1835D01*
X3300Y1835D02*
X3306Y1835D01*
X423Y1834D02*
X429Y1834D01*
X462Y1834D02*
X468Y1834D01*
X3133Y1834D02*
X3139Y1834D01*
X3169Y1834D02*
X3175Y1834D01*
X3196Y1834D02*
X3202Y1834D01*
X3219Y1834D02*
X3225Y1834D01*
X3235Y1834D02*
X3245Y1834D01*
X3264Y1834D02*
X3270Y1834D01*
X3300Y1834D02*
X3306Y1834D01*
X423Y1833D02*
X429Y1833D01*
X462Y1833D02*
X468Y1833D01*
X3133Y1833D02*
X3139Y1833D01*
X3169Y1833D02*
X3175Y1833D01*
X3196Y1833D02*
X3202Y1833D01*
X3219Y1833D02*
X3225Y1833D01*
X3234Y1833D02*
X3244Y1833D01*
X3264Y1833D02*
X3270Y1833D01*
X3300Y1833D02*
X3306Y1833D01*
X423Y1832D02*
X429Y1832D01*
X462Y1832D02*
X468Y1832D01*
X3133Y1832D02*
X3139Y1832D01*
X3169Y1832D02*
X3175Y1832D01*
X3196Y1832D02*
X3202Y1832D01*
X3219Y1832D02*
X3225Y1832D01*
X3233Y1832D02*
X3243Y1832D01*
X3264Y1832D02*
X3270Y1832D01*
X3300Y1832D02*
X3306Y1832D01*
X423Y1831D02*
X429Y1831D01*
X462Y1831D02*
X468Y1831D01*
X3133Y1831D02*
X3139Y1831D01*
X3169Y1831D02*
X3175Y1831D01*
X3196Y1831D02*
X3202Y1831D01*
X3219Y1831D02*
X3225Y1831D01*
X3232Y1831D02*
X3241Y1831D01*
X3264Y1831D02*
X3270Y1831D01*
X3300Y1831D02*
X3306Y1831D01*
X423Y1830D02*
X429Y1830D01*
X462Y1830D02*
X468Y1830D01*
X3133Y1830D02*
X3139Y1830D01*
X3169Y1830D02*
X3175Y1830D01*
X3196Y1830D02*
X3202Y1830D01*
X3219Y1830D02*
X3225Y1830D01*
X3230Y1830D02*
X3240Y1830D01*
X3264Y1830D02*
X3270Y1830D01*
X3300Y1830D02*
X3306Y1830D01*
X423Y1829D02*
X429Y1829D01*
X462Y1829D02*
X468Y1829D01*
X3133Y1829D02*
X3139Y1829D01*
X3169Y1829D02*
X3175Y1829D01*
X3196Y1829D02*
X3202Y1829D01*
X3219Y1829D02*
X3225Y1829D01*
X3229Y1829D02*
X3239Y1829D01*
X3264Y1829D02*
X3270Y1829D01*
X3300Y1829D02*
X3306Y1829D01*
X423Y1828D02*
X429Y1828D01*
X462Y1828D02*
X468Y1828D01*
X3133Y1828D02*
X3139Y1828D01*
X3169Y1828D02*
X3175Y1828D01*
X3196Y1828D02*
X3202Y1828D01*
X3219Y1828D02*
X3225Y1828D01*
X3228Y1828D02*
X3238Y1828D01*
X3264Y1828D02*
X3270Y1828D01*
X3300Y1828D02*
X3306Y1828D01*
X423Y1827D02*
X429Y1827D01*
X462Y1827D02*
X468Y1827D01*
X3133Y1827D02*
X3139Y1827D01*
X3148Y1827D02*
X3151Y1827D01*
X3169Y1827D02*
X3175Y1827D01*
X3196Y1827D02*
X3202Y1827D01*
X3219Y1827D02*
X3225Y1827D01*
X3227Y1827D02*
X3237Y1827D01*
X3265Y1827D02*
X3271Y1827D01*
X3299Y1827D02*
X3305Y1827D01*
X423Y1826D02*
X429Y1826D01*
X462Y1826D02*
X468Y1826D01*
X3133Y1826D02*
X3139Y1826D01*
X3147Y1826D02*
X3152Y1826D01*
X3169Y1826D02*
X3175Y1826D01*
X3196Y1826D02*
X3202Y1826D01*
X3219Y1826D02*
X3236Y1826D01*
X3265Y1826D02*
X3271Y1826D01*
X3299Y1826D02*
X3305Y1826D01*
X403Y1825D02*
X407Y1825D01*
X423Y1825D02*
X429Y1825D01*
X462Y1825D02*
X468Y1825D01*
X477Y1825D02*
X480Y1825D01*
X3133Y1825D02*
X3139Y1825D01*
X3147Y1825D02*
X3152Y1825D01*
X3169Y1825D02*
X3175Y1825D01*
X3196Y1825D02*
X3202Y1825D01*
X3219Y1825D02*
X3234Y1825D01*
X3265Y1825D02*
X3271Y1825D01*
X3299Y1825D02*
X3305Y1825D01*
X402Y1824D02*
X408Y1824D01*
X423Y1824D02*
X429Y1824D01*
X462Y1824D02*
X468Y1824D01*
X477Y1824D02*
X480Y1824D01*
X3133Y1824D02*
X3139Y1824D01*
X3146Y1824D02*
X3152Y1824D01*
X3169Y1824D02*
X3175Y1824D01*
X3196Y1824D02*
X3202Y1824D01*
X3219Y1824D02*
X3234Y1824D01*
X3266Y1824D02*
X3272Y1824D01*
X3298Y1824D02*
X3304Y1824D01*
X402Y1823D02*
X408Y1823D01*
X423Y1823D02*
X429Y1823D01*
X462Y1823D02*
X468Y1823D01*
X476Y1823D02*
X479Y1823D01*
X3133Y1823D02*
X3139Y1823D01*
X3146Y1823D02*
X3152Y1823D01*
X3169Y1823D02*
X3175Y1823D01*
X3196Y1823D02*
X3202Y1823D01*
X3219Y1823D02*
X3235Y1823D01*
X3266Y1823D02*
X3273Y1823D01*
X3297Y1823D02*
X3304Y1823D01*
X402Y1822D02*
X408Y1822D01*
X423Y1822D02*
X429Y1822D01*
X462Y1822D02*
X468Y1822D01*
X476Y1822D02*
X479Y1822D01*
X3133Y1822D02*
X3139Y1822D01*
X3146Y1822D02*
X3152Y1822D01*
X3169Y1822D02*
X3175Y1822D01*
X3196Y1822D02*
X3202Y1822D01*
X3219Y1822D02*
X3236Y1822D01*
X3267Y1822D02*
X3273Y1822D01*
X3297Y1822D02*
X3303Y1822D01*
X402Y1821D02*
X408Y1821D01*
X423Y1821D02*
X429Y1821D01*
X462Y1821D02*
X468Y1821D01*
X476Y1821D02*
X479Y1821D01*
X3133Y1821D02*
X3139Y1821D01*
X3146Y1821D02*
X3152Y1821D01*
X3169Y1821D02*
X3175Y1821D01*
X3196Y1821D02*
X3202Y1821D01*
X3219Y1821D02*
X3238Y1821D01*
X3267Y1821D02*
X3274Y1821D01*
X3296Y1821D02*
X3303Y1821D01*
X402Y1820D02*
X408Y1820D01*
X423Y1820D02*
X429Y1820D01*
X462Y1820D02*
X468Y1820D01*
X476Y1820D02*
X478Y1820D01*
X3133Y1820D02*
X3139Y1820D01*
X3146Y1820D02*
X3152Y1820D01*
X3169Y1820D02*
X3175Y1820D01*
X3196Y1820D02*
X3202Y1820D01*
X3219Y1820D02*
X3239Y1820D01*
X3268Y1820D02*
X3275Y1820D01*
X3295Y1820D02*
X3302Y1820D01*
X402Y1819D02*
X408Y1819D01*
X423Y1819D02*
X429Y1819D01*
X462Y1819D02*
X468Y1819D01*
X476Y1819D02*
X478Y1819D01*
X3133Y1819D02*
X3139Y1819D01*
X3146Y1819D02*
X3152Y1819D01*
X3169Y1819D02*
X3175Y1819D01*
X3196Y1819D02*
X3202Y1819D01*
X3219Y1819D02*
X3227Y1819D01*
X3230Y1819D02*
X3240Y1819D01*
X3269Y1819D02*
X3277Y1819D01*
X3293Y1819D02*
X3301Y1819D01*
X402Y1818D02*
X408Y1818D01*
X423Y1818D02*
X429Y1818D01*
X462Y1818D02*
X468Y1818D01*
X476Y1818D02*
X478Y1818D01*
X3133Y1818D02*
X3139Y1818D01*
X3146Y1818D02*
X3152Y1818D01*
X3169Y1818D02*
X3175Y1818D01*
X3196Y1818D02*
X3202Y1818D01*
X3219Y1818D02*
X3226Y1818D01*
X3231Y1818D02*
X3241Y1818D01*
X3270Y1818D02*
X3278Y1818D01*
X3292Y1818D02*
X3300Y1818D01*
X402Y1817D02*
X408Y1817D01*
X423Y1817D02*
X429Y1817D01*
X462Y1817D02*
X468Y1817D01*
X476Y1817D02*
X478Y1817D01*
X3133Y1817D02*
X3139Y1817D01*
X3146Y1817D02*
X3152Y1817D01*
X3169Y1817D02*
X3175Y1817D01*
X3196Y1817D02*
X3202Y1817D01*
X3219Y1817D02*
X3225Y1817D01*
X3233Y1817D02*
X3242Y1817D01*
X3271Y1817D02*
X3280Y1817D01*
X3291Y1817D02*
X3299Y1817D01*
X402Y1816D02*
X408Y1816D01*
X423Y1816D02*
X429Y1816D01*
X462Y1816D02*
X468Y1816D01*
X476Y1816D02*
X477Y1816D01*
X3133Y1816D02*
X3139Y1816D01*
X3146Y1816D02*
X3152Y1816D01*
X3169Y1816D02*
X3175Y1816D01*
X3196Y1816D02*
X3202Y1816D01*
X3219Y1816D02*
X3225Y1816D01*
X3234Y1816D02*
X3243Y1816D01*
X3272Y1816D02*
X3280Y1816D01*
X3290Y1816D02*
X3298Y1816D01*
X402Y1815D02*
X408Y1815D01*
X423Y1815D02*
X429Y1815D01*
X462Y1815D02*
X468Y1815D01*
X476Y1815D02*
X477Y1815D01*
X3133Y1815D02*
X3139Y1815D01*
X3146Y1815D02*
X3152Y1815D01*
X3169Y1815D02*
X3175Y1815D01*
X3196Y1815D02*
X3202Y1815D01*
X3219Y1815D02*
X3225Y1815D01*
X3235Y1815D02*
X3245Y1815D01*
X3273Y1815D02*
X3280Y1815D01*
X3290Y1815D02*
X3297Y1815D01*
X402Y1814D02*
X408Y1814D01*
X423Y1814D02*
X429Y1814D01*
X462Y1814D02*
X468Y1814D01*
X476Y1814D02*
X477Y1814D01*
X3133Y1814D02*
X3139Y1814D01*
X3146Y1814D02*
X3152Y1814D01*
X3169Y1814D02*
X3175Y1814D01*
X3196Y1814D02*
X3202Y1814D01*
X3219Y1814D02*
X3225Y1814D01*
X3236Y1814D02*
X3246Y1814D01*
X3275Y1814D02*
X3280Y1814D01*
X3290Y1814D02*
X3295Y1814D01*
X402Y1813D02*
X408Y1813D01*
X423Y1813D02*
X429Y1813D01*
X462Y1813D02*
X468Y1813D01*
X476Y1813D02*
X477Y1813D01*
X3133Y1813D02*
X3139Y1813D01*
X3146Y1813D02*
X3152Y1813D01*
X3169Y1813D02*
X3175Y1813D01*
X3196Y1813D02*
X3202Y1813D01*
X3219Y1813D02*
X3225Y1813D01*
X3237Y1813D02*
X3247Y1813D01*
X3276Y1813D02*
X3280Y1813D01*
X3290Y1813D02*
X3294Y1813D01*
X402Y1812D02*
X408Y1812D01*
X423Y1812D02*
X429Y1812D01*
X462Y1812D02*
X468Y1812D01*
X476Y1812D02*
X477Y1812D01*
X3133Y1812D02*
X3139Y1812D01*
X3146Y1812D02*
X3152Y1812D01*
X3169Y1812D02*
X3175Y1812D01*
X3196Y1812D02*
X3202Y1812D01*
X3219Y1812D02*
X3225Y1812D01*
X3238Y1812D02*
X3248Y1812D01*
X3276Y1812D02*
X3280Y1812D01*
X3290Y1812D02*
X3294Y1812D01*
X402Y1811D02*
X408Y1811D01*
X423Y1811D02*
X429Y1811D01*
X462Y1811D02*
X468Y1811D01*
X476Y1811D02*
X477Y1811D01*
X3133Y1811D02*
X3139Y1811D01*
X3146Y1811D02*
X3152Y1811D01*
X3169Y1811D02*
X3175Y1811D01*
X3196Y1811D02*
X3202Y1811D01*
X3219Y1811D02*
X3225Y1811D01*
X3240Y1811D02*
X3249Y1811D01*
X3276Y1811D02*
X3280Y1811D01*
X3290Y1811D02*
X3294Y1811D01*
X402Y1810D02*
X409Y1810D01*
X422Y1810D02*
X429Y1810D01*
X462Y1810D02*
X468Y1810D01*
X476Y1810D02*
X476Y1810D01*
X3121Y1810D02*
X3152Y1810D01*
X3169Y1810D02*
X3202Y1810D01*
X3219Y1810D02*
X3225Y1810D01*
X3241Y1810D02*
X3251Y1810D01*
X3276Y1810D02*
X3280Y1810D01*
X3290Y1810D02*
X3294Y1810D01*
X402Y1809D02*
X410Y1809D01*
X421Y1809D02*
X428Y1809D01*
X462Y1809D02*
X468Y1809D01*
X476Y1809D02*
X476Y1809D01*
X3120Y1809D02*
X3152Y1809D01*
X3169Y1809D02*
X3202Y1809D01*
X3219Y1809D02*
X3225Y1809D01*
X3242Y1809D02*
X3252Y1809D01*
X3263Y1809D02*
X3280Y1809D01*
X3290Y1809D02*
X3307Y1809D01*
X403Y1808D02*
X428Y1808D01*
X451Y1808D02*
X476Y1808D01*
X3119Y1808D02*
X3152Y1808D01*
X3169Y1808D02*
X3202Y1808D01*
X3219Y1808D02*
X3225Y1808D01*
X3243Y1808D02*
X3252Y1808D01*
X3262Y1808D02*
X3280Y1808D01*
X3290Y1808D02*
X3308Y1808D01*
X403Y1807D02*
X428Y1807D01*
X449Y1807D02*
X476Y1807D01*
X3119Y1807D02*
X3152Y1807D01*
X3170Y1807D02*
X3202Y1807D01*
X3219Y1807D02*
X3225Y1807D01*
X3244Y1807D02*
X3252Y1807D01*
X3262Y1807D02*
X3280Y1807D01*
X3290Y1807D02*
X3308Y1807D01*
X404Y1806D02*
X427Y1806D01*
X449Y1806D02*
X476Y1806D01*
X3119Y1806D02*
X3152Y1806D01*
X3170Y1806D02*
X3201Y1806D01*
X3219Y1806D02*
X3225Y1806D01*
X3245Y1806D02*
X3252Y1806D01*
X3262Y1806D02*
X3280Y1806D01*
X3290Y1806D02*
X3308Y1806D01*
X405Y1805D02*
X426Y1805D01*
X449Y1805D02*
X476Y1805D01*
X3119Y1805D02*
X3152Y1805D01*
X3171Y1805D02*
X3200Y1805D01*
X3219Y1805D02*
X3224Y1805D01*
X3247Y1805D02*
X3252Y1805D01*
X3262Y1805D02*
X3280Y1805D01*
X3290Y1805D02*
X3308Y1805D01*
X406Y1804D02*
X425Y1804D01*
X449Y1804D02*
X476Y1804D01*
X3120Y1804D02*
X3151Y1804D01*
X3173Y1804D02*
X3199Y1804D01*
X3220Y1804D02*
X3223Y1804D01*
X3248Y1804D02*
X3251Y1804D01*
X3262Y1804D02*
X3280Y1804D01*
X3290Y1804D02*
X3308Y1804D01*
X407Y1803D02*
X424Y1803D01*
X449Y1803D02*
X477Y1803D01*
X409Y1802D02*
X422Y1802D01*
X450Y1802D02*
X477Y1802D01*
X1942Y1583D02*
X1945Y1583D01*
X1978Y1583D02*
X2009Y1583D01*
X2031Y1583D02*
X2057Y1583D01*
X2078Y1583D02*
X2096Y1583D01*
X2156Y1583D02*
X2159Y1583D01*
X1941Y1582D02*
X1946Y1582D01*
X1977Y1582D02*
X2010Y1582D01*
X2029Y1582D02*
X2058Y1582D01*
X2077Y1582D02*
X2098Y1582D01*
X2155Y1582D02*
X2160Y1582D01*
X1941Y1581D02*
X1947Y1581D01*
X1977Y1581D02*
X2010Y1581D01*
X2028Y1581D02*
X2059Y1581D01*
X2077Y1581D02*
X2099Y1581D01*
X2155Y1581D02*
X2160Y1581D01*
X1941Y1580D02*
X1947Y1580D01*
X1977Y1580D02*
X2010Y1580D01*
X2028Y1580D02*
X2060Y1580D01*
X2077Y1580D02*
X2100Y1580D01*
X2154Y1580D02*
X2160Y1580D01*
X1941Y1579D02*
X1947Y1579D01*
X1977Y1579D02*
X2010Y1579D01*
X2027Y1579D02*
X2060Y1579D01*
X2077Y1579D02*
X2101Y1579D01*
X2154Y1579D02*
X2160Y1579D01*
X1941Y1578D02*
X1947Y1578D01*
X1977Y1578D02*
X2010Y1578D01*
X2027Y1578D02*
X2060Y1578D01*
X2078Y1578D02*
X2102Y1578D01*
X2154Y1578D02*
X2160Y1578D01*
X1941Y1577D02*
X1947Y1577D01*
X1977Y1577D02*
X2008Y1577D01*
X2027Y1577D02*
X2060Y1577D01*
X2079Y1577D02*
X2102Y1577D01*
X2154Y1577D02*
X2160Y1577D01*
X1941Y1576D02*
X1947Y1576D01*
X1977Y1576D02*
X1983Y1576D01*
X1991Y1576D02*
X1997Y1576D01*
X2027Y1576D02*
X2033Y1576D01*
X2054Y1576D02*
X2060Y1576D01*
X2095Y1576D02*
X2103Y1576D01*
X2154Y1576D02*
X2160Y1576D01*
X1941Y1575D02*
X1947Y1575D01*
X1977Y1575D02*
X1983Y1575D01*
X1991Y1575D02*
X1997Y1575D01*
X2027Y1575D02*
X2033Y1575D01*
X2054Y1575D02*
X2060Y1575D01*
X2096Y1575D02*
X2103Y1575D01*
X2154Y1575D02*
X2160Y1575D01*
X1941Y1574D02*
X1947Y1574D01*
X1977Y1574D02*
X1983Y1574D01*
X1991Y1574D02*
X1997Y1574D01*
X2027Y1574D02*
X2033Y1574D01*
X2054Y1574D02*
X2060Y1574D01*
X2097Y1574D02*
X2104Y1574D01*
X2154Y1574D02*
X2160Y1574D01*
X1941Y1573D02*
X1947Y1573D01*
X1977Y1573D02*
X1983Y1573D01*
X1991Y1573D02*
X1997Y1573D01*
X2027Y1573D02*
X2033Y1573D01*
X2054Y1573D02*
X2060Y1573D01*
X2097Y1573D02*
X2104Y1573D01*
X2154Y1573D02*
X2160Y1573D01*
X1941Y1572D02*
X1947Y1572D01*
X1977Y1572D02*
X1983Y1572D01*
X1991Y1572D02*
X1997Y1572D01*
X2027Y1572D02*
X2033Y1572D01*
X2054Y1572D02*
X2060Y1572D01*
X2098Y1572D02*
X2105Y1572D01*
X2154Y1572D02*
X2160Y1572D01*
X1941Y1571D02*
X1947Y1571D01*
X1977Y1571D02*
X1983Y1571D01*
X1991Y1571D02*
X1997Y1571D01*
X2027Y1571D02*
X2033Y1571D01*
X2054Y1571D02*
X2060Y1571D01*
X2098Y1571D02*
X2105Y1571D01*
X2154Y1571D02*
X2160Y1571D01*
X1941Y1570D02*
X1947Y1570D01*
X1977Y1570D02*
X1983Y1570D01*
X1991Y1570D02*
X1997Y1570D01*
X2027Y1570D02*
X2033Y1570D01*
X2054Y1570D02*
X2060Y1570D01*
X2099Y1570D02*
X2106Y1570D01*
X2154Y1570D02*
X2160Y1570D01*
X1941Y1569D02*
X1947Y1569D01*
X1977Y1569D02*
X1983Y1569D01*
X1991Y1569D02*
X1997Y1569D01*
X2027Y1569D02*
X2033Y1569D01*
X2054Y1569D02*
X2060Y1569D01*
X2099Y1569D02*
X2106Y1569D01*
X2154Y1569D02*
X2160Y1569D01*
X1941Y1568D02*
X1947Y1568D01*
X1977Y1568D02*
X1983Y1568D01*
X1991Y1568D02*
X1997Y1568D01*
X2027Y1568D02*
X2033Y1568D01*
X2054Y1568D02*
X2060Y1568D01*
X2100Y1568D02*
X2107Y1568D01*
X2154Y1568D02*
X2160Y1568D01*
X1941Y1567D02*
X1947Y1567D01*
X1977Y1567D02*
X1983Y1567D01*
X1991Y1567D02*
X1997Y1567D01*
X2027Y1567D02*
X2033Y1567D01*
X2054Y1567D02*
X2060Y1567D01*
X2100Y1567D02*
X2107Y1567D01*
X2154Y1567D02*
X2160Y1567D01*
X1941Y1566D02*
X1947Y1566D01*
X1977Y1566D02*
X1983Y1566D01*
X1991Y1566D02*
X1997Y1566D01*
X2027Y1566D02*
X2033Y1566D01*
X2054Y1566D02*
X2060Y1566D01*
X2101Y1566D02*
X2108Y1566D01*
X2154Y1566D02*
X2160Y1566D01*
X1941Y1565D02*
X1947Y1565D01*
X1977Y1565D02*
X1983Y1565D01*
X1991Y1565D02*
X1997Y1565D01*
X2027Y1565D02*
X2033Y1565D01*
X2054Y1565D02*
X2060Y1565D01*
X2101Y1565D02*
X2108Y1565D01*
X2154Y1565D02*
X2160Y1565D01*
X1940Y1564D02*
X1947Y1564D01*
X1977Y1564D02*
X1983Y1564D01*
X1991Y1564D02*
X1997Y1564D01*
X2027Y1564D02*
X2033Y1564D01*
X2054Y1564D02*
X2060Y1564D01*
X2102Y1564D02*
X2109Y1564D01*
X2154Y1564D02*
X2160Y1564D01*
X1939Y1563D02*
X1947Y1563D01*
X1977Y1563D02*
X1983Y1563D01*
X1991Y1563D02*
X1997Y1563D01*
X2027Y1563D02*
X2033Y1563D01*
X2054Y1563D02*
X2060Y1563D01*
X2102Y1563D02*
X2109Y1563D01*
X2136Y1563D02*
X2160Y1563D01*
X1938Y1562D02*
X1947Y1562D01*
X1977Y1562D02*
X1983Y1562D01*
X1991Y1562D02*
X1997Y1562D01*
X2027Y1562D02*
X2033Y1562D01*
X2054Y1562D02*
X2060Y1562D01*
X2103Y1562D02*
X2109Y1562D01*
X2133Y1562D02*
X2160Y1562D01*
X1937Y1561D02*
X1946Y1561D01*
X1977Y1561D02*
X1982Y1561D01*
X1991Y1561D02*
X1997Y1561D01*
X2027Y1561D02*
X2033Y1561D01*
X2054Y1561D02*
X2060Y1561D01*
X2103Y1561D02*
X2110Y1561D01*
X2131Y1561D02*
X2160Y1561D01*
X1936Y1560D02*
X1945Y1560D01*
X1978Y1560D02*
X1982Y1560D01*
X1991Y1560D02*
X1997Y1560D01*
X2027Y1560D02*
X2060Y1560D01*
X2104Y1560D02*
X2110Y1560D01*
X2130Y1560D02*
X2160Y1560D01*
X1935Y1559D02*
X1944Y1559D01*
X1991Y1559D02*
X1997Y1559D01*
X2027Y1559D02*
X2060Y1559D01*
X2104Y1559D02*
X2110Y1559D01*
X2129Y1559D02*
X2160Y1559D01*
X1933Y1558D02*
X1943Y1558D01*
X1991Y1558D02*
X1997Y1558D01*
X2027Y1558D02*
X2060Y1558D01*
X2104Y1558D02*
X2110Y1558D01*
X2128Y1558D02*
X2160Y1558D01*
X1932Y1557D02*
X1942Y1557D01*
X1991Y1557D02*
X1997Y1557D01*
X2028Y1557D02*
X2060Y1557D01*
X2104Y1557D02*
X2110Y1557D01*
X2128Y1557D02*
X2160Y1557D01*
X1931Y1556D02*
X1941Y1556D01*
X1991Y1556D02*
X1997Y1556D01*
X2028Y1556D02*
X2059Y1556D01*
X2104Y1556D02*
X2110Y1556D01*
X2127Y1556D02*
X2136Y1556D01*
X2154Y1556D02*
X2160Y1556D01*
X1930Y1555D02*
X1940Y1555D01*
X1991Y1555D02*
X1997Y1555D01*
X2029Y1555D02*
X2058Y1555D01*
X2104Y1555D02*
X2110Y1555D01*
X2127Y1555D02*
X2134Y1555D01*
X2154Y1555D02*
X2160Y1555D01*
X3424Y1555D02*
X3427Y1555D01*
X3450Y1555D02*
X3468Y1555D01*
X1929Y1554D02*
X1938Y1554D01*
X1991Y1554D02*
X1997Y1554D01*
X2031Y1554D02*
X2057Y1554D01*
X2104Y1554D02*
X2110Y1554D01*
X2127Y1554D02*
X2133Y1554D01*
X2154Y1554D02*
X2160Y1554D01*
X3423Y1554D02*
X3428Y1554D01*
X3449Y1554D02*
X3468Y1554D01*
X1928Y1553D02*
X1937Y1553D01*
X1991Y1553D02*
X1997Y1553D01*
X2034Y1553D02*
X2040Y1553D01*
X2047Y1553D02*
X2054Y1553D01*
X2104Y1553D02*
X2110Y1553D01*
X2127Y1553D02*
X2133Y1553D01*
X2154Y1553D02*
X2160Y1553D01*
X3423Y1553D02*
X3429Y1553D01*
X3449Y1553D02*
X3468Y1553D01*
X1927Y1552D02*
X1936Y1552D01*
X1991Y1552D02*
X1997Y1552D01*
X2034Y1552D02*
X2040Y1552D01*
X2048Y1552D02*
X2054Y1552D01*
X2103Y1552D02*
X2110Y1552D01*
X2127Y1552D02*
X2133Y1552D01*
X2154Y1552D02*
X2160Y1552D01*
X3423Y1552D02*
X3429Y1552D01*
X3449Y1552D02*
X3468Y1552D01*
X1927Y1551D02*
X1935Y1551D01*
X1991Y1551D02*
X1997Y1551D01*
X2034Y1551D02*
X2040Y1551D01*
X2048Y1551D02*
X2054Y1551D01*
X2103Y1551D02*
X2109Y1551D01*
X2127Y1551D02*
X2133Y1551D01*
X2154Y1551D02*
X2160Y1551D01*
X3423Y1551D02*
X3429Y1551D01*
X3449Y1551D02*
X3468Y1551D01*
X1927Y1550D02*
X1934Y1550D01*
X1991Y1550D02*
X1997Y1550D01*
X2034Y1550D02*
X2040Y1550D01*
X2048Y1550D02*
X2054Y1550D01*
X2102Y1550D02*
X2109Y1550D01*
X2127Y1550D02*
X2133Y1550D01*
X2154Y1550D02*
X2160Y1550D01*
X3423Y1550D02*
X3429Y1550D01*
X3449Y1550D02*
X3468Y1550D01*
X1927Y1549D02*
X1933Y1549D01*
X1991Y1549D02*
X1997Y1549D01*
X2034Y1549D02*
X2040Y1549D01*
X2048Y1549D02*
X2054Y1549D01*
X2102Y1549D02*
X2108Y1549D01*
X2127Y1549D02*
X2133Y1549D01*
X2154Y1549D02*
X2160Y1549D01*
X3423Y1549D02*
X3429Y1549D01*
X3450Y1549D02*
X3468Y1549D01*
X1927Y1548D02*
X1933Y1548D01*
X1991Y1548D02*
X1997Y1548D01*
X2034Y1548D02*
X2040Y1548D01*
X2048Y1548D02*
X2054Y1548D01*
X2101Y1548D02*
X2108Y1548D01*
X2127Y1548D02*
X2133Y1548D01*
X2154Y1548D02*
X2160Y1548D01*
X3423Y1548D02*
X3429Y1548D01*
X3462Y1548D02*
X3468Y1548D01*
X1927Y1547D02*
X1933Y1547D01*
X1991Y1547D02*
X1997Y1547D01*
X2034Y1547D02*
X2040Y1547D01*
X2048Y1547D02*
X2054Y1547D01*
X2101Y1547D02*
X2108Y1547D01*
X2127Y1547D02*
X2133Y1547D01*
X2154Y1547D02*
X2160Y1547D01*
X3423Y1547D02*
X3429Y1547D01*
X3462Y1547D02*
X3468Y1547D01*
X1927Y1546D02*
X1933Y1546D01*
X1991Y1546D02*
X1997Y1546D01*
X2034Y1546D02*
X2040Y1546D01*
X2048Y1546D02*
X2054Y1546D01*
X2100Y1546D02*
X2107Y1546D01*
X2127Y1546D02*
X2133Y1546D01*
X2154Y1546D02*
X2160Y1546D01*
X3423Y1546D02*
X3429Y1546D01*
X3462Y1546D02*
X3468Y1546D01*
X1927Y1545D02*
X1933Y1545D01*
X1991Y1545D02*
X1997Y1545D01*
X2034Y1545D02*
X2040Y1545D01*
X2048Y1545D02*
X2054Y1545D01*
X2100Y1545D02*
X2107Y1545D01*
X2127Y1545D02*
X2133Y1545D01*
X2154Y1545D02*
X2160Y1545D01*
X3423Y1545D02*
X3429Y1545D01*
X3462Y1545D02*
X3468Y1545D01*
X1927Y1544D02*
X1933Y1544D01*
X1991Y1544D02*
X1997Y1544D01*
X2034Y1544D02*
X2040Y1544D01*
X2048Y1544D02*
X2054Y1544D01*
X2099Y1544D02*
X2106Y1544D01*
X2127Y1544D02*
X2133Y1544D01*
X2154Y1544D02*
X2160Y1544D01*
X3423Y1544D02*
X3429Y1544D01*
X3462Y1544D02*
X3468Y1544D01*
X1927Y1543D02*
X1933Y1543D01*
X1991Y1543D02*
X1997Y1543D01*
X2034Y1543D02*
X2040Y1543D01*
X2048Y1543D02*
X2054Y1543D01*
X2099Y1543D02*
X2106Y1543D01*
X2127Y1543D02*
X2133Y1543D01*
X2154Y1543D02*
X2160Y1543D01*
X3423Y1543D02*
X3429Y1543D01*
X3462Y1543D02*
X3468Y1543D01*
X1927Y1542D02*
X1933Y1542D01*
X1991Y1542D02*
X1997Y1542D01*
X2034Y1542D02*
X2040Y1542D01*
X2048Y1542D02*
X2054Y1542D01*
X2098Y1542D02*
X2105Y1542D01*
X2127Y1542D02*
X2133Y1542D01*
X2154Y1542D02*
X2160Y1542D01*
X3423Y1542D02*
X3429Y1542D01*
X3462Y1542D02*
X3468Y1542D01*
X1927Y1541D02*
X1933Y1541D01*
X1991Y1541D02*
X1997Y1541D01*
X2034Y1541D02*
X2040Y1541D01*
X2048Y1541D02*
X2054Y1541D01*
X2098Y1541D02*
X2105Y1541D01*
X2127Y1541D02*
X2133Y1541D01*
X2154Y1541D02*
X2160Y1541D01*
X3423Y1541D02*
X3429Y1541D01*
X3462Y1541D02*
X3468Y1541D01*
X1927Y1540D02*
X1933Y1540D01*
X1991Y1540D02*
X1997Y1540D01*
X2034Y1540D02*
X2040Y1540D01*
X2048Y1540D02*
X2054Y1540D01*
X2097Y1540D02*
X2104Y1540D01*
X2127Y1540D02*
X2133Y1540D01*
X2154Y1540D02*
X2160Y1540D01*
X2745Y1540D02*
X2763Y1540D01*
X2795Y1540D02*
X2797Y1540D01*
X3423Y1540D02*
X3429Y1540D01*
X3462Y1540D02*
X3468Y1540D01*
X1927Y1539D02*
X1933Y1539D01*
X1956Y1539D02*
X1959Y1539D01*
X1991Y1539D02*
X1997Y1539D01*
X2034Y1539D02*
X2040Y1539D01*
X2048Y1539D02*
X2054Y1539D01*
X2097Y1539D02*
X2104Y1539D01*
X2127Y1539D02*
X2133Y1539D01*
X2154Y1539D02*
X2160Y1539D01*
X2744Y1539D02*
X2763Y1539D01*
X2794Y1539D02*
X2798Y1539D01*
X3423Y1539D02*
X3429Y1539D01*
X3462Y1539D02*
X3468Y1539D01*
X1927Y1538D02*
X1933Y1538D01*
X1955Y1538D02*
X1960Y1538D01*
X1991Y1538D02*
X1997Y1538D01*
X2034Y1538D02*
X2040Y1538D01*
X2048Y1538D02*
X2054Y1538D01*
X2096Y1538D02*
X2103Y1538D01*
X2127Y1538D02*
X2134Y1538D01*
X2154Y1538D02*
X2160Y1538D01*
X2743Y1538D02*
X2763Y1538D01*
X2793Y1538D02*
X2799Y1538D01*
X3423Y1538D02*
X3429Y1538D01*
X3462Y1538D02*
X3468Y1538D01*
X1927Y1537D02*
X1933Y1537D01*
X1955Y1537D02*
X1960Y1537D01*
X1991Y1537D02*
X1997Y1537D01*
X2034Y1537D02*
X2040Y1537D01*
X2047Y1537D02*
X2054Y1537D01*
X2095Y1537D02*
X2103Y1537D01*
X2127Y1537D02*
X2135Y1537D01*
X2154Y1537D02*
X2160Y1537D01*
X2743Y1537D02*
X2763Y1537D01*
X2793Y1537D02*
X2799Y1537D01*
X2853Y1537D02*
X2865Y1537D01*
X3423Y1537D02*
X3429Y1537D01*
X3462Y1537D02*
X3468Y1537D01*
X1927Y1536D02*
X1960Y1536D01*
X1991Y1536D02*
X2009Y1536D01*
X2034Y1536D02*
X2054Y1536D01*
X2078Y1536D02*
X2102Y1536D01*
X2128Y1536D02*
X2160Y1536D01*
X2743Y1536D02*
X2763Y1536D01*
X2793Y1536D02*
X2799Y1536D01*
X2850Y1536D02*
X2868Y1536D01*
X3423Y1536D02*
X3429Y1536D01*
X3462Y1536D02*
X3468Y1536D01*
X1927Y1535D02*
X1960Y1535D01*
X1991Y1535D02*
X2010Y1535D01*
X2034Y1535D02*
X2054Y1535D01*
X2077Y1535D02*
X2102Y1535D01*
X2128Y1535D02*
X2160Y1535D01*
X2744Y1535D02*
X2763Y1535D01*
X2793Y1535D02*
X2799Y1535D01*
X2848Y1535D02*
X2870Y1535D01*
X3423Y1535D02*
X3429Y1535D01*
X3462Y1535D02*
X3468Y1535D01*
X1927Y1534D02*
X1960Y1534D01*
X1991Y1534D02*
X2010Y1534D01*
X2034Y1534D02*
X2054Y1534D01*
X2077Y1534D02*
X2101Y1534D01*
X2129Y1534D02*
X2160Y1534D01*
X2745Y1534D02*
X2763Y1534D01*
X2793Y1534D02*
X2799Y1534D01*
X2846Y1534D02*
X2872Y1534D01*
X3423Y1534D02*
X3429Y1534D01*
X3462Y1534D02*
X3468Y1534D01*
X1927Y1533D02*
X1960Y1533D01*
X1991Y1533D02*
X2010Y1533D01*
X2034Y1533D02*
X2053Y1533D01*
X2077Y1533D02*
X2100Y1533D01*
X2130Y1533D02*
X2160Y1533D01*
X2757Y1533D02*
X2763Y1533D01*
X2793Y1533D02*
X2799Y1533D01*
X2845Y1533D02*
X2873Y1533D01*
X3423Y1533D02*
X3429Y1533D01*
X3462Y1533D02*
X3468Y1533D01*
X1927Y1532D02*
X1960Y1532D01*
X1991Y1532D02*
X2010Y1532D01*
X2034Y1532D02*
X2053Y1532D01*
X2077Y1532D02*
X2099Y1532D01*
X2131Y1532D02*
X2160Y1532D01*
X2757Y1532D02*
X2763Y1532D01*
X2793Y1532D02*
X2799Y1532D01*
X2844Y1532D02*
X2875Y1532D01*
X3423Y1532D02*
X3429Y1532D01*
X3462Y1532D02*
X3468Y1532D01*
X1927Y1531D02*
X1960Y1531D01*
X1991Y1531D02*
X2010Y1531D01*
X2035Y1531D02*
X2053Y1531D01*
X2078Y1531D02*
X2097Y1531D01*
X2132Y1531D02*
X2160Y1531D01*
X2757Y1531D02*
X2763Y1531D01*
X2793Y1531D02*
X2799Y1531D01*
X2843Y1531D02*
X2853Y1531D01*
X2866Y1531D02*
X2875Y1531D01*
X3423Y1531D02*
X3429Y1531D01*
X3462Y1531D02*
X3468Y1531D01*
X1927Y1530D02*
X1958Y1530D01*
X1991Y1530D02*
X2008Y1530D01*
X2036Y1530D02*
X2052Y1530D01*
X2079Y1530D02*
X2095Y1530D01*
X2135Y1530D02*
X2160Y1530D01*
X2757Y1530D02*
X2763Y1530D01*
X2793Y1530D02*
X2799Y1530D01*
X2842Y1530D02*
X2851Y1530D01*
X2868Y1530D02*
X2876Y1530D01*
X3423Y1530D02*
X3429Y1530D01*
X3462Y1530D02*
X3468Y1530D01*
X2757Y1529D02*
X2763Y1529D01*
X2793Y1529D02*
X2799Y1529D01*
X2841Y1529D02*
X2849Y1529D01*
X2869Y1529D02*
X2877Y1529D01*
X3423Y1529D02*
X3429Y1529D01*
X3462Y1529D02*
X3468Y1529D01*
X2757Y1528D02*
X2763Y1528D01*
X2793Y1528D02*
X2799Y1528D01*
X2841Y1528D02*
X2848Y1528D01*
X2870Y1528D02*
X2878Y1528D01*
X3423Y1528D02*
X3429Y1528D01*
X3462Y1528D02*
X3468Y1528D01*
X2757Y1527D02*
X2763Y1527D01*
X2793Y1527D02*
X2799Y1527D01*
X2840Y1527D02*
X2847Y1527D01*
X2871Y1527D02*
X2878Y1527D01*
X3423Y1527D02*
X3429Y1527D01*
X3462Y1527D02*
X3468Y1527D01*
X2757Y1526D02*
X2763Y1526D01*
X2793Y1526D02*
X2799Y1526D01*
X2840Y1526D02*
X2846Y1526D01*
X2872Y1526D02*
X2879Y1526D01*
X3405Y1526D02*
X3405Y1526D01*
X3423Y1526D02*
X3429Y1526D01*
X3462Y1526D02*
X3468Y1526D01*
X3479Y1526D02*
X3479Y1526D01*
X2757Y1525D02*
X2763Y1525D01*
X2793Y1525D02*
X2799Y1525D01*
X2819Y1525D02*
X2822Y1525D01*
X2839Y1525D02*
X2846Y1525D01*
X2873Y1525D02*
X2879Y1525D01*
X3403Y1525D02*
X3407Y1525D01*
X3423Y1525D02*
X3429Y1525D01*
X3462Y1525D02*
X3468Y1525D01*
X3477Y1525D02*
X3481Y1525D01*
X2757Y1524D02*
X2763Y1524D01*
X2793Y1524D02*
X2799Y1524D01*
X2817Y1524D02*
X2823Y1524D01*
X2839Y1524D02*
X2845Y1524D01*
X2873Y1524D02*
X2879Y1524D01*
X3402Y1524D02*
X3408Y1524D01*
X3423Y1524D02*
X3429Y1524D01*
X3462Y1524D02*
X3468Y1524D01*
X3477Y1524D02*
X3482Y1524D01*
X2757Y1523D02*
X2763Y1523D01*
X2793Y1523D02*
X2799Y1523D01*
X2816Y1523D02*
X2823Y1523D01*
X2839Y1523D02*
X2845Y1523D01*
X2873Y1523D02*
X2880Y1523D01*
X3402Y1523D02*
X3408Y1523D01*
X3423Y1523D02*
X3429Y1523D01*
X3462Y1523D02*
X3468Y1523D01*
X3476Y1523D02*
X3482Y1523D01*
X2757Y1522D02*
X2763Y1522D01*
X2793Y1522D02*
X2799Y1522D01*
X2815Y1522D02*
X2823Y1522D01*
X2839Y1522D02*
X2845Y1522D01*
X2874Y1522D02*
X2880Y1522D01*
X3402Y1522D02*
X3408Y1522D01*
X3423Y1522D02*
X3429Y1522D01*
X3462Y1522D02*
X3468Y1522D01*
X3476Y1522D02*
X3482Y1522D01*
X2757Y1521D02*
X2763Y1521D01*
X2793Y1521D02*
X2799Y1521D01*
X2814Y1521D02*
X2823Y1521D01*
X2838Y1521D02*
X2844Y1521D01*
X2874Y1521D02*
X2880Y1521D01*
X3402Y1521D02*
X3408Y1521D01*
X3423Y1521D02*
X3429Y1521D01*
X3462Y1521D02*
X3468Y1521D01*
X3476Y1521D02*
X3482Y1521D01*
X2757Y1520D02*
X2763Y1520D01*
X2793Y1520D02*
X2799Y1520D01*
X2813Y1520D02*
X2822Y1520D01*
X2838Y1520D02*
X2844Y1520D01*
X2874Y1520D02*
X2880Y1520D01*
X3402Y1520D02*
X3408Y1520D01*
X3423Y1520D02*
X3429Y1520D01*
X3462Y1520D02*
X3468Y1520D01*
X3476Y1520D02*
X3482Y1520D01*
X2757Y1519D02*
X2763Y1519D01*
X2793Y1519D02*
X2799Y1519D01*
X2812Y1519D02*
X2821Y1519D01*
X2838Y1519D02*
X2844Y1519D01*
X2874Y1519D02*
X2880Y1519D01*
X3402Y1519D02*
X3408Y1519D01*
X3423Y1519D02*
X3429Y1519D01*
X3462Y1519D02*
X3468Y1519D01*
X3476Y1519D02*
X3482Y1519D01*
X2757Y1518D02*
X2763Y1518D01*
X2793Y1518D02*
X2799Y1518D01*
X2810Y1518D02*
X2820Y1518D01*
X2838Y1518D02*
X2844Y1518D01*
X2874Y1518D02*
X2880Y1518D01*
X3402Y1518D02*
X3408Y1518D01*
X3423Y1518D02*
X3429Y1518D01*
X3462Y1518D02*
X3468Y1518D01*
X3476Y1518D02*
X3482Y1518D01*
X2757Y1517D02*
X2763Y1517D01*
X2793Y1517D02*
X2799Y1517D01*
X2809Y1517D02*
X2819Y1517D01*
X2838Y1517D02*
X2844Y1517D01*
X2874Y1517D02*
X2880Y1517D01*
X3402Y1517D02*
X3408Y1517D01*
X3423Y1517D02*
X3429Y1517D01*
X3462Y1517D02*
X3468Y1517D01*
X3476Y1517D02*
X3482Y1517D01*
X2757Y1516D02*
X2763Y1516D01*
X2793Y1516D02*
X2799Y1516D01*
X2808Y1516D02*
X2818Y1516D01*
X2838Y1516D02*
X2844Y1516D01*
X2874Y1516D02*
X2880Y1516D01*
X3402Y1516D02*
X3408Y1516D01*
X3423Y1516D02*
X3429Y1516D01*
X3462Y1516D02*
X3468Y1516D01*
X3476Y1516D02*
X3482Y1516D01*
X2757Y1515D02*
X2763Y1515D01*
X2793Y1515D02*
X2799Y1515D01*
X2807Y1515D02*
X2817Y1515D01*
X2838Y1515D02*
X2844Y1515D01*
X2874Y1515D02*
X2880Y1515D01*
X3402Y1515D02*
X3408Y1515D01*
X3423Y1515D02*
X3429Y1515D01*
X3462Y1515D02*
X3468Y1515D01*
X3476Y1515D02*
X3482Y1515D01*
X2757Y1514D02*
X2763Y1514D01*
X2793Y1514D02*
X2799Y1514D01*
X2806Y1514D02*
X2816Y1514D01*
X2838Y1514D02*
X2844Y1514D01*
X2874Y1514D02*
X2880Y1514D01*
X3402Y1514D02*
X3408Y1514D01*
X3423Y1514D02*
X3429Y1514D01*
X3462Y1514D02*
X3468Y1514D01*
X3476Y1514D02*
X3482Y1514D01*
X2757Y1513D02*
X2763Y1513D01*
X2793Y1513D02*
X2799Y1513D01*
X2805Y1513D02*
X2814Y1513D01*
X2838Y1513D02*
X2844Y1513D01*
X2874Y1513D02*
X2880Y1513D01*
X3402Y1513D02*
X3408Y1513D01*
X3423Y1513D02*
X3429Y1513D01*
X3462Y1513D02*
X3468Y1513D01*
X3476Y1513D02*
X3482Y1513D01*
X2757Y1512D02*
X2763Y1512D01*
X2793Y1512D02*
X2799Y1512D01*
X2803Y1512D02*
X2813Y1512D01*
X2838Y1512D02*
X2844Y1512D01*
X2874Y1512D02*
X2880Y1512D01*
X3402Y1512D02*
X3408Y1512D01*
X3423Y1512D02*
X3429Y1512D01*
X3462Y1512D02*
X3468Y1512D01*
X3476Y1512D02*
X3482Y1512D01*
X2757Y1511D02*
X2763Y1511D01*
X2793Y1511D02*
X2799Y1511D01*
X2802Y1511D02*
X2812Y1511D01*
X2839Y1511D02*
X2845Y1511D01*
X2874Y1511D02*
X2880Y1511D01*
X3402Y1511D02*
X3408Y1511D01*
X3423Y1511D02*
X3429Y1511D01*
X3462Y1511D02*
X3468Y1511D01*
X3476Y1511D02*
X3482Y1511D01*
X2757Y1510D02*
X2763Y1510D01*
X2772Y1510D02*
X2776Y1510D01*
X2793Y1510D02*
X2799Y1510D01*
X2801Y1510D02*
X2811Y1510D01*
X2839Y1510D02*
X2845Y1510D01*
X2874Y1510D02*
X2880Y1510D01*
X3402Y1510D02*
X3409Y1510D01*
X3422Y1510D02*
X3429Y1510D01*
X3462Y1510D02*
X3468Y1510D01*
X3476Y1510D02*
X3482Y1510D01*
X2757Y1509D02*
X2763Y1509D01*
X2771Y1509D02*
X2776Y1509D01*
X2793Y1509D02*
X2810Y1509D01*
X2839Y1509D02*
X2845Y1509D01*
X2873Y1509D02*
X2879Y1509D01*
X3402Y1509D02*
X3410Y1509D01*
X3421Y1509D02*
X3428Y1509D01*
X3462Y1509D02*
X3468Y1509D01*
X3476Y1509D02*
X3482Y1509D01*
X2757Y1508D02*
X2763Y1508D01*
X2771Y1508D02*
X2777Y1508D01*
X2793Y1508D02*
X2809Y1508D01*
X2840Y1508D02*
X2846Y1508D01*
X2873Y1508D02*
X2879Y1508D01*
X3403Y1508D02*
X3428Y1508D01*
X3451Y1508D02*
X3482Y1508D01*
X2757Y1507D02*
X2763Y1507D01*
X2771Y1507D02*
X2777Y1507D01*
X2793Y1507D02*
X2808Y1507D01*
X2840Y1507D02*
X2846Y1507D01*
X2872Y1507D02*
X2878Y1507D01*
X3403Y1507D02*
X3427Y1507D01*
X3449Y1507D02*
X3482Y1507D01*
X2757Y1506D02*
X2763Y1506D01*
X2771Y1506D02*
X2777Y1506D01*
X2793Y1506D02*
X2810Y1506D01*
X2841Y1506D02*
X2847Y1506D01*
X2872Y1506D02*
X2878Y1506D01*
X3404Y1506D02*
X3427Y1506D01*
X3449Y1506D02*
X3482Y1506D01*
X2757Y1505D02*
X2763Y1505D01*
X2771Y1505D02*
X2777Y1505D01*
X2793Y1505D02*
X2811Y1505D01*
X2841Y1505D02*
X2848Y1505D01*
X2871Y1505D02*
X2877Y1505D01*
X3405Y1505D02*
X3426Y1505D01*
X3449Y1505D02*
X3482Y1505D01*
X2757Y1504D02*
X2763Y1504D01*
X2771Y1504D02*
X2777Y1504D01*
X2793Y1504D02*
X2812Y1504D01*
X2842Y1504D02*
X2849Y1504D01*
X2870Y1504D02*
X2877Y1504D01*
X3406Y1504D02*
X3425Y1504D01*
X3449Y1504D02*
X3482Y1504D01*
X2757Y1503D02*
X2763Y1503D01*
X2771Y1503D02*
X2777Y1503D01*
X2793Y1503D02*
X2813Y1503D01*
X2843Y1503D02*
X2850Y1503D01*
X2869Y1503D02*
X2876Y1503D01*
X3407Y1503D02*
X3424Y1503D01*
X3449Y1503D02*
X3482Y1503D01*
X2757Y1502D02*
X2763Y1502D01*
X2771Y1502D02*
X2777Y1502D01*
X2793Y1502D02*
X2801Y1502D01*
X2805Y1502D02*
X2814Y1502D01*
X2843Y1502D02*
X2851Y1502D01*
X2868Y1502D02*
X2875Y1502D01*
X3409Y1502D02*
X3422Y1502D01*
X3450Y1502D02*
X3481Y1502D01*
X2757Y1501D02*
X2763Y1501D01*
X2771Y1501D02*
X2777Y1501D01*
X2793Y1501D02*
X2800Y1501D01*
X2806Y1501D02*
X2816Y1501D01*
X2844Y1501D02*
X2852Y1501D01*
X2866Y1501D02*
X2874Y1501D01*
X2757Y1500D02*
X2763Y1500D01*
X2771Y1500D02*
X2777Y1500D01*
X2793Y1500D02*
X2799Y1500D01*
X2807Y1500D02*
X2817Y1500D01*
X2845Y1500D02*
X2854Y1500D01*
X2865Y1500D02*
X2873Y1500D01*
X2757Y1499D02*
X2763Y1499D01*
X2771Y1499D02*
X2777Y1499D01*
X2793Y1499D02*
X2799Y1499D01*
X2808Y1499D02*
X2818Y1499D01*
X2846Y1499D02*
X2855Y1499D01*
X2864Y1499D02*
X2872Y1499D01*
X2757Y1498D02*
X2763Y1498D01*
X2771Y1498D02*
X2777Y1498D01*
X2793Y1498D02*
X2799Y1498D01*
X2809Y1498D02*
X2819Y1498D01*
X2848Y1498D02*
X2855Y1498D01*
X2864Y1498D02*
X2871Y1498D01*
X2757Y1497D02*
X2763Y1497D01*
X2771Y1497D02*
X2777Y1497D01*
X2793Y1497D02*
X2799Y1497D01*
X2810Y1497D02*
X2820Y1497D01*
X2849Y1497D02*
X2855Y1497D01*
X2864Y1497D02*
X2869Y1497D01*
X2757Y1496D02*
X2763Y1496D01*
X2771Y1496D02*
X2777Y1496D01*
X2793Y1496D02*
X2799Y1496D01*
X2812Y1496D02*
X2821Y1496D01*
X2850Y1496D02*
X2855Y1496D01*
X2864Y1496D02*
X2869Y1496D01*
X2757Y1495D02*
X2763Y1495D01*
X2771Y1495D02*
X2777Y1495D01*
X2793Y1495D02*
X2799Y1495D01*
X2813Y1495D02*
X2823Y1495D01*
X2850Y1495D02*
X2855Y1495D01*
X2864Y1495D02*
X2869Y1495D01*
X2757Y1494D02*
X2763Y1494D01*
X2771Y1494D02*
X2777Y1494D01*
X2793Y1494D02*
X2799Y1494D01*
X2814Y1494D02*
X2824Y1494D01*
X2850Y1494D02*
X2855Y1494D01*
X2864Y1494D02*
X2869Y1494D01*
X2745Y1493D02*
X2777Y1493D01*
X2793Y1493D02*
X2799Y1493D01*
X2815Y1493D02*
X2825Y1493D01*
X2850Y1493D02*
X2855Y1493D01*
X2864Y1493D02*
X2869Y1493D01*
X2744Y1492D02*
X2777Y1492D01*
X2793Y1492D02*
X2799Y1492D01*
X2816Y1492D02*
X2826Y1492D01*
X2837Y1492D02*
X2855Y1492D01*
X2864Y1492D02*
X2882Y1492D01*
X2743Y1491D02*
X2777Y1491D01*
X2793Y1491D02*
X2799Y1491D01*
X2817Y1491D02*
X2826Y1491D01*
X2837Y1491D02*
X2855Y1491D01*
X2864Y1491D02*
X2882Y1491D01*
X2743Y1490D02*
X2777Y1490D01*
X2793Y1490D02*
X2799Y1490D01*
X2819Y1490D02*
X2827Y1490D01*
X2837Y1490D02*
X2855Y1490D01*
X2864Y1490D02*
X2882Y1490D01*
X2743Y1489D02*
X2777Y1489D01*
X2793Y1489D02*
X2799Y1489D01*
X2820Y1489D02*
X2827Y1489D01*
X2837Y1489D02*
X2855Y1489D01*
X2864Y1489D02*
X2882Y1489D01*
X2744Y1488D02*
X2776Y1488D01*
X2794Y1488D02*
X2799Y1488D01*
X2821Y1488D02*
X2826Y1488D01*
X2837Y1488D02*
X2855Y1488D01*
X2864Y1488D02*
X2882Y1488D01*
X2745Y1487D02*
X2775Y1487D01*
X2795Y1487D02*
X2798Y1487D01*
X2822Y1487D02*
X2825Y1487D01*
X2837Y1487D02*
X2855Y1487D01*
X2864Y1487D02*
X2882Y1487D01*
X1966Y1184D02*
X1991Y1184D01*
X2015Y1184D02*
X2018Y1184D01*
X1966Y1183D02*
X1993Y1183D01*
X2014Y1183D02*
X2019Y1183D01*
X1966Y1182D02*
X1994Y1182D01*
X2014Y1182D02*
X2019Y1182D01*
X1966Y1181D02*
X1995Y1181D01*
X2013Y1181D02*
X2019Y1181D01*
X1966Y1180D02*
X1995Y1180D01*
X2013Y1180D02*
X2019Y1180D01*
X1966Y1179D02*
X1996Y1179D01*
X2013Y1179D02*
X2019Y1179D01*
X1966Y1178D02*
X1996Y1178D01*
X2013Y1178D02*
X2019Y1178D01*
X1966Y1177D02*
X1972Y1177D01*
X1990Y1177D02*
X1996Y1177D01*
X2013Y1177D02*
X2019Y1177D01*
X1966Y1176D02*
X1972Y1176D01*
X1990Y1176D02*
X1996Y1176D01*
X2013Y1176D02*
X2019Y1176D01*
X1966Y1175D02*
X1972Y1175D01*
X1990Y1175D02*
X1996Y1175D01*
X2013Y1175D02*
X2019Y1175D01*
X1966Y1174D02*
X1972Y1174D01*
X1990Y1174D02*
X1996Y1174D01*
X2013Y1174D02*
X2019Y1174D01*
X1966Y1173D02*
X1972Y1173D01*
X1990Y1173D02*
X1996Y1173D01*
X2013Y1173D02*
X2019Y1173D01*
X1966Y1172D02*
X1972Y1172D01*
X1990Y1172D02*
X1996Y1172D01*
X2013Y1172D02*
X2019Y1172D01*
X1966Y1171D02*
X1972Y1171D01*
X1990Y1171D02*
X1996Y1171D01*
X2013Y1171D02*
X2019Y1171D01*
X1966Y1170D02*
X1972Y1170D01*
X1990Y1170D02*
X1996Y1170D01*
X2013Y1170D02*
X2019Y1170D01*
X1966Y1169D02*
X1972Y1169D01*
X1990Y1169D02*
X1996Y1169D01*
X2013Y1169D02*
X2019Y1169D01*
X1966Y1168D02*
X1972Y1168D01*
X1990Y1168D02*
X1996Y1168D01*
X2013Y1168D02*
X2019Y1168D01*
X1966Y1167D02*
X1972Y1167D01*
X1990Y1167D02*
X1996Y1167D01*
X2013Y1167D02*
X2019Y1167D01*
X1966Y1166D02*
X1972Y1166D01*
X1990Y1166D02*
X1996Y1166D01*
X2013Y1166D02*
X2019Y1166D01*
X1966Y1165D02*
X1972Y1165D01*
X1990Y1165D02*
X1996Y1165D01*
X2013Y1165D02*
X2019Y1165D01*
X1966Y1164D02*
X1972Y1164D01*
X1990Y1164D02*
X1996Y1164D01*
X2013Y1164D02*
X2019Y1164D01*
X1966Y1163D02*
X1972Y1163D01*
X1990Y1163D02*
X1996Y1163D01*
X2013Y1163D02*
X2019Y1163D01*
X1966Y1162D02*
X1972Y1162D01*
X1990Y1162D02*
X1996Y1162D01*
X2013Y1162D02*
X2019Y1162D01*
X1966Y1161D02*
X1972Y1161D01*
X1990Y1161D02*
X1996Y1161D01*
X2013Y1161D02*
X2019Y1161D01*
X1966Y1160D02*
X1972Y1160D01*
X1990Y1160D02*
X1996Y1160D01*
X2013Y1160D02*
X2019Y1160D01*
X1966Y1159D02*
X1972Y1159D01*
X1990Y1159D02*
X1996Y1159D01*
X2013Y1159D02*
X2019Y1159D01*
X1966Y1158D02*
X1972Y1158D01*
X1990Y1158D02*
X1996Y1158D01*
X2013Y1158D02*
X2019Y1158D01*
X1966Y1157D02*
X1972Y1157D01*
X1990Y1157D02*
X1996Y1157D01*
X2013Y1157D02*
X2019Y1157D01*
X1966Y1156D02*
X1972Y1156D01*
X1990Y1156D02*
X2019Y1156D01*
X1966Y1155D02*
X1972Y1155D01*
X1990Y1155D02*
X2019Y1155D01*
X1966Y1154D02*
X1972Y1154D01*
X1991Y1154D02*
X2019Y1154D01*
X1966Y1153D02*
X1972Y1153D01*
X1991Y1153D02*
X2018Y1153D01*
X1967Y1152D02*
X1972Y1152D01*
X1992Y1152D02*
X2017Y1152D01*
X1967Y1151D02*
X1971Y1151D01*
X1993Y1151D02*
X2016Y1151D01*
X1969Y1150D02*
X1969Y1150D01*
X1996Y1150D02*
X2013Y1150D01*
X2012Y1134D02*
X2018Y1134D01*
X2011Y1133D02*
X2019Y1133D01*
X2011Y1132D02*
X2019Y1132D01*
X2011Y1131D02*
X2019Y1131D01*
X2011Y1130D02*
X2019Y1130D01*
X2011Y1129D02*
X2019Y1129D01*
X2012Y1128D02*
X2019Y1128D01*
X2013Y1127D02*
X2019Y1127D01*
X2013Y1126D02*
X2019Y1126D01*
X2013Y1125D02*
X2019Y1125D01*
X2013Y1124D02*
X2019Y1124D01*
X2013Y1123D02*
X2019Y1123D01*
X2013Y1122D02*
X2019Y1122D01*
X2013Y1121D02*
X2019Y1121D01*
X1968Y1120D02*
X1989Y1120D01*
X2013Y1120D02*
X2019Y1120D01*
X1967Y1119D02*
X1990Y1119D01*
X2013Y1119D02*
X2019Y1119D01*
X1966Y1118D02*
X1990Y1118D01*
X2013Y1118D02*
X2019Y1118D01*
X1966Y1117D02*
X1991Y1117D01*
X2013Y1117D02*
X2019Y1117D01*
X1967Y1116D02*
X1992Y1116D01*
X2013Y1116D02*
X2019Y1116D01*
X1967Y1115D02*
X1993Y1115D01*
X2013Y1115D02*
X2019Y1115D01*
X1969Y1114D02*
X1994Y1114D01*
X2013Y1114D02*
X2019Y1114D01*
X1986Y1113D02*
X1995Y1113D01*
X2013Y1113D02*
X2019Y1113D01*
X1987Y1112D02*
X1996Y1112D01*
X2013Y1112D02*
X2019Y1112D01*
X1988Y1111D02*
X1996Y1111D01*
X2013Y1111D02*
X2019Y1111D01*
X1989Y1110D02*
X1997Y1110D01*
X2013Y1110D02*
X2019Y1110D01*
X1990Y1109D02*
X1998Y1109D01*
X2013Y1109D02*
X2019Y1109D01*
X1991Y1108D02*
X1999Y1108D01*
X2013Y1108D02*
X2019Y1108D01*
X1992Y1107D02*
X2000Y1107D01*
X2013Y1107D02*
X2019Y1107D01*
X1992Y1106D02*
X2019Y1106D01*
X1993Y1105D02*
X2019Y1105D01*
X1994Y1104D02*
X2019Y1104D01*
X1995Y1103D02*
X2019Y1103D01*
X1996Y1102D02*
X2019Y1102D01*
X1997Y1101D02*
X2019Y1101D01*
X1999Y1100D02*
X2019Y1100D01*
X1971Y1084D02*
X2015Y1084D01*
X1969Y1083D02*
X2017Y1083D01*
X1968Y1082D02*
X2018Y1082D01*
X1967Y1081D02*
X2018Y1081D01*
X1967Y1080D02*
X2019Y1080D01*
X1966Y1079D02*
X2019Y1079D01*
X1966Y1078D02*
X2019Y1078D01*
X1966Y1077D02*
X1972Y1077D01*
X2013Y1077D02*
X2019Y1077D01*
X1966Y1076D02*
X1972Y1076D01*
X2013Y1076D02*
X2019Y1076D01*
X1966Y1075D02*
X1972Y1075D01*
X2013Y1075D02*
X2019Y1075D01*
X1966Y1074D02*
X1972Y1074D01*
X2013Y1074D02*
X2019Y1074D01*
X1966Y1073D02*
X1972Y1073D01*
X2013Y1073D02*
X2019Y1073D01*
X1966Y1072D02*
X1972Y1072D01*
X2013Y1072D02*
X2019Y1072D01*
X1966Y1071D02*
X1972Y1071D01*
X2013Y1071D02*
X2019Y1071D01*
X1966Y1070D02*
X1972Y1070D01*
X2013Y1070D02*
X2019Y1070D01*
X1966Y1069D02*
X1972Y1069D01*
X2013Y1069D02*
X2019Y1069D01*
X1966Y1068D02*
X1972Y1068D01*
X2013Y1068D02*
X2019Y1068D01*
X1966Y1067D02*
X1972Y1067D01*
X2013Y1067D02*
X2019Y1067D01*
X1966Y1066D02*
X1972Y1066D01*
X2013Y1066D02*
X2019Y1066D01*
X1966Y1065D02*
X1972Y1065D01*
X2013Y1065D02*
X2019Y1065D01*
X1966Y1064D02*
X1972Y1064D01*
X2013Y1064D02*
X2019Y1064D01*
X1966Y1063D02*
X1972Y1063D01*
X2013Y1063D02*
X2019Y1063D01*
X1966Y1062D02*
X1972Y1062D01*
X2013Y1062D02*
X2019Y1062D01*
X1966Y1061D02*
X1972Y1061D01*
X2013Y1061D02*
X2019Y1061D01*
X1966Y1060D02*
X1972Y1060D01*
X2013Y1060D02*
X2019Y1060D01*
X1966Y1059D02*
X1972Y1059D01*
X2013Y1059D02*
X2019Y1059D01*
X1966Y1058D02*
X1972Y1058D01*
X2013Y1058D02*
X2019Y1058D01*
X1966Y1057D02*
X1973Y1057D01*
X2013Y1057D02*
X2019Y1057D01*
X1966Y1056D02*
X2019Y1056D01*
X1967Y1055D02*
X2019Y1055D01*
X1967Y1054D02*
X2019Y1054D01*
X1968Y1053D02*
X2018Y1053D01*
X1968Y1052D02*
X2017Y1052D01*
X1970Y1051D02*
X2016Y1051D01*
X1973Y1050D02*
X2013Y1050D01*
X1966Y1040D02*
X1971Y1040D01*
X1966Y1039D02*
X1971Y1039D01*
X1991Y1039D02*
X2002Y1039D01*
X1966Y1038D02*
X1971Y1038D01*
X1988Y1038D02*
X2005Y1038D01*
X1966Y1037D02*
X1971Y1037D01*
X1986Y1037D02*
X2007Y1037D01*
X1966Y1036D02*
X1971Y1036D01*
X1984Y1036D02*
X2008Y1036D01*
X1966Y1035D02*
X1971Y1035D01*
X1983Y1035D02*
X2009Y1035D01*
X1966Y1034D02*
X1971Y1034D01*
X1982Y1034D02*
X2011Y1034D01*
X1966Y1033D02*
X1971Y1033D01*
X1981Y1033D02*
X2012Y1033D01*
X1966Y1032D02*
X1971Y1032D01*
X1980Y1032D02*
X1990Y1032D01*
X2002Y1032D02*
X2012Y1032D01*
X1966Y1031D02*
X1971Y1031D01*
X1979Y1031D02*
X1987Y1031D01*
X2005Y1031D02*
X2013Y1031D01*
X1966Y1030D02*
X1971Y1030D01*
X1978Y1030D02*
X1985Y1030D01*
X2006Y1030D02*
X2014Y1030D01*
X1966Y1029D02*
X1971Y1029D01*
X1977Y1029D02*
X1984Y1029D01*
X2008Y1029D02*
X2014Y1029D01*
X1966Y1028D02*
X1971Y1028D01*
X1977Y1028D02*
X1983Y1028D01*
X2008Y1028D02*
X2015Y1028D01*
X1966Y1027D02*
X1982Y1027D01*
X2009Y1027D02*
X2015Y1027D01*
X1966Y1026D02*
X1981Y1026D01*
X2010Y1026D02*
X2015Y1026D01*
X1966Y1025D02*
X1980Y1025D01*
X2010Y1025D02*
X2016Y1025D01*
X1966Y1024D02*
X1980Y1024D01*
X2011Y1024D02*
X2016Y1024D01*
X1966Y1023D02*
X1979Y1023D01*
X2011Y1023D02*
X2016Y1023D01*
X1967Y1022D02*
X1978Y1022D01*
X2011Y1022D02*
X2016Y1022D01*
X2012Y1021D02*
X2017Y1021D01*
X2012Y1020D02*
X2017Y1020D01*
X2012Y1019D02*
X2017Y1019D01*
X2012Y1018D02*
X2017Y1018D01*
X2012Y1017D02*
X2017Y1017D01*
X2012Y1016D02*
X2017Y1016D01*
X2012Y1015D02*
X2017Y1015D01*
X2012Y1014D02*
X2017Y1014D01*
X1966Y1013D02*
X1979Y1013D01*
X2011Y1013D02*
X2016Y1013D01*
X1966Y1012D02*
X1980Y1012D01*
X2011Y1012D02*
X2016Y1012D01*
X1966Y1011D02*
X1980Y1011D01*
X2011Y1011D02*
X2016Y1011D01*
X1966Y1010D02*
X1981Y1010D01*
X2010Y1010D02*
X2016Y1010D01*
X1966Y1009D02*
X1982Y1009D01*
X2009Y1009D02*
X2015Y1009D01*
X1966Y1008D02*
X1971Y1008D01*
X1976Y1008D02*
X1983Y1008D01*
X2009Y1008D02*
X2015Y1008D01*
X1966Y1007D02*
X1971Y1007D01*
X1977Y1007D02*
X1984Y1007D01*
X2008Y1007D02*
X2014Y1007D01*
X1966Y1006D02*
X1971Y1006D01*
X1978Y1006D02*
X1985Y1006D01*
X2006Y1006D02*
X2014Y1006D01*
X1966Y1005D02*
X1971Y1005D01*
X1979Y1005D02*
X1987Y1005D01*
X2005Y1005D02*
X2013Y1005D01*
X1966Y1004D02*
X1971Y1004D01*
X1979Y1004D02*
X1989Y1004D01*
X2002Y1004D02*
X2012Y1004D01*
X1966Y1003D02*
X1971Y1003D01*
X1980Y1003D02*
X2012Y1003D01*
X1966Y1002D02*
X1971Y1002D01*
X1981Y1002D02*
X2011Y1002D01*
X1966Y1001D02*
X1971Y1001D01*
X1983Y1001D02*
X2010Y1001D01*
X1966Y1000D02*
X1971Y1000D01*
X1984Y1000D02*
X2008Y1000D01*
X1966Y999D02*
X1971Y999D01*
X1986Y999D02*
X2007Y999D01*
X1966Y998D02*
X1971Y998D01*
X1988Y998D02*
X2005Y998D01*
X1966Y997D02*
X1971Y997D01*
X1991Y997D02*
X2002Y997D01*
X1966Y996D02*
X1971Y996D01*
X1966Y995D02*
X1971Y995D01*
X3101Y847D02*
X3120Y847D01*
X3153Y847D02*
X3180Y847D01*
X3201Y847D02*
X3204Y847D01*
X3100Y846D02*
X3120Y846D01*
X3152Y846D02*
X3181Y846D01*
X3200Y846D02*
X3205Y846D01*
X3100Y845D02*
X3120Y845D01*
X3151Y845D02*
X3182Y845D01*
X3200Y845D02*
X3206Y845D01*
X3263Y845D02*
X3269Y845D01*
X3100Y844D02*
X3120Y844D01*
X3151Y844D02*
X3183Y844D01*
X3200Y844D02*
X3206Y844D01*
X3258Y844D02*
X3273Y844D01*
X3100Y843D02*
X3120Y843D01*
X3150Y843D02*
X3183Y843D01*
X3200Y843D02*
X3206Y843D01*
X3256Y843D02*
X3276Y843D01*
X3101Y842D02*
X3120Y842D01*
X3150Y842D02*
X3183Y842D01*
X3200Y842D02*
X3206Y842D01*
X3254Y842D02*
X3278Y842D01*
X3103Y841D02*
X3120Y841D01*
X3150Y841D02*
X3183Y841D01*
X3200Y841D02*
X3206Y841D01*
X3252Y841D02*
X3279Y841D01*
X3113Y840D02*
X3120Y840D01*
X3150Y840D02*
X3156Y840D01*
X3177Y840D02*
X3183Y840D01*
X3200Y840D02*
X3206Y840D01*
X3251Y840D02*
X3280Y840D01*
X3113Y839D02*
X3120Y839D01*
X3150Y839D02*
X3156Y839D01*
X3177Y839D02*
X3183Y839D01*
X3200Y839D02*
X3206Y839D01*
X3250Y839D02*
X3261Y839D01*
X3270Y839D02*
X3282Y839D01*
X3113Y838D02*
X3120Y838D01*
X3150Y838D02*
X3156Y838D01*
X3177Y838D02*
X3183Y838D01*
X3200Y838D02*
X3206Y838D01*
X3249Y838D02*
X3258Y838D01*
X3273Y838D02*
X3282Y838D01*
X3113Y837D02*
X3120Y837D01*
X3150Y837D02*
X3156Y837D01*
X3177Y837D02*
X3183Y837D01*
X3200Y837D02*
X3206Y837D01*
X3249Y837D02*
X3257Y837D01*
X3275Y837D02*
X3283Y837D01*
X3113Y836D02*
X3120Y836D01*
X3150Y836D02*
X3156Y836D01*
X3177Y836D02*
X3183Y836D01*
X3200Y836D02*
X3206Y836D01*
X3248Y836D02*
X3255Y836D01*
X3276Y836D02*
X3284Y836D01*
X3113Y835D02*
X3120Y835D01*
X3150Y835D02*
X3156Y835D01*
X3177Y835D02*
X3183Y835D01*
X3200Y835D02*
X3206Y835D01*
X3247Y835D02*
X3254Y835D01*
X3277Y835D02*
X3284Y835D01*
X3113Y834D02*
X3120Y834D01*
X3150Y834D02*
X3156Y834D01*
X3177Y834D02*
X3183Y834D01*
X3200Y834D02*
X3206Y834D01*
X3247Y834D02*
X3253Y834D01*
X3278Y834D02*
X3285Y834D01*
X3113Y833D02*
X3120Y833D01*
X3150Y833D02*
X3156Y833D01*
X3177Y833D02*
X3183Y833D01*
X3200Y833D02*
X3206Y833D01*
X3226Y833D02*
X3227Y833D01*
X3246Y833D02*
X3253Y833D01*
X3279Y833D02*
X3285Y833D01*
X3113Y832D02*
X3120Y832D01*
X3150Y832D02*
X3156Y832D01*
X3177Y832D02*
X3183Y832D01*
X3200Y832D02*
X3206Y832D01*
X3225Y832D02*
X3229Y832D01*
X3246Y832D02*
X3252Y832D01*
X3279Y832D02*
X3286Y832D01*
X3113Y831D02*
X3120Y831D01*
X3150Y831D02*
X3156Y831D01*
X3177Y831D02*
X3183Y831D01*
X3200Y831D02*
X3206Y831D01*
X3223Y831D02*
X3230Y831D01*
X3246Y831D02*
X3252Y831D01*
X3280Y831D02*
X3286Y831D01*
X3113Y830D02*
X3120Y830D01*
X3150Y830D02*
X3156Y830D01*
X3177Y830D02*
X3183Y830D01*
X3200Y830D02*
X3206Y830D01*
X3222Y830D02*
X3230Y830D01*
X3245Y830D02*
X3251Y830D01*
X3280Y830D02*
X3286Y830D01*
X3113Y829D02*
X3120Y829D01*
X3150Y829D02*
X3156Y829D01*
X3177Y829D02*
X3183Y829D01*
X3200Y829D02*
X3206Y829D01*
X3221Y829D02*
X3230Y829D01*
X3245Y829D02*
X3251Y829D01*
X3280Y829D02*
X3287Y829D01*
X3113Y828D02*
X3120Y828D01*
X3150Y828D02*
X3156Y828D01*
X3177Y828D02*
X3183Y828D01*
X3200Y828D02*
X3206Y828D01*
X3220Y828D02*
X3229Y828D01*
X3245Y828D02*
X3251Y828D01*
X3281Y828D02*
X3287Y828D01*
X3113Y827D02*
X3120Y827D01*
X3150Y827D02*
X3156Y827D01*
X3177Y827D02*
X3183Y827D01*
X3200Y827D02*
X3206Y827D01*
X3219Y827D02*
X3229Y827D01*
X3245Y827D02*
X3251Y827D01*
X3281Y827D02*
X3287Y827D01*
X3113Y826D02*
X3120Y826D01*
X3150Y826D02*
X3156Y826D01*
X3177Y826D02*
X3183Y826D01*
X3200Y826D02*
X3206Y826D01*
X3218Y826D02*
X3227Y826D01*
X3245Y826D02*
X3251Y826D01*
X3281Y826D02*
X3287Y826D01*
X3113Y825D02*
X3120Y825D01*
X3150Y825D02*
X3156Y825D01*
X3177Y825D02*
X3183Y825D01*
X3200Y825D02*
X3206Y825D01*
X3216Y825D02*
X3226Y825D01*
X3245Y825D02*
X3251Y825D01*
X3281Y825D02*
X3287Y825D01*
X3113Y824D02*
X3120Y824D01*
X3150Y824D02*
X3156Y824D01*
X3177Y824D02*
X3183Y824D01*
X3200Y824D02*
X3206Y824D01*
X3215Y824D02*
X3225Y824D01*
X3244Y824D02*
X3250Y824D01*
X3281Y824D02*
X3287Y824D01*
X3113Y823D02*
X3120Y823D01*
X3150Y823D02*
X3156Y823D01*
X3177Y823D02*
X3183Y823D01*
X3200Y823D02*
X3206Y823D01*
X3214Y823D02*
X3224Y823D01*
X3245Y823D02*
X3251Y823D01*
X3281Y823D02*
X3287Y823D01*
X3113Y822D02*
X3120Y822D01*
X3150Y822D02*
X3156Y822D01*
X3177Y822D02*
X3183Y822D01*
X3200Y822D02*
X3206Y822D01*
X3213Y822D02*
X3223Y822D01*
X3245Y822D02*
X3251Y822D01*
X3281Y822D02*
X3287Y822D01*
X3113Y821D02*
X3120Y821D01*
X3150Y821D02*
X3156Y821D01*
X3177Y821D02*
X3183Y821D01*
X3200Y821D02*
X3206Y821D01*
X3212Y821D02*
X3222Y821D01*
X3245Y821D02*
X3251Y821D01*
X3281Y821D02*
X3287Y821D01*
X3113Y820D02*
X3120Y820D01*
X3150Y820D02*
X3156Y820D01*
X3177Y820D02*
X3183Y820D01*
X3200Y820D02*
X3206Y820D01*
X3211Y820D02*
X3220Y820D01*
X3245Y820D02*
X3251Y820D01*
X3281Y820D02*
X3287Y820D01*
X3113Y819D02*
X3120Y819D01*
X3150Y819D02*
X3156Y819D01*
X3177Y819D02*
X3183Y819D01*
X3200Y819D02*
X3206Y819D01*
X3209Y819D02*
X3219Y819D01*
X3245Y819D02*
X3251Y819D01*
X3281Y819D02*
X3286Y819D01*
X3113Y818D02*
X3120Y818D01*
X3129Y818D02*
X3131Y818D01*
X3150Y818D02*
X3156Y818D01*
X3177Y818D02*
X3183Y818D01*
X3200Y818D02*
X3206Y818D01*
X3208Y818D02*
X3218Y818D01*
X3245Y818D02*
X3251Y818D01*
X3280Y818D02*
X3286Y818D01*
X3113Y817D02*
X3120Y817D01*
X3128Y817D02*
X3133Y817D01*
X3150Y817D02*
X3156Y817D01*
X3177Y817D02*
X3183Y817D01*
X3200Y817D02*
X3217Y817D01*
X3246Y817D02*
X3252Y817D01*
X3280Y817D02*
X3286Y817D01*
X3113Y816D02*
X3120Y816D01*
X3128Y816D02*
X3133Y816D01*
X3150Y816D02*
X3156Y816D01*
X3177Y816D02*
X3183Y816D01*
X3200Y816D02*
X3216Y816D01*
X3246Y816D02*
X3252Y816D01*
X3280Y816D02*
X3286Y816D01*
X3113Y815D02*
X3120Y815D01*
X3127Y815D02*
X3133Y815D01*
X3150Y815D02*
X3156Y815D01*
X3177Y815D02*
X3183Y815D01*
X3200Y815D02*
X3215Y815D01*
X3246Y815D02*
X3253Y815D01*
X3279Y815D02*
X3285Y815D01*
X3113Y814D02*
X3120Y814D01*
X3127Y814D02*
X3133Y814D01*
X3150Y814D02*
X3156Y814D01*
X3177Y814D02*
X3183Y814D01*
X3200Y814D02*
X3216Y814D01*
X3247Y814D02*
X3253Y814D01*
X3278Y814D02*
X3285Y814D01*
X3113Y813D02*
X3120Y813D01*
X3127Y813D02*
X3133Y813D01*
X3150Y813D02*
X3156Y813D01*
X3177Y813D02*
X3183Y813D01*
X3200Y813D02*
X3217Y813D01*
X3247Y813D02*
X3254Y813D01*
X3278Y813D02*
X3284Y813D01*
X3113Y812D02*
X3120Y812D01*
X3127Y812D02*
X3133Y812D01*
X3150Y812D02*
X3156Y812D01*
X3177Y812D02*
X3183Y812D01*
X3200Y812D02*
X3218Y812D01*
X3248Y812D02*
X3255Y812D01*
X3277Y812D02*
X3284Y812D01*
X3113Y811D02*
X3120Y811D01*
X3127Y811D02*
X3133Y811D01*
X3150Y811D02*
X3156Y811D01*
X3177Y811D02*
X3183Y811D01*
X3200Y811D02*
X3219Y811D01*
X3249Y811D02*
X3256Y811D01*
X3276Y811D02*
X3283Y811D01*
X3113Y810D02*
X3120Y810D01*
X3127Y810D02*
X3133Y810D01*
X3150Y810D02*
X3156Y810D01*
X3177Y810D02*
X3183Y810D01*
X3200Y810D02*
X3220Y810D01*
X3250Y810D02*
X3257Y810D01*
X3275Y810D02*
X3282Y810D01*
X3113Y809D02*
X3120Y809D01*
X3127Y809D02*
X3133Y809D01*
X3150Y809D02*
X3156Y809D01*
X3177Y809D02*
X3183Y809D01*
X3200Y809D02*
X3208Y809D01*
X3212Y809D02*
X3221Y809D01*
X3250Y809D02*
X3258Y809D01*
X3274Y809D02*
X3281Y809D01*
X3113Y808D02*
X3120Y808D01*
X3127Y808D02*
X3133Y808D01*
X3150Y808D02*
X3156Y808D01*
X3177Y808D02*
X3183Y808D01*
X3200Y808D02*
X3206Y808D01*
X3213Y808D02*
X3223Y808D01*
X3251Y808D02*
X3260Y808D01*
X3272Y808D02*
X3280Y808D01*
X3113Y807D02*
X3120Y807D01*
X3127Y807D02*
X3133Y807D01*
X3150Y807D02*
X3156Y807D01*
X3177Y807D02*
X3183Y807D01*
X3200Y807D02*
X3206Y807D01*
X3214Y807D02*
X3224Y807D01*
X3252Y807D02*
X3261Y807D01*
X3271Y807D02*
X3279Y807D01*
X3113Y806D02*
X3120Y806D01*
X3127Y806D02*
X3133Y806D01*
X3150Y806D02*
X3156Y806D01*
X3177Y806D02*
X3183Y806D01*
X3200Y806D02*
X3206Y806D01*
X3215Y806D02*
X3225Y806D01*
X3254Y806D02*
X3261Y806D01*
X3271Y806D02*
X3278Y806D01*
X3113Y805D02*
X3120Y805D01*
X3127Y805D02*
X3133Y805D01*
X3150Y805D02*
X3156Y805D01*
X3177Y805D02*
X3183Y805D01*
X3200Y805D02*
X3206Y805D01*
X3216Y805D02*
X3226Y805D01*
X3255Y805D02*
X3261Y805D01*
X3271Y805D02*
X3277Y805D01*
X3113Y804D02*
X3120Y804D01*
X3127Y804D02*
X3133Y804D01*
X3150Y804D02*
X3156Y804D01*
X3177Y804D02*
X3183Y804D01*
X3200Y804D02*
X3206Y804D01*
X3218Y804D02*
X3227Y804D01*
X3256Y804D02*
X3261Y804D01*
X3271Y804D02*
X3275Y804D01*
X3113Y803D02*
X3120Y803D01*
X3127Y803D02*
X3133Y803D01*
X3150Y803D02*
X3156Y803D01*
X3177Y803D02*
X3183Y803D01*
X3200Y803D02*
X3206Y803D01*
X3219Y803D02*
X3228Y803D01*
X3257Y803D02*
X3261Y803D01*
X3271Y803D02*
X3275Y803D01*
X3113Y802D02*
X3120Y802D01*
X3127Y802D02*
X3133Y802D01*
X3150Y802D02*
X3156Y802D01*
X3177Y802D02*
X3183Y802D01*
X3200Y802D02*
X3206Y802D01*
X3220Y802D02*
X3230Y802D01*
X3257Y802D02*
X3261Y802D01*
X3271Y802D02*
X3275Y802D01*
X3113Y801D02*
X3120Y801D01*
X3127Y801D02*
X3133Y801D01*
X3150Y801D02*
X3156Y801D01*
X3177Y801D02*
X3183Y801D01*
X3200Y801D02*
X3206Y801D01*
X3221Y801D02*
X3231Y801D01*
X3257Y801D02*
X3261Y801D01*
X3271Y801D02*
X3275Y801D01*
X3101Y800D02*
X3133Y800D01*
X3150Y800D02*
X3183Y800D01*
X3200Y800D02*
X3206Y800D01*
X3222Y800D02*
X3232Y800D01*
X3257Y800D02*
X3261Y800D01*
X3271Y800D02*
X3275Y800D01*
X3100Y799D02*
X3133Y799D01*
X3150Y799D02*
X3183Y799D01*
X3200Y799D02*
X3206Y799D01*
X3223Y799D02*
X3233Y799D01*
X3243Y799D02*
X3261Y799D01*
X3271Y799D02*
X3288Y799D01*
X3100Y798D02*
X3133Y798D01*
X3150Y798D02*
X3183Y798D01*
X3200Y798D02*
X3206Y798D01*
X3225Y798D02*
X3233Y798D01*
X3243Y798D02*
X3261Y798D01*
X3271Y798D02*
X3288Y798D01*
X3100Y797D02*
X3133Y797D01*
X3151Y797D02*
X3182Y797D01*
X3200Y797D02*
X3206Y797D01*
X3226Y797D02*
X3233Y797D01*
X3243Y797D02*
X3261Y797D01*
X3271Y797D02*
X3288Y797D01*
X3100Y796D02*
X3133Y796D01*
X3152Y796D02*
X3181Y796D01*
X3200Y796D02*
X3205Y796D01*
X3227Y796D02*
X3233Y796D01*
X3243Y796D02*
X3261Y796D01*
X3271Y796D02*
X3288Y796D01*
X3101Y795D02*
X3132Y795D01*
X3153Y795D02*
X3180Y795D01*
X3201Y795D02*
X3205Y795D01*
X3228Y795D02*
X3232Y795D01*
X3243Y795D02*
X3261Y795D01*
X3271Y795D02*
X3288Y795D01*
X3102Y794D02*
X3131Y794D01*
X3155Y794D02*
X3178Y794D01*
X3202Y794D02*
X3203Y794D01*
X3230Y794D02*
X3231Y794D01*
X3244Y794D02*
X3261Y794D01*
X3271Y794D02*
X3288Y794D01*
X1937Y775D02*
X1968Y775D01*
X1994Y775D02*
X2009Y775D01*
X2040Y775D02*
X2063Y775D01*
X2092Y775D02*
X2116Y775D01*
X1936Y774D02*
X1968Y774D01*
X1992Y774D02*
X2011Y774D01*
X2038Y774D02*
X2065Y774D01*
X2092Y774D02*
X2117Y774D01*
X1935Y773D02*
X1968Y773D01*
X1992Y773D02*
X2011Y773D01*
X2037Y773D02*
X2066Y773D01*
X2092Y773D02*
X2118Y773D01*
X1935Y772D02*
X1968Y772D01*
X1992Y772D02*
X2011Y772D01*
X2036Y772D02*
X2067Y772D01*
X2092Y772D02*
X2118Y772D01*
X1935Y771D02*
X1968Y771D01*
X1992Y771D02*
X2011Y771D01*
X2035Y771D02*
X2068Y771D01*
X2092Y771D02*
X2118Y771D01*
X1935Y770D02*
X1968Y770D01*
X1992Y770D02*
X2011Y770D01*
X2035Y770D02*
X2068Y770D01*
X2092Y770D02*
X2118Y770D01*
X1935Y769D02*
X1968Y769D01*
X1992Y769D02*
X2011Y769D01*
X2035Y769D02*
X2068Y769D01*
X2092Y769D02*
X2117Y769D01*
X1935Y768D02*
X1941Y768D01*
X1962Y768D02*
X1968Y768D01*
X1992Y768D02*
X1998Y768D01*
X2005Y768D02*
X2011Y768D01*
X2035Y768D02*
X2041Y768D01*
X2062Y768D02*
X2068Y768D01*
X2092Y768D02*
X2098Y768D01*
X1935Y767D02*
X1940Y767D01*
X1962Y767D02*
X1968Y767D01*
X1992Y767D02*
X1998Y767D01*
X2005Y767D02*
X2011Y767D01*
X2035Y767D02*
X2041Y767D01*
X2062Y767D02*
X2068Y767D01*
X2092Y767D02*
X2098Y767D01*
X1936Y766D02*
X1939Y766D01*
X1962Y766D02*
X1968Y766D01*
X1992Y766D02*
X1998Y766D01*
X2005Y766D02*
X2011Y766D01*
X2035Y766D02*
X2041Y766D01*
X2062Y766D02*
X2068Y766D01*
X2092Y766D02*
X2098Y766D01*
X1962Y765D02*
X1968Y765D01*
X1992Y765D02*
X1998Y765D01*
X2005Y765D02*
X2011Y765D01*
X2035Y765D02*
X2041Y765D01*
X2062Y765D02*
X2068Y765D01*
X2092Y765D02*
X2098Y765D01*
X1962Y764D02*
X1968Y764D01*
X1992Y764D02*
X1998Y764D01*
X2005Y764D02*
X2011Y764D01*
X2035Y764D02*
X2041Y764D01*
X2062Y764D02*
X2068Y764D01*
X2092Y764D02*
X2098Y764D01*
X1962Y763D02*
X1968Y763D01*
X1992Y763D02*
X1998Y763D01*
X2005Y763D02*
X2011Y763D01*
X2035Y763D02*
X2041Y763D01*
X2062Y763D02*
X2068Y763D01*
X2092Y763D02*
X2098Y763D01*
X1962Y762D02*
X1968Y762D01*
X1992Y762D02*
X1998Y762D01*
X2005Y762D02*
X2011Y762D01*
X2035Y762D02*
X2041Y762D01*
X2062Y762D02*
X2068Y762D01*
X2092Y762D02*
X2098Y762D01*
X1962Y761D02*
X1968Y761D01*
X1992Y761D02*
X1998Y761D01*
X2005Y761D02*
X2011Y761D01*
X2035Y761D02*
X2041Y761D01*
X2062Y761D02*
X2068Y761D01*
X2092Y761D02*
X2098Y761D01*
X1962Y760D02*
X1968Y760D01*
X1992Y760D02*
X1998Y760D01*
X2005Y760D02*
X2011Y760D01*
X2035Y760D02*
X2041Y760D01*
X2062Y760D02*
X2068Y760D01*
X2092Y760D02*
X2098Y760D01*
X1962Y759D02*
X1968Y759D01*
X1992Y759D02*
X1998Y759D01*
X2005Y759D02*
X2011Y759D01*
X2035Y759D02*
X2041Y759D01*
X2062Y759D02*
X2068Y759D01*
X2092Y759D02*
X2098Y759D01*
X1962Y758D02*
X1968Y758D01*
X1992Y758D02*
X1998Y758D01*
X2005Y758D02*
X2011Y758D01*
X2035Y758D02*
X2041Y758D01*
X2062Y758D02*
X2068Y758D01*
X2092Y758D02*
X2098Y758D01*
X1962Y757D02*
X1968Y757D01*
X1992Y757D02*
X1998Y757D01*
X2005Y757D02*
X2011Y757D01*
X2035Y757D02*
X2041Y757D01*
X2062Y757D02*
X2068Y757D01*
X2092Y757D02*
X2098Y757D01*
X1962Y756D02*
X1968Y756D01*
X1992Y756D02*
X1998Y756D01*
X2005Y756D02*
X2011Y756D01*
X2035Y756D02*
X2041Y756D01*
X2062Y756D02*
X2068Y756D01*
X2092Y756D02*
X2098Y756D01*
X1961Y755D02*
X1968Y755D01*
X1992Y755D02*
X1998Y755D01*
X2005Y755D02*
X2011Y755D01*
X2035Y755D02*
X2041Y755D01*
X2062Y755D02*
X2068Y755D01*
X2092Y755D02*
X2098Y755D01*
X1960Y754D02*
X1968Y754D01*
X1992Y754D02*
X1998Y754D01*
X2005Y754D02*
X2011Y754D01*
X2035Y754D02*
X2041Y754D01*
X2062Y754D02*
X2068Y754D01*
X2092Y754D02*
X2098Y754D01*
X1959Y753D02*
X1968Y753D01*
X1992Y753D02*
X1998Y753D01*
X2005Y753D02*
X2011Y753D01*
X2035Y753D02*
X2041Y753D01*
X2062Y753D02*
X2068Y753D01*
X2092Y753D02*
X2098Y753D01*
X1958Y752D02*
X1968Y752D01*
X1992Y752D02*
X1998Y752D01*
X2005Y752D02*
X2011Y752D01*
X2035Y752D02*
X2041Y752D01*
X2062Y752D02*
X2068Y752D01*
X2092Y752D02*
X2098Y752D01*
X1957Y751D02*
X1967Y751D01*
X1989Y751D02*
X2014Y751D01*
X2035Y751D02*
X2041Y751D01*
X2062Y751D02*
X2068Y751D01*
X2092Y751D02*
X2114Y751D01*
X1956Y750D02*
X1965Y750D01*
X1987Y750D02*
X2016Y750D01*
X2035Y750D02*
X2041Y750D01*
X2062Y750D02*
X2068Y750D01*
X2092Y750D02*
X2116Y750D01*
X1954Y749D02*
X1964Y749D01*
X1986Y749D02*
X2017Y749D01*
X2035Y749D02*
X2041Y749D01*
X2062Y749D02*
X2068Y749D01*
X2092Y749D02*
X2117Y749D01*
X1953Y748D02*
X1963Y748D01*
X1986Y748D02*
X2017Y748D01*
X2035Y748D02*
X2041Y748D01*
X2062Y748D02*
X2068Y748D01*
X2092Y748D02*
X2117Y748D01*
X1952Y747D02*
X1962Y747D01*
X1985Y747D02*
X2018Y747D01*
X2035Y747D02*
X2041Y747D01*
X2062Y747D02*
X2068Y747D01*
X2092Y747D02*
X2118Y747D01*
X1951Y746D02*
X1961Y746D01*
X1985Y746D02*
X2018Y746D01*
X2035Y746D02*
X2041Y746D01*
X2062Y746D02*
X2068Y746D01*
X2092Y746D02*
X2118Y746D01*
X1950Y745D02*
X1960Y745D01*
X1985Y745D02*
X2018Y745D01*
X2035Y745D02*
X2041Y745D01*
X2062Y745D02*
X2068Y745D01*
X2092Y745D02*
X2118Y745D01*
X1949Y744D02*
X1958Y744D01*
X1985Y744D02*
X1991Y744D01*
X2012Y744D02*
X2018Y744D01*
X2035Y744D02*
X2041Y744D01*
X2062Y744D02*
X2068Y744D01*
X2112Y744D02*
X2118Y744D01*
X1949Y743D02*
X1957Y743D01*
X1985Y743D02*
X1991Y743D01*
X2012Y743D02*
X2018Y743D01*
X2035Y743D02*
X2041Y743D01*
X2062Y743D02*
X2068Y743D01*
X2112Y743D02*
X2118Y743D01*
X1948Y742D02*
X1956Y742D01*
X1985Y742D02*
X1991Y742D01*
X2012Y742D02*
X2018Y742D01*
X2035Y742D02*
X2041Y742D01*
X2062Y742D02*
X2068Y742D01*
X2112Y742D02*
X2118Y742D01*
X1948Y741D02*
X1955Y741D01*
X1985Y741D02*
X1991Y741D01*
X2012Y741D02*
X2018Y741D01*
X2035Y741D02*
X2041Y741D01*
X2062Y741D02*
X2068Y741D01*
X2112Y741D02*
X2118Y741D01*
X1948Y740D02*
X1955Y740D01*
X1985Y740D02*
X1991Y740D01*
X2012Y740D02*
X2018Y740D01*
X2035Y740D02*
X2041Y740D01*
X2062Y740D02*
X2068Y740D01*
X2112Y740D02*
X2118Y740D01*
X1948Y739D02*
X1955Y739D01*
X1985Y739D02*
X1991Y739D01*
X2012Y739D02*
X2018Y739D01*
X2035Y739D02*
X2041Y739D01*
X2062Y739D02*
X2068Y739D01*
X2112Y739D02*
X2118Y739D01*
X1948Y738D02*
X1955Y738D01*
X1985Y738D02*
X1991Y738D01*
X2012Y738D02*
X2018Y738D01*
X2035Y738D02*
X2041Y738D01*
X2062Y738D02*
X2068Y738D01*
X2112Y738D02*
X2118Y738D01*
X1948Y737D02*
X1955Y737D01*
X1985Y737D02*
X1991Y737D01*
X2012Y737D02*
X2018Y737D01*
X2035Y737D02*
X2041Y737D01*
X2062Y737D02*
X2068Y737D01*
X2112Y737D02*
X2118Y737D01*
X1948Y736D02*
X1955Y736D01*
X1985Y736D02*
X1991Y736D01*
X2012Y736D02*
X2018Y736D01*
X2035Y736D02*
X2041Y736D01*
X2062Y736D02*
X2068Y736D01*
X2112Y736D02*
X2118Y736D01*
X1948Y735D02*
X1955Y735D01*
X1985Y735D02*
X1991Y735D01*
X2012Y735D02*
X2018Y735D01*
X2035Y735D02*
X2041Y735D01*
X2062Y735D02*
X2068Y735D01*
X2112Y735D02*
X2118Y735D01*
X1948Y734D02*
X1955Y734D01*
X1985Y734D02*
X1991Y734D01*
X2012Y734D02*
X2018Y734D01*
X2035Y734D02*
X2041Y734D01*
X2062Y734D02*
X2068Y734D01*
X2112Y734D02*
X2118Y734D01*
X1948Y733D02*
X1955Y733D01*
X1985Y733D02*
X1991Y733D01*
X2012Y733D02*
X2018Y733D01*
X2035Y733D02*
X2041Y733D01*
X2062Y733D02*
X2068Y733D01*
X2112Y733D02*
X2118Y733D01*
X1948Y732D02*
X1955Y732D01*
X1985Y732D02*
X1991Y732D01*
X2012Y732D02*
X2018Y732D01*
X2035Y732D02*
X2041Y732D01*
X2062Y732D02*
X2068Y732D01*
X2112Y732D02*
X2118Y732D01*
X1948Y731D02*
X1955Y731D01*
X1985Y731D02*
X1991Y731D01*
X2012Y731D02*
X2018Y731D01*
X2035Y731D02*
X2041Y731D01*
X2062Y731D02*
X2068Y731D01*
X2088Y731D02*
X2088Y731D01*
X2112Y731D02*
X2118Y731D01*
X1948Y730D02*
X1955Y730D01*
X1985Y730D02*
X1991Y730D01*
X2012Y730D02*
X2018Y730D01*
X2035Y730D02*
X2041Y730D01*
X2062Y730D02*
X2068Y730D01*
X2086Y730D02*
X2091Y730D01*
X2112Y730D02*
X2118Y730D01*
X1948Y729D02*
X1955Y729D01*
X1985Y729D02*
X1991Y729D01*
X2012Y729D02*
X2018Y729D01*
X2035Y729D02*
X2041Y729D01*
X2062Y729D02*
X2068Y729D01*
X2085Y729D02*
X2093Y729D01*
X2112Y729D02*
X2118Y729D01*
X1948Y728D02*
X1955Y728D01*
X1985Y728D02*
X2018Y728D01*
X2035Y728D02*
X2068Y728D01*
X2085Y728D02*
X2118Y728D01*
X1948Y727D02*
X1955Y727D01*
X1985Y727D02*
X2018Y727D01*
X2035Y727D02*
X2068Y727D01*
X2085Y727D02*
X2118Y727D01*
X1948Y726D02*
X1955Y726D01*
X1985Y726D02*
X2018Y726D01*
X2035Y726D02*
X2068Y726D01*
X2085Y726D02*
X2118Y726D01*
X1949Y725D02*
X1955Y725D01*
X1986Y725D02*
X2018Y725D01*
X2036Y725D02*
X2068Y725D01*
X2086Y725D02*
X2118Y725D01*
X1949Y724D02*
X1954Y724D01*
X1986Y724D02*
X2017Y724D01*
X2036Y724D02*
X2067Y724D01*
X2088Y724D02*
X2117Y724D01*
X1949Y723D02*
X1954Y723D01*
X1987Y723D02*
X2016Y723D01*
X2037Y723D02*
X2066Y723D01*
X2090Y723D02*
X2116Y723D01*
X1950Y722D02*
X1953Y722D01*
X1988Y722D02*
X2014Y722D01*
X2039Y722D02*
X2064Y722D01*
X2092Y722D02*
X2114Y722D01*
X2313Y648D02*
X2337Y648D01*
X2381Y648D02*
X2393Y648D01*
X2423Y648D02*
X2436Y648D01*
X2466Y648D02*
X2482Y648D01*
X2516Y648D02*
X2546Y648D01*
X2313Y647D02*
X2341Y647D01*
X2377Y647D02*
X2396Y647D01*
X2421Y647D02*
X2439Y647D01*
X2464Y647D02*
X2483Y647D01*
X2514Y647D02*
X2547Y647D01*
X2313Y646D02*
X2342Y646D01*
X2375Y646D02*
X2396Y646D01*
X2420Y646D02*
X2439Y646D01*
X2463Y646D02*
X2483Y646D01*
X2513Y646D02*
X2547Y646D01*
X2313Y645D02*
X2343Y645D01*
X2374Y645D02*
X2397Y645D01*
X2420Y645D02*
X2440Y645D01*
X2463Y645D02*
X2483Y645D01*
X2513Y645D02*
X2547Y645D01*
X2313Y644D02*
X2344Y644D01*
X2373Y644D02*
X2397Y644D01*
X2420Y644D02*
X2440Y644D01*
X2463Y644D02*
X2483Y644D01*
X2513Y644D02*
X2547Y644D01*
X2313Y643D02*
X2345Y643D01*
X2372Y643D02*
X2396Y643D01*
X2420Y643D02*
X2440Y643D01*
X2463Y643D02*
X2483Y643D01*
X2513Y643D02*
X2547Y643D01*
X2313Y642D02*
X2346Y642D01*
X2372Y642D02*
X2395Y642D01*
X2420Y642D02*
X2440Y642D01*
X2464Y642D02*
X2483Y642D01*
X2513Y642D02*
X2547Y642D01*
X2313Y641D02*
X2320Y641D01*
X2337Y641D02*
X2346Y641D01*
X2371Y641D02*
X2380Y641D01*
X2420Y641D02*
X2426Y641D01*
X2433Y641D02*
X2440Y641D01*
X2476Y641D02*
X2483Y641D01*
X2513Y641D02*
X2519Y641D01*
X2540Y641D02*
X2547Y641D01*
X2313Y640D02*
X2319Y640D01*
X2339Y640D02*
X2346Y640D01*
X2371Y640D02*
X2378Y640D01*
X2420Y640D02*
X2426Y640D01*
X2434Y640D02*
X2440Y640D01*
X2477Y640D02*
X2483Y640D01*
X2514Y640D02*
X2519Y640D01*
X2541Y640D02*
X2547Y640D01*
X2313Y639D02*
X2319Y639D01*
X2340Y639D02*
X2347Y639D01*
X2370Y639D02*
X2377Y639D01*
X2420Y639D02*
X2426Y639D01*
X2434Y639D02*
X2440Y639D01*
X2477Y639D02*
X2483Y639D01*
X2514Y639D02*
X2518Y639D01*
X2541Y639D02*
X2547Y639D01*
X2313Y638D02*
X2319Y638D01*
X2341Y638D02*
X2347Y638D01*
X2370Y638D02*
X2377Y638D01*
X2420Y638D02*
X2426Y638D01*
X2434Y638D02*
X2440Y638D01*
X2477Y638D02*
X2483Y638D01*
X2541Y638D02*
X2547Y638D01*
X2313Y637D02*
X2319Y637D01*
X2341Y637D02*
X2347Y637D01*
X2369Y637D02*
X2376Y637D01*
X2420Y637D02*
X2426Y637D01*
X2434Y637D02*
X2440Y637D01*
X2477Y637D02*
X2483Y637D01*
X2541Y637D02*
X2547Y637D01*
X2313Y636D02*
X2319Y636D01*
X2341Y636D02*
X2347Y636D01*
X2369Y636D02*
X2376Y636D01*
X2420Y636D02*
X2426Y636D01*
X2434Y636D02*
X2440Y636D01*
X2477Y636D02*
X2483Y636D01*
X2541Y636D02*
X2547Y636D01*
X2313Y635D02*
X2319Y635D01*
X2341Y635D02*
X2347Y635D01*
X2368Y635D02*
X2375Y635D01*
X2420Y635D02*
X2426Y635D01*
X2434Y635D02*
X2440Y635D01*
X2477Y635D02*
X2483Y635D01*
X2541Y635D02*
X2547Y635D01*
X2313Y634D02*
X2319Y634D01*
X2341Y634D02*
X2347Y634D01*
X2368Y634D02*
X2375Y634D01*
X2420Y634D02*
X2426Y634D01*
X2434Y634D02*
X2440Y634D01*
X2477Y634D02*
X2483Y634D01*
X2541Y634D02*
X2547Y634D01*
X2313Y633D02*
X2319Y633D01*
X2341Y633D02*
X2347Y633D01*
X2367Y633D02*
X2374Y633D01*
X2420Y633D02*
X2426Y633D01*
X2434Y633D02*
X2440Y633D01*
X2477Y633D02*
X2483Y633D01*
X2541Y633D02*
X2547Y633D01*
X2313Y632D02*
X2319Y632D01*
X2341Y632D02*
X2347Y632D01*
X2367Y632D02*
X2374Y632D01*
X2420Y632D02*
X2426Y632D01*
X2434Y632D02*
X2440Y632D01*
X2477Y632D02*
X2483Y632D01*
X2541Y632D02*
X2547Y632D01*
X2313Y631D02*
X2319Y631D01*
X2341Y631D02*
X2347Y631D01*
X2366Y631D02*
X2373Y631D01*
X2420Y631D02*
X2426Y631D01*
X2434Y631D02*
X2440Y631D01*
X2477Y631D02*
X2483Y631D01*
X2541Y631D02*
X2547Y631D01*
X2313Y630D02*
X2319Y630D01*
X2341Y630D02*
X2347Y630D01*
X2366Y630D02*
X2373Y630D01*
X2420Y630D02*
X2426Y630D01*
X2434Y630D02*
X2440Y630D01*
X2477Y630D02*
X2483Y630D01*
X2541Y630D02*
X2547Y630D01*
X2313Y629D02*
X2319Y629D01*
X2341Y629D02*
X2347Y629D01*
X2365Y629D02*
X2372Y629D01*
X2420Y629D02*
X2426Y629D01*
X2434Y629D02*
X2440Y629D01*
X2477Y629D02*
X2483Y629D01*
X2541Y629D02*
X2547Y629D01*
X2313Y628D02*
X2319Y628D01*
X2341Y628D02*
X2347Y628D01*
X2365Y628D02*
X2372Y628D01*
X2420Y628D02*
X2426Y628D01*
X2434Y628D02*
X2440Y628D01*
X2477Y628D02*
X2483Y628D01*
X2540Y628D02*
X2547Y628D01*
X2313Y627D02*
X2319Y627D01*
X2341Y627D02*
X2347Y627D01*
X2364Y627D02*
X2371Y627D01*
X2420Y627D02*
X2426Y627D01*
X2434Y627D02*
X2440Y627D01*
X2477Y627D02*
X2483Y627D01*
X2539Y627D02*
X2547Y627D01*
X2313Y626D02*
X2319Y626D01*
X2341Y626D02*
X2347Y626D01*
X2364Y626D02*
X2370Y626D01*
X2420Y626D02*
X2426Y626D01*
X2434Y626D02*
X2440Y626D01*
X2477Y626D02*
X2483Y626D01*
X2538Y626D02*
X2546Y626D01*
X2313Y625D02*
X2319Y625D01*
X2341Y625D02*
X2347Y625D01*
X2364Y625D02*
X2370Y625D01*
X2420Y625D02*
X2426Y625D01*
X2434Y625D02*
X2440Y625D01*
X2477Y625D02*
X2483Y625D01*
X2537Y625D02*
X2546Y625D01*
X2313Y624D02*
X2319Y624D01*
X2340Y624D02*
X2347Y624D01*
X2363Y624D02*
X2370Y624D01*
X2417Y624D02*
X2442Y624D01*
X2477Y624D02*
X2483Y624D01*
X2535Y624D02*
X2545Y624D01*
X2313Y623D02*
X2319Y623D01*
X2340Y623D02*
X2346Y623D01*
X2363Y623D02*
X2369Y623D01*
X2416Y623D02*
X2444Y623D01*
X2477Y623D02*
X2483Y623D01*
X2534Y623D02*
X2544Y623D01*
X2313Y622D02*
X2319Y622D01*
X2339Y622D02*
X2346Y622D01*
X2363Y622D02*
X2369Y622D01*
X2415Y622D02*
X2445Y622D01*
X2477Y622D02*
X2483Y622D01*
X2533Y622D02*
X2543Y622D01*
X2313Y621D02*
X2346Y621D01*
X2363Y621D02*
X2369Y621D01*
X2414Y621D02*
X2446Y621D01*
X2477Y621D02*
X2483Y621D01*
X2532Y621D02*
X2542Y621D01*
X2313Y620D02*
X2345Y620D01*
X2363Y620D02*
X2369Y620D01*
X2414Y620D02*
X2446Y620D01*
X2477Y620D02*
X2483Y620D01*
X2531Y620D02*
X2540Y620D01*
X2313Y619D02*
X2345Y619D01*
X2363Y619D02*
X2369Y619D01*
X2413Y619D02*
X2446Y619D01*
X2477Y619D02*
X2483Y619D01*
X2530Y619D02*
X2539Y619D01*
X2313Y618D02*
X2344Y618D01*
X2363Y618D02*
X2370Y618D01*
X2413Y618D02*
X2447Y618D01*
X2477Y618D02*
X2483Y618D01*
X2492Y618D02*
X2495Y618D01*
X2528Y618D02*
X2538Y618D01*
X2313Y617D02*
X2343Y617D01*
X2364Y617D02*
X2370Y617D01*
X2413Y617D02*
X2419Y617D01*
X2441Y617D02*
X2447Y617D01*
X2477Y617D02*
X2483Y617D01*
X2491Y617D02*
X2496Y617D01*
X2527Y617D02*
X2537Y617D01*
X2313Y616D02*
X2341Y616D01*
X2364Y616D02*
X2370Y616D01*
X2413Y616D02*
X2419Y616D01*
X2441Y616D02*
X2447Y616D01*
X2477Y616D02*
X2483Y616D01*
X2491Y616D02*
X2496Y616D01*
X2527Y616D02*
X2536Y616D01*
X2313Y615D02*
X2339Y615D01*
X2364Y615D02*
X2371Y615D01*
X2413Y615D02*
X2419Y615D01*
X2441Y615D02*
X2447Y615D01*
X2477Y615D02*
X2483Y615D01*
X2491Y615D02*
X2497Y615D01*
X2527Y615D02*
X2535Y615D01*
X2313Y614D02*
X2319Y614D01*
X2365Y614D02*
X2371Y614D01*
X2413Y614D02*
X2419Y614D01*
X2441Y614D02*
X2447Y614D01*
X2477Y614D02*
X2483Y614D01*
X2491Y614D02*
X2497Y614D01*
X2527Y614D02*
X2533Y614D01*
X2313Y613D02*
X2319Y613D01*
X2365Y613D02*
X2372Y613D01*
X2413Y613D02*
X2419Y613D01*
X2441Y613D02*
X2447Y613D01*
X2477Y613D02*
X2483Y613D01*
X2491Y613D02*
X2497Y613D01*
X2527Y613D02*
X2533Y613D01*
X2313Y612D02*
X2319Y612D01*
X2366Y612D02*
X2372Y612D01*
X2413Y612D02*
X2419Y612D01*
X2441Y612D02*
X2447Y612D01*
X2477Y612D02*
X2483Y612D01*
X2491Y612D02*
X2497Y612D01*
X2527Y612D02*
X2533Y612D01*
X2313Y611D02*
X2319Y611D01*
X2366Y611D02*
X2373Y611D01*
X2413Y611D02*
X2419Y611D01*
X2441Y611D02*
X2447Y611D01*
X2477Y611D02*
X2483Y611D01*
X2491Y611D02*
X2497Y611D01*
X2527Y611D02*
X2533Y611D01*
X2313Y610D02*
X2319Y610D01*
X2367Y610D02*
X2374Y610D01*
X2413Y610D02*
X2419Y610D01*
X2441Y610D02*
X2447Y610D01*
X2477Y610D02*
X2483Y610D01*
X2491Y610D02*
X2497Y610D01*
X2527Y610D02*
X2533Y610D01*
X2313Y609D02*
X2319Y609D01*
X2367Y609D02*
X2374Y609D01*
X2413Y609D02*
X2419Y609D01*
X2441Y609D02*
X2447Y609D01*
X2477Y609D02*
X2483Y609D01*
X2491Y609D02*
X2497Y609D01*
X2527Y609D02*
X2533Y609D01*
X2313Y608D02*
X2319Y608D01*
X2368Y608D02*
X2375Y608D01*
X2413Y608D02*
X2419Y608D01*
X2441Y608D02*
X2447Y608D01*
X2477Y608D02*
X2483Y608D01*
X2491Y608D02*
X2497Y608D01*
X2527Y608D02*
X2533Y608D01*
X2313Y607D02*
X2319Y607D01*
X2368Y607D02*
X2375Y607D01*
X2413Y607D02*
X2419Y607D01*
X2441Y607D02*
X2447Y607D01*
X2477Y607D02*
X2483Y607D01*
X2491Y607D02*
X2497Y607D01*
X2527Y607D02*
X2533Y607D01*
X2313Y606D02*
X2319Y606D01*
X2369Y606D02*
X2376Y606D01*
X2413Y606D02*
X2419Y606D01*
X2441Y606D02*
X2447Y606D01*
X2477Y606D02*
X2483Y606D01*
X2491Y606D02*
X2497Y606D01*
X2527Y606D02*
X2533Y606D01*
X2313Y605D02*
X2319Y605D01*
X2369Y605D02*
X2376Y605D01*
X2413Y605D02*
X2419Y605D01*
X2441Y605D02*
X2447Y605D01*
X2477Y605D02*
X2483Y605D01*
X2491Y605D02*
X2497Y605D01*
X2527Y605D02*
X2533Y605D01*
X2313Y604D02*
X2319Y604D01*
X2370Y604D02*
X2377Y604D01*
X2413Y604D02*
X2419Y604D01*
X2441Y604D02*
X2447Y604D01*
X2477Y604D02*
X2483Y604D01*
X2491Y604D02*
X2497Y604D01*
X2527Y604D02*
X2533Y604D01*
X2313Y603D02*
X2319Y603D01*
X2370Y603D02*
X2377Y603D01*
X2413Y603D02*
X2419Y603D01*
X2441Y603D02*
X2447Y603D01*
X2477Y603D02*
X2483Y603D01*
X2491Y603D02*
X2497Y603D01*
X2527Y603D02*
X2533Y603D01*
X2313Y602D02*
X2319Y602D01*
X2371Y602D02*
X2378Y602D01*
X2413Y602D02*
X2419Y602D01*
X2441Y602D02*
X2447Y602D01*
X2477Y602D02*
X2483Y602D01*
X2491Y602D02*
X2497Y602D01*
X2527Y602D02*
X2533Y602D01*
X2313Y601D02*
X2319Y601D01*
X2371Y601D02*
X2380Y601D01*
X2413Y601D02*
X2419Y601D01*
X2440Y601D02*
X2447Y601D01*
X2476Y601D02*
X2483Y601D01*
X2490Y601D02*
X2497Y601D01*
X2527Y601D02*
X2533Y601D01*
X2313Y600D02*
X2319Y600D01*
X2372Y600D02*
X2395Y600D01*
X2413Y600D02*
X2447Y600D01*
X2464Y600D02*
X2497Y600D01*
X2527Y600D02*
X2533Y600D01*
X2313Y599D02*
X2319Y599D01*
X2372Y599D02*
X2396Y599D01*
X2413Y599D02*
X2446Y599D01*
X2464Y599D02*
X2497Y599D01*
X2527Y599D02*
X2533Y599D01*
X2313Y598D02*
X2319Y598D01*
X2373Y598D02*
X2397Y598D01*
X2414Y598D02*
X2446Y598D01*
X2463Y598D02*
X2497Y598D01*
X2527Y598D02*
X2533Y598D01*
X2313Y597D02*
X2319Y597D01*
X2374Y597D02*
X2397Y597D01*
X2414Y597D02*
X2445Y597D01*
X2463Y597D02*
X2497Y597D01*
X2527Y597D02*
X2533Y597D01*
X2313Y596D02*
X2319Y596D01*
X2375Y596D02*
X2396Y596D01*
X2415Y596D02*
X2445Y596D01*
X2463Y596D02*
X2496Y596D01*
X2527Y596D02*
X2532Y596D01*
X2314Y595D02*
X2318Y595D01*
X2377Y595D02*
X2396Y595D01*
X2416Y595D02*
X2443Y595D01*
X2464Y595D02*
X2496Y595D01*
X2528Y595D02*
X2532Y595D01*
X2316Y594D02*
X2316Y594D01*
X2380Y594D02*
X2394Y594D01*
X2419Y594D02*
X2441Y594D01*
X2466Y594D02*
X2494Y594D01*
X2530Y594D02*
X2530Y594D01*
X1891Y360D02*
X1894Y360D01*
X1938Y360D02*
X1941Y360D01*
X1890Y359D02*
X1895Y359D01*
X1937Y359D02*
X1942Y359D01*
X1890Y358D02*
X1895Y358D01*
X1937Y358D02*
X1942Y358D01*
X1889Y357D02*
X1895Y357D01*
X1937Y357D02*
X1943Y357D01*
X1889Y356D02*
X1895Y356D01*
X1937Y356D02*
X1943Y356D01*
X1889Y355D02*
X1895Y355D01*
X1937Y355D02*
X1943Y355D01*
X1889Y354D02*
X1895Y354D01*
X1937Y354D02*
X1943Y354D01*
X1889Y353D02*
X1895Y353D01*
X1937Y353D02*
X1943Y353D01*
X1889Y352D02*
X1895Y352D01*
X1937Y352D02*
X1943Y352D01*
X1889Y351D02*
X1895Y351D01*
X1937Y351D02*
X1943Y351D01*
X1889Y350D02*
X1895Y350D01*
X1937Y350D02*
X1943Y350D01*
X1889Y349D02*
X1895Y349D01*
X1937Y349D02*
X1943Y349D01*
X1889Y348D02*
X1895Y348D01*
X1937Y348D02*
X1943Y348D01*
X1889Y347D02*
X1896Y347D01*
X1936Y347D02*
X1943Y347D01*
X1889Y346D02*
X1943Y346D01*
X1889Y345D02*
X1943Y345D01*
X1889Y344D02*
X1943Y344D01*
X1889Y343D02*
X1943Y343D01*
X1889Y342D02*
X1943Y342D01*
X1889Y341D02*
X1943Y341D01*
X1889Y340D02*
X1942Y340D01*
X1889Y339D02*
X1895Y339D01*
X1889Y338D02*
X1895Y338D01*
X1889Y337D02*
X1895Y337D01*
X1889Y336D02*
X1895Y336D01*
X1889Y335D02*
X1895Y335D01*
X1889Y334D02*
X1895Y334D01*
X1889Y333D02*
X1911Y333D01*
X1889Y332D02*
X1912Y332D01*
X1889Y331D02*
X1913Y331D01*
X1889Y330D02*
X1913Y330D01*
X1890Y329D02*
X1913Y329D01*
X1890Y328D02*
X1913Y328D01*
X1891Y327D02*
X1912Y327D01*
X1893Y310D02*
X1939Y310D01*
X1892Y309D02*
X1940Y309D01*
X1891Y308D02*
X1941Y308D01*
X1890Y307D02*
X1942Y307D01*
X1890Y306D02*
X1942Y306D01*
X1890Y305D02*
X1943Y305D01*
X1889Y304D02*
X1943Y304D01*
X1889Y303D02*
X1895Y303D01*
X1937Y303D02*
X1943Y303D01*
X1889Y302D02*
X1895Y302D01*
X1937Y302D02*
X1943Y302D01*
X1889Y301D02*
X1895Y301D01*
X1937Y301D02*
X1943Y301D01*
X1889Y300D02*
X1895Y300D01*
X1937Y300D02*
X1943Y300D01*
X1889Y299D02*
X1895Y299D01*
X1937Y299D02*
X1943Y299D01*
X1889Y298D02*
X1895Y298D01*
X1937Y298D02*
X1943Y298D01*
X1889Y297D02*
X1895Y297D01*
X1937Y297D02*
X1943Y297D01*
X1889Y296D02*
X1895Y296D01*
X1937Y296D02*
X1943Y296D01*
X1889Y295D02*
X1895Y295D01*
X1937Y295D02*
X1943Y295D01*
X1889Y294D02*
X1895Y294D01*
X1937Y294D02*
X1943Y294D01*
X1889Y293D02*
X1895Y293D01*
X1937Y293D02*
X1943Y293D01*
X1889Y292D02*
X1895Y292D01*
X1937Y292D02*
X1943Y292D01*
X1889Y291D02*
X1895Y291D01*
X1937Y291D02*
X1943Y291D01*
X1889Y290D02*
X1895Y290D01*
X1937Y290D02*
X1943Y290D01*
X1889Y289D02*
X1895Y289D01*
X1937Y289D02*
X1943Y289D01*
X1889Y288D02*
X1895Y288D01*
X1937Y288D02*
X1943Y288D01*
X1889Y287D02*
X1895Y287D01*
X1937Y287D02*
X1943Y287D01*
X1889Y286D02*
X1895Y286D01*
X1937Y286D02*
X1943Y286D01*
X1889Y285D02*
X1895Y285D01*
X1937Y285D02*
X1943Y285D01*
X1889Y284D02*
X1895Y284D01*
X1937Y284D02*
X1943Y284D01*
X1889Y283D02*
X1943Y283D01*
X1890Y282D02*
X1943Y282D01*
X1890Y281D02*
X1942Y281D01*
X1890Y280D02*
X1942Y280D01*
X1891Y279D02*
X1941Y279D01*
X1892Y278D02*
X1940Y278D01*
X1893Y277D02*
X1939Y277D01*
X1891Y260D02*
X1941Y260D01*
X1890Y259D02*
X1942Y259D01*
X1890Y258D02*
X1942Y258D01*
X1890Y257D02*
X1943Y257D01*
X1890Y256D02*
X1942Y256D01*
X1890Y255D02*
X1942Y255D01*
X1892Y254D02*
X1940Y254D01*
X1904Y253D02*
X1912Y253D01*
X1905Y252D02*
X1913Y252D01*
X1906Y251D02*
X1914Y251D01*
X1906Y250D02*
X1915Y250D01*
X1905Y249D02*
X1915Y249D01*
X1904Y248D02*
X1916Y248D01*
X1903Y247D02*
X1917Y247D01*
X1902Y246D02*
X1918Y246D01*
X1901Y245D02*
X1919Y245D01*
X1901Y244D02*
X1909Y244D01*
X1911Y244D02*
X1920Y244D01*
X1900Y243D02*
X1908Y243D01*
X1912Y243D02*
X1921Y243D01*
X1899Y242D02*
X1907Y242D01*
X1913Y242D02*
X1921Y242D01*
X1898Y241D02*
X1906Y241D01*
X1914Y241D02*
X1922Y241D01*
X1897Y240D02*
X1905Y240D01*
X1915Y240D02*
X1923Y240D01*
X1896Y239D02*
X1905Y239D01*
X1916Y239D02*
X1924Y239D01*
X1895Y238D02*
X1904Y238D01*
X1917Y238D02*
X1925Y238D01*
X1895Y237D02*
X1903Y237D01*
X1917Y237D02*
X1926Y237D01*
X1894Y236D02*
X1902Y236D01*
X1918Y236D02*
X1927Y236D01*
X1893Y235D02*
X1901Y235D01*
X1919Y235D02*
X1927Y235D01*
X1892Y234D02*
X1900Y234D01*
X1920Y234D02*
X1928Y234D01*
X1891Y233D02*
X1899Y233D01*
X1921Y233D02*
X1928Y233D01*
X1890Y232D02*
X1899Y232D01*
X1922Y232D02*
X1928Y232D01*
X1890Y231D02*
X1898Y231D01*
X1923Y231D02*
X1927Y231D01*
X1890Y230D02*
X1897Y230D01*
X1924Y230D02*
X1926Y230D01*
X1890Y229D02*
X1896Y229D01*
X1890Y228D02*
X1895Y228D01*
X1891Y227D02*
X1894Y227D01*
X1890Y217D02*
X1894Y217D01*
X1889Y216D02*
X1894Y216D01*
X1919Y216D02*
X1919Y216D01*
X1889Y215D02*
X1894Y215D01*
X1913Y215D02*
X1926Y215D01*
X1889Y214D02*
X1894Y214D01*
X1910Y214D02*
X1928Y214D01*
X1889Y213D02*
X1894Y213D01*
X1909Y213D02*
X1930Y213D01*
X1889Y212D02*
X1894Y212D01*
X1907Y212D02*
X1932Y212D01*
X1889Y211D02*
X1894Y211D01*
X1906Y211D02*
X1933Y211D01*
X1889Y210D02*
X1894Y210D01*
X1905Y210D02*
X1934Y210D01*
X1889Y209D02*
X1894Y209D01*
X1904Y209D02*
X1918Y209D01*
X1920Y209D02*
X1935Y209D01*
X1889Y208D02*
X1894Y208D01*
X1903Y208D02*
X1912Y208D01*
X1926Y208D02*
X1936Y208D01*
X1889Y207D02*
X1894Y207D01*
X1902Y207D02*
X1910Y207D01*
X1928Y207D02*
X1936Y207D01*
X1889Y206D02*
X1894Y206D01*
X1901Y206D02*
X1908Y206D01*
X1930Y206D02*
X1937Y206D01*
X1889Y205D02*
X1894Y205D01*
X1900Y205D02*
X1907Y205D01*
X1931Y205D02*
X1938Y205D01*
X1889Y204D02*
X1895Y204D01*
X1900Y204D02*
X1906Y204D01*
X1932Y204D02*
X1938Y204D01*
X1889Y203D02*
X1905Y203D01*
X1933Y203D02*
X1938Y203D01*
X1889Y202D02*
X1904Y202D01*
X1933Y202D02*
X1939Y202D01*
X1889Y201D02*
X1904Y201D01*
X1934Y201D02*
X1939Y201D01*
X1889Y200D02*
X1903Y200D01*
X1934Y200D02*
X1939Y200D01*
X1889Y199D02*
X1902Y199D01*
X1934Y199D02*
X1940Y199D01*
X1935Y198D02*
X1940Y198D01*
X1935Y197D02*
X1940Y197D01*
X1935Y196D02*
X1940Y196D01*
X1935Y195D02*
X1940Y195D01*
X1935Y194D02*
X1940Y194D01*
X1935Y193D02*
X1940Y193D01*
X1935Y192D02*
X1940Y192D01*
X1935Y191D02*
X1940Y191D01*
X1890Y190D02*
X1901Y190D01*
X1935Y190D02*
X1940Y190D01*
X1889Y189D02*
X1902Y189D01*
X1934Y189D02*
X1940Y189D01*
X1889Y188D02*
X1903Y188D01*
X1934Y188D02*
X1939Y188D01*
X1889Y187D02*
X1904Y187D01*
X1934Y187D02*
X1939Y187D01*
X1889Y186D02*
X1904Y186D01*
X1933Y186D02*
X1939Y186D01*
X1889Y185D02*
X1905Y185D01*
X1932Y185D02*
X1938Y185D01*
X1889Y184D02*
X1894Y184D01*
X1900Y184D02*
X1906Y184D01*
X1932Y184D02*
X1938Y184D01*
X1889Y183D02*
X1894Y183D01*
X1900Y183D02*
X1907Y183D01*
X1931Y183D02*
X1937Y183D01*
X1889Y182D02*
X1894Y182D01*
X1901Y182D02*
X1909Y182D01*
X1929Y182D02*
X1937Y182D01*
X1889Y181D02*
X1894Y181D01*
X1902Y181D02*
X1911Y181D01*
X1927Y181D02*
X1936Y181D01*
X1889Y180D02*
X1894Y180D01*
X1903Y180D02*
X1913Y180D01*
X1924Y180D02*
X1936Y180D01*
X1889Y179D02*
X1894Y179D01*
X1904Y179D02*
X1935Y179D01*
X1889Y178D02*
X1894Y178D01*
X1905Y178D02*
X1934Y178D01*
X1889Y177D02*
X1894Y177D01*
X1906Y177D02*
X1933Y177D01*
X1889Y176D02*
X1894Y176D01*
X1907Y176D02*
X1931Y176D01*
X1889Y175D02*
X1894Y175D01*
X1909Y175D02*
X1929Y175D01*
X1889Y174D02*
X1894Y174D01*
X1912Y174D02*
X1927Y174D01*
X1889Y173D02*
X1894Y173D01*
X1915Y173D02*
X1924Y173D01*
X1889Y172D02*
X1894Y172D01*
D02*
G04 End of Silk1*
M02*